<svg width="375" height="566" viewBox="0 0 375 566" fill="none" xmlns="http://www.w3.org/2000/svg">
<g opacity="0.05">
<path d="M326.551 501.45C326.551 501.45 330.536 502.309 332.121 505.736L329.296 508.16L327.093 507.31L327.021 510.073L315.913 519.534C315.913 519.534 310.631 523.809 310.927 519.23C311.064 517.584 312.645 519.915 318.094 513.107L323.561 503.916L326.551 501.45Z" fill="url(#paint0_radial_769_1452)"/>
<path d="M358.035 253.843C358.035 253.843 295.085 335.378 297.829 421.094C300.531 506.892 302.055 500.921 302.055 500.921L287.918 510.195C287.918 510.195 235.502 398.68 287.393 294.604C339.167 190.487 358.035 253.843 358.035 253.843Z" fill="url(#paint1_radial_769_1452)"/>
<path d="M336.638 373.189C336.638 373.189 340.849 370.249 344.45 370.26L343.311 373.601L340.755 375.105L342.344 376.331L337.675 389.655C337.675 389.655 335.276 395.911 332.835 393.717C331.959 392.932 334.805 392.584 335.882 385.099L335.458 376.611L336.638 373.189Z" fill="url(#paint2_radial_769_1452)"/>
<path d="M286.519 227.369C286.519 227.369 210.283 266.798 181.2 320.74C152.164 374.596 309.311 379.494 309.311 379.494L311.252 366.863C311.252 366.863 227.317 324.785 220.109 329.093C220.109 329.093 355.141 275.819 349.928 221.113C344.59 166.365 286.519 227.369 286.519 227.369Z" fill="url(#paint3_radial_769_1452)"/>
<path d="M143.086 206.502C143.086 206.502 163.839 210.316 189.663 205.775C213.852 201.586 242.472 190.134 262.643 161.408C263.212 160.594 263.781 159.779 264.349 158.965L269.035 131.939L274.199 102.456C273.345 103.678 210.108 191.047 146.713 197.153L143.086 206.502Z" fill="url(#paint4_linear_769_1452)"/>
<path opacity="0.06" d="M196.813 207.907C220.017 203.814 247.465 192.651 266.793 164.685C267.338 163.891 267.883 163.098 268.428 162.305L272.901 136.004L270.969 130.93C270.874 131.388 247.543 194.54 196.813 207.907Z" fill="black"/>
<path d="M267.112 193.062C265.62 217.851 265.388 238.27 265.388 238.27C265.388 238.27 278.062 253.478 278.927 253.472C279.793 253.466 288.128 239.602 288.128 239.602L297.035 250.429L327.006 232.122C327.006 232.122 326.069 223.805 325.149 209.494C323.225 177.843 357.548 98.024 357.548 98.024C346.525 93.7764 323.586 94.0765 323.586 94.0765L303.968 101.005L280.329 109.866C277.503 114.904 275.194 123.519 273.342 133.888C271.473 144.151 270.06 156.169 269.014 168.312C268.158 176.62 267.608 185.031 267.112 193.062Z" fill="url(#paint5_radial_769_1452)"/>
<path d="M306.695 66.13L308.474 99.5721L288.812 108.617L284.97 104.695C284.97 104.695 290.217 81.8962 289.038 68.804C287.859 55.7118 306.284 46.9523 306.695 66.13Z" fill="url(#paint6_linear_769_1452)"/>
<path d="M298.544 57.5951L289.342 79.7061L276.008 79.412L288.636 41.4982C288.62 41.3949 307.746 35.484 298.544 57.5951Z" fill="url(#paint7_linear_769_1452)"/>
<path d="M295.067 63.0446C295.067 63.0446 295.237 55.7953 299.43 45.2077C299.43 45.2077 281.507 46.4616 281.529 40.9369C281.441 35.4791 286.715 27.4486 290.502 30.1888C294.242 33.0176 289.703 38.0605 297.713 37.9474C305.788 37.856 302.81 43.5306 302.81 43.5306C302.81 43.5306 306.915 45.2303 304.734 51.6958C302.488 58.1395 299.579 71.04 299.579 71.04L295.067 63.0446Z" fill="url(#paint8_radial_769_1452)"/>
<path d="M297.758 65.8863L301.282 56.8183C301.282 56.8183 303.126 56.034 302.634 59.6776C302.182 63.24 298.978 66.8867 297.758 65.8863Z" fill="url(#paint9_linear_769_1452)"/>
<path d="M137.2 184.418L124.003 179.792C124.003 179.792 119.445 181.975 123.079 184.278C126.712 186.581 133.508 188.306 133.508 188.306L121.321 187.287C121.321 187.287 119.971 191.412 126.164 191.083L132.01 193.144L120.084 192.648C120.084 192.648 120.717 196.238 124.716 194.958L130.644 196.72L120.862 198.138C120.862 198.138 122.069 200.939 125.594 199.392L136.997 199.277L137.2 184.418Z" fill="url(#paint10_linear_769_1452)"/>
<path d="M146.194 192.647C146.194 192.647 146.495 183.923 138.118 181.885C129.741 179.846 131.896 180.242 131.896 180.242C131.896 180.242 131.776 187.196 137.465 185.972C137.465 185.972 132.932 197.481 134.68 200.216C136.428 202.951 142.068 202.678 142.068 202.678L146.194 192.647Z" fill="url(#paint11_linear_769_1452)"/>
<path d="M274.75 107.274C274.75 107.274 239.908 150.493 230.521 152.684C230.521 152.684 242.498 179.302 252.523 179.688L263.71 164.841L274.75 107.274Z" fill="url(#paint12_radial_769_1452)"/>
<path d="M457.776 185.675L389.736 321.867C387.376 326.555 382.776 329.643 379.406 328.741L224.629 288.416C221.259 287.515 220.403 283.049 222.763 278.361L290.803 142.169C293.163 137.481 297.763 134.393 301.133 135.294L455.91 175.619C459.265 176.408 460.136 180.987 457.776 185.675Z" fill="url(#paint13_linear_769_1452)"/>
<path d="M405.323 310.761L228.453 261.893L248.88 219.507L425.75 268.374L405.323 310.761Z" fill="url(#paint14_linear_769_1452)"/>
<path d="M271.885 218.251L261.466 215.54C258.156 214.655 257.312 210.269 259.627 205.663L263.442 197.974C265.756 193.369 270.271 190.335 273.581 191.219L284 193.93C287.31 194.815 288.154 199.202 285.84 203.807L282.025 211.496C279.822 216.033 275.195 219.135 271.885 218.251Z" fill="white"/>
<path d="M405.017 244.017L308.353 215.146L311.243 208.91L407.834 237.753L405.017 244.017Z" fill="url(#paint15_linear_769_1452)"/>
<path d="M402.549 250.631L305.935 221.763L308.827 215.522L405.382 244.508L402.549 250.631Z" fill="url(#paint16_linear_769_1452)"/>
<path d="M353.738 242.59L303.166 227.786L305.946 221.882L356.575 236.571L353.738 242.59Z" fill="url(#paint17_linear_769_1452)"/>
<path opacity="0.06" d="M359.785 161.408L398.514 172.785C398.514 172.785 348.06 271.668 340.092 278.961C332.18 286.272 331.075 273.837 332.844 272.42C334.67 271.022 337.597 269.134 337.597 269.134C337.597 269.134 331.398 268.933 334.533 266.249C337.667 263.564 360.642 243.777 362.922 211.094C365.16 178.493 359.785 161.408 359.785 161.408Z" fill="black"/>
<path d="M364.449 102.711C364.449 102.711 405.136 112.021 390.017 177.4C382.968 207.977 342.743 264.692 342.743 264.692L337.856 260.203C337.856 260.203 388.162 163.048 346.022 151.2L364.449 102.711Z" fill="url(#paint18_linear_769_1452)"/>
<path d="M348.37 258.68C348.37 258.68 343.624 257.926 339.378 262.2C339.378 262.2 340.243 264.453 342.861 263.256L337.028 269.276C337.028 269.276 339.585 279.022 345.452 274.048C349.203 270.851 353.705 263.457 353.705 263.457L348.37 258.68Z" fill="url(#paint19_linear_769_1452)"/>
<path d="M384.568 128.747C384.568 128.747 362.899 157.896 350.957 164.718C350.957 164.718 346.921 156.491 338.14 152.946C338.14 152.946 346.867 119.061 357.756 102.685C357.756 102.685 376.162 104.497 384.568 128.747Z" fill="url(#paint20_radial_769_1452)"/>
<path opacity="0.45" d="M306.695 521.633C248.791 523.594 201.826 525.451 201.795 525.78C201.764 526.11 248.68 524.788 306.584 522.827C364.488 520.866 411.454 519.009 411.485 518.68C411.515 518.35 364.6 519.672 306.695 521.633Z" fill="url(#paint21_linear_769_1452)"/>
</g>
<defs>
<radialGradient id="paint0_radial_769_1452" cx="0" cy="0" r="1" gradientUnits="userSpaceOnUse" gradientTransform="translate(253.515 550.976) rotate(139.63) scale(94.0992 67.5644)">
<stop stop-color="#FFFFAB"/>
<stop offset="0.5498" stop-color="#CD00FF"/>
<stop offset="1" stop-color="#5739D8"/>
</radialGradient>
<radialGradient id="paint1_radial_769_1452" cx="0" cy="0" r="1" gradientUnits="userSpaceOnUse" gradientTransform="translate(376.955 577.732) rotate(42.6127) scale(22.0823 33.418)">
<stop stop-color="#FFFFAB"/>
<stop offset="0.5498" stop-color="#CD00FF"/>
<stop offset="1" stop-color="#5739D8"/>
</radialGradient>
<radialGradient id="paint2_radial_769_1452" cx="0" cy="0" r="1" gradientUnits="userSpaceOnUse" gradientTransform="translate(298.262 455.485) rotate(109.39) scale(91.1542 62.8406)">
<stop stop-color="#FFFFAB"/>
<stop offset="0.5498" stop-color="#CD00FF"/>
<stop offset="1" stop-color="#5739D8"/>
</radialGradient>
<radialGradient id="paint3_radial_769_1452" cx="0" cy="0" r="1" gradientUnits="userSpaceOnUse" gradientTransform="translate(31.2449 515.715) rotate(41.9458) scale(281.953 425.746)">
<stop stop-color="#FFFFAB"/>
<stop offset="0.5498" stop-color="#CD00FF"/>
<stop offset="1" stop-color="#5739D8"/>
</radialGradient>
<linearGradient id="paint4_linear_769_1452" x1="150.005" y1="101.673" x2="263.77" y2="189.402" gradientUnits="userSpaceOnUse">
<stop stop-color="#FFFAC0"/>
<stop offset="0.5439" stop-color="#FFC880"/>
<stop offset="1" stop-color="#EF6262"/>
</linearGradient>
<radialGradient id="paint5_radial_769_1452" cx="0" cy="0" r="1" gradientUnits="userSpaceOnUse" gradientTransform="translate(245.557 73.3057) rotate(159.966) scale(210.001 200.448)">
<stop offset="0.00263467" stop-color="#FFF6A6"/>
<stop offset="0.5071" stop-color="#219DDB"/>
<stop offset="1" stop-color="#10488C"/>
</radialGradient>
<linearGradient id="paint6_linear_769_1452" x1="243.183" y1="160.49" x2="313.269" y2="64.5071" gradientUnits="userSpaceOnUse">
<stop stop-color="#FFFAC0"/>
<stop offset="0.5439" stop-color="#FFC880"/>
<stop offset="1" stop-color="#EF6262"/>
</linearGradient>
<linearGradient id="paint7_linear_769_1452" x1="276.41" y1="54.142" x2="298.414" y2="67.9953" gradientUnits="userSpaceOnUse">
<stop stop-color="#FFFAC0"/>
<stop offset="0.5439" stop-color="#FFC880"/>
<stop offset="1" stop-color="#EF6262"/>
</linearGradient>
<radialGradient id="paint8_radial_769_1452" cx="0" cy="0" r="1" gradientUnits="userSpaceOnUse" gradientTransform="translate(261.204 -5.37236) rotate(41.9053) scale(92.4538 139.634)">
<stop stop-color="#FFFFAB"/>
<stop offset="0.5498" stop-color="#CD00FF"/>
<stop offset="1" stop-color="#5739D8"/>
</radialGradient>
<linearGradient id="paint9_linear_769_1452" x1="327.185" y1="36.5957" x2="284.094" y2="55.8277" gradientUnits="userSpaceOnUse">
<stop stop-color="#FFFAC0"/>
<stop offset="0.5439" stop-color="#FFC880"/>
<stop offset="1" stop-color="#EF6262"/>
</linearGradient>
<linearGradient id="paint10_linear_769_1452" x1="102.874" y1="184.83" x2="131.75" y2="198.818" gradientUnits="userSpaceOnUse">
<stop stop-color="#FFFAC0"/>
<stop offset="0.5439" stop-color="#FFC880"/>
<stop offset="1" stop-color="#EF6262"/>
</linearGradient>
<linearGradient id="paint11_linear_769_1452" x1="181.179" y1="208.637" x2="118.621" y2="173.665" gradientUnits="userSpaceOnUse">
<stop stop-color="#FFFAC0"/>
<stop offset="0.5439" stop-color="#FFC880"/>
<stop offset="1" stop-color="#EF6262"/>
</linearGradient>
<radialGradient id="paint12_radial_769_1452" cx="0" cy="0" r="1" gradientUnits="userSpaceOnUse" gradientTransform="translate(240.802 72.4976) rotate(42.3433) scale(138.756 209.778)">
<stop offset="0.00263467" stop-color="#FFF6A6"/>
<stop offset="0.5071" stop-color="#219DDB"/>
<stop offset="1" stop-color="#10488C"/>
</radialGradient>
<linearGradient id="paint13_linear_769_1452" x1="637.515" y1="218.006" x2="-156.206" y2="-38.0557" gradientUnits="userSpaceOnUse">
<stop stop-color="#FFE75C"/>
<stop offset="1" stop-color="#FF2A00"/>
</linearGradient>
<linearGradient id="paint14_linear_769_1452" x1="473.397" y1="251.462" x2="213.087" y2="171.649" gradientUnits="userSpaceOnUse">
<stop stop-color="#FFE75C"/>
<stop offset="1" stop-color="#FF2A00"/>
</linearGradient>
<linearGradient id="paint15_linear_769_1452" x1="428.807" y1="216.647" x2="-142.4" y2="69.8562" gradientUnits="userSpaceOnUse">
<stop stop-color="#FFE75C"/>
<stop offset="1" stop-color="#FF2A00"/>
</linearGradient>
<linearGradient id="paint16_linear_769_1452" x1="428.573" y1="222.967" x2="-142.804" y2="76.1726" gradientUnits="userSpaceOnUse">
<stop stop-color="#FFE75C"/>
<stop offset="1" stop-color="#FF2A00"/>
</linearGradient>
<linearGradient id="paint17_linear_769_1452" x1="429.289" y1="218.664" x2="-134.074" y2="72.2312" gradientUnits="userSpaceOnUse">
<stop stop-color="#FFE75C"/>
<stop offset="1" stop-color="#FF2A00"/>
</linearGradient>
<linearGradient id="paint18_linear_769_1452" x1="390.909" y1="329.773" x2="276.51" y2="164.075" gradientUnits="userSpaceOnUse">
<stop stop-color="#FFFAC0"/>
<stop offset="0.5439" stop-color="#FFC880"/>
<stop offset="1" stop-color="#EF6262"/>
</linearGradient>
<linearGradient id="paint19_linear_769_1452" x1="343.199" y1="287.974" x2="328.423" y2="245.071" gradientUnits="userSpaceOnUse">
<stop stop-color="#FFFAC0"/>
<stop offset="0.5439" stop-color="#FFC880"/>
<stop offset="1" stop-color="#EF6262"/>
</linearGradient>
<radialGradient id="paint20_radial_769_1452" cx="0" cy="0" r="1" gradientUnits="userSpaceOnUse" gradientTransform="translate(424.198 95.4195) rotate(42.3884) scale(91.1876 141.066)">
<stop offset="0.00263467" stop-color="#FFF6A6"/>
<stop offset="0.5071" stop-color="#219DDB"/>
<stop offset="1" stop-color="#10488C"/>
</radialGradient>
<linearGradient id="paint21_linear_769_1452" x1="411.485" y1="518.677" x2="204.283" y2="499.37" gradientUnits="userSpaceOnUse">
<stop stop-color="#6E7E8B"/>
<stop offset="1" stop-color="#5E4AED"/>
</linearGradient>
</defs>
</svg>
