<svg width="346" height="368" viewBox="0 0 346 368" fill="none" xmlns="http://www.w3.org/2000/svg">
<g opacity="0.05">
<path d="M310.618 253.791L196.294 277.309C188.8 278.862 181.391 273.978 179.841 266.44L133.498 40.294C131.948 32.784 136.822 25.3588 144.344 23.806L258.668 0.287954C266.162 -1.26486 273.572 3.61944 275.121 11.1576L321.465 237.303C323.014 244.841 318.141 252.238 310.618 253.791Z" fill="url(#paint0_linear_39_1298)"/>
<path d="M265.713 15.9939L144.117 41.022L190.064 265.209L311.66 240.181L265.713 15.9939Z" fill="#F9FDFF"/>
<path d="M213.282 19.1757L193.505 23.2413C193.083 23.326 192.688 23.0437 192.604 22.6484L192.547 22.3378C192.463 21.9143 192.744 21.5191 193.139 21.4344L212.916 17.3688C213.339 17.2841 213.733 17.5665 213.818 17.9617L213.874 18.2723C213.958 18.6958 213.705 19.091 213.282 19.1757Z" fill="white"/>
<path d="M261.204 76.6014C260.951 75.5286 260.81 74.9639 260.81 74.9639C260.5 75.4439 260.162 75.8956 259.852 76.3473" stroke="#3A0054" stroke-miterlimit="10"/>
<path d="M257.992 78.5213C245.681 91.5649 225.65 82.3328 218.466 78.3237" stroke="#3A0054" stroke-miterlimit="10" stroke-dasharray="12.18 12.18"/>
<path d="M217.254 77.6179C216.325 77.0815 215.818 76.7427 215.818 76.7427C215.818 76.7427 215.48 77.2791 214.888 78.1543" stroke="#3A0054" stroke-miterlimit="10"/>
<path d="M213.169 80.4411C207.45 87.8663 193.11 103.112 176.855 95.348" stroke="#3A0054" stroke-miterlimit="10" stroke-dasharray="12.18 12.18"/>
<path d="M175.587 94.6987C175.108 94.4446 174.63 94.1341 174.122 93.8517C174.122 93.8517 174.235 94.4446 174.432 95.5175" stroke="#3A0054" stroke-miterlimit="10"/>
<path d="M175.052 98.2279C178.715 114.151 194.125 168.726 236.271 183.604" stroke="#3A0054" stroke-miterlimit="10" stroke-dasharray="11.9 11.9"/>
<path d="M237.595 184.084C238.13 184.253 238.666 184.423 239.201 184.592C239.624 184.225 240.046 183.83 240.469 183.463" stroke="#3A0054" stroke-miterlimit="10"/>
<path d="M242.469 181.515C274.445 149.245 264.472 91.7061 261.486 77.9567" stroke="#3A0054" stroke-miterlimit="10" stroke-dasharray="11.9 11.9"/>
<path d="M239.455 178.889C239.06 179.285 238.666 179.68 238.243 180.075C237.708 179.906 237.173 179.708 236.638 179.511" stroke="#3A0054" stroke-miterlimit="10"/>
<path d="M234.102 178.466C225.396 174.767 217.339 168.951 210.127 161.159C202.858 153.31 196.379 143.429 190.885 131.797C185.842 121.125 182.546 110.904 180.574 103.649" stroke="#3A0054" stroke-miterlimit="10" stroke-dasharray="11.65 11.65"/>
<path d="M180.208 102.35C180.067 101.785 179.926 101.249 179.785 100.713C180.32 100.854 180.884 100.995 181.419 101.08" stroke="#3A0054" stroke-miterlimit="10"/>
<path d="M184.264 101.447C186.631 101.616 189.054 101.447 191.477 100.91C201.9 98.6234 210.324 90.2947 215.029 84.5352" stroke="#3A0054" stroke-miterlimit="10" stroke-dasharray="12.22 12.22"/>
<path d="M215.93 83.434C216.296 82.954 216.634 82.5023 216.973 82.0788C217.423 82.3329 217.93 82.587 218.466 82.8693" stroke="#3A0054" stroke-miterlimit="10"/>
<path d="M221.03 84.1396C227.791 87.2735 238.159 90.7462 247.935 88.6005C250.865 87.9511 253.541 86.8782 255.964 85.3537" stroke="#3A0054" stroke-miterlimit="10" stroke-dasharray="12.22 12.22"/>
<path d="M257.175 84.5632C257.626 84.2244 258.076 83.8857 258.527 83.5469C258.612 84.0833 258.724 84.6479 258.809 85.2126" stroke="#3A0054" stroke-miterlimit="10"/>
<path d="M259.26 87.9231C260.387 95.2637 261.486 105.371 261.316 116.467C261.147 129.341 259.344 141.001 255.992 151.165C252.499 161.752 247.258 170.73 240.412 177.901" stroke="#3A0054" stroke-miterlimit="10" stroke-dasharray="11.65 11.65"/>
<path d="M229.228 132.051L228.326 133.462L226.89 132.559" stroke="#3A0054" stroke-miterlimit="10"/>
<path d="M224.495 131.006L217.395 126.433C215.874 125.473 213.874 125.896 212.888 127.421C211.93 128.945 212.352 130.95 213.874 131.938L227.537 140.747C229.059 141.707 231.059 141.283 232.045 139.759L248.695 113.812C249.653 112.288 249.23 110.283 247.709 109.295C246.188 108.335 244.187 108.759 243.201 110.283L230.017 130.865" stroke="#3A0054" stroke-miterlimit="10" stroke-dasharray="12.17 12.17"/>
<path d="M109.629 126.785L110.394 130.245C110.416 130.333 110.219 130.464 109.848 130.639C109.498 130.792 108.996 130.989 108.34 131.208C107.969 131.34 107.554 131.471 107.095 131.603C106.636 131.734 106.112 131.887 105.565 132.04C105.15 132.15 104.713 132.281 104.254 132.391C103.774 132.522 103.249 132.654 102.725 132.807C102.31 132.916 101.895 133.026 101.458 133.135C100.955 133.267 100.453 133.376 99.9063 133.508C99.4474 133.617 98.9668 133.727 98.5079 133.836C98.0054 133.945 97.481 134.077 96.9566 134.186C96.7162 134.23 96.4759 134.296 96.2355 134.34C96.0389 134.383 95.8641 134.427 95.6675 134.471C95.1431 134.58 94.6187 134.69 94.1161 134.799C93.6136 134.909 93.111 135.018 92.6304 135.106C92.106 135.215 91.5816 135.325 91.079 135.413C90.642 135.5 90.205 135.588 89.7899 135.653C89.2437 135.763 88.7193 135.85 88.2167 135.938C87.7142 136.026 87.2335 136.113 86.7965 136.179C86.2284 136.266 85.704 136.354 85.2233 136.42C84.7426 136.485 84.3056 136.551 83.9342 136.595C83.2569 136.683 82.7106 136.726 82.3392 136.726C81.924 136.726 81.7055 136.683 81.6837 136.595L80.9189 133.135L109.629 126.785Z" fill="url(#paint1_radial_39_1298)"/>
<g opacity="0.7">
<path opacity="0.7" d="M83.082 132.719L83.956 136.66C83.2786 136.748 82.7324 136.792 82.3609 136.792L81.5306 133.069L83.082 132.719Z" fill="url(#paint2_linear_39_1298)"/>
<path opacity="0.7" d="M85.9006 132.106L86.8183 136.244C86.2502 136.332 85.7258 136.42 85.2451 136.485L84.3492 132.434L85.9006 132.106Z" fill="url(#paint3_linear_39_1298)"/>
<g opacity="0.7">
<path opacity="0.7" d="M88.8721 131.427L89.8335 135.697C89.2873 135.806 88.7629 135.894 88.2603 135.982L87.3208 131.777L88.8721 131.427Z" fill="url(#paint4_linear_39_1298)"/>
<path opacity="0.7" d="M91.6908 130.792L92.6521 135.128C92.1277 135.237 91.6034 135.347 91.1008 135.434L90.1394 131.142L91.6908 130.792Z" fill="url(#paint5_linear_39_1298)"/>
</g>
<g opacity="0.7">
<g opacity="0.7">
<path opacity="0.7" d="M94.7062 130.113L95.6676 134.471C95.1432 134.58 94.6188 134.69 94.1163 134.799L93.1549 130.463L94.7062 130.113Z" fill="url(#paint6_linear_39_1298)"/>
<path opacity="0.7" d="M97.5468 129.478L98.5082 133.814C98.0057 133.923 97.4813 134.055 96.9569 134.164L95.9955 129.807L97.5468 129.478Z" fill="url(#paint7_linear_39_1298)"/>
</g>
<g opacity="0.7">
<path opacity="0.7" d="M100.496 128.821L101.458 133.113C100.955 133.244 100.453 133.354 99.9065 133.485L98.9451 129.15L100.496 128.821Z" fill="url(#paint8_linear_39_1298)"/>
<path opacity="0.7" d="M103.337 128.186L104.276 132.39C103.796 132.522 103.271 132.653 102.747 132.806L101.786 128.537L103.337 128.186Z" fill="url(#paint9_linear_39_1298)"/>
</g>
</g>
<path opacity="0.7" d="M106.199 127.551L107.095 131.602C106.636 131.734 106.112 131.887 105.565 132.04L104.648 127.902L106.199 127.551Z" fill="url(#paint10_linear_39_1298)"/>
<path opacity="0.7" d="M109.018 126.916L109.848 130.639C109.498 130.792 108.996 130.989 108.34 131.208L107.466 127.267L109.018 126.916Z" fill="url(#paint11_linear_39_1298)"/>
</g>
<path d="M109.629 126.785C109.739 127.289 103.402 129.128 95.4707 130.902C87.5393 132.675 81.0281 133.726 80.9189 133.223C80.8096 132.719 87.146 130.88 95.0775 129.106C103.009 127.311 109.52 126.281 109.629 126.785Z" fill="url(#paint12_linear_39_1298)"/>
<path d="M109.127 101.477L106.506 103.616C106.444 103.666 106.244 103.566 105.932 103.316C105.645 103.091 105.271 102.728 104.809 102.265C104.547 102.003 104.247 101.69 103.935 101.365C103.611 101.027 103.274 100.652 102.899 100.239C102.625 99.939 102.337 99.6138 102.038 99.2635C101.713 98.9008 101.376 98.5131 101.027 98.1128C100.765 97.8001 100.49 97.4874 100.203 97.1622C99.8786 96.787 99.5541 96.3992 99.2171 95.999C98.9301 95.6487 98.6305 95.2985 98.331 94.9358C98.0065 94.548 97.6944 94.1603 97.3574 93.76C97.2077 93.5849 97.0579 93.3973 96.9081 93.2222C96.7958 93.0846 96.671 92.9345 96.5586 92.7969C96.2341 92.3967 95.9221 91.9964 95.6101 91.6087C95.298 91.2209 94.9985 90.8457 94.7114 90.4704C94.3869 90.0577 94.0749 89.6574 93.7753 89.2697C93.5132 88.932 93.2636 88.5942 93.014 88.269C92.6894 87.8438 92.3899 87.4435 92.0903 87.0558C91.8033 86.668 91.5287 86.2928 91.2666 85.9426C90.9421 85.5048 90.655 85.0795 90.3804 84.7043C90.1183 84.329 89.8812 83.9788 89.669 83.6661C89.307 83.1283 89.0449 82.678 88.8702 82.3528C88.683 82.0025 88.6206 81.7899 88.6954 81.7274L91.3165 79.5885L109.127 101.477Z" fill="url(#paint13_radial_39_1298)"/>
<g opacity="0.7">
<path opacity="0.7" d="M92.6645 81.2263L89.6815 83.6654C89.3195 83.1276 89.0574 82.6773 88.8827 82.3521L91.7035 80.0506L92.6645 81.2263Z" fill="url(#paint14_linear_39_1298)"/>
<path opacity="0.7" d="M94.4119 83.3777L91.2667 85.9544C90.9421 85.5166 90.6551 85.0913 90.3805 84.7161L93.4509 82.2145L94.4119 83.3777Z" fill="url(#paint15_linear_39_1298)"/>
<g opacity="0.7">
<path opacity="0.7" d="M96.2466 85.6416L93.0139 88.2808C92.6894 87.8556 92.3899 87.4553 92.0903 87.0675L95.2855 84.4659L96.2466 85.6416Z" fill="url(#paint16_linear_39_1298)"/>
<path opacity="0.7" d="M98.0065 87.793L94.7239 90.4697C94.3994 90.0569 94.0874 89.6567 93.7878 89.2689L97.0454 86.6047L98.0065 87.793Z" fill="url(#paint17_linear_39_1298)"/>
</g>
<g opacity="0.7">
<g opacity="0.7">
<path opacity="0.7" d="M99.8786 90.107L96.5711 92.7962C96.2466 92.396 95.9346 91.9957 95.6226 91.608L98.9176 88.9188L99.8786 90.107Z" fill="url(#paint18_linear_39_1298)"/>
<path opacity="0.7" d="M101.626 92.2585L98.331 94.9477C98.0064 94.5599 97.6944 94.1722 97.3574 93.7719L100.665 91.0702L101.626 92.2585Z" fill="url(#paint19_linear_39_1298)"/>
</g>
<g opacity="0.7">
<path opacity="0.7" d="M103.461 94.5098L100.203 97.174C99.8787 96.7988 99.5542 96.411 99.2172 96.0108L102.5 93.334L103.461 94.5098Z" fill="url(#paint20_linear_39_1298)"/>
<path opacity="0.7" d="M105.221 96.6737L102.026 99.2754C101.701 98.9127 101.364 98.5249 101.015 98.1247L104.247 95.4855L105.221 96.6737Z" fill="url(#paint21_linear_39_1298)"/>
</g>
</g>
<path opacity="0.7" d="M106.993 98.8626L103.923 101.364C103.598 101.027 103.261 100.651 102.887 100.239L106.032 97.6744L106.993 98.8626Z" fill="url(#paint22_linear_39_1298)"/>
<path opacity="0.7" d="M108.753 101.014L105.932 103.315C105.645 103.09 105.271 102.728 104.809 102.265L107.792 99.8257L108.753 101.014Z" fill="url(#paint23_linear_39_1298)"/>
</g>
<path d="M109.127 101.477C108.753 101.789 104.459 97.1365 99.5416 91.0952C94.6239 85.0538 90.9545 79.9005 91.3289 79.6003C91.7033 79.2876 95.9969 83.9406 100.914 89.982C105.82 96.0233 109.502 101.164 109.127 101.477Z" fill="url(#paint24_linear_39_1298)"/>
<path d="M156.651 143.254L155.407 146.479C155.371 146.552 155.151 146.552 154.749 146.515C154.383 146.442 153.871 146.332 153.249 146.149C152.884 146.039 152.482 145.929 152.043 145.782C151.604 145.636 151.092 145.489 150.58 145.306C150.178 145.159 149.775 145.049 149.336 144.903C148.861 144.756 148.386 144.573 147.874 144.39C147.471 144.243 147.069 144.097 146.667 143.987C146.191 143.803 145.716 143.657 145.204 143.474C144.765 143.327 144.326 143.144 143.887 142.997C143.412 142.814 142.937 142.631 142.461 142.447C142.242 142.374 142.022 142.264 141.803 142.191C141.62 142.118 141.437 142.044 141.291 142.008C140.816 141.824 140.34 141.641 139.865 141.458C139.389 141.275 138.95 141.091 138.512 140.908C138.036 140.725 137.561 140.505 137.085 140.322C136.683 140.175 136.281 139.992 135.915 139.845C135.44 139.625 134.964 139.442 134.489 139.259C134.05 139.076 133.611 138.892 133.209 138.709C132.697 138.489 132.221 138.269 131.819 138.05C131.38 137.866 131.015 137.683 130.686 137.5C130.1 137.207 129.625 136.95 129.332 136.73C129.003 136.51 128.82 136.364 128.857 136.29L130.1 133.065L156.651 143.254Z" fill="url(#paint25_radial_39_1298)"/>
<g opacity="0.7">
<path opacity="0.7" d="M132.002 133.799L130.612 137.464C130.027 137.17 129.552 136.914 129.259 136.694L130.576 133.249L132.002 133.799Z" fill="url(#paint26_linear_39_1298)"/>
<path opacity="0.7" d="M134.599 134.825L133.136 138.673C132.624 138.453 132.148 138.233 131.746 138.013L133.172 134.275L134.599 134.825Z" fill="url(#paint27_linear_39_1298)"/>
<g opacity="0.7">
<path opacity="0.7" d="M137.341 135.851L135.842 139.809C135.367 139.589 134.891 139.406 134.416 139.223L135.915 135.301L137.341 135.851Z" fill="url(#paint28_linear_39_1298)"/>
<path opacity="0.7" d="M139.974 136.877L138.438 140.908C137.963 140.725 137.488 140.505 137.012 140.322L138.548 136.327L139.974 136.877Z" fill="url(#paint29_linear_39_1298)"/>
</g>
<g opacity="0.7">
<g opacity="0.7">
<path opacity="0.7" d="M142.79 137.94L141.254 141.971C140.779 141.788 140.304 141.605 139.828 141.421L141.364 137.39L142.79 137.94Z" fill="url(#paint30_linear_39_1298)"/>
<path opacity="0.7" d="M145.423 138.966L143.887 142.997C143.412 142.814 142.936 142.631 142.461 142.447L143.997 138.416L145.423 138.966Z" fill="url(#paint31_linear_39_1298)"/>
</g>
<g opacity="0.7">
<path opacity="0.7" d="M148.166 139.992L146.63 143.987C146.155 143.804 145.679 143.657 145.167 143.474L146.703 139.443L148.166 139.992Z" fill="url(#paint32_linear_39_1298)"/>
<path opacity="0.7" d="M150.799 141.018L149.3 144.903C148.824 144.757 148.349 144.573 147.837 144.39L149.336 140.432L150.799 141.018Z" fill="url(#paint33_linear_39_1298)"/>
</g>
</g>
<path opacity="0.7" d="M153.469 142.045L152.043 145.783C151.604 145.636 151.092 145.49 150.58 145.306L152.043 141.458L153.469 142.045Z" fill="url(#paint34_linear_39_1298)"/>
<path opacity="0.7" d="M156.065 143.034L154.749 146.479C154.383 146.406 153.871 146.296 153.249 146.113L154.639 142.448L156.065 143.034Z" fill="url(#paint35_linear_39_1298)"/>
</g>
<path d="M156.651 143.254C156.468 143.73 150.36 141.788 143.01 138.966C135.659 136.144 129.844 133.469 129.991 133.029C130.137 132.589 136.281 134.495 143.631 137.317C150.982 140.139 156.797 142.777 156.651 143.254Z" fill="url(#paint36_linear_39_1298)"/>
<path d="M252.235 249.62C287.196 255.924 311.662 259.478 308.48 244.562C305.299 229.646 309.833 227.851 334.848 231.955C359.862 236.06 349.732 223.013 338.614 213.081C327.497 203.149 368.821 222.207 372.625 207.437C376.428 192.668 351.926 190.945 373.246 189.26C394.567 187.574 400.089 182.699 394.494 173.647C388.862 164.595 384.583 167.564 408.903 158.658C433.222 149.752 418.777 133.993 404.88 139.82C390.983 145.684 366.81 176.286 367.871 162.103C368.931 147.92 355.583 135.203 345.124 164.925C334.665 194.647 333.97 141.47 322.889 152.867C311.808 164.265 319.013 200.071 308.005 192.558C296.997 185.082 313.125 162.726 298.789 156.972C284.454 151.218 276.006 207.621 262.182 219.605C248.395 231.552 242.142 247.788 252.235 249.62Z" fill="url(#paint37_linear_39_1298)"/>
<g opacity="0.51">
<path opacity="0.51" d="M300.106 215.793C317.404 205.568 337.188 193.694 355.034 182.553C356.717 176.616 354.778 159.244 354.778 159.244C356.79 165.804 356.351 180.061 356.278 181.783C361.288 178.668 366.115 175.589 370.687 172.621C365.969 175.809 360.739 179.291 355.181 182.956L354.742 183.359C354.778 183.322 354.778 183.249 354.815 183.212C348.891 187.134 342.601 191.238 336.164 195.416C336.164 195.416 348.086 194.024 354.559 198.605C354.559 198.605 343.259 194.244 332.983 197.469L333.019 197.432C326.729 201.5 320.293 205.605 313.929 209.563C317.404 210.442 327.095 213.631 331.959 222.683C331.959 222.683 321.902 211.322 310.601 211.652C287.343 226.091 265.437 238.735 254.027 242.693C254.027 242.693 272.788 231.955 297.18 217.552C300.91 205.898 293.962 184.202 293.962 184.202C299.63 194.61 300.069 214.364 300.106 215.793Z" fill="white"/>
</g>
<path d="M197.599 263.583C197.599 263.583 190.029 226.825 223.82 214.181L239.618 213.998C239.618 213.998 208.204 234.594 212.702 241.777C217.201 248.96 240.715 216.197 254.685 213.081C268.655 209.93 279.48 211.102 279.48 211.102C279.48 211.102 230.841 241.264 241.081 244.196C251.321 247.128 272.788 217.772 296.12 214.767C319.451 211.799 324.754 212.935 324.754 212.935C324.754 212.935 278.017 239.762 285.88 244.636C293.742 249.51 315.758 218.359 336.859 220.888C357.96 223.416 381.365 248.557 381.365 248.557C381.365 248.557 335.323 239.725 331.739 251.453C328.155 263.217 381.109 246.248 393.799 260.688C406.489 275.128 410.183 288.321 410.183 288.321C410.183 288.321 267.741 255.081 197.599 263.583Z" fill="url(#paint38_linear_39_1298)"/>
<path d="M197.599 263.583C197.599 263.583 181.581 287.808 214.421 321.891L236.729 326.069C236.729 326.069 200.854 292.059 219.358 279.415C237.863 266.772 244.116 319.656 262.402 329.514C280.687 339.373 290.926 333.949 290.926 333.949C290.926 333.949 242.398 280.698 256.587 272.782C270.74 264.903 280.211 337.944 314.222 332.52C348.232 327.095 352.036 322.551 352.036 322.551C352.036 322.551 293.998 276.52 309.139 274.505C324.279 272.489 353.352 319.473 366.005 315.771C378.695 312.069 410.146 288.321 410.146 288.321C410.146 288.321 283.393 244.563 197.599 263.583Z" fill="url(#paint39_linear_39_1298)"/>
<path d="M258.415 243.06C258.415 243.06 193.869 247.788 196.392 288.431C196.392 288.431 247.737 292.499 257.245 342.231L251.906 345.42L171.451 299.792C171.451 299.792 159.675 267.688 182.239 236.207C204.803 204.725 258.415 243.06 258.415 243.06Z" fill="url(#paint40_radial_39_1298)"/>
<path d="M281.747 239.029C281.747 239.029 244.336 248.887 197.635 242.803C150.935 236.72 119.411 224.076 119.411 224.076C119.411 224.076 153.568 248.85 145.815 289.017C138.062 329.184 132.211 332.923 132.211 332.923L127.932 331.823C127.932 331.823 84.1576 208.17 96.0795 203.699C107.965 199.228 192.113 197.945 239.179 197.579C239.179 197.542 284.051 200.547 281.747 239.029Z" fill="url(#paint41_radial_39_1298)"/>
<path d="M175.913 162.836L166.112 160.307C164.942 160.014 164.247 158.805 164.539 157.668L169.842 136.815C170.135 135.643 171.341 134.946 172.475 135.239L182.276 137.768C183.446 138.061 184.141 139.271 183.848 140.407L178.546 161.26C178.253 162.433 177.046 163.129 175.913 162.836Z" fill="url(#paint42_linear_39_1298)"/>
<path d="M177.339 161.846L165.307 158.768L170.976 136.632L182.971 139.711L177.339 161.846Z" fill="url(#paint43_radial_39_1298)"/>
<path d="M178.143 137.695L176.205 137.219C176.169 137.219 176.132 137.145 176.132 137.109C176.132 137.072 176.205 137.035 176.242 137.035L178.18 137.512C178.217 137.512 178.253 137.585 178.253 137.622C178.217 137.658 178.18 137.695 178.143 137.695Z" fill="white"/>
<path d="M182.532 155.616L182.459 155.763C182.495 155.653 182.532 155.616 182.532 155.616Z" fill="url(#paint44_radial_39_1298)"/>
<path d="M280.285 157.339C280.285 157.339 264.925 183.469 231.28 187.537C229.269 187.794 227.294 187.904 225.392 187.94C195.295 188.527 177.375 165.365 177.375 165.365L182.459 155.763C182.13 156.606 182.093 161.04 210.655 169.543C242.58 179.035 276.408 131.245 276.408 131.245L279.992 155.25L280.285 157.339Z" fill="url(#paint45_radial_39_1298)"/>
<path opacity="0.2" d="M280.285 157.339C280.285 157.339 264.925 183.469 231.28 187.537C229.269 187.794 227.294 187.904 225.392 187.94C265.108 178.998 270.667 153.087 270.667 153.087L280.029 155.286L280.285 157.339Z" fill="black"/>
<path d="M278.895 103.465C278.895 103.465 290.744 125.784 293.34 134.8C293.34 134.8 286.099 144.695 277.469 140.7C277.469 140.7 275.494 121.569 274.068 116.292C272.678 111.051 278.895 103.465 278.895 103.465Z" fill="url(#paint46_linear_39_1298)"/>
<path d="M268.07 106.8L268.619 123.402C268.619 123.402 279.114 125.344 279.517 117.355C279.919 109.402 278.493 100.093 278.493 100.093C278.493 100.093 267.668 95.2924 268.07 106.8Z" fill="url(#paint47_linear_39_1298)"/>
<path d="M319.781 178.815C319.634 179.401 319.525 179.987 319.378 180.574C316.489 193.291 312.503 203.369 308.224 211.285C296.193 233.568 281.747 238.992 281.747 238.992C281.747 238.992 259.183 202.82 239.179 197.505C239.179 197.505 241.666 194.207 254.393 196.003C256.843 196.333 259.074 196.259 261.085 195.82C261.451 195.746 261.816 195.636 262.146 195.526C269.935 193.181 273.885 184.825 271.946 173.207C269.423 158.181 269.972 142.276 276.408 131.208C276.408 131.208 282.552 137.365 289.683 125.381C289.683 125.454 330.569 128.826 319.781 178.815Z" fill="url(#paint48_radial_39_1298)"/>
<path d="M274.726 103.465C274.726 103.465 268.619 105.517 263.462 102.256C258.306 98.9572 261.926 97.308 265.547 98.4808C269.167 99.6535 275.018 94.5227 278.419 100.093C278.419 100.093 280.65 99.397 281.601 103.355C282.552 107.313 282.698 110.941 282.698 110.941C282.698 110.941 278.895 110.905 274.726 103.465Z" fill="url(#paint49_radial_39_1298)"/>
<path d="M279.48 110.831L279.078 105.957C279.078 105.957 280.467 105.188 280.943 106.91C281.455 108.596 279.48 110.831 279.48 110.831Z" fill="url(#paint50_linear_39_1298)"/>
<path d="M182.532 155.616C182.532 155.616 183.958 157.558 182.386 161.736C180.777 165.914 177.375 165.365 177.375 165.365C177.375 165.365 177.705 162.359 182.532 155.616Z" fill="url(#paint51_radial_39_1298)"/>
<path d="M181.544 154.223C181.544 154.223 183.41 150.888 183.373 147.114C183.336 143.339 180.557 142.899 182.056 147.37C182.056 147.37 174.157 154.883 176.278 159.061C178.399 163.239 180.338 163.972 180.338 163.972C180.338 163.972 181.837 163.459 182.459 159.831L179.423 157.595C179.35 157.595 180.63 156.312 181.544 154.223Z" fill="url(#paint52_linear_39_1298)"/>
<path d="M168.855 140.737C168.855 140.737 171.012 143.485 170.098 144.218C169.147 144.915 168.306 142.972 168.306 142.972C168.306 142.972 167.648 142.386 168.855 140.737Z" fill="url(#paint53_linear_39_1298)"/>
<path d="M168.306 143.009C168.306 143.009 170.464 145.758 169.549 146.491C168.599 147.187 167.758 145.244 167.758 145.244C167.758 145.244 167.063 144.658 168.306 143.009Z" fill="url(#paint54_linear_39_1298)"/>
<path d="M167.721 145.281C167.721 145.281 169.879 148.03 168.964 148.763C168.013 149.459 167.172 147.517 167.172 147.517C167.172 147.517 166.477 146.93 167.721 145.281Z" fill="url(#paint55_linear_39_1298)"/>
<path d="M167.172 147.443C167.172 147.443 169.33 150.192 168.416 150.925C167.465 151.621 166.624 149.679 166.624 149.679C166.624 149.679 165.929 149.093 167.172 147.443Z" fill="url(#paint56_linear_39_1298)"/>
<path opacity="0.2" d="M319.378 180.611C316.489 193.328 312.503 203.406 308.224 211.322C282.771 219.348 260.939 195.93 260.939 195.93L261.085 195.893L262.146 195.6L319.378 180.611Z" fill="black"/>
<path d="M299.301 133.187C299.301 133.187 315.831 175.993 292.938 183.909C270.045 191.825 221.333 144.548 221.333 144.548C221.333 144.548 217.054 151.548 211.349 151.621C211.349 151.621 252.016 200.254 283.247 204.909C314.478 209.563 318.61 185.705 321.061 174.124C323.547 162.579 321.207 131.758 299.301 133.187Z" fill="url(#paint57_radial_39_1298)"/>
<path d="M211.349 151.621C211.349 151.621 215.189 144.512 221.333 144.548C221.297 144.548 217.749 152.648 211.349 151.621Z" fill="url(#paint58_radial_39_1298)"/>
<path d="M218.81 145.354C218.81 145.354 215.994 136.229 210.472 133.59C204.95 130.952 197.014 129.742 195.844 130.805C194.673 131.868 204.145 132.931 204.145 132.931L205.608 134.983L202.17 133.883C202.17 133.883 194.856 134.287 194.564 135.569C194.308 136.852 201.585 135.826 201.585 135.826L204.986 138.245L200.122 136.925L195.112 140.04C195.112 140.04 195.99 141.873 199.683 139.857L200.707 139.124L205.023 141.836L213.397 147.224L214.604 150.449C214.604 150.412 218.554 149.459 218.81 145.354Z" fill="url(#paint59_linear_39_1298)"/>
<path d="M127.932 331.786C127.932 331.786 113.707 334.755 112.829 327.682C111.951 320.608 105.588 327.535 107.343 330.027C109.099 332.519 112.171 334.938 120.289 338.456C128.408 341.975 126.214 340.215 126.214 340.215L130.383 338.236V342.194L133.016 343.074L132.211 332.849L127.932 331.786Z" fill="url(#paint60_radial_39_1298)"/>
<path d="M251.906 345.383C251.906 345.383 256.843 352.346 252.82 358.1C248.797 363.817 246.384 361.838 247.481 366.676C248.578 371.514 259.988 362.058 262.877 355.022L260.902 349.304L265.071 352.383L266.571 349.744L257.245 342.231L251.906 345.383Z" fill="url(#paint61_radial_39_1298)"/>
<path d="M289.683 125.014C289.683 125.014 284.636 130.805 279.078 132.711L282.735 138.391C282.735 138.391 289.72 133.737 291.182 125.198L289.683 125.014Z" fill="url(#paint62_radial_39_1298)"/>
<path d="M279.078 132.711L276.408 130.805L275.421 132.711V138.391L279.078 132.711Z" fill="url(#paint63_radial_39_1298)"/>
<path d="M142.815 98.8334C155.34 98.8334 165.493 88.6584 165.493 76.1069C165.493 63.5554 155.34 53.3804 142.815 53.3804C130.29 53.3804 120.137 63.5554 120.137 76.1069C120.137 88.6584 130.29 98.8334 142.815 98.8334Z" fill="url(#paint64_radial_39_1298)"/>
<path d="M142.815 96.6116C154.115 96.6116 163.276 87.4314 163.276 76.107C163.276 64.7826 154.115 55.6024 142.815 55.6024C131.515 55.6024 122.354 64.7826 122.354 76.107C122.354 87.4314 131.515 96.6116 142.815 96.6116Z" fill="url(#paint65_radial_39_1298)"/>
<path d="M148.117 80.4783C148.117 77.9907 146.719 76.5416 143.996 75.4065V69.1512C144.719 69.2237 145.345 69.3686 145.827 69.5618C146.358 69.755 146.936 69.4894 147.105 68.958C147.273 68.4508 147.008 67.8954 146.502 67.7021C145.852 67.4606 145.008 67.2916 143.972 67.2433V64.1277C143.972 63.6447 143.562 63.2341 143.08 63.2341C142.598 63.2341 142.188 63.6447 142.188 64.1277V67.3157C139.441 67.7505 137.682 69.6343 137.682 72.0736C137.682 74.537 139.393 76.0344 142.188 77.0488V83.6904C142.116 83.6904 142.068 83.6904 141.996 83.6904C140.863 83.6904 139.778 83.4247 138.863 83.0383C138.332 82.7968 137.706 83.0866 137.537 83.6663V83.6904C137.392 84.1734 137.633 84.6806 138.091 84.898C139.104 85.3327 140.525 85.6225 141.827 85.6225C141.947 85.6225 142.044 85.6225 142.164 85.6225V88.086C142.164 88.569 142.574 88.9796 143.056 88.9796C143.538 88.9796 143.948 88.569 143.948 88.086V85.4052C146.767 84.7048 148.117 82.7244 148.117 80.4783ZM140.043 71.8079C140.043 70.8177 140.67 69.6584 142.237 69.272V74.6578C140.718 73.9091 140.043 73.1121 140.043 71.8079ZM143.996 83.3281V77.8458C145.249 78.5703 145.755 79.4156 145.755 80.6473C145.755 81.8791 145.129 82.8451 143.996 83.3281Z" fill="white"/>
<path d="M252.453 41.9968C255.2 41.9968 257.427 39.7653 257.427 37.0126C257.427 34.2598 255.2 32.0283 252.453 32.0283C249.706 32.0283 247.479 34.2598 247.479 37.0126C247.479 39.7653 249.706 41.9968 252.453 41.9968Z" fill="url(#paint66_radial_39_1298)"/>
<path d="M70.6813 204.201L37.4254 183.107C32.6918 180.099 31.2818 173.781 34.2629 169.037L43.6294 154.2C46.6307 149.457 52.9354 148.044 57.669 151.031L90.9249 172.105C95.6584 175.113 97.0684 181.431 94.0873 186.175L84.7209 201.012C81.7196 205.776 75.4148 207.189 70.6813 204.201Z" fill="url(#paint67_radial_39_1298)"/>
<path d="M90.9048 191.343L40.4469 159.368L44.9589 152.222L95.3967 184.217L90.9048 191.343Z" fill="url(#paint68_radial_39_1298)"/>
<path d="M51.2925 225.962L5.1049 204.746C0.73389 202.728 -1.21997 197.499 0.794319 193.099L13.8469 164.556C15.8612 160.175 21.0782 158.217 25.4694 160.236L71.657 181.451C76.028 183.47 77.9819 188.698 75.9676 193.099L62.915 221.642C60.9007 226.022 55.6635 227.98 51.2925 225.962Z" fill="url(#paint69_radial_39_1298)"/>
<path d="M53.5083 224.73L4.58124 202.263C2.36552 201.254 1.39866 198.61 2.40581 196.389L17.3921 163.627C18.3993 161.407 21.038 160.438 23.2537 161.447L72.1606 183.914C74.3764 184.924 75.3432 187.568 74.3361 189.788L59.3699 222.55C58.3426 224.771 55.7039 225.76 53.5083 224.73Z" stroke="white" stroke-width="3" stroke-miterlimit="10" stroke-dasharray="5 5"/>
<path d="M60.3367 197.479L72.5231 203.091C73.7317 203.656 74.2755 205.089 73.7115 206.3L71.2541 211.69C70.6901 212.901 69.26 213.446 68.0514 212.881L55.865 207.269C54.6564 206.704 54.1125 205.271 54.6765 204.06L57.134 198.67C57.6778 197.459 59.1281 196.934 60.3367 197.479Z" fill="url(#paint70_radial_39_1298)"/>
<path d="M64.2647 204.988C63.6 206.422 61.908 207.067 60.4778 206.401C59.0477 205.735 58.4031 204.04 59.0678 202.606C59.7325 201.173 61.4245 200.527 62.8547 201.193C64.305 201.86 64.9294 203.555 64.2647 204.988Z" fill="white"/>
<path d="M45.0871 136.12C45.0871 136.12 39.7611 117.922 65.1811 102.393C92.78 90.9894 109.304 114.525 102.222 143.399C96.8957 165.115 124.253 185.861 148.41 165.115" stroke="#C75EF7" stroke-miterlimit="10" stroke-dasharray="12 12"/>
<path d="M147.422 161.45L151.226 167.974L154.298 161.633L147.422 161.45Z" fill="#C75EF7"/>
</g>
<defs>
<linearGradient id="paint0_linear_39_1298" x1="157.022" y1="118.076" x2="296.17" y2="239.606" gradientUnits="userSpaceOnUse">
<stop stop-color="#5E4AED"/>
<stop offset="0.4704" stop-color="#3EA8FF"/>
<stop offset="1" stop-color="#40E9FF"/>
</linearGradient>
<radialGradient id="paint1_radial_39_1298" cx="0" cy="0" r="1" gradientUnits="userSpaceOnUse" gradientTransform="translate(76.9038 128.835) rotate(-12.6351) scale(31.4699 31.5308)">
<stop stop-color="#FFEEA9"/>
<stop offset="1" stop-color="#FFB048"/>
</radialGradient>
<linearGradient id="paint2_linear_39_1298" x1="122.15" y1="137.004" x2="94.1667" y2="135.419" gradientUnits="userSpaceOnUse">
<stop stop-color="#C45A12"/>
<stop offset="1" stop-color="#FFB048"/>
</linearGradient>
<linearGradient id="paint3_linear_39_1298" x1="122.185" y1="136.373" x2="94.2025" y2="134.788" gradientUnits="userSpaceOnUse">
<stop stop-color="#C45A12"/>
<stop offset="1" stop-color="#FFB048"/>
</linearGradient>
<linearGradient id="paint4_linear_39_1298" x1="122.227" y1="135.624" x2="94.2451" y2="134.039" gradientUnits="userSpaceOnUse">
<stop stop-color="#C45A12"/>
<stop offset="1" stop-color="#FFB048"/>
</linearGradient>
<linearGradient id="paint5_linear_39_1298" x1="122.27" y1="134.877" x2="94.2876" y2="133.292" gradientUnits="userSpaceOnUse">
<stop stop-color="#C45A12"/>
<stop offset="1" stop-color="#FFB048"/>
</linearGradient>
<linearGradient id="paint6_linear_39_1298" x1="122.317" y1="134.055" x2="94.3344" y2="132.47" gradientUnits="userSpaceOnUse">
<stop stop-color="#C45A12"/>
<stop offset="1" stop-color="#FFB048"/>
</linearGradient>
<linearGradient id="paint7_linear_39_1298" x1="122.362" y1="133.267" x2="94.3793" y2="131.682" gradientUnits="userSpaceOnUse">
<stop stop-color="#C45A12"/>
<stop offset="1" stop-color="#FFB048"/>
</linearGradient>
<linearGradient id="paint8_linear_39_1298" x1="122.41" y1="132.423" x2="94.4271" y2="130.838" gradientUnits="userSpaceOnUse">
<stop stop-color="#C45A12"/>
<stop offset="1" stop-color="#FFB048"/>
</linearGradient>
<linearGradient id="paint9_linear_39_1298" x1="122.456" y1="131.599" x2="94.4743" y2="130.014" gradientUnits="userSpaceOnUse">
<stop stop-color="#C45A12"/>
<stop offset="1" stop-color="#FFB048"/>
</linearGradient>
<linearGradient id="paint10_linear_39_1298" x1="122.505" y1="130.735" x2="94.5227" y2="129.15" gradientUnits="userSpaceOnUse">
<stop stop-color="#C45A12"/>
<stop offset="1" stop-color="#FFB048"/>
</linearGradient>
<linearGradient id="paint11_linear_39_1298" x1="122.556" y1="129.842" x2="94.5733" y2="128.257" gradientUnits="userSpaceOnUse">
<stop stop-color="#C45A12"/>
<stop offset="1" stop-color="#FFB048"/>
</linearGradient>
<linearGradient id="paint12_linear_39_1298" x1="124.016" y1="128.618" x2="72.5005" y2="131.076" gradientUnits="userSpaceOnUse">
<stop stop-color="#C45A12"/>
<stop offset="1" stop-color="#FFB048"/>
</linearGradient>
<radialGradient id="paint13_radial_39_1298" cx="0" cy="0" r="1" gradientUnits="userSpaceOnUse" gradientTransform="translate(93.3479 74.2601) rotate(50.8875) scale(30.1784 30.1653)">
<stop stop-color="#FFEEA9"/>
<stop offset="1" stop-color="#FFB048"/>
</radialGradient>
<linearGradient id="paint14_linear_39_1298" x1="105.745" y1="116.605" x2="95.0817" y2="91.9148" gradientUnits="userSpaceOnUse">
<stop stop-color="#C45A12"/>
<stop offset="1" stop-color="#FFB048"/>
</linearGradient>
<linearGradient id="paint15_linear_39_1298" x1="106.3" y1="116.366" x2="95.6366" y2="91.6751" gradientUnits="userSpaceOnUse">
<stop stop-color="#C45A12"/>
<stop offset="1" stop-color="#FFB048"/>
</linearGradient>
<linearGradient id="paint16_linear_39_1298" x1="106.959" y1="116.081" x2="96.2951" y2="91.3909" gradientUnits="userSpaceOnUse">
<stop stop-color="#C45A12"/>
<stop offset="1" stop-color="#FFB048"/>
</linearGradient>
<linearGradient id="paint17_linear_39_1298" x1="107.615" y1="115.798" x2="96.9517" y2="91.1073" gradientUnits="userSpaceOnUse">
<stop stop-color="#C45A12"/>
<stop offset="1" stop-color="#FFB048"/>
</linearGradient>
<linearGradient id="paint18_linear_39_1298" x1="108.338" y1="115.485" x2="97.6747" y2="90.795" gradientUnits="userSpaceOnUse">
<stop stop-color="#C45A12"/>
<stop offset="1" stop-color="#FFB048"/>
</linearGradient>
<linearGradient id="paint19_linear_39_1298" x1="109.03" y1="115.186" x2="98.3668" y2="90.4962" gradientUnits="userSpaceOnUse">
<stop stop-color="#C45A12"/>
<stop offset="1" stop-color="#FFB048"/>
</linearGradient>
<linearGradient id="paint20_linear_39_1298" x1="109.773" y1="114.866" x2="99.1093" y2="90.1755" gradientUnits="userSpaceOnUse">
<stop stop-color="#C45A12"/>
<stop offset="1" stop-color="#FFB048"/>
</linearGradient>
<linearGradient id="paint21_linear_39_1298" x1="110.497" y1="114.553" x2="99.834" y2="89.8627" gradientUnits="userSpaceOnUse">
<stop stop-color="#C45A12"/>
<stop offset="1" stop-color="#FFB048"/>
</linearGradient>
<linearGradient id="paint22_linear_39_1298" x1="111.257" y1="114.225" x2="100.593" y2="89.5348" gradientUnits="userSpaceOnUse">
<stop stop-color="#C45A12"/>
<stop offset="1" stop-color="#FFB048"/>
</linearGradient>
<linearGradient id="paint23_linear_39_1298" x1="112.042" y1="113.886" x2="101.379" y2="89.1956" gradientUnits="userSpaceOnUse">
<stop stop-color="#C45A12"/>
<stop offset="1" stop-color="#FFB048"/>
</linearGradient>
<linearGradient id="paint24_linear_39_1298" x1="113.713" y1="114.615" x2="89.4588" y2="71.4879" gradientUnits="userSpaceOnUse">
<stop stop-color="#C45A12"/>
<stop offset="1" stop-color="#FFB048"/>
</linearGradient>
<radialGradient id="paint25_radial_39_1298" cx="0" cy="0" r="1" gradientUnits="userSpaceOnUse" gradientTransform="translate(129.074 127.335) rotate(20.9752) scale(30.5377 30.5864)">
<stop stop-color="#FFEEA9"/>
<stop offset="1" stop-color="#FFB048"/>
</radialGradient>
<linearGradient id="paint26_linear_39_1298" x1="161.292" y1="158.249" x2="139.482" y2="141.973" gradientUnits="userSpaceOnUse">
<stop stop-color="#C45A12"/>
<stop offset="1" stop-color="#FFB048"/>
</linearGradient>
<linearGradient id="paint27_linear_39_1298" x1="161.658" y1="157.758" x2="139.848" y2="141.482" gradientUnits="userSpaceOnUse">
<stop stop-color="#C45A12"/>
<stop offset="1" stop-color="#FFB048"/>
</linearGradient>
<linearGradient id="paint28_linear_39_1298" x1="162.093" y1="157.175" x2="140.283" y2="140.899" gradientUnits="userSpaceOnUse">
<stop stop-color="#C45A12"/>
<stop offset="1" stop-color="#FFB048"/>
</linearGradient>
<linearGradient id="paint29_linear_39_1298" x1="162.527" y1="156.594" x2="140.717" y2="140.318" gradientUnits="userSpaceOnUse">
<stop stop-color="#C45A12"/>
<stop offset="1" stop-color="#FFB048"/>
</linearGradient>
<linearGradient id="paint30_linear_39_1298" x1="163.004" y1="155.954" x2="141.195" y2="139.678" gradientUnits="userSpaceOnUse">
<stop stop-color="#C45A12"/>
<stop offset="1" stop-color="#FFB048"/>
</linearGradient>
<linearGradient id="paint31_linear_39_1298" x1="163.462" y1="155.341" x2="141.652" y2="139.065" gradientUnits="userSpaceOnUse">
<stop stop-color="#C45A12"/>
<stop offset="1" stop-color="#FFB048"/>
</linearGradient>
<linearGradient id="paint32_linear_39_1298" x1="163.952" y1="154.685" x2="142.142" y2="138.408" gradientUnits="userSpaceOnUse">
<stop stop-color="#C45A12"/>
<stop offset="1" stop-color="#FFB048"/>
</linearGradient>
<linearGradient id="paint33_linear_39_1298" x1="164.431" y1="154.043" x2="142.621" y2="137.767" gradientUnits="userSpaceOnUse">
<stop stop-color="#C45A12"/>
<stop offset="1" stop-color="#FFB048"/>
</linearGradient>
<linearGradient id="paint34_linear_39_1298" x1="164.933" y1="153.371" x2="143.123" y2="137.095" gradientUnits="userSpaceOnUse">
<stop stop-color="#C45A12"/>
<stop offset="1" stop-color="#FFB048"/>
</linearGradient>
<linearGradient id="paint35_linear_39_1298" x1="165.452" y1="152.676" x2="143.642" y2="136.4" gradientUnits="userSpaceOnUse">
<stop stop-color="#C45A12"/>
<stop offset="1" stop-color="#FFB048"/>
</linearGradient>
<linearGradient id="paint36_linear_39_1298" x1="167.286" y1="152.471" x2="124.261" y2="126.871" gradientUnits="userSpaceOnUse">
<stop stop-color="#C45A12"/>
<stop offset="1" stop-color="#FFB048"/>
</linearGradient>
<linearGradient id="paint37_linear_39_1298" x1="368.965" y1="72.1789" x2="333.732" y2="492.945" gradientUnits="userSpaceOnUse">
<stop stop-color="#51C8FF"/>
<stop offset="1" stop-color="#02174E"/>
</linearGradient>
<linearGradient id="paint38_linear_39_1298" x1="489.491" y1="347.727" x2="272.851" y2="244.253" gradientUnits="userSpaceOnUse">
<stop stop-color="#3EA8FF"/>
<stop offset="1" stop-color="#5E4AED"/>
</linearGradient>
<linearGradient id="paint39_linear_39_1298" x1="391.644" y1="331.278" x2="-56.5604" y2="184.138" gradientUnits="userSpaceOnUse">
<stop stop-color="#3EA8FF"/>
<stop offset="1" stop-color="#5E4AED"/>
</linearGradient>
<radialGradient id="paint40_radial_39_1298" cx="0" cy="0" r="1" gradientUnits="userSpaceOnUse" gradientTransform="translate(109.307 191.389) scale(90.4924 90.6862)">
<stop stop-color="#FFFFAB"/>
<stop offset="0.5498" stop-color="#CD00FF"/>
<stop offset="1" stop-color="#5739D8"/>
</radialGradient>
<radialGradient id="paint41_radial_39_1298" cx="0" cy="0" r="1" gradientUnits="userSpaceOnUse" gradientTransform="translate(89.0919 166.506) scale(189.661 190.067)">
<stop stop-color="#FFFFAB"/>
<stop offset="0.5498" stop-color="#CD00FF"/>
<stop offset="1" stop-color="#5739D8"/>
</radialGradient>
<linearGradient id="paint42_linear_39_1298" x1="177.611" y1="133.407" x2="170.854" y2="164.274" gradientUnits="userSpaceOnUse">
<stop stop-color="#40E9FF"/>
<stop offset="0.4704" stop-color="#3EA8FF"/>
<stop offset="1" stop-color="#5E4AED"/>
</linearGradient>
<radialGradient id="paint43_radial_39_1298" cx="0" cy="0" r="1" gradientUnits="userSpaceOnUse" gradientTransform="translate(176.976 134.874) scale(69.2737 69.4222)">
<stop stop-color="#FFFFAB"/>
<stop offset="0.5498" stop-color="#CD00FF"/>
<stop offset="1" stop-color="#5739D8"/>
</radialGradient>
<radialGradient id="paint44_radial_39_1298" cx="0" cy="0" r="1" gradientUnits="userSpaceOnUse" gradientTransform="translate(182.43 155.575) scale(0.332117 0.332358)">
<stop offset="0.00263467" stop-color="#FFF6A6"/>
<stop offset="0.5071" stop-color="#219DDB"/>
<stop offset="1" stop-color="#10488C"/>
</radialGradient>
<radialGradient id="paint45_radial_39_1298" cx="0" cy="0" r="1" gradientUnits="userSpaceOnUse" gradientTransform="translate(143.915 115.419) scale(234.831 235.334)">
<stop offset="0.00263467" stop-color="#FFF6A6"/>
<stop offset="0.5071" stop-color="#219DDB"/>
<stop offset="1" stop-color="#10488C"/>
</radialGradient>
<linearGradient id="paint46_linear_39_1298" x1="246.803" y1="145.969" x2="293.997" y2="114.683" gradientUnits="userSpaceOnUse">
<stop stop-color="#FFFAC0"/>
<stop offset="0.5439" stop-color="#FFC880"/>
<stop offset="1" stop-color="#EF6262"/>
</linearGradient>
<linearGradient id="paint47_linear_39_1298" x1="236.363" y1="105.162" x2="305.257" y2="117.003" gradientUnits="userSpaceOnUse">
<stop stop-color="#FFFAC0"/>
<stop offset="0.5439" stop-color="#FFC880"/>
<stop offset="1" stop-color="#EF6262"/>
</linearGradient>
<radialGradient id="paint48_radial_39_1298" cx="0" cy="0" r="1" gradientUnits="userSpaceOnUse" gradientTransform="translate(158.744 117.072) scale(269.037 269.613)">
<stop offset="0.00263467" stop-color="#FFF6A6"/>
<stop offset="0.5071" stop-color="#219DDB"/>
<stop offset="1" stop-color="#10488C"/>
</radialGradient>
<radialGradient id="paint49_radial_39_1298" cx="0" cy="0" r="1" gradientUnits="userSpaceOnUse" gradientTransform="translate(253.417 97.2351) scale(44.4923 44.5875)">
<stop stop-color="#FFFFAB"/>
<stop offset="0.5498" stop-color="#CD00FF"/>
<stop offset="1" stop-color="#5739D8"/>
</radialGradient>
<linearGradient id="paint50_linear_39_1298" x1="284.116" y1="103.5" x2="271.549" y2="116.17" gradientUnits="userSpaceOnUse">
<stop stop-color="#FFE75C"/>
<stop offset="1" stop-color="#FF2A00"/>
</linearGradient>
<radialGradient id="paint51_radial_39_1298" cx="0" cy="0" r="1" gradientUnits="userSpaceOnUse" gradientTransform="translate(177.094 147.568) scale(25.6222 25.6771)">
<stop stop-color="#FFFFAB"/>
<stop offset="0.5498" stop-color="#CD00FF"/>
<stop offset="1" stop-color="#5739D8"/>
</radialGradient>
<linearGradient id="paint52_linear_39_1298" x1="152.269" y1="131.187" x2="192.876" y2="163.142" gradientUnits="userSpaceOnUse">
<stop stop-color="#FFFAC0"/>
<stop offset="0.5439" stop-color="#FFC880"/>
<stop offset="1" stop-color="#EF6262"/>
</linearGradient>
<linearGradient id="paint53_linear_39_1298" x1="169.775" y1="140.539" x2="168.903" y2="144.522" gradientUnits="userSpaceOnUse">
<stop stop-color="#FFFAC0"/>
<stop offset="0.5439" stop-color="#FFC880"/>
<stop offset="1" stop-color="#EF6262"/>
</linearGradient>
<linearGradient id="paint54_linear_39_1298" x1="169.197" y1="142.804" x2="168.325" y2="146.787" gradientUnits="userSpaceOnUse">
<stop stop-color="#FFFAC0"/>
<stop offset="0.5439" stop-color="#FFC880"/>
<stop offset="1" stop-color="#EF6262"/>
</linearGradient>
<linearGradient id="paint55_linear_39_1298" x1="168.616" y1="145.08" x2="167.744" y2="149.063" gradientUnits="userSpaceOnUse">
<stop stop-color="#FFFAC0"/>
<stop offset="0.5439" stop-color="#FFC880"/>
<stop offset="1" stop-color="#EF6262"/>
</linearGradient>
<linearGradient id="paint56_linear_39_1298" x1="168.059" y1="147.26" x2="167.187" y2="151.243" gradientUnits="userSpaceOnUse">
<stop stop-color="#FFFAC0"/>
<stop offset="0.5439" stop-color="#FFC880"/>
<stop offset="1" stop-color="#EF6262"/>
</linearGradient>
<radialGradient id="paint57_radial_39_1298" cx="0" cy="0" r="1" gradientUnits="userSpaceOnUse" gradientTransform="translate(194.343 137.549) scale(170.121 170.485)">
<stop offset="0.00263467" stop-color="#FFF6A6"/>
<stop offset="0.5071" stop-color="#219DDB"/>
<stop offset="1" stop-color="#10488C"/>
</radialGradient>
<radialGradient id="paint58_radial_39_1298" cx="0" cy="0" r="1" gradientUnits="userSpaceOnUse" gradientTransform="translate(192.915 140.302) scale(28.3286 28.3893)">
<stop stop-color="#FFFFAB"/>
<stop offset="0.5498" stop-color="#CD00FF"/>
<stop offset="1" stop-color="#5739D8"/>
</radialGradient>
<linearGradient id="paint59_linear_39_1298" x1="175.294" y1="119.468" x2="244.264" y2="162.935" gradientUnits="userSpaceOnUse">
<stop stop-color="#FFFAC0"/>
<stop offset="0.5439" stop-color="#FFC880"/>
<stop offset="1" stop-color="#EF6262"/>
</linearGradient>
<radialGradient id="paint60_radial_39_1298" cx="0" cy="0" r="1" gradientUnits="userSpaceOnUse" gradientTransform="translate(65.1412 306.334) scale(117.726 117.977)">
<stop stop-color="#FFFFAB"/>
<stop offset="0.5498" stop-color="#CD00FF"/>
<stop offset="1" stop-color="#5739D8"/>
</radialGradient>
<radialGradient id="paint61_radial_39_1298" cx="0" cy="0" r="1" gradientUnits="userSpaceOnUse" gradientTransform="translate(156.989 343.328) scale(202.94 203.374)">
<stop stop-color="#FFFFAB"/>
<stop offset="0.5498" stop-color="#CD00FF"/>
<stop offset="1" stop-color="#5739D8"/>
</radialGradient>
<radialGradient id="paint62_radial_39_1298" cx="0" cy="0" r="1" gradientUnits="userSpaceOnUse" gradientTransform="translate(266.122 124.741) scale(68.7834 68.9311)">
<stop offset="0.00263467" stop-color="#FFF6A6"/>
<stop offset="0.5071" stop-color="#219DDB"/>
<stop offset="1" stop-color="#10488C"/>
</radialGradient>
<radialGradient id="paint63_radial_39_1298" cx="0" cy="0" r="1" gradientUnits="userSpaceOnUse" gradientTransform="translate(271.445 130.677) scale(26.1654 26.2216)">
<stop offset="0.00263467" stop-color="#FFF6A6"/>
<stop offset="0.5071" stop-color="#219DDB"/>
<stop offset="1" stop-color="#10488C"/>
</radialGradient>
<radialGradient id="paint64_radial_39_1298" cx="0" cy="0" r="1" gradientUnits="userSpaceOnUse" gradientTransform="translate(119.597 43.7785) scale(88.8762 89.0665)">
<stop stop-color="#FFEEA9"/>
<stop offset="1" stop-color="#FFB048"/>
</radialGradient>
<radialGradient id="paint65_radial_39_1298" cx="0" cy="0" r="1" gradientUnits="userSpaceOnUse" gradientTransform="translate(119.202 38.5224) scale(50.3145 50.4223)">
<stop stop-color="#FFEEA9"/>
<stop offset="1" stop-color="#FFB048"/>
</radialGradient>
<radialGradient id="paint66_radial_39_1298" cx="0" cy="0" r="1" gradientUnits="userSpaceOnUse" gradientTransform="translate(207.948 8.72492) scale(82.9036 83.0806)">
<stop stop-color="#FFEEA9"/>
<stop offset="1" stop-color="#FFB048"/>
</radialGradient>
<radialGradient id="paint67_radial_39_1298" cx="0" cy="0" r="1" gradientUnits="userSpaceOnUse" gradientTransform="translate(88.37 159.668) rotate(24.674) scale(76.1623 76.2687)">
<stop stop-color="#FFEEA9"/>
<stop offset="1" stop-color="#FFB048"/>
</radialGradient>
<radialGradient id="paint68_radial_39_1298" cx="0" cy="0" r="1" gradientUnits="userSpaceOnUse" gradientTransform="translate(155.358 214.994) rotate(24.6739) scale(148.173 148.38)">
<stop offset="0.00263467" stop-color="#FFF6A6"/>
<stop offset="0.5071" stop-color="#219DDB"/>
<stop offset="1" stop-color="#10488C"/>
</radialGradient>
<radialGradient id="paint69_radial_39_1298" cx="0" cy="0" r="1" gradientUnits="userSpaceOnUse" gradientTransform="translate(81.5933 165.844) rotate(24.6739) scale(136.538 136.729)">
<stop offset="0.00263467" stop-color="#FFF6A6"/>
<stop offset="0.5071" stop-color="#219DDB"/>
<stop offset="1" stop-color="#10488C"/>
</radialGradient>
<radialGradient id="paint70_radial_39_1298" cx="0" cy="0" r="1" gradientUnits="userSpaceOnUse" gradientTransform="translate(86.2472 203.231) rotate(24.6739) scale(53.5382 53.6129)">
<stop offset="0.00263467" stop-color="#FFF6A6"/>
<stop offset="0.5071" stop-color="#219DDB"/>
<stop offset="1" stop-color="#10488C"/>
</radialGradient>
</defs>
</svg>
