<svg width="317" height="239" viewBox="0 0 317 239" fill="none" xmlns="http://www.w3.org/2000/svg">
<path d="M20.5418 158.94L135.938 225.587C137.651 226.576 139.595 227.091 141.573 227.08C143.551 227.069 145.49 226.532 147.191 225.524C172.805 210.358 277.264 149.419 294.343 138.978C295.095 138.518 294.755 137.274 294.596 136.6C294.279 135.228 291.561 133.286 289.706 132.39C286.988 131.074 284.421 129.378 281.821 127.84L273.024 122.671L262.801 116.63L251.556 109.987L239.668 102.979L227.598 95.8439L215.711 88.8358L204.465 82.1687L194.163 76.112L185.279 70.8877L178.202 66.7416L175.341 65.0768C173.985 64.2906 172.445 63.8798 170.878 63.8868C169.311 63.8938 167.774 64.3182 166.425 65.1164L20.5021 151.71C19.8747 152.083 19.3557 152.615 18.9966 153.251C18.6375 153.887 18.4506 154.606 18.4547 155.336C18.4587 156.067 18.6533 156.783 19.0194 157.415C19.3855 158.047 19.9102 158.573 20.5418 158.94Z" fill="#A3DCFF"/>
<path d="M209.68 121.212L179.454 138.273C179.454 138.273 182.996 145.304 193.211 149.601L228.493 124.328" fill="url(#paint0_linear_25_28810)"/>
<path d="M114.286 124.058L50.0938 165.718C50.0938 165.718 116.925 208.892 131.349 214.964L215.195 165.639" fill="url(#paint1_linear_25_28810)"/>
<path d="M243.115 131.162L200.439 155.246C200.439 155.246 205.44 165.179 219.871 171.244L270.139 140.405" fill="url(#paint2_linear_25_28810)"/>
<path d="M87.3334 45.0755C87.3334 45.0755 76.4127 48.1514 79.6303 67.9704L103.564 52.6701C103.564 52.6701 93.8794 43.1887 87.3334 45.0755Z" fill="#F1CA50"/>
<path opacity="0.39" d="M87.3334 45.0755C87.3334 45.0755 76.4127 48.1514 79.6303 67.9704L103.564 52.6701C103.564 52.6701 93.8794 43.1887 87.3334 45.0755Z" fill="#06489E"/>
<path d="M171.029 130.876C136.889 112.365 148.99 83.8258 149.149 55.9047C149.188 46.9782 149.022 37.6712 146.597 28.9508C145.709 25.7798 144.52 22.4502 142.341 19.9213C141.121 18.5022 139.361 16.8533 137.475 16.4252C135.367 15.9496 133.378 17.5747 131.69 18.5736L125.817 22.0538L110.324 31.2736L97.7549 38.7177L95.5359 40.0336L86.2637 45.5275C88.023 44.481 91.8587 48.0168 92.8018 49.1187C94.9732 51.6476 96.1699 54.9851 97.0575 58.1482C99.4826 66.8052 99.649 76.1439 99.6094 85.1021C99.4826 113.047 83.7594 148.452 117.94 166.939C136.96 177.245 166.1 194.844 166.1 194.844L222.962 161.041C216.923 157.386 187.426 139.755 171.029 130.876Z" fill="#7FB6A9"/>
<path d="M159.799 80.7578L156.32 78.1496C156.315 78.0378 156.282 77.929 156.226 77.8324C156.169 77.7358 156.09 77.6543 155.995 77.5946C152.672 75.2798 149.354 72.9543 146.042 70.6183C145.937 70.5381 145.815 70.4851 145.685 70.464C145.555 70.443 145.422 70.4547 145.298 70.4979C145.174 70.5412 145.062 70.6147 144.973 70.7118C144.885 70.809 144.821 70.9267 144.79 71.0544C144.441 71.6569 144.885 72.2831 145.447 72.7509C146.01 73.2186 146.707 73.7894 147.341 74.3364C147.259 74.3964 147.189 74.4718 147.135 74.5584C146.628 75.3511 145.78 76.4769 145.772 77.4678C145.764 78.4588 146.565 78.9503 147.183 79.4893V79.632C147.056 80.8529 147.595 81.2176 148.562 81.7963C148.655 81.8592 148.76 81.9017 148.871 81.9208C148.982 81.9399 149.095 81.9353 149.204 81.9073C149.874 82.3442 150.583 82.7209 151.32 83.033L154.252 84.5234C154.997 84.9039 155.536 84.0081 155.235 83.4056C155.821 83.4531 156.067 82.811 155.916 82.3116C155.991 82.2385 156.048 82.1489 156.083 82.05V82.0103L157.097 82.8031C157.89 83.4452 158.888 82.1689 158.072 81.5267L157.351 80.9559L158.833 82.0658C159.006 82.1941 159.223 82.2482 159.437 82.2162C159.65 82.1842 159.842 82.0688 159.97 81.8954C160.098 81.7219 160.152 81.5046 160.12 81.2913C160.088 81.0779 159.973 80.886 159.799 80.7578Z" fill="#F04900"/>
<path d="M182.838 182.699L184.09 181.906V167.803L177.901 167.581C177.901 167.581 177.782 173.598 176.316 174.969C174.849 176.341 171.236 175.358 170.879 175.477C170.522 175.596 168.089 174.89 166.996 176.016C165.902 177.142 170.705 180.392 173.257 180.986C175.004 181.339 176.797 181.406 178.566 181.185C178.566 181.185 179.121 177.578 180.009 177.934C180.896 178.291 180.96 182.104 180.96 182.104L182.838 182.699Z" fill="#FF6753"/>
<path d="M187.498 108.037C188.368 112.871 188.882 117.762 189.035 122.671C189.138 128.22 187.181 172.568 187.181 172.568C187.181 172.568 183.503 176.88 174.548 174.28C173.249 173.907 172.836 131.003 172.836 131.003L175.935 111.327" fill="#5166AF"/>
<path d="M183.376 85.6413C182.885 85.6413 166.409 85.2132 155.274 75.2323C155.274 75.2323 149.941 80.4645 152.104 84.468C152.104 84.468 167.891 99.6811 179.929 96.5655" fill="#FC9C54"/>
<path d="M170.324 80.9321C170.302 80.8977 170.271 80.8695 170.235 80.8499C170.199 80.8304 170.159 80.8201 170.118 80.8201C170.077 80.8201 170.037 80.8304 170.001 80.8499C169.965 80.8695 169.934 80.8977 169.912 80.9321C168.325 83.3342 167.755 86.2677 168.327 89.0896C168.391 89.3908 168.85 89.264 168.795 88.9627C168.289 86.4083 168.761 83.7568 170.118 81.5346C171.474 84.0693 172.172 86.9044 172.147 89.7793C172.147 89.8434 172.172 89.9049 172.218 89.9502C172.263 89.9956 172.325 90.0211 172.389 90.0211C172.453 90.0211 172.514 89.9956 172.56 89.9502C172.605 89.9049 172.63 89.8434 172.63 89.7793C172.651 86.6789 171.856 83.6277 170.324 80.9321Z" fill="#42A200"/>
<path d="M165.886 193.584L167.138 192.791V178.688L160.949 178.466C160.949 178.466 160.83 184.483 159.364 185.854C157.898 187.226 154.284 186.243 153.927 186.361C153.571 186.48 151.138 185.775 150.044 186.901C148.95 188.026 153.753 191.277 156.305 191.871C158.052 192.224 159.846 192.291 161.615 192.069C161.615 192.069 162.169 188.462 163.057 188.819C163.945 189.176 164.008 192.989 164.008 192.989L165.886 193.584Z" fill="#FF6753"/>
<path d="M168.105 110.09C168.105 110.09 162.399 131.161 160.077 150.021C159.523 154.548 154.839 181.549 154.839 181.549C154.839 181.549 162.558 184.372 169.421 182.16C169.421 182.16 177.584 147.706 177.932 147.033C178.281 146.359 183.789 124.042 184.423 108.029" fill="#5166AF"/>
<path d="M185.548 83.2788L182.275 82.05C181.443 82.1055 174.033 84.5313 170.665 89.4385C170.192 90.9739 169.834 92.5427 169.595 94.1317C169.167 96.2483 168.803 98.3729 168.533 100.474C168.226 102.802 168.093 105.15 168.137 107.498C168.137 108.504 168.193 109.012 168.296 110.011C168.658 110.377 169.082 110.677 169.548 110.899C179.28 115.084 186.983 110.003 187.371 109.218C187.759 108.433 189.043 96.9539 189.749 90.1203C189.896 88.6769 189.564 87.2251 188.805 85.9888C188.046 84.7524 186.902 83.8001 185.548 83.2788Z" fill="#FFAF68"/>
<path d="M177.599 70.7768C177.599 70.7768 174.54 81.8754 178.606 83.4055C182.671 84.9355 187.902 80.5753 188.425 78.2842C188.948 75.9932 183.694 67.4393 177.599 70.7768Z" fill="#F04900"/>
<path d="M197.673 67.4632C197.142 66.349 196.231 65.4616 195.103 64.9614C193.975 64.4613 192.705 64.3813 191.523 64.7361C189.281 65.4654 187.925 67.3918 187.268 69.5402C185.247 67.7724 182.235 66.8765 178.415 68.0498C178.415 68.0498 174.667 69.6353 175.348 72.0136C176.03 74.3919 178.875 74.3919 181.261 74.8596C183.646 75.3274 181.712 77.4203 181.831 79.7748C181.95 82.1293 183.012 82.5177 184.003 82.7238C184.993 82.93 189.495 81.9311 190.129 76.6434C190.167 76.3198 190.183 75.994 190.176 75.6683C190.795 75.7326 191.417 75.7512 192.039 75.7238C193.44 75.7691 194.821 75.3876 196.001 74.6297C197.034 73.7896 197.759 72.6297 198.062 71.3325C198.365 70.0352 198.228 68.6742 197.673 67.4632Z" fill="#653200"/>
<path d="M173.684 82.9459C173.995 82.509 174.128 81.9708 174.057 81.4396C174.035 81.2807 173.965 81.1323 173.856 81.0139C173.748 80.8956 173.606 80.8129 173.45 80.7768C173.294 80.7407 173.13 80.753 172.981 80.8119C172.832 80.8707 172.704 80.9735 172.615 81.1067L172.266 81.5823C172.21 80.9719 172.147 80.3615 172.06 79.751C172.052 79.5408 171.962 79.3421 171.808 79.1986C171.654 79.0551 171.45 78.9787 171.24 78.986C171.029 78.9934 170.831 79.084 170.687 79.2378C170.544 79.3917 170.467 79.5963 170.475 79.8065C170.475 79.9968 170.427 80.195 170.411 80.3853C170.345 80.5889 170.3 80.7988 170.277 81.0115C169.413 81.1225 168.383 81.4396 168.232 82.4306C168.232 82.4306 168.232 82.4781 168.232 82.494C167.566 82.494 166.916 82.7556 166.893 83.5484C166.881 83.6988 166.881 83.8498 166.893 84.0002C166.219 84.1984 165.728 84.5393 165.823 85.4193C165.967 86.4436 166.233 87.447 166.615 88.408C166.67 88.5274 166.754 88.6312 166.859 88.71C166.965 88.7889 167.088 88.8404 167.218 88.8599C167.313 89.288 167.424 89.7081 167.543 90.1283C167.63 90.3086 167.762 90.4638 167.926 90.5794C168.09 90.695 168.281 90.7673 168.48 90.7894C168.679 90.8116 168.881 90.7829 169.066 90.7061C169.252 90.6294 169.414 90.5069 169.54 90.3503C169.621 90.3448 169.701 90.3288 169.777 90.3027C169.872 90.3679 169.98 90.4116 170.094 90.4308C170.208 90.45 170.324 90.4441 170.435 90.4137C170.533 90.4834 170.646 90.5298 170.765 90.5495C170.883 90.5692 171.005 90.5615 171.12 90.5271C171.236 90.4927 171.342 90.4325 171.43 90.3511C171.519 90.2696 171.588 90.169 171.632 90.0569C171.725 89.9742 171.797 89.8708 171.842 89.7552C171.887 89.6395 171.905 89.5148 171.893 89.391C171.893 89.2087 171.893 89.0263 171.893 88.8519C172.527 86.8859 173.124 84.9172 173.684 82.9459Z" fill="#F04900"/>
<path d="M172.329 87.0522C172.075 87.1156 168.509 83.8415 165.807 84.9672C165.807 84.9672 155.504 102.345 165.117 106.943C169.872 109.226 173.573 102.186 173.573 102.186L170.839 96.7794L172.329 87.0522Z" fill="#FFAF68"/>
<path d="M111.489 66.4404C113.878 66.4404 115.816 63.782 115.816 60.5026C115.816 57.2233 113.878 54.5648 111.489 54.5648C109.099 54.5648 107.162 57.2233 107.162 60.5026C107.162 63.782 109.099 66.4404 111.489 66.4404Z" fill="white"/>
<path d="M118.542 54.3984L141.858 40.7232C142.085 40.5908 142.25 40.3735 142.317 40.1193C142.384 39.8651 142.347 39.5947 142.214 39.3676C142.082 39.1405 141.865 38.9754 141.611 38.9085C141.356 38.8416 141.086 38.8784 140.859 39.0109L117.544 52.686C117.431 52.7516 117.333 52.8387 117.254 52.9423C117.176 53.0459 117.118 53.1641 117.085 53.2899C117.052 53.4158 117.044 53.547 117.061 53.676C117.079 53.8049 117.122 53.9292 117.187 54.0416C117.253 54.1541 117.34 54.2525 117.443 54.3313C117.547 54.41 117.665 54.4676 117.791 54.5008C117.917 54.5339 118.048 54.5419 118.177 54.5243C118.306 54.5068 118.43 54.464 118.542 54.3984Z" fill="#F2F2F2"/>
<path d="M120.46 58.933L135.224 50.4663C135.451 50.3339 135.616 50.1167 135.683 49.8624C135.75 49.6082 135.713 49.3378 135.581 49.1107C135.448 48.8837 135.231 48.7185 134.977 48.6516C134.723 48.5847 134.453 48.6215 134.226 48.754L119.43 57.2207C119.203 57.3573 119.039 57.5786 118.975 57.8358C118.911 58.093 118.952 58.3651 119.089 58.5922C119.225 58.8192 119.447 58.9827 119.704 59.0466C119.961 59.1106 120.233 59.0697 120.46 58.933Z" fill="#F2F2F2"/>
<path d="M115.109 87.3027C115.764 84.0896 114.398 81.0973 112.056 80.619C109.715 80.1408 107.285 82.3578 106.629 85.5709C105.974 88.7839 107.34 91.7763 109.681 92.2545C112.023 92.7328 114.453 90.5158 115.109 87.3027Z" fill="white"/>
<path d="M117.9 81.8834L141.176 68.2003C141.403 68.0678 141.568 67.8506 141.635 67.5964C141.702 67.3421 141.665 67.0717 141.533 66.8447C141.4 66.6176 141.183 66.4524 140.929 66.3855C140.675 66.3186 140.404 66.3555 140.177 66.4879L116.902 80.171C116.789 80.2366 116.691 80.3237 116.612 80.4273C116.533 80.5309 116.476 80.649 116.443 80.7749C116.41 80.9008 116.402 81.032 116.419 81.161C116.437 81.2899 116.48 81.4142 116.545 81.5266C116.611 81.639 116.698 81.7375 116.801 81.8162C116.905 81.895 117.023 81.9526 117.149 81.9857C117.275 82.0189 117.406 82.0269 117.535 82.0093C117.664 81.9917 117.788 81.9489 117.9 81.8834Z" fill="#F2F2F2"/>
<path d="M119.787 86.4182L134.551 77.9515C134.778 77.819 134.943 77.6018 135.01 77.3475C135.077 77.0933 135.04 76.8229 134.907 76.5958C134.775 76.3688 134.558 76.2036 134.304 76.1367C134.05 76.0698 133.779 76.1066 133.552 76.2391L118.788 84.7058C118.561 84.8383 118.396 85.0555 118.329 85.3097C118.262 85.5639 118.299 85.8343 118.431 86.0614C118.564 86.2885 118.781 86.4536 119.035 86.5205C119.289 86.5875 119.56 86.5506 119.787 86.4182Z" fill="#F2F2F2"/>
<path d="M112.198 112.266C113.121 109.12 112.01 106.023 109.717 105.35C107.424 104.677 104.816 106.683 103.894 109.829C102.971 112.976 104.082 116.073 106.375 116.746C108.668 117.418 111.275 115.413 112.198 112.266Z" fill="white"/>
<path d="M115.063 107.244L138.339 93.5608C138.451 93.4952 138.549 93.4081 138.628 93.3045C138.707 93.2009 138.764 93.0828 138.798 92.9569C138.831 92.831 138.839 92.6998 138.821 92.5709C138.804 92.4419 138.761 92.3176 138.695 92.2052C138.63 92.0928 138.543 91.9944 138.439 91.9156C138.335 91.8368 138.217 91.7792 138.092 91.7461C137.966 91.7129 137.835 91.7049 137.706 91.7225C137.577 91.7401 137.452 91.7829 137.34 91.8485L114.064 105.532C113.952 105.597 113.854 105.684 113.775 105.788C113.696 105.891 113.638 106.01 113.605 106.135C113.572 106.261 113.564 106.393 113.582 106.521C113.599 106.65 113.642 106.775 113.708 106.887C113.773 107 113.86 107.098 113.964 107.177C114.068 107.256 114.186 107.313 114.311 107.346C114.437 107.379 114.568 107.387 114.697 107.37C114.826 107.352 114.951 107.309 115.063 107.244Z" fill="#F2F2F2"/>
<path d="M115.555 112.294L130.319 103.827C130.431 103.762 130.53 103.674 130.608 103.571C130.687 103.467 130.745 103.349 130.778 103.223C130.811 103.097 130.819 102.966 130.801 102.837C130.784 102.708 130.741 102.584 130.676 102.472C130.61 102.359 130.523 102.261 130.419 102.182C130.316 102.103 130.198 102.046 130.072 102.012C129.946 101.979 129.815 101.971 129.686 101.989C129.557 102.006 129.433 102.049 129.32 102.115L114.556 110.581C114.329 110.714 114.164 110.931 114.097 111.185C114.03 111.44 114.067 111.71 114.199 111.937C114.332 112.164 114.549 112.329 114.803 112.396C115.057 112.463 115.328 112.426 115.555 112.294Z" fill="#F2F2F2"/>
<path d="M110.791 139.977C113.181 139.977 115.118 137.319 115.118 134.039C115.118 130.76 113.181 128.102 110.791 128.102C108.402 128.102 106.464 130.76 106.464 134.039C106.464 137.319 108.402 139.977 110.791 139.977Z" fill="white"/>
<path d="M117.591 129.148L140.867 115.465C141.094 115.332 141.259 115.115 141.326 114.861C141.393 114.607 141.356 114.336 141.224 114.109C141.158 113.997 141.071 113.898 140.967 113.82C140.864 113.741 140.746 113.683 140.62 113.65C140.366 113.583 140.095 113.62 139.868 113.753L116.593 127.428C116.48 127.493 116.382 127.58 116.303 127.684C116.224 127.788 116.167 127.906 116.134 128.032C116.101 128.158 116.093 128.289 116.11 128.418C116.128 128.547 116.17 128.671 116.236 128.783C116.302 128.896 116.389 128.994 116.492 129.073C116.596 129.152 116.714 129.209 116.84 129.242C116.966 129.276 117.097 129.284 117.226 129.266C117.355 129.248 117.479 129.206 117.591 129.14V129.148Z" fill="#F2F2F2"/>
<path d="M119.667 133.381L134.432 124.914C134.659 124.782 134.824 124.565 134.891 124.311C134.958 124.056 134.921 123.786 134.788 123.559C134.723 123.446 134.636 123.348 134.532 123.269C134.429 123.19 134.31 123.133 134.185 123.1C133.93 123.033 133.66 123.07 133.433 123.202L118.669 131.669C118.442 131.801 118.277 132.018 118.21 132.273C118.143 132.527 118.18 132.797 118.312 133.024C118.445 133.251 118.662 133.417 118.916 133.484C119.17 133.55 119.44 133.514 119.667 133.381Z" fill="#F2F2F2"/>
<path d="M109.08 60.9705L110.015 59.1551C110.015 59.1551 112.123 61.4779 112.123 61.248C112.123 61.0181 114.12 52.1154 114.12 52.1154L115.705 53.4313L113.098 64.0861L109.08 60.9705Z" fill="#4EB300"/>
<path d="M211.922 114.093C211.586 114.092 211.254 114.019 210.947 113.879L210.797 114.87L226.647 115.275V114.093H211.922Z" fill="#EF8A3F"/>
<path d="M210.94 113.951L210.797 114.902L219.522 119.928V118.707C216.606 117.265 213.753 115.624 210.94 113.951Z" fill="#EF8A3F"/>
<path d="M219.784 45.5037C219.266 45.5896 218.734 45.512 218.262 45.2817L208.213 122.853C208.824 123.226 209.458 123.559 210.076 123.908L220.244 45.4244L219.784 45.5037Z" fill="#EF8A3F"/>
<path d="M222.098 45.4086C221.732 45.4487 221.363 45.4487 220.996 45.4086C220.703 45.4086 220.402 45.4086 220.109 45.4561L226.901 125.002C227.417 124.749 227.946 124.524 228.486 124.328L228.755 124.193H228.803L222.098 45.4086Z" fill="#EF8A3F"/>
<path d="M220.997 45.4164C220.591 45.4185 220.186 45.4476 219.784 45.5036C219.626 45.5162 219.467 45.5162 219.309 45.5036L218.643 129.536C218.983 129.415 219.349 129.385 219.705 129.449H220.315H220.648L221.314 45.4164H220.997Z" fill="#EF8A3F"/>
<path d="M210.013 46.7561V64.1334C210.013 64.1334 230 64.728 230 64.1334V46.7561" fill="#FF6753"/>
<path d="M220.022 51.3543C225.541 51.3543 230.015 49.2815 230.015 46.7246C230.015 44.1676 225.541 42.0948 220.022 42.0948C214.503 42.0948 210.028 44.1676 210.028 46.7246C210.028 49.2815 214.503 51.3543 220.022 51.3543Z" fill="#D64338"/>
<path d="M220.022 69.0249C225.541 69.0249 230.015 66.9521 230.015 64.3952C230.015 61.8382 225.541 59.7654 220.022 59.7654C214.503 59.7654 210.028 61.8382 210.028 64.3952C210.028 66.9521 214.503 69.0249 220.022 69.0249Z" fill="#FF6753"/>
<path d="M171.473 87.7894C169.212 91.4752 167.658 95.5512 166.893 99.8077C166.806 100.307 167.566 100.521 167.685 100.022C168.434 95.8326 169.961 91.8208 172.187 88.1938C172.424 87.726 171.743 87.3296 171.473 87.7894Z" fill="#F04900"/>
<path d="M173.391 102.852C172.598 104.398 171.584 106.023 169.999 106.816C169.064 107.254 168.019 107.403 166.999 107.245C165.979 107.087 165.028 106.628 164.269 105.928C160.893 103.018 161.4 98.0002 162.074 94.0919C162.161 93.5924 161.4 93.3784 161.282 93.8778C160.489 98.2697 160.085 103.978 164.23 106.919C165.027 107.508 165.958 107.889 166.939 108.027C167.92 108.165 168.92 108.057 169.849 107.712C171.83 106.919 173.09 105.032 174.041 103.201C174.31 102.804 173.621 102.408 173.391 102.852Z" fill="#F04900"/>
<path d="M182.03 123.535C181.522 133.611 178.55 143.267 176.03 152.97C173.51 162.674 171.363 172.337 169.524 182.128L170.38 181.89C172.245 172.002 174.448 162.185 176.989 152.439C179.486 142.926 182.323 133.413 182.822 123.535C182.846 123.028 182.053 123.028 182.03 123.535Z" fill="#653200"/>
<path d="M235.293 110.93V137.654L255.978 149.601L272.834 139.581V114.751" fill="#FFAF68"/>
<path d="M255.978 149.601V123.234L272.834 115.766V139.581L255.978 149.601Z" fill="#F49E5D"/>
<path d="M272.834 113.364V115.766L271.233 116.257L270.171 114.624" fill="#EA8E50"/>
<path d="M252.324 103.24L235.285 113.332L256.588 125.636C257.222 126.001 272.826 115.766 272.826 115.766L252.324 103.24Z" fill="#EA8E50"/>
<path d="M235.293 113.332V110.93L238.353 109.408L237.98 113.681" fill="#EA8E50"/>
<path d="M252.324 100.838L235.285 110.93L256.588 123.234C257.222 123.599 272.826 113.364 272.826 113.364L252.324 100.838Z" fill="#FFB883"/>
<path d="M238.265 118.469V123.995L253.766 132.842V127.42L238.265 118.469Z" fill="#EA8E50"/>
<path d="M238.059 126.73V132.263L253.56 141.111V135.68L238.059 126.73Z" fill="#EA8E50"/>
<path d="M245.413 126.359C245.797 126.323 246.065 125.852 246.013 125.307C245.961 124.762 245.608 124.35 245.225 124.387C244.842 124.423 244.573 124.894 244.625 125.439C244.677 125.984 245.03 126.396 245.413 126.359Z" fill="#FFB883"/>
<path d="M244.771 134.336C245.154 134.299 245.423 133.828 245.371 133.283C245.319 132.738 244.966 132.326 244.582 132.363C244.199 132.399 243.93 132.871 243.982 133.416C244.034 133.96 244.387 134.372 244.771 134.336Z" fill="#FFB883"/>
<path d="M57.9394 180.305L78.3066 168.12L51.6945 157.862L35.3452 167.066C42.5966 171.949 50.5454 175.683 57.9394 180.305Z" fill="url(#paint3_linear_25_28810)"/>
<path d="M66.2531 130.036C56.5053 130.036 48.5962 132.62 48.5962 135.807H83.91C83.91 132.62 76.0008 130.036 66.2531 130.036Z" fill="#06489E"/>
<path d="M48.6517 136.259L48.5962 135.815C48.5977 135.965 48.6163 136.113 48.6517 136.259Z" fill="#06489E"/>
<path d="M83.9097 135.815L83.8384 136.322C83.8842 136.157 83.9081 135.986 83.9097 135.815Z" fill="#06489E"/>
<path d="M66.2531 141.586C75.4857 141.586 83.0541 139.271 83.8387 136.314L83.91 135.807H48.5962L48.6517 136.251C49.3491 139.24 56.9571 141.586 66.2531 141.586Z" fill="#06489E"/>
<path d="M72.9973 105.999H69.0269V146.993H72.9973V105.999Z" fill="#25B000"/>
<path d="M71.016 106.839C72.1146 106.839 73.0052 106.463 73.0052 105.999C73.0052 105.535 72.1146 105.159 71.016 105.159C69.9174 105.159 69.0269 105.535 69.0269 105.999C69.0269 106.463 69.9174 106.839 71.016 106.839Z" fill="#25B000"/>
<path d="M81.8296 113.827L77.9395 113.033L69.7413 153.198L73.6315 153.992L81.8296 113.827Z" fill="#FF8F02"/>
<path d="M81.8297 113.828C81.9225 113.373 81.1251 112.826 80.0487 112.606C78.9724 112.386 78.0245 112.577 77.9317 113.032C77.8389 113.486 78.6362 114.033 79.7126 114.253C80.789 114.473 81.7368 114.282 81.8297 113.828Z" fill="#FF8F02"/>
<path d="M61.4585 136.719L57.8526 138.788C57.781 138.813 57.7028 138.812 57.6318 138.785C57.5607 138.759 57.5012 138.708 57.4635 138.642C57.4259 138.576 57.4125 138.499 57.4256 138.425C57.4388 138.35 57.4777 138.282 57.5356 138.233L61.2208 136.148C61.255 136.128 61.2926 136.115 61.3317 136.108L60.6026 132.145L56.9571 134.23C56.8855 134.255 56.8073 134.254 56.7362 134.227C56.6652 134.201 56.6056 134.15 56.568 134.084C56.5303 134.018 56.5169 133.941 56.5301 133.866C56.5433 133.792 56.5822 133.724 56.6401 133.675L60.349 131.55C60.3905 131.527 60.4365 131.514 60.4837 131.51L59.8101 127.88L56.2676 129.925C56.196 129.95 56.1178 129.949 56.0468 129.922C55.9757 129.896 55.9162 129.845 55.8785 129.779C55.8409 129.713 55.8275 129.636 55.8406 129.562C55.8538 129.487 55.8927 129.419 55.9506 129.37L59.6595 127.245H59.7309L58.978 123.202L55.4038 125.248C55.3322 125.273 55.254 125.272 55.1829 125.245C55.1119 125.219 55.0523 125.168 55.0147 125.102C54.977 125.036 54.9636 124.959 54.9768 124.884C54.99 124.81 55.0289 124.742 55.0868 124.693L58.7957 122.568H58.8512L58.1142 118.604L54.4845 120.681C54.4129 120.706 54.3347 120.705 54.2636 120.679C54.1926 120.652 54.133 120.602 54.0954 120.536C54.0577 120.47 54.0443 120.393 54.0575 120.318C54.0707 120.243 54.1096 120.175 54.1675 120.126L57.8526 117.915C57.8869 117.895 57.9245 117.881 57.9636 117.875L57.3296 114.442L53.6999 116.519C53.6283 116.544 53.5501 116.543 53.4791 116.517C53.408 116.49 53.3485 116.44 53.3108 116.374C53.2732 116.308 53.2598 116.231 53.2729 116.156C53.2861 116.081 53.325 116.013 53.3829 115.964L57.0601 113.871C57.0968 113.851 57.1372 113.837 57.179 113.832L56.545 110.407L52.9233 112.476C52.8516 112.501 52.7735 112.5 52.7024 112.474C52.6313 112.447 52.5718 112.396 52.5342 112.331C52.4965 112.265 52.4831 112.188 52.4963 112.113C52.5095 112.038 52.5484 111.97 52.6063 111.921L56.3152 109.797C56.3519 109.79 56.3894 109.79 56.4261 109.797L55.7525 106.023L52.1625 108.076C52.0908 108.101 52.0127 108.1 51.9416 108.074C51.8705 108.047 51.811 107.997 51.7734 107.931C51.7357 107.865 51.7223 107.788 51.7355 107.713C51.7487 107.638 51.7876 107.571 51.8455 107.521L55.5544 105.397H55.6257L55.3008 103.645L47.4233 108.528C47.4233 108.528 53.0184 139.692 53.1373 139.755C56.4024 141.46 62.3461 141.658 62.3461 141.658L61.4585 136.719Z" fill="#FFAF68"/>
<path d="M51.8532 107.482C51.7953 107.531 51.7564 107.599 51.7432 107.673C51.73 107.748 51.7434 107.825 51.7811 107.891C51.8187 107.957 51.8783 108.008 51.9493 108.034C52.0204 108.061 52.0986 108.062 52.1702 108.037L55.7523 106.023L55.6334 105.365H55.5621L51.8532 107.482Z" fill="#CA4300"/>
<path d="M52.6379 111.921C52.58 111.97 52.5411 112.038 52.5279 112.113C52.5147 112.188 52.5281 112.265 52.5658 112.331C52.6034 112.396 52.6629 112.447 52.734 112.474C52.8051 112.5 52.8832 112.501 52.9549 112.476L56.5766 110.407L56.4577 109.757C56.421 109.751 56.3835 109.751 56.3468 109.757L52.6379 111.921Z" fill="#CA4300"/>
<path d="M53.383 115.996C53.3251 116.045 53.2862 116.113 53.273 116.188C53.2598 116.262 53.2732 116.339 53.3109 116.405C53.3485 116.471 53.4081 116.522 53.4791 116.548C53.5502 116.575 53.6283 116.576 53.7 116.551L57.3296 114.474L57.2108 113.832C57.169 113.837 57.1286 113.851 57.0919 113.871L53.383 115.996Z" fill="#CA4300"/>
<path d="M54.1437 120.071C54.0858 120.12 54.0469 120.188 54.0337 120.262C54.0206 120.337 54.034 120.414 54.0716 120.48C54.1093 120.546 54.1688 120.597 54.2399 120.623C54.3109 120.65 54.3891 120.651 54.4607 120.626L58.0904 118.549L57.9715 117.907C57.9317 117.902 57.8914 117.905 57.8526 117.915L54.1437 120.071Z" fill="#CA4300"/>
<path d="M55.0549 124.653C54.997 124.702 54.958 124.77 54.9449 124.845C54.9317 124.919 54.9451 124.996 54.9827 125.062C55.0204 125.128 55.0799 125.179 55.151 125.205C55.2221 125.232 55.3002 125.233 55.3719 125.208L58.946 123.163L58.8193 122.497H58.7638L55.0549 124.653Z" fill="#CA4300"/>
<path d="M55.9108 129.37C55.8529 129.419 55.814 129.487 55.8008 129.561C55.7877 129.636 55.8011 129.713 55.8387 129.779C55.8764 129.845 55.9359 129.896 56.007 129.922C56.078 129.949 56.1562 129.95 56.2278 129.925L59.8179 127.871L59.699 127.214H59.6277L55.9108 129.37Z" fill="#CA4300"/>
<path d="M60.3487 131.55L56.6398 133.675C56.5819 133.724 56.543 133.791 56.5298 133.866C56.5167 133.941 56.5301 134.018 56.5677 134.084C56.6054 134.15 56.6649 134.2 56.736 134.227C56.807 134.254 56.8852 134.255 56.9568 134.23L60.6023 132.145L60.4835 131.51C60.4362 131.514 60.3902 131.527 60.3487 131.55Z" fill="#CA4300"/>
<path d="M57.5119 138.233C57.454 138.282 57.4151 138.35 57.4019 138.425C57.3887 138.499 57.4021 138.576 57.4398 138.642C57.4774 138.708 57.537 138.759 57.608 138.786C57.6791 138.812 57.7573 138.813 57.8289 138.788L61.4586 136.711L61.3397 136.069C61.3006 136.075 61.263 136.089 61.2287 136.108L57.5119 138.233Z" fill="#CA4300"/>
<path d="M77.9346 113.031C77.9346 113.031 78.1327 114.07 79.7098 114.252C81.2868 114.434 81.8257 113.824 81.8257 113.824L81.3106 106.023L77.9346 113.031Z" fill="#FFD8BD"/>
<path d="M81.3106 106.023L79.7256 109.289C79.9492 109.534 80.2512 109.693 80.5795 109.74C80.9078 109.786 81.242 109.716 81.5246 109.543L81.3106 106.023Z" fill="#653200"/>
<path d="M69.0269 105.761C69.0269 105.761 69.3914 106.76 70.9764 106.689C72.5614 106.618 72.9973 105.896 72.9973 105.896L71.2538 98.254L69.0269 105.761Z" fill="#FFD8BD"/>
<path d="M71.2618 98.2937L70.2236 101.766C70.4791 101.977 70.7999 102.092 71.131 102.092C71.4622 102.092 71.783 101.977 72.0385 101.766L71.2618 98.2937Z" fill="#653200"/>
<path d="M66.2528 141.586C56.9647 141.586 49.3488 139.208 48.6514 136.259C49.111 139.826 52.2889 164.331 52.4078 164.473C52.4078 164.473 53.9928 171.386 66.2528 171.378C76.6583 171.378 79.6223 166.154 79.6223 166.154L83.8384 136.322C83.0538 139.272 75.4854 141.586 66.2528 141.586Z" fill="#F1CA50"/>
<defs>
<linearGradient id="paint0_linear_25_28810" x1="216.895" y1="122.575" x2="195.812" y2="137.061" gradientUnits="userSpaceOnUse">
<stop stop-color="#B5D3E5"/>
<stop offset="1" stop-color="#B5D3E5" stop-opacity="0"/>
</linearGradient>
<linearGradient id="paint1_linear_25_28810" x1="132.645" y1="124.058" x2="100.51" y2="198.566" gradientUnits="userSpaceOnUse">
<stop stop-color="#B5D3E5"/>
<stop offset="1" stop-color="#B5D3E5" stop-opacity="0"/>
</linearGradient>
<linearGradient id="paint2_linear_25_28810" x1="253.337" y1="134.438" x2="228.298" y2="154.632" gradientUnits="userSpaceOnUse">
<stop stop-color="#B5D3E5"/>
<stop offset="1" stop-color="#B5D3E5" stop-opacity="0"/>
</linearGradient>
<linearGradient id="paint3_linear_25_28810" x1="56.8259" y1="157.862" x2="56.8259" y2="180.305" gradientUnits="userSpaceOnUse">
<stop stop-color="#B5D3E5"/>
<stop offset="1" stop-color="#B5D3E5" stop-opacity="0"/>
</linearGradient>
</defs>
</svg>
