<svg width="266" height="200" viewBox="0 0 266 200" fill="none" xmlns="http://www.w3.org/2000/svg">
<path opacity="0.3" d="M132.847 177.837C175.322 177.837 209.754 143.487 209.754 101.115C209.754 58.7422 175.322 24.3926 132.847 24.3926C90.3724 24.3926 55.9398 58.7422 55.9398 101.115C55.9398 143.487 90.3724 177.837 132.847 177.837Z" fill="#E6E6E6"/>
<path d="M114.746 43.3523C114.746 43.3523 139.258 37.4547 144.95 49.3229C150.642 61.1911 118.689 84.1978 101.06 57.1311L114.746 43.3523Z" fill="#F4A28C"/>
<path opacity="0.1" d="M114.746 43.3523C114.746 43.3523 139.258 37.4547 144.95 49.3229C150.642 61.1911 118.689 84.1978 101.06 57.1311L114.746 43.3523Z" fill="black"/>
<path d="M170.2 67.0042L155.635 36.6111L101.494 62.4308L116.059 92.8239L170.2 67.0042Z" fill="#E6E6E6"/>
<path d="M164.611 66.6275L152.416 41.1782L111.912 60.4944L124.107 85.9436L164.611 66.6275Z" fill="white"/>
<path d="M132.495 74.2195L126.724 62.1772L121.775 64.5378L127.545 76.5801L132.495 74.2195Z" fill="#24285B"/>
<path d="M146.36 68.9329C151.468 68.9329 155.61 64.8015 155.61 59.7051C155.61 54.6086 151.468 50.4772 146.36 50.4772C141.251 50.4772 137.11 54.6086 137.11 59.7051C137.11 64.8015 141.251 68.9329 146.36 68.9329Z" fill="#FFD200"/>
<path d="M127.467 48.7126C127.467 48.7126 141.259 53.3961 142.31 57.748C143.188 61.3437 136.671 64.455 127.84 59.924C126.057 58.9991 124.096 58.4672 122.089 58.3642C120.083 58.2612 118.077 58.5895 116.209 59.3269C113.077 60.5675 108.993 61.3171 104.797 59.5193C95.9727 55.7977 98.666 48.6263 106.699 45.5879C114.732 42.5496 117.239 41.8198 127.467 48.7126Z" fill="#F4A28C"/>
<path d="M107.75 62.498L58.3004 81.8494L50.1941 50.9947L104.678 42.4634L107.75 62.498Z" fill="#1D2C62"/>
<path opacity="0.1" d="M55.1353 69.8021L106.28 52.9319L107.75 62.4981L58.3007 81.8494L55.1353 69.8021Z" fill="black"/>
<path d="M157.598 47.1868C158.168 47.1868 158.629 46.7264 158.629 46.1585C158.629 45.5906 158.168 45.1302 157.598 45.1302C157.029 45.1302 156.568 45.5906 156.568 46.1585C156.568 46.7264 157.029 47.1868 157.598 47.1868Z" fill="#A8A8A8"/>
<path d="M163.707 58.1032L159.42 49.1553C159.309 48.9239 159.031 48.826 158.799 48.9366L158.793 48.9395C158.561 49.0501 158.463 49.3273 158.574 49.5587L162.861 58.5067C162.972 58.7381 163.25 58.836 163.482 58.7253L163.488 58.7225C163.72 58.6119 163.818 58.3346 163.707 58.1032Z" fill="#A8A8A8"/>
<path d="M113.256 77.8888C115.07 77.8888 116.541 76.4216 116.541 74.6117C116.541 72.8017 115.07 71.3345 113.256 71.3345C111.442 71.3345 109.971 72.8017 109.971 74.6117C109.971 76.4216 111.442 77.8888 113.256 77.8888Z" fill="#A8A8A8"/>
<path d="M147.484 121.813C147.484 121.813 122.766 116.83 117.519 128.911C112.272 140.991 145.07 162.784 161.695 135.081L147.484 121.813Z" fill="#F4A28C"/>
<path opacity="0.1" d="M147.484 121.813C147.484 121.813 122.766 116.83 117.519 128.911C112.272 140.991 145.07 162.784 161.695 135.081L147.484 121.813Z" fill="black"/>
<path d="M148.006 171.293L161.428 140.381L106.363 116.587L92.9407 147.499L148.006 171.293Z" fill="#E6E6E6"/>
<path d="M142.955 64.7948C143.405 64.5802 143.702 64.2841 143.844 63.9062C143.995 63.5313 144.04 62.9913 143.979 62.2863C143.917 61.5813 143.893 60.9598 143.905 60.422C143.922 59.8815 143.999 59.3869 144.135 58.9383C144.279 58.4926 144.503 58.0891 144.809 57.7278C145.117 57.3721 145.54 57.066 146.078 56.8097C147.006 56.3675 147.908 56.3013 148.784 56.611C149.661 56.9208 150.383 57.5429 150.952 58.4774L152.714 57.6376L153.345 58.9538L151.558 59.8053C151.886 60.8414 151.843 61.7945 151.431 62.6647C151.024 63.5322 150.285 64.2211 149.215 64.7312L148.076 62.3539C148.735 62.04 149.161 61.6688 149.353 61.2402C149.554 60.8145 149.545 60.3741 149.327 59.919C149.112 59.4693 148.816 59.1825 148.44 59.0587C148.069 58.9323 147.659 58.9763 147.209 59.1908C146.791 59.3897 146.514 59.6699 146.377 60.0315C146.241 60.3932 146.197 60.9631 146.246 61.7412C146.297 62.5249 146.306 63.184 146.273 63.7188C146.244 64.2509 146.152 64.733 145.994 65.1649C145.843 65.5942 145.614 65.9759 145.309 66.3099C145.009 66.6414 144.61 66.9261 144.11 67.1642C143.177 67.6089 142.28 67.6793 141.42 67.3753C140.56 67.0713 139.834 66.4342 139.241 65.4639L137.602 66.2448L136.976 64.9369L138.606 64.1599C138.188 62.9782 138.169 61.9166 138.547 60.9751C138.934 60.0365 139.689 59.2991 140.815 58.7627L141.953 61.14C141.3 61.4513 140.871 61.8443 140.667 62.3188C140.471 62.7962 140.512 63.3255 140.791 63.9068C141.022 64.3894 141.33 64.7104 141.717 64.8697C142.109 65.0264 142.522 65.0014 142.955 64.7948Z" fill="white"/>
<path d="M139.699 164.72L150.937 138.836L109.742 121.035L98.503 146.919L139.699 164.72Z" fill="white"/>
<path d="M137.591 155.63L142.862 143.491L136.546 140.762L131.275 152.9L137.591 155.63Z" fill="#24285B"/>
<path d="M118.716 149.516C123.825 149.516 127.966 145.385 127.966 140.288C127.966 135.192 123.825 131.06 118.716 131.06C113.607 131.06 109.466 135.192 109.466 140.288C109.466 145.385 113.607 149.516 118.716 149.516Z" fill="#FFD200"/>
<path d="M124.828 140.167C124.395 139.918 123.981 139.842 123.587 139.939C123.191 140.028 122.718 140.298 122.17 140.749C121.621 141.2 121.12 141.573 120.668 141.869C120.211 142.161 119.758 142.379 119.309 142.522C118.858 142.657 118.396 142.701 117.924 142.655C117.454 142.603 116.96 142.428 116.442 142.13C115.548 141.617 114.981 140.912 114.739 140.014C114.497 139.116 114.601 138.167 115.052 137.167L113.355 136.192L114.086 134.925L115.807 135.913C116.478 135.055 117.291 134.548 118.246 134.394C119.196 134.236 120.186 134.453 121.217 135.045L119.896 137.334C119.262 136.97 118.712 136.83 118.248 136.915C117.782 136.991 117.422 137.249 117.169 137.687C116.919 138.12 116.85 138.527 116.961 138.907C117.067 139.284 117.337 139.597 117.771 139.846C118.172 140.077 118.562 140.146 118.939 140.053C119.316 139.961 119.813 139.673 120.429 139.191C121.049 138.703 121.59 138.321 122.051 138.045C122.508 137.766 122.96 137.568 123.407 137.452C123.848 137.333 124.294 137.305 124.744 137.366C125.189 137.425 125.652 137.593 126.133 137.869C127.032 138.385 127.6 139.084 127.837 139.965C128.074 140.847 127.96 141.807 127.494 142.847L129.072 143.753L128.345 145.012L126.775 144.111C126.034 145.126 125.166 145.746 124.172 145.969C123.175 146.184 122.135 145.98 121.051 145.358L122.372 143.069C123.001 143.43 123.57 143.56 124.079 143.459C124.586 143.349 125 143.014 125.323 142.455C125.592 141.99 125.682 141.553 125.594 141.144C125.501 140.732 125.246 140.407 124.828 140.167Z" fill="white"/>
<path d="M134.995 127.644C134.995 127.644 121.396 132.832 120.498 137.223C119.7 140.852 126.35 143.718 134.995 138.862C136.743 137.867 138.685 137.258 140.689 137.077C142.694 136.896 144.714 137.147 146.613 137.814C149.785 138.942 153.894 139.512 158.024 137.588C166.702 133.541 163.743 126.47 155.597 123.71C147.45 120.95 144.97 120.373 134.995 127.644Z" fill="#F4A28C"/>
<path d="M155.191 140.686L205.325 158.187L212.275 127.053L157.512 120.552L155.191 140.686Z" fill="#24285B"/>
<path opacity="0.1" d="M208.039 146.033L156.302 131.074L155.191 140.686L205.325 158.187L208.039 146.033Z" fill="black"/>
<path d="M150.137 156.269C151.951 156.269 153.422 154.802 153.422 152.992C153.422 151.182 151.951 149.715 150.137 149.715C148.323 149.715 146.852 151.182 146.852 152.992C146.852 154.802 148.323 156.269 150.137 156.269Z" fill="#A8A8A8"/>
<path d="M157.671 78.5989C157.671 78.5989 170.971 93.0477 153.888 101.154C138.839 108.293 124.894 96.9153 125.751 118.96" stroke="#A8A8A8" stroke-width="2.03" stroke-linecap="round" stroke-linejoin="round" stroke-dasharray="1.01 10.15"/>
</svg>
