<svg width="472" height="545" viewBox="0 0 472 545" fill="none" xmlns="http://www.w3.org/2000/svg">
<path d="M460.039 375.859L290.72 410.689C279.621 412.989 268.648 405.755 266.353 394.591L197.716 59.6745C195.421 48.5524 202.639 37.5558 213.78 35.2561L383.099 0.426454C394.198 -1.87322 405.171 5.36031 407.466 16.5242L476.103 351.441C478.398 362.605 471.18 373.56 460.039 375.859Z" fill="url(#paint0_linear_39_7001)"/>
<path d="M393.532 23.6866L213.443 60.7527L281.493 392.769L461.582 355.703L393.532 23.6866Z" fill="#F9FDFF"/>
<path d="M315.88 28.3988L286.589 34.4197C285.964 34.5452 285.379 34.1271 285.254 33.5417L285.171 33.0817C285.046 32.4546 285.463 31.8692 286.047 31.7437L315.338 25.7228C315.964 25.5973 316.548 26.0155 316.673 26.6008L316.757 27.0608C316.882 27.6879 316.506 28.2733 315.88 28.3988Z" fill="white"/>
<path d="M386.854 113.445C386.479 111.856 386.27 111.02 386.27 111.02C385.811 111.731 385.311 112.4 384.852 113.069" stroke="#3A0054" stroke-miterlimit="10"/>
<path d="M382.098 116.288C363.864 135.606 334.198 121.933 323.558 115.996" stroke="#3A0054" stroke-miterlimit="10" stroke-dasharray="12.18 12.18"/>
<path d="M321.763 114.95C320.386 114.156 319.635 113.654 319.635 113.654C319.635 113.654 319.135 114.449 318.258 115.745" stroke="#3A0054" stroke-miterlimit="10"/>
<path d="M315.713 119.131C307.243 130.128 286.005 152.707 261.93 141.208" stroke="#3A0054" stroke-miterlimit="10" stroke-dasharray="12.18 12.18"/>
<path d="M260.053 140.247C259.343 139.87 258.634 139.41 257.883 138.992C257.883 138.992 258.05 139.87 258.342 141.459" stroke="#3A0054" stroke-miterlimit="10"/>
<path d="M259.26 145.473C264.684 169.055 287.507 249.879 349.928 271.914" stroke="#3A0054" stroke-miterlimit="10" stroke-dasharray="11.9 11.9"/>
<path d="M351.889 272.624C352.681 272.875 353.474 273.126 354.267 273.377C354.893 272.833 355.519 272.248 356.145 271.705" stroke="#3A0054" stroke-miterlimit="10"/>
<path d="M359.107 268.82C406.465 221.028 391.694 135.815 387.271 115.452" stroke="#3A0054" stroke-miterlimit="10" stroke-dasharray="11.9 11.9"/>
<path d="M354.643 264.931C354.059 265.517 353.475 266.102 352.849 266.687C352.056 266.437 351.263 266.144 350.47 265.851" stroke="#3A0054" stroke-miterlimit="10"/>
<path d="M346.715 264.304C333.822 258.827 321.888 250.213 311.207 238.673C300.442 227.049 290.845 212.415 282.709 195.188C275.24 179.383 270.358 164.247 267.438 153.501" stroke="#3A0054" stroke-miterlimit="10" stroke-dasharray="11.65 11.65"/>
<path d="M266.895 151.578C266.687 150.742 266.478 149.947 266.269 149.153C267.062 149.362 267.897 149.571 268.689 149.697" stroke="#3A0054" stroke-miterlimit="10"/>
<path d="M272.904 150.24C276.408 150.491 279.997 150.24 283.585 149.446C299.023 146.059 311.499 133.724 318.467 125.195" stroke="#3A0054" stroke-miterlimit="10" stroke-dasharray="12.22 12.22"/>
<path d="M319.802 123.564C320.344 122.853 320.845 122.184 321.346 121.557C322.013 121.933 322.764 122.31 323.557 122.728" stroke="#3A0054" stroke-miterlimit="10"/>
<path d="M327.355 124.609C337.369 129.25 352.723 134.393 367.202 131.215C371.541 130.254 375.505 128.665 379.093 126.407" stroke="#3A0054" stroke-miterlimit="10" stroke-dasharray="12.22 12.22"/>
<path d="M380.887 125.236C381.554 124.735 382.222 124.233 382.89 123.731C383.015 124.525 383.182 125.362 383.307 126.198" stroke="#3A0054" stroke-miterlimit="10"/>
<path d="M383.975 130.212C385.644 141.083 387.271 156.052 387.021 172.484C386.771 191.551 384.1 208.819 379.135 223.872C373.961 239.551 366.2 252.848 356.061 263.468" stroke="#3A0054" stroke-miterlimit="10" stroke-dasharray="11.65 11.65"/>
<path d="M339.496 195.564L338.161 197.655L336.033 196.317" stroke="#3A0054" stroke-miterlimit="10"/>
<path d="M332.486 194.017L321.972 187.244C319.718 185.822 316.756 186.449 315.296 188.707C313.877 190.965 314.503 193.934 316.756 195.397L336.993 208.443C339.246 209.864 342.208 209.237 343.669 206.979L368.328 168.554C369.747 166.296 369.121 163.327 366.868 161.864C364.614 160.442 361.652 161.069 360.192 163.327L340.664 193.808" stroke="#3A0054" stroke-miterlimit="10" stroke-dasharray="12.17 12.17"/>
<path d="M162.366 187.765L163.498 192.889C163.531 193.019 163.239 193.213 162.689 193.473C162.172 193.7 161.427 193.992 160.457 194.316C159.906 194.51 159.292 194.705 158.612 194.9C157.932 195.094 157.156 195.321 156.347 195.548C155.732 195.71 155.085 195.905 154.405 196.067C153.693 196.262 152.917 196.456 152.14 196.683C151.525 196.845 150.91 197.007 150.263 197.17C149.519 197.364 148.774 197.526 147.965 197.721C147.286 197.883 146.574 198.045 145.894 198.207C145.15 198.369 144.373 198.564 143.597 198.726C143.241 198.791 142.885 198.888 142.529 198.953C142.238 199.018 141.979 199.083 141.688 199.148C140.911 199.31 140.134 199.472 139.39 199.634C138.646 199.796 137.901 199.958 137.189 200.088C136.413 200.25 135.636 200.412 134.892 200.542C134.245 200.672 133.597 200.802 132.983 200.899C132.174 201.061 131.397 201.191 130.653 201.32C129.908 201.45 129.196 201.58 128.549 201.677C127.708 201.807 126.931 201.936 126.219 202.034C125.507 202.131 124.86 202.228 124.31 202.293C123.307 202.423 122.498 202.488 121.948 202.488C121.333 202.488 121.009 202.423 120.977 202.293L119.844 197.17L162.366 187.765Z" fill="url(#paint1_radial_39_7001)"/>
<g opacity="0.7">
<path opacity="0.7" d="M123.048 196.554L124.342 202.391C123.339 202.521 122.53 202.586 121.98 202.586L120.75 197.073L123.048 196.554Z" fill="url(#paint2_linear_39_7001)"/>
<path opacity="0.7" d="M127.223 195.646L128.582 201.775C127.74 201.905 126.964 202.034 126.252 202.132L124.925 196.132L127.223 195.646Z" fill="url(#paint3_linear_39_7001)"/>
<g opacity="0.7">
<path opacity="0.7" d="M131.624 194.641L133.047 200.964C132.238 201.126 131.462 201.256 130.718 201.386L129.326 195.159L131.624 194.641Z" fill="url(#paint4_linear_39_7001)"/>
<path opacity="0.7" d="M135.798 193.7L137.222 200.121C136.445 200.283 135.669 200.445 134.924 200.575L133.5 194.219L135.798 193.7Z" fill="url(#paint5_linear_39_7001)"/>
</g>
<g opacity="0.7">
<g opacity="0.7">
<path opacity="0.7" d="M140.264 192.695L141.688 199.148C140.911 199.31 140.135 199.472 139.39 199.634L137.967 193.214L140.264 192.695Z" fill="url(#paint6_linear_39_7001)"/>
<path opacity="0.7" d="M144.471 191.754L145.895 198.175C145.151 198.337 144.374 198.532 143.597 198.694L142.173 192.241L144.471 191.754Z" fill="url(#paint7_linear_39_7001)"/>
</g>
<g opacity="0.7">
<path opacity="0.7" d="M148.84 190.781L150.263 197.137C149.519 197.332 148.775 197.494 147.966 197.689L146.542 191.268L148.84 190.781Z" fill="url(#paint8_linear_39_7001)"/>
<path opacity="0.7" d="M153.046 189.841L154.438 196.067C153.726 196.262 152.949 196.457 152.173 196.684L150.749 190.36L153.046 189.841Z" fill="url(#paint9_linear_39_7001)"/>
</g>
</g>
<path opacity="0.7" d="M157.285 188.901L158.612 194.9C157.932 195.095 157.156 195.322 156.347 195.549L154.988 189.42L157.285 188.901Z" fill="url(#paint10_linear_39_7001)"/>
<path opacity="0.7" d="M161.46 187.96L162.689 193.473C162.172 193.7 161.427 193.992 160.457 194.316L159.162 188.479L161.46 187.96Z" fill="url(#paint11_linear_39_7001)"/>
</g>
<path d="M162.366 187.766C162.528 188.512 153.143 191.236 141.396 193.862C129.65 196.489 120.006 198.046 119.844 197.3C119.683 196.554 129.067 193.83 140.814 191.203C152.561 188.544 162.204 187.02 162.366 187.766Z" fill="url(#paint12_linear_39_7001)"/>
<path d="M161.622 150.285L157.74 153.453C157.648 153.527 157.352 153.379 156.89 153.008C156.465 152.675 155.91 152.138 155.226 151.452C154.838 151.063 154.394 150.6 153.932 150.119C153.452 149.619 152.952 149.063 152.398 148.452C151.991 148.007 151.566 147.525 151.122 147.007C150.642 146.47 150.143 145.895 149.625 145.302C149.237 144.839 148.83 144.376 148.405 143.895C147.924 143.339 147.444 142.765 146.945 142.172C146.52 141.653 146.076 141.135 145.632 140.597C145.152 140.023 144.69 139.449 144.19 138.856C143.969 138.597 143.747 138.319 143.525 138.06C143.359 137.856 143.174 137.634 143.007 137.43C142.527 136.837 142.065 136.244 141.603 135.67C141.14 135.096 140.697 134.54 140.272 133.984C139.791 133.373 139.329 132.78 138.885 132.206C138.497 131.706 138.127 131.206 137.758 130.724C137.277 130.094 136.833 129.502 136.39 128.927C135.965 128.353 135.558 127.797 135.17 127.279C134.689 126.63 134.264 126 133.857 125.445C133.469 124.889 133.118 124.37 132.804 123.907C132.267 123.111 131.879 122.444 131.62 121.962C131.343 121.444 131.251 121.129 131.362 121.036L135.244 117.868L161.622 150.285Z" fill="url(#paint13_radial_39_7001)"/>
<g opacity="0.7">
<path opacity="0.7" d="M137.24 120.295L132.822 123.907C132.286 123.11 131.898 122.443 131.639 121.962L135.817 118.553L137.24 120.295Z" fill="url(#paint14_linear_39_7001)"/>
<path opacity="0.7" d="M139.828 123.481L135.17 127.297C134.689 126.648 134.264 126.018 133.857 125.463L138.405 121.758L139.828 123.481Z" fill="url(#paint15_linear_39_7001)"/>
<g opacity="0.7">
<path opacity="0.7" d="M142.545 126.834L137.757 130.742C137.277 130.112 136.833 129.52 136.39 128.945L141.122 125.092L142.545 126.834Z" fill="url(#paint16_linear_39_7001)"/>
<path opacity="0.7" d="M145.152 130.02L140.29 133.984C139.809 133.373 139.347 132.78 138.904 132.206L143.728 128.26L145.152 130.02Z" fill="url(#paint17_linear_39_7001)"/>
</g>
<g opacity="0.7">
<g opacity="0.7">
<path opacity="0.7" d="M147.924 133.447L143.026 137.429C142.545 136.837 142.083 136.244 141.621 135.67L146.501 131.687L147.924 133.447Z" fill="url(#paint18_linear_39_7001)"/>
<path opacity="0.7" d="M150.512 136.633L145.632 140.616C145.152 140.041 144.69 139.467 144.19 138.874L149.089 134.873L150.512 136.633Z" fill="url(#paint19_linear_39_7001)"/>
</g>
<g opacity="0.7">
<path opacity="0.7" d="M153.23 139.967L148.405 143.913C147.924 143.357 147.444 142.783 146.945 142.19L151.806 138.226L153.23 139.967Z" fill="url(#paint20_linear_39_7001)"/>
<path opacity="0.7" d="M155.836 143.172L151.104 147.025C150.623 146.488 150.124 145.913 149.607 145.321L154.394 141.412L155.836 143.172Z" fill="url(#paint21_linear_39_7001)"/>
</g>
</g>
<path opacity="0.7" d="M158.461 146.413L153.914 150.118C153.433 149.618 152.934 149.062 152.379 148.451L157.038 144.654L158.461 146.413Z" fill="url(#paint22_linear_39_7001)"/>
<path opacity="0.7" d="M161.067 149.6L156.89 153.008C156.465 152.675 155.91 152.137 155.226 151.452L159.644 147.84L161.067 149.6Z" fill="url(#paint23_linear_39_7001)"/>
</g>
<path d="M161.622 150.285C161.068 150.748 154.709 143.857 147.425 134.91C140.142 125.963 134.708 118.331 135.262 117.886C135.817 117.423 142.176 124.314 149.459 133.261C156.723 142.208 162.177 149.822 161.622 150.285Z" fill="url(#paint24_linear_39_7001)"/>
<path d="M232.006 212.155L230.165 216.931C230.11 217.04 229.785 217.04 229.19 216.985C228.648 216.877 227.89 216.714 226.969 216.443C226.427 216.28 225.832 216.117 225.182 215.9C224.532 215.683 223.773 215.466 223.015 215.194C222.419 214.977 221.824 214.814 221.174 214.597C220.47 214.38 219.765 214.109 219.007 213.837C218.411 213.62 217.816 213.403 217.22 213.24C216.516 212.969 215.812 212.752 215.053 212.481C214.403 212.263 213.753 211.992 213.103 211.775C212.399 211.504 211.695 211.232 210.991 210.961C210.666 210.852 210.341 210.689 210.016 210.581C209.745 210.472 209.475 210.364 209.258 210.31C208.554 210.038 207.85 209.767 207.146 209.495C206.442 209.224 205.792 208.953 205.142 208.681C204.438 208.41 203.733 208.084 203.029 207.813C202.434 207.596 201.838 207.324 201.296 207.107C200.592 206.782 199.888 206.51 199.184 206.239C198.534 205.967 197.884 205.696 197.288 205.425C196.53 205.099 195.826 204.773 195.23 204.448C194.58 204.176 194.038 203.905 193.551 203.634C192.684 203.199 191.98 202.819 191.547 202.494C191.059 202.168 190.789 201.951 190.843 201.842L192.684 197.066L232.006 212.155Z" fill="url(#paint25_radial_39_7001)"/>
<g opacity="0.7">
<path opacity="0.7" d="M195.501 198.153L193.442 203.58C192.576 203.146 191.872 202.766 191.438 202.441L193.388 197.339L195.501 198.153Z" fill="url(#paint26_linear_39_7001)"/>
<path opacity="0.7" d="M199.346 199.672L197.18 205.371C196.421 205.046 195.717 204.72 195.121 204.394L197.234 198.858L199.346 199.672Z" fill="url(#paint27_linear_39_7001)"/>
<g opacity="0.7">
<path opacity="0.7" d="M203.408 201.192L201.188 207.054C200.484 206.729 199.78 206.457 199.075 206.186L201.296 200.378L203.408 201.192Z" fill="url(#paint28_linear_39_7001)"/>
<path opacity="0.7" d="M207.308 202.712L205.033 208.682C204.329 208.411 203.625 208.085 202.921 207.814L205.196 201.898L207.308 202.712Z" fill="url(#paint29_linear_39_7001)"/>
</g>
<g opacity="0.7">
<g opacity="0.7">
<path opacity="0.7" d="M211.479 204.286L209.204 210.256C208.5 209.985 207.796 209.714 207.091 209.442L209.366 203.472L211.479 204.286Z" fill="url(#paint30_linear_39_7001)"/>
<path opacity="0.7" d="M215.378 205.805L213.103 211.776C212.399 211.504 211.695 211.233 210.991 210.962L213.266 204.991L215.378 205.805Z" fill="url(#paint31_linear_39_7001)"/>
</g>
<g opacity="0.7">
<path opacity="0.7" d="M219.44 207.325L217.166 213.242C216.461 212.97 215.757 212.753 214.999 212.482L217.274 206.511L219.44 207.325Z" fill="url(#paint32_linear_39_7001)"/>
<path opacity="0.7" d="M223.34 208.845L221.119 214.599C220.415 214.381 219.711 214.11 218.953 213.839L221.174 207.977L223.34 208.845Z" fill="url(#paint33_linear_39_7001)"/>
</g>
</g>
<path opacity="0.7" d="M227.294 210.365L225.182 215.901C224.532 215.684 223.773 215.467 223.015 215.196L225.182 209.497L227.294 210.365Z" fill="url(#paint34_linear_39_7001)"/>
<path opacity="0.7" d="M231.14 211.83L229.19 216.932C228.648 216.824 227.89 216.661 226.969 216.39L229.027 210.962L231.14 211.83Z" fill="url(#paint35_linear_39_7001)"/>
</g>
<path d="M232.006 212.156C231.735 212.862 222.69 209.985 211.804 205.806C200.917 201.626 192.305 197.664 192.522 197.013C192.738 196.362 201.838 199.184 212.724 203.363C223.611 207.542 232.223 211.45 232.006 212.156Z" fill="url(#paint36_linear_39_7001)"/>
<path d="M373.571 369.682C425.35 379.017 461.585 384.282 456.873 362.191C452.16 340.101 458.877 337.442 495.924 343.521C532.971 349.599 517.968 330.277 501.502 315.568C485.037 300.86 546.24 329.083 551.873 307.21C557.506 285.337 521.217 282.786 552.794 280.289C584.371 277.792 592.549 270.574 584.262 257.168C575.921 243.761 569.584 248.158 605.602 234.969C641.62 221.78 620.226 198.441 599.644 207.071C579.063 215.755 543.261 261.075 544.832 240.071C546.403 219.066 526.634 200.232 511.143 244.25C495.653 288.268 494.624 209.513 478.212 226.393C461.801 243.273 472.471 296.301 456.168 285.174C439.866 274.102 463.751 240.993 442.52 232.472C421.288 223.951 408.776 307.481 388.303 325.23C367.884 342.924 358.622 366.968 373.571 369.682Z" fill="url(#paint37_linear_39_7001)"/>
<g opacity="0.51">
<path opacity="0.51" d="M444.469 319.585C470.088 304.442 499.39 286.856 525.821 270.356C528.313 261.564 525.442 235.837 525.442 235.837C528.421 245.552 527.771 266.666 527.663 269.217C535.083 264.603 542.232 260.044 549.003 255.648C542.016 260.37 534.27 265.526 526.038 270.954L525.388 271.551C525.442 271.496 525.442 271.388 525.496 271.333C516.722 277.141 507.406 283.22 497.873 289.407C497.873 289.407 515.53 287.345 525.117 294.129C525.117 294.129 508.381 287.67 493.161 292.447L493.215 292.393C483.899 298.417 474.367 304.496 464.943 310.358C470.088 311.66 484.441 316.382 491.645 329.789C491.645 329.789 476.75 312.963 460.014 313.452C425.567 334.836 393.123 353.561 376.225 359.423C376.225 359.423 404.01 343.52 440.136 322.19C445.661 304.93 435.37 272.799 435.37 272.799C443.765 288.213 444.415 317.468 444.469 319.585Z" fill="white"/>
</g>
<path d="M292.652 390.361C292.652 390.361 281.441 335.922 331.487 317.197L354.885 316.926C354.885 316.926 308.36 347.429 315.022 358.067C321.683 368.705 356.51 320.182 377.2 315.569C397.89 310.901 413.922 312.638 413.922 312.638C413.922 312.638 341.886 357.307 357.051 361.649C372.217 365.991 404.01 322.516 438.566 318.066C473.121 313.669 480.975 315.352 480.975 315.352C480.975 315.352 411.755 355.082 423.4 362.3C435.045 369.519 467.651 323.385 498.903 327.13C530.154 330.875 564.818 368.108 564.818 368.108C564.818 368.108 496.628 355.027 491.32 372.396C486.012 389.818 564.439 364.689 583.233 386.073C602.028 407.458 607.498 426.997 607.498 426.997C607.498 426.997 396.536 377.769 292.652 390.361Z" fill="url(#paint38_linear_39_7001)"/>
<path d="M292.652 390.361C292.652 390.361 268.929 426.237 317.567 476.714L350.606 482.901C350.606 482.901 297.473 432.533 324.879 413.808C352.285 395.083 361.547 473.403 388.628 488.003C415.709 502.604 430.875 494.571 430.875 494.571C430.875 494.571 359.001 415.708 380.016 403.984C400.977 392.315 415.005 500.487 465.376 492.454C515.747 484.421 521.38 477.691 521.38 477.691C521.38 477.691 435.424 409.52 457.847 406.535C480.271 403.55 523.33 473.132 542.07 467.65C560.864 462.168 607.444 426.997 607.444 426.997C607.444 426.997 419.717 362.192 292.652 390.361Z" fill="url(#paint39_linear_39_7001)"/>
<path d="M382.724 359.967C382.724 359.967 287.128 366.968 290.865 427.16C290.865 427.16 366.909 433.185 380.991 506.837L373.084 511.559L253.926 443.986C253.926 443.986 236.486 396.44 269.904 349.817C303.322 303.194 382.724 359.967 382.724 359.967Z" fill="url(#paint40_radial_39_7001)"/>
<path d="M417.28 353.996C417.28 353.996 361.872 368.596 292.707 359.586C223.541 350.577 176.853 331.852 176.853 331.852C176.853 331.852 227.441 368.542 215.959 428.028C204.476 487.515 195.81 493.051 195.81 493.051L189.473 491.423C189.473 491.423 124.641 308.296 142.298 301.674C159.901 295.052 284.528 293.153 354.235 292.61C354.235 292.556 420.692 297.006 417.28 353.996Z" fill="url(#paint41_radial_39_7001)"/>
<path d="M260.534 241.156L246.019 237.411C244.286 236.977 243.256 235.186 243.69 233.503L251.543 202.62C251.977 200.884 253.764 199.852 255.443 200.287L269.958 204.032C271.692 204.466 272.721 206.257 272.287 207.94L264.434 238.823C264.001 240.559 262.213 241.591 260.534 241.156Z" fill="url(#paint42_linear_39_7001)"/>
<path d="M262.647 239.691L244.827 235.132L253.222 202.349L270.988 206.908L262.647 239.691Z" fill="url(#paint43_radial_39_7001)"/>
<path d="M263.838 203.923L260.967 203.218C260.913 203.218 260.859 203.109 260.859 203.055C260.859 203.001 260.967 202.946 261.022 202.946L263.892 203.652C263.946 203.652 264.001 203.76 264.001 203.815C263.946 203.869 263.892 203.923 263.838 203.923Z" fill="white"/>
<path d="M270.337 230.464L270.229 230.681C270.283 230.518 270.337 230.464 270.337 230.464Z" fill="url(#paint44_radial_39_7001)"/>
<path d="M415.113 233.015C415.113 233.015 392.365 271.714 342.536 277.738C339.557 278.118 336.632 278.281 333.816 278.335C289.24 279.204 262.701 244.901 262.701 244.901L270.229 230.681C269.742 231.929 269.688 238.497 311.988 251.089C359.272 265.146 409.372 194.37 409.372 194.37L414.68 229.921L415.113 233.015Z" fill="url(#paint45_radial_39_7001)"/>
<path opacity="0.2" d="M415.113 233.015C415.113 233.015 392.365 271.714 342.536 277.738C339.557 278.118 336.632 278.281 333.816 278.335C392.636 265.092 400.869 226.719 400.869 226.719L414.734 229.976L415.113 233.015Z" fill="black"/>
<path d="M413.055 153.229C413.055 153.229 430.604 186.284 434.449 199.635C434.449 199.635 423.725 214.29 410.943 208.374C410.943 208.374 408.018 180.042 405.906 172.226C403.848 164.465 413.055 153.229 413.055 153.229Z" fill="url(#paint46_linear_39_7001)"/>
<path d="M397.023 158.168L397.836 182.755C397.836 182.755 413.38 185.632 413.976 173.8C414.572 162.022 412.459 148.236 412.459 148.236C412.459 148.236 396.428 141.126 397.023 158.168Z" fill="url(#paint47_linear_39_7001)"/>
<path d="M473.609 264.82C473.392 265.689 473.229 266.557 473.013 267.426C468.734 286.259 462.83 301.185 456.493 312.909C438.674 345.909 417.28 353.941 417.28 353.941C417.28 353.941 383.862 300.371 354.235 292.501C354.235 292.501 357.918 287.616 376.766 290.276C380.395 290.764 383.699 290.656 386.678 290.004C387.22 289.896 387.761 289.733 388.249 289.57C399.785 286.097 405.635 273.722 402.764 256.516C399.027 234.263 399.84 210.707 409.372 194.316C409.372 194.316 418.471 203.434 429.033 185.686C429.033 185.795 489.587 190.788 473.609 264.82Z" fill="url(#paint48_radial_39_7001)"/>
<path d="M406.881 153.229C406.881 153.229 397.836 156.269 390.199 151.438C382.562 146.553 387.924 144.111 393.286 145.848C398.648 147.585 407.314 139.986 412.351 148.236C412.351 148.236 415.655 147.205 417.063 153.066C418.471 158.928 418.688 164.302 418.688 164.302C418.688 164.302 413.055 164.247 406.881 153.229Z" fill="url(#paint49_radial_39_7001)"/>
<path d="M413.922 164.139L413.326 156.92C413.326 156.92 415.384 155.78 416.088 158.331C416.846 160.828 413.922 164.139 413.922 164.139Z" fill="url(#paint50_linear_39_7001)"/>
<path d="M270.338 230.464C270.338 230.464 272.45 233.341 270.121 239.528C267.738 245.715 262.701 244.901 262.701 244.901C262.701 244.901 263.188 240.451 270.338 230.464Z" fill="url(#paint51_radial_39_7001)"/>
<path d="M268.875 228.402C268.875 228.402 271.638 223.462 271.583 217.872C271.529 212.282 267.413 211.63 269.634 218.252C269.634 218.252 257.935 229.379 261.076 235.566C264.217 241.753 267.088 242.839 267.088 242.839C267.088 242.839 269.309 242.079 270.229 236.706L265.734 233.395C265.626 233.395 267.521 231.495 268.875 228.402Z" fill="url(#paint52_linear_39_7001)"/>
<path d="M250.081 208.428C250.081 208.428 253.277 212.499 251.922 213.584C250.514 214.615 249.268 211.739 249.268 211.739C249.268 211.739 248.294 210.87 250.081 208.428Z" fill="url(#paint53_linear_39_7001)"/>
<path d="M249.269 211.793C249.269 211.793 252.464 215.864 251.11 216.949C249.702 217.98 248.456 215.104 248.456 215.104C248.456 215.104 247.427 214.235 249.269 211.793Z" fill="url(#paint54_linear_39_7001)"/>
<path d="M248.402 215.158C248.402 215.158 251.597 219.229 250.243 220.314C248.835 221.346 247.589 218.469 247.589 218.469C247.589 218.469 246.56 217.601 248.402 215.158Z" fill="url(#paint55_linear_39_7001)"/>
<path d="M247.589 218.361C247.589 218.361 250.785 222.431 249.431 223.517C248.023 224.548 246.777 221.671 246.777 221.671C246.777 221.671 245.748 220.803 247.589 218.361Z" fill="url(#paint56_linear_39_7001)"/>
<path opacity="0.2" d="M473.013 267.48C468.734 286.314 462.83 301.24 456.493 312.963C418.796 324.85 386.462 290.168 386.462 290.168L386.678 290.113L388.249 289.679L473.013 267.48Z" fill="black"/>
<path d="M443.278 197.247C443.278 197.247 467.759 260.641 433.854 272.365C399.948 284.089 327.804 214.073 327.804 214.073C327.804 214.073 321.467 224.439 313.018 224.548C313.018 224.548 373.246 296.572 419.501 303.465C465.755 310.358 471.876 275.024 475.504 257.873C479.187 240.776 475.721 195.13 443.278 197.247Z" fill="url(#paint57_radial_39_7001)"/>
<path d="M313.018 224.548C313.018 224.548 318.705 214.018 327.804 214.073C327.75 214.073 322.496 226.068 313.018 224.548Z" fill="url(#paint58_radial_39_7001)"/>
<path d="M324.067 215.267C324.067 215.267 319.896 201.752 311.718 197.844C303.539 193.936 291.786 192.145 290.053 193.719C288.319 195.293 302.348 196.867 302.348 196.867L304.514 199.907L299.423 198.278C299.423 198.278 288.59 198.875 288.157 200.775C287.778 202.675 298.556 201.155 298.556 201.155L303.593 204.737L296.39 202.783L288.969 207.397C288.969 207.397 290.269 210.11 295.74 207.125L297.256 206.04L303.647 210.056L316.051 218.035L317.838 222.811C317.838 222.757 323.687 221.346 324.067 215.267Z" fill="url(#paint59_linear_39_7001)"/>
<path d="M189.473 491.368C189.473 491.368 168.404 495.764 167.104 485.289C165.804 474.814 156.38 485.072 158.98 488.763C161.58 492.454 166.129 496.036 178.153 501.246C190.177 506.457 186.928 503.852 186.928 503.852L193.102 500.921V506.782L197.002 508.085L195.81 492.942L189.473 491.368Z" fill="url(#paint60_radial_39_7001)"/>
<path d="M373.083 511.505C373.083 511.505 380.395 521.817 374.437 530.338C368.48 538.805 364.905 535.875 366.53 543.039C368.155 550.203 385.053 536.2 389.332 525.779L386.407 517.312L392.582 521.871L394.803 517.964L380.991 506.837L373.083 511.505Z" fill="url(#paint61_radial_39_7001)"/>
<path d="M429.033 185.144C429.033 185.144 421.559 193.719 413.326 196.542L418.742 204.954C418.742 204.954 429.087 198.061 431.254 185.415L429.033 185.144Z" fill="url(#paint62_radial_39_7001)"/>
<path d="M413.326 196.542L409.372 193.719L407.91 196.542V204.954L413.326 196.542Z" fill="url(#paint63_radial_39_7001)"/>
<path d="M211.515 146.37C230.065 146.37 245.102 131.301 245.102 112.713C245.102 94.1243 230.065 79.0553 211.515 79.0553C192.966 79.0553 177.928 94.1243 177.928 112.713C177.928 131.301 192.966 146.37 211.515 146.37Z" fill="url(#paint64_radial_39_7001)"/>
<path d="M211.515 143.08C228.251 143.08 241.818 129.484 241.818 112.713C241.818 95.9418 228.251 82.3461 211.515 82.3461C194.779 82.3461 181.212 95.9418 181.212 112.713C181.212 129.484 194.779 143.08 211.515 143.08Z" fill="url(#paint65_radial_39_7001)"/>
<path d="M219.367 119.187C219.367 115.503 217.297 113.356 213.264 111.675V102.412C214.335 102.519 215.263 102.733 215.977 103.02C216.762 103.306 217.618 102.912 217.868 102.125C218.118 101.374 217.726 100.552 216.976 100.265C216.012 99.9078 214.763 99.6574 213.228 99.5859V94.9718C213.228 94.2565 212.621 93.6484 211.908 93.6484C211.194 93.6484 210.587 94.2565 210.587 94.9718V99.6932C206.518 100.337 203.912 103.127 203.912 106.739C203.912 110.388 206.447 112.605 210.587 114.108V123.944C210.48 123.944 210.408 123.944 210.301 123.944C208.624 123.944 207.018 123.55 205.661 122.978C204.876 122.62 203.948 123.05 203.698 123.908V123.944C203.484 124.659 203.841 125.41 204.519 125.732C206.018 126.376 208.124 126.805 210.052 126.805C210.23 126.805 210.373 126.805 210.551 126.805V130.453C210.551 131.169 211.158 131.777 211.872 131.777C212.586 131.777 213.193 131.169 213.193 130.453V126.483C217.369 125.446 219.367 122.513 219.367 119.187ZM207.41 106.346C207.41 104.88 208.338 103.163 210.658 102.59V110.567C208.41 109.458 207.41 108.277 207.41 106.346ZM213.264 123.407V115.288C215.12 116.361 215.869 117.613 215.869 119.437C215.869 121.261 214.941 122.692 213.264 123.407Z" fill="white"/>
<path d="M373.894 62.1963C377.962 62.1963 381.26 58.8915 381.26 54.8148C381.26 50.7381 377.962 47.4332 373.894 47.4332C369.826 47.4332 366.528 50.7381 366.528 54.8148C366.528 58.8915 369.826 62.1963 373.894 62.1963Z" fill="url(#paint66_radial_39_7001)"/>
<path d="M104.682 302.418L55.4286 271.177C48.418 266.723 46.3297 257.366 50.7449 250.34L64.617 228.367C69.0621 221.342 78.3996 219.249 85.4102 223.674L134.664 254.884C141.674 259.339 143.763 268.696 139.347 275.721L125.475 297.694C121.03 304.749 111.693 306.842 104.682 302.418Z" fill="url(#paint67_radial_39_7001)"/>
<path d="M134.634 283.374L59.9036 236.021L66.586 225.438L141.287 272.821L134.634 283.374Z" fill="url(#paint68_radial_39_7001)"/>
<path d="M75.9664 334.644L7.56057 303.225C1.08692 300.235 -1.80683 292.492 1.17642 285.975L20.5079 243.704C23.4911 237.216 31.2177 234.316 37.7212 237.306L106.127 268.726C112.601 271.715 115.494 279.458 112.511 285.975L93.1798 328.247C90.1965 334.734 82.4401 337.634 75.9664 334.644Z" fill="url(#paint69_radial_39_7001)"/>
<path d="M79.248 332.821L6.78492 299.548C3.50335 298.053 2.07139 294.137 3.56301 290.848L25.7584 242.328C27.25 239.04 31.1581 237.605 34.4396 239.1L106.873 272.373C110.154 273.868 111.586 277.784 110.095 281.072L87.9293 329.592C86.4078 332.881 82.4997 334.346 79.248 332.821Z" stroke="white" stroke-width="3" stroke-miterlimit="10" stroke-dasharray="5 5"/>
<path d="M89.3613 292.462L107.41 300.773C109.2 301.61 110.005 303.733 109.17 305.526L105.531 313.508C104.695 315.302 102.577 316.109 100.787 315.272L82.7385 306.961C80.9486 306.124 80.1431 304.002 80.9784 302.208L84.6179 294.226C85.4234 292.432 87.5714 291.655 89.3613 292.462Z" fill="url(#paint70_radial_39_7001)"/>
<path d="M95.1787 303.583C94.1942 305.706 91.6883 306.662 89.5702 305.676C87.4521 304.689 86.4974 302.178 87.4819 300.056C88.4664 297.933 90.9723 296.976 93.0904 297.963C95.2383 298.949 96.1631 301.461 95.1787 303.583Z" fill="white"/>
<path d="M66.776 201.591C66.776 201.591 58.888 174.64 96.536 151.642C137.411 134.753 161.883 169.61 151.395 212.371C143.507 244.532 184.023 275.256 219.801 244.532" stroke="#C75EF7" stroke-miterlimit="10" stroke-dasharray="12 12"/>
<path d="M218.339 239.104L223.972 248.765L228.521 239.376L218.339 239.104Z" fill="#C75EF7"/>
<defs>
<linearGradient id="paint0_linear_39_7001" x1="232.556" y1="174.868" x2="438.633" y2="354.86" gradientUnits="userSpaceOnUse">
<stop stop-color="#5E4AED"/>
<stop offset="0.4704" stop-color="#3EA8FF"/>
<stop offset="1" stop-color="#40E9FF"/>
</linearGradient>
<radialGradient id="paint1_radial_39_7001" cx="0" cy="0" r="1" gradientUnits="userSpaceOnUse" gradientTransform="translate(113.898 190.801) rotate(-12.6346) scale(46.6082 46.6967)">
<stop stop-color="#FFEEA9"/>
<stop offset="1" stop-color="#FFB048"/>
</radialGradient>
<linearGradient id="paint2_linear_39_7001" x1="180.909" y1="202.9" x2="139.465" y2="200.552" gradientUnits="userSpaceOnUse">
<stop stop-color="#C45A12"/>
<stop offset="1" stop-color="#FFB048"/>
</linearGradient>
<linearGradient id="paint3_linear_39_7001" x1="180.962" y1="201.965" x2="139.518" y2="199.618" gradientUnits="userSpaceOnUse">
<stop stop-color="#C45A12"/>
<stop offset="1" stop-color="#FFB048"/>
</linearGradient>
<linearGradient id="paint4_linear_39_7001" x1="181.024" y1="200.856" x2="139.581" y2="198.508" gradientUnits="userSpaceOnUse">
<stop stop-color="#C45A12"/>
<stop offset="1" stop-color="#FFB048"/>
</linearGradient>
<linearGradient id="paint5_linear_39_7001" x1="181.088" y1="199.75" x2="139.644" y2="197.402" gradientUnits="userSpaceOnUse">
<stop stop-color="#C45A12"/>
<stop offset="1" stop-color="#FFB048"/>
</linearGradient>
<linearGradient id="paint6_linear_39_7001" x1="181.157" y1="198.532" x2="139.714" y2="196.184" gradientUnits="userSpaceOnUse">
<stop stop-color="#C45A12"/>
<stop offset="1" stop-color="#FFB048"/>
</linearGradient>
<linearGradient id="paint7_linear_39_7001" x1="181.223" y1="197.366" x2="139.78" y2="195.019" gradientUnits="userSpaceOnUse">
<stop stop-color="#C45A12"/>
<stop offset="1" stop-color="#FFB048"/>
</linearGradient>
<linearGradient id="paint8_linear_39_7001" x1="181.294" y1="196.116" x2="139.851" y2="193.768" gradientUnits="userSpaceOnUse">
<stop stop-color="#C45A12"/>
<stop offset="1" stop-color="#FFB048"/>
</linearGradient>
<linearGradient id="paint9_linear_39_7001" x1="181.363" y1="194.895" x2="139.92" y2="192.548" gradientUnits="userSpaceOnUse">
<stop stop-color="#C45A12"/>
<stop offset="1" stop-color="#FFB048"/>
</linearGradient>
<linearGradient id="paint10_linear_39_7001" x1="181.436" y1="193.616" x2="139.992" y2="191.269" gradientUnits="userSpaceOnUse">
<stop stop-color="#C45A12"/>
<stop offset="1" stop-color="#FFB048"/>
</linearGradient>
<linearGradient id="paint11_linear_39_7001" x1="181.511" y1="192.293" x2="140.067" y2="189.946" gradientUnits="userSpaceOnUse">
<stop stop-color="#C45A12"/>
<stop offset="1" stop-color="#FFB048"/>
</linearGradient>
<linearGradient id="paint12_linear_39_7001" x1="183.673" y1="190.481" x2="107.376" y2="194.121" gradientUnits="userSpaceOnUse">
<stop stop-color="#C45A12"/>
<stop offset="1" stop-color="#FFB048"/>
</linearGradient>
<radialGradient id="paint13_radial_39_7001" cx="0" cy="0" r="1" gradientUnits="userSpaceOnUse" gradientTransform="translate(138.252 109.977) rotate(50.8863) scale(44.6944 44.6754)">
<stop stop-color="#FFEEA9"/>
<stop offset="1" stop-color="#FFB048"/>
</radialGradient>
<linearGradient id="paint14_linear_39_7001" x1="156.613" y1="172.69" x2="140.821" y2="136.123" gradientUnits="userSpaceOnUse">
<stop stop-color="#C45A12"/>
<stop offset="1" stop-color="#FFB048"/>
</linearGradient>
<linearGradient id="paint15_linear_39_7001" x1="157.435" y1="172.335" x2="141.643" y2="135.768" gradientUnits="userSpaceOnUse">
<stop stop-color="#C45A12"/>
<stop offset="1" stop-color="#FFB048"/>
</linearGradient>
<linearGradient id="paint16_linear_39_7001" x1="158.41" y1="171.914" x2="142.618" y2="135.348" gradientUnits="userSpaceOnUse">
<stop stop-color="#C45A12"/>
<stop offset="1" stop-color="#FFB048"/>
</linearGradient>
<linearGradient id="paint17_linear_39_7001" x1="159.383" y1="171.494" x2="143.591" y2="134.928" gradientUnits="userSpaceOnUse">
<stop stop-color="#C45A12"/>
<stop offset="1" stop-color="#FFB048"/>
</linearGradient>
<linearGradient id="paint18_linear_39_7001" x1="160.453" y1="171.031" x2="144.662" y2="134.465" gradientUnits="userSpaceOnUse">
<stop stop-color="#C45A12"/>
<stop offset="1" stop-color="#FFB048"/>
</linearGradient>
<linearGradient id="paint19_linear_39_7001" x1="161.479" y1="170.589" x2="145.687" y2="134.023" gradientUnits="userSpaceOnUse">
<stop stop-color="#C45A12"/>
<stop offset="1" stop-color="#FFB048"/>
</linearGradient>
<linearGradient id="paint20_linear_39_7001" x1="162.578" y1="170.114" x2="146.786" y2="133.548" gradientUnits="userSpaceOnUse">
<stop stop-color="#C45A12"/>
<stop offset="1" stop-color="#FFB048"/>
</linearGradient>
<linearGradient id="paint21_linear_39_7001" x1="163.651" y1="169.651" x2="147.86" y2="133.084" gradientUnits="userSpaceOnUse">
<stop stop-color="#C45A12"/>
<stop offset="1" stop-color="#FFB048"/>
</linearGradient>
<linearGradient id="paint22_linear_39_7001" x1="164.776" y1="169.165" x2="148.984" y2="132.599" gradientUnits="userSpaceOnUse">
<stop stop-color="#C45A12"/>
<stop offset="1" stop-color="#FFB048"/>
</linearGradient>
<linearGradient id="paint23_linear_39_7001" x1="165.939" y1="168.662" x2="150.147" y2="132.096" gradientUnits="userSpaceOnUse">
<stop stop-color="#C45A12"/>
<stop offset="1" stop-color="#FFB048"/>
</linearGradient>
<linearGradient id="paint24_linear_39_7001" x1="168.414" y1="169.742" x2="132.495" y2="105.871" gradientUnits="userSpaceOnUse">
<stop stop-color="#C45A12"/>
<stop offset="1" stop-color="#FFB048"/>
</linearGradient>
<radialGradient id="paint25_radial_39_7001" cx="0" cy="0" r="1" gradientUnits="userSpaceOnUse" gradientTransform="translate(191.163 188.579) rotate(20.9744) scale(45.2273 45.298)">
<stop stop-color="#FFEEA9"/>
<stop offset="1" stop-color="#FFB048"/>
</radialGradient>
<linearGradient id="paint26_linear_39_7001" x1="238.88" y1="234.364" x2="206.579" y2="210.258" gradientUnits="userSpaceOnUse">
<stop stop-color="#C45A12"/>
<stop offset="1" stop-color="#FFB048"/>
</linearGradient>
<linearGradient id="paint27_linear_39_7001" x1="239.422" y1="233.636" x2="207.122" y2="209.53" gradientUnits="userSpaceOnUse">
<stop stop-color="#C45A12"/>
<stop offset="1" stop-color="#FFB048"/>
</linearGradient>
<linearGradient id="paint28_linear_39_7001" x1="240.067" y1="232.773" x2="207.767" y2="208.667" gradientUnits="userSpaceOnUse">
<stop stop-color="#C45A12"/>
<stop offset="1" stop-color="#FFB048"/>
</linearGradient>
<linearGradient id="paint29_linear_39_7001" x1="240.709" y1="231.913" x2="208.409" y2="207.806" gradientUnits="userSpaceOnUse">
<stop stop-color="#C45A12"/>
<stop offset="1" stop-color="#FFB048"/>
</linearGradient>
<linearGradient id="paint30_linear_39_7001" x1="241.416" y1="230.964" x2="209.117" y2="206.859" gradientUnits="userSpaceOnUse">
<stop stop-color="#C45A12"/>
<stop offset="1" stop-color="#FFB048"/>
</linearGradient>
<linearGradient id="paint31_linear_39_7001" x1="242.094" y1="230.057" x2="209.794" y2="205.951" gradientUnits="userSpaceOnUse">
<stop stop-color="#C45A12"/>
<stop offset="1" stop-color="#FFB048"/>
</linearGradient>
<linearGradient id="paint32_linear_39_7001" x1="242.82" y1="229.085" x2="210.52" y2="204.979" gradientUnits="userSpaceOnUse">
<stop stop-color="#C45A12"/>
<stop offset="1" stop-color="#FFB048"/>
</linearGradient>
<linearGradient id="paint33_linear_39_7001" x1="243.529" y1="228.135" x2="211.23" y2="204.028" gradientUnits="userSpaceOnUse">
<stop stop-color="#C45A12"/>
<stop offset="1" stop-color="#FFB048"/>
</linearGradient>
<linearGradient id="paint34_linear_39_7001" x1="244.272" y1="227.14" x2="211.972" y2="203.033" gradientUnits="userSpaceOnUse">
<stop stop-color="#C45A12"/>
<stop offset="1" stop-color="#FFB048"/>
</linearGradient>
<linearGradient id="paint35_linear_39_7001" x1="245.041" y1="226.11" x2="212.741" y2="202.004" gradientUnits="userSpaceOnUse">
<stop stop-color="#C45A12"/>
<stop offset="1" stop-color="#FFB048"/>
</linearGradient>
<linearGradient id="paint36_linear_39_7001" x1="247.758" y1="225.806" x2="184.037" y2="187.891" gradientUnits="userSpaceOnUse">
<stop stop-color="#C45A12"/>
<stop offset="1" stop-color="#FFB048"/>
</linearGradient>
<linearGradient id="paint37_linear_39_7001" x1="546.454" y1="106.895" x2="494.276" y2="730.041" gradientUnits="userSpaceOnUse">
<stop stop-color="#51C8FF"/>
<stop offset="1" stop-color="#02174E"/>
</linearGradient>
<linearGradient id="paint38_linear_39_7001" x1="724.958" y1="514.976" x2="404.11" y2="361.722" gradientUnits="userSpaceOnUse">
<stop stop-color="#3EA8FF"/>
<stop offset="1" stop-color="#5E4AED"/>
</linearGradient>
<linearGradient id="paint39_linear_39_7001" x1="580.042" y1="490.615" x2="-83.7627" y2="272.687" gradientUnits="userSpaceOnUse">
<stop stop-color="#3EA8FF"/>
<stop offset="1" stop-color="#5E4AED"/>
</linearGradient>
<radialGradient id="paint40_radial_39_7001" cx="0" cy="0" r="1" gradientUnits="userSpaceOnUse" gradientTransform="translate(161.889 283.443) scale(134.023 134.304)">
<stop stop-color="#FFFFAB"/>
<stop offset="0.5498" stop-color="#CD00FF"/>
<stop offset="1" stop-color="#5739D8"/>
</radialGradient>
<radialGradient id="paint41_radial_39_7001" cx="0" cy="0" r="1" gradientUnits="userSpaceOnUse" gradientTransform="translate(131.949 246.592) scale(280.896 281.485)">
<stop stop-color="#FFFFAB"/>
<stop offset="0.5498" stop-color="#CD00FF"/>
<stop offset="1" stop-color="#5739D8"/>
</radialGradient>
<linearGradient id="paint42_linear_39_7001" x1="263.049" y1="197.572" x2="253.042" y2="243.286" gradientUnits="userSpaceOnUse">
<stop stop-color="#40E9FF"/>
<stop offset="0.4704" stop-color="#3EA8FF"/>
<stop offset="1" stop-color="#5E4AED"/>
</linearGradient>
<radialGradient id="paint43_radial_39_7001" cx="0" cy="0" r="1" gradientUnits="userSpaceOnUse" gradientTransform="translate(262.109 199.746) scale(102.597 102.813)">
<stop stop-color="#FFFFAB"/>
<stop offset="0.5498" stop-color="#CD00FF"/>
<stop offset="1" stop-color="#5739D8"/>
</radialGradient>
<radialGradient id="paint44_radial_39_7001" cx="0" cy="0" r="1" gradientUnits="userSpaceOnUse" gradientTransform="translate(270.188 230.404) scale(0.488419 0.489557)">
<stop offset="0.00263467" stop-color="#FFF6A6"/>
<stop offset="0.5071" stop-color="#219DDB"/>
<stop offset="1" stop-color="#10488C"/>
</radialGradient>
<radialGradient id="paint45_radial_39_7001" cx="0" cy="0" r="1" gradientUnits="userSpaceOnUse" gradientTransform="translate(213.145 170.933) scale(347.795 348.524)">
<stop offset="0.00263467" stop-color="#FFF6A6"/>
<stop offset="0.5071" stop-color="#219DDB"/>
<stop offset="1" stop-color="#10488C"/>
</radialGradient>
<linearGradient id="paint46_linear_39_7001" x1="365.526" y1="216.177" x2="435.421" y2="169.841" gradientUnits="userSpaceOnUse">
<stop stop-color="#FFFAC0"/>
<stop offset="0.5439" stop-color="#FFC880"/>
<stop offset="1" stop-color="#EF6262"/>
</linearGradient>
<linearGradient id="paint47_linear_39_7001" x1="350.064" y1="155.742" x2="452.099" y2="173.28" gradientUnits="userSpaceOnUse">
<stop stop-color="#FFFAC0"/>
<stop offset="0.5439" stop-color="#FFC880"/>
<stop offset="1" stop-color="#EF6262"/>
</linearGradient>
<radialGradient id="paint48_radial_39_7001" cx="0" cy="0" r="1" gradientUnits="userSpaceOnUse" gradientTransform="translate(235.106 173.381) scale(398.455 399.291)">
<stop offset="0.00263467" stop-color="#FFF6A6"/>
<stop offset="0.5071" stop-color="#219DDB"/>
<stop offset="1" stop-color="#10488C"/>
</radialGradient>
<radialGradient id="paint49_radial_39_7001" cx="0" cy="0" r="1" gradientUnits="userSpaceOnUse" gradientTransform="translate(375.321 144.003) scale(65.8949 66.0331)">
<stop stop-color="#FFFFAB"/>
<stop offset="0.5498" stop-color="#CD00FF"/>
<stop offset="1" stop-color="#5739D8"/>
</radialGradient>
<linearGradient id="paint50_linear_39_7001" x1="420.788" y1="153.282" x2="402.176" y2="172.046" gradientUnits="userSpaceOnUse">
<stop stop-color="#FFE75C"/>
<stop offset="1" stop-color="#FF2A00"/>
</linearGradient>
<radialGradient id="paint51_radial_39_7001" cx="0" cy="0" r="1" gradientUnits="userSpaceOnUse" gradientTransform="translate(262.284 218.546) scale(37.9475 38.0272)">
<stop stop-color="#FFFFAB"/>
<stop offset="0.5498" stop-color="#CD00FF"/>
<stop offset="1" stop-color="#5739D8"/>
</radialGradient>
<linearGradient id="paint52_linear_39_7001" x1="225.517" y1="194.285" x2="285.655" y2="241.612" gradientUnits="userSpaceOnUse">
<stop stop-color="#FFFAC0"/>
<stop offset="0.5439" stop-color="#FFC880"/>
<stop offset="1" stop-color="#EF6262"/>
</linearGradient>
<linearGradient id="paint53_linear_39_7001" x1="251.444" y1="208.135" x2="250.152" y2="214.035" gradientUnits="userSpaceOnUse">
<stop stop-color="#FFFAC0"/>
<stop offset="0.5439" stop-color="#FFC880"/>
<stop offset="1" stop-color="#EF6262"/>
</linearGradient>
<linearGradient id="paint54_linear_39_7001" x1="250.588" y1="211.49" x2="249.296" y2="217.389" gradientUnits="userSpaceOnUse">
<stop stop-color="#FFFAC0"/>
<stop offset="0.5439" stop-color="#FFC880"/>
<stop offset="1" stop-color="#EF6262"/>
</linearGradient>
<linearGradient id="paint55_linear_39_7001" x1="249.727" y1="214.86" x2="248.436" y2="220.759" gradientUnits="userSpaceOnUse">
<stop stop-color="#FFFAC0"/>
<stop offset="0.5439" stop-color="#FFC880"/>
<stop offset="1" stop-color="#EF6262"/>
</linearGradient>
<linearGradient id="paint56_linear_39_7001" x1="248.903" y1="218.089" x2="247.612" y2="223.988" gradientUnits="userSpaceOnUse">
<stop stop-color="#FFFAC0"/>
<stop offset="0.5439" stop-color="#FFC880"/>
<stop offset="1" stop-color="#EF6262"/>
</linearGradient>
<radialGradient id="paint57_radial_39_7001" cx="0" cy="0" r="1" gradientUnits="userSpaceOnUse" gradientTransform="translate(287.831 203.708) scale(251.956 252.485)">
<stop offset="0.00263467" stop-color="#FFF6A6"/>
<stop offset="0.5071" stop-color="#219DDB"/>
<stop offset="1" stop-color="#10488C"/>
</radialGradient>
<radialGradient id="paint58_radial_39_7001" cx="0" cy="0" r="1" gradientUnits="userSpaceOnUse" gradientTransform="translate(285.716 207.784) scale(41.9558 42.0438)">
<stop stop-color="#FFFFAB"/>
<stop offset="0.5498" stop-color="#CD00FF"/>
<stop offset="1" stop-color="#5739D8"/>
</radialGradient>
<linearGradient id="paint59_linear_39_7001" x1="259.618" y1="176.93" x2="361.763" y2="241.307" gradientUnits="userSpaceOnUse">
<stop stop-color="#FFFAC0"/>
<stop offset="0.5439" stop-color="#FFC880"/>
<stop offset="1" stop-color="#EF6262"/>
</linearGradient>
<radialGradient id="paint60_radial_39_7001" cx="0" cy="0" r="1" gradientUnits="userSpaceOnUse" gradientTransform="translate(96.4768 453.675) scale(174.357 174.722)">
<stop stop-color="#FFFFAB"/>
<stop offset="0.5498" stop-color="#CD00FF"/>
<stop offset="1" stop-color="#5739D8"/>
</radialGradient>
<radialGradient id="paint61_radial_39_7001" cx="0" cy="0" r="1" gradientUnits="userSpaceOnUse" gradientTransform="translate(232.507 508.462) scale(300.563 301.192)">
<stop stop-color="#FFFFAB"/>
<stop offset="0.5498" stop-color="#CD00FF"/>
<stop offset="1" stop-color="#5739D8"/>
</radialGradient>
<radialGradient id="paint62_radial_39_7001" cx="0" cy="0" r="1" gradientUnits="userSpaceOnUse" gradientTransform="translate(394.139 184.738) scale(101.871 102.085)">
<stop offset="0.00263467" stop-color="#FFF6A6"/>
<stop offset="0.5071" stop-color="#219DDB"/>
<stop offset="1" stop-color="#10488C"/>
</radialGradient>
<radialGradient id="paint63_radial_39_7001" cx="0" cy="0" r="1" gradientUnits="userSpaceOnUse" gradientTransform="translate(402.022 193.529) scale(38.7521 38.8335)">
<stop offset="0.00263467" stop-color="#FFF6A6"/>
<stop offset="0.5071" stop-color="#219DDB"/>
<stop offset="1" stop-color="#10488C"/>
</radialGradient>
<radialGradient id="paint64_radial_39_7001" cx="0" cy="0" r="1" gradientUnits="userSpaceOnUse" gradientTransform="translate(177.128 64.8351) scale(131.629 131.906)">
<stop stop-color="#FFEEA9"/>
<stop offset="1" stop-color="#FFB048"/>
</radialGradient>
<radialGradient id="paint65_radial_39_7001" cx="0" cy="0" r="1" gradientUnits="userSpaceOnUse" gradientTransform="translate(176.544 57.0509) scale(74.5179 74.6743)">
<stop stop-color="#FFEEA9"/>
<stop offset="1" stop-color="#FFB048"/>
</radialGradient>
<radialGradient id="paint66_radial_39_7001" cx="0" cy="0" r="1" gradientUnits="userSpaceOnUse" gradientTransform="translate(307.979 12.9214) scale(122.784 123.041)">
<stop stop-color="#FFEEA9"/>
<stop offset="1" stop-color="#FFB048"/>
</radialGradient>
<radialGradient id="paint67_radial_39_7001" cx="0" cy="0" r="1" gradientUnits="userSpaceOnUse" gradientTransform="translate(130.88 236.465) rotate(24.673) scale(112.799 112.953)">
<stop stop-color="#FFEEA9"/>
<stop offset="1" stop-color="#FFB048"/>
</radialGradient>
<radialGradient id="paint68_radial_39_7001" cx="0" cy="0" r="1" gradientUnits="userSpaceOnUse" gradientTransform="translate(230.092 318.401) rotate(24.673) scale(219.45 219.75)">
<stop offset="0.00263467" stop-color="#FFF6A6"/>
<stop offset="0.5071" stop-color="#219DDB"/>
<stop offset="1" stop-color="#10488C"/>
</radialGradient>
<radialGradient id="paint69_radial_39_7001" cx="0" cy="0" r="1" gradientUnits="userSpaceOnUse" gradientTransform="translate(120.843 245.612) rotate(24.673) scale(202.217 202.494)">
<stop offset="0.00263467" stop-color="#FFF6A6"/>
<stop offset="0.5071" stop-color="#219DDB"/>
<stop offset="1" stop-color="#10488C"/>
</radialGradient>
<radialGradient id="paint70_radial_39_7001" cx="0" cy="0" r="1" gradientUnits="userSpaceOnUse" gradientTransform="translate(127.736 300.981) rotate(24.673) scale(79.2918 79.4003)">
<stop offset="0.00263467" stop-color="#FFF6A6"/>
<stop offset="0.5071" stop-color="#219DDB"/>
<stop offset="1" stop-color="#10488C"/>
</radialGradient>
</defs>
</svg>
