<svg width="739" height="643" viewBox="0 0 739 643" fill="none" xmlns="http://www.w3.org/2000/svg">
<path d="M543.95 443.445L343.747 484.538C330.624 487.251 317.649 478.717 314.936 465.545L233.779 70.405C231.065 57.283 239.6 44.309 252.773 41.5958L452.976 0.503138C466.099 -2.21006 479.074 6.32418 481.788 19.4955L562.945 414.636C565.658 427.807 557.123 440.732 543.95 443.445Z" fill="url(#paint0_linear_39_5169)"/>
<path d="M465.312 27.9457L252.375 71.6769L332.838 463.395L545.775 419.664L465.312 27.9457Z" fill="#F9FDFF"/>
<path d="M373.497 33.5054L338.863 40.6091C338.123 40.7571 337.433 40.2637 337.285 39.5731L337.186 39.0305C337.038 38.2905 337.531 37.5999 338.222 37.4519L372.856 30.3482C373.596 30.2002 374.286 30.6936 374.434 31.3842L374.533 31.9268C374.681 32.6668 374.237 33.3574 373.497 33.5054Z" fill="white"/>
<path d="M457.417 133.844C456.973 131.97 456.726 130.983 456.726 130.983C456.183 131.822 455.591 132.611 455.049 133.4" stroke="#3A0054" stroke-miterlimit="10"/>
<path d="M451.792 137.199C430.233 159.99 395.155 143.859 382.575 136.854" stroke="#3A0054" stroke-miterlimit="10" stroke-dasharray="12.18 12.18"/>
<path d="M380.453 135.62C378.825 134.683 377.937 134.091 377.937 134.091C377.937 134.091 377.345 135.028 376.309 136.558" stroke="#3A0054" stroke-miterlimit="10"/>
<path d="M373.299 140.553C363.284 153.527 338.172 180.166 309.706 166.6" stroke="#3A0054" stroke-miterlimit="10" stroke-dasharray="12.18 12.18"/>
<path d="M307.486 165.465C306.647 165.021 305.809 164.479 304.921 163.985C304.921 163.985 305.118 165.021 305.463 166.896" stroke="#3A0054" stroke-miterlimit="10"/>
<path d="M306.549 171.632C312.962 199.454 339.949 294.811 413.755 320.808" stroke="#3A0054" stroke-miterlimit="10" stroke-dasharray="11.9 11.9"/>
<path d="M416.073 321.647C417.011 321.943 417.948 322.239 418.885 322.535C419.625 321.894 420.365 321.203 421.105 320.562" stroke="#3A0054" stroke-miterlimit="10"/>
<path d="M424.608 317.158C480.604 260.773 463.139 160.237 457.91 136.212" stroke="#3A0054" stroke-miterlimit="10" stroke-dasharray="11.9 11.9"/>
<path d="M419.33 312.57C418.639 313.261 417.948 313.952 417.208 314.642C416.271 314.346 415.333 314.001 414.396 313.656" stroke="#3A0054" stroke-miterlimit="10"/>
<path d="M409.955 311.83C394.711 305.368 380.601 295.206 367.971 281.59C355.242 267.876 343.895 250.611 334.275 230.286C325.444 211.639 319.672 193.781 316.218 181.103" stroke="#3A0054" stroke-miterlimit="10" stroke-dasharray="11.65 11.65"/>
<path d="M315.577 178.834C315.33 177.848 315.083 176.91 314.837 175.973C315.774 176.22 316.761 176.466 317.698 176.614" stroke="#3A0054" stroke-miterlimit="10"/>
<path d="M322.681 177.256C326.825 177.552 331.068 177.256 335.311 176.319C353.565 172.323 368.316 157.77 376.555 147.707" stroke="#3A0054" stroke-miterlimit="10" stroke-dasharray="12.22 12.22"/>
<path d="M378.134 145.783C378.775 144.944 379.367 144.155 379.959 143.415C380.748 143.859 381.637 144.303 382.574 144.796" stroke="#3A0054" stroke-miterlimit="10"/>
<path d="M387.064 147.016C398.905 152.492 417.06 158.559 434.179 154.81C439.31 153.676 443.997 151.801 448.24 149.137" stroke="#3A0054" stroke-miterlimit="10" stroke-dasharray="12.22 12.22"/>
<path d="M450.361 147.756C451.15 147.164 451.939 146.572 452.729 145.98C452.877 146.917 453.074 147.904 453.222 148.891" stroke="#3A0054" stroke-miterlimit="10"/>
<path d="M454.012 153.626C455.986 166.452 457.91 184.113 457.614 203.5C457.318 225.995 454.16 246.369 448.289 264.128C442.172 282.627 432.995 298.314 421.007 310.844" stroke="#3A0054" stroke-miterlimit="10" stroke-dasharray="11.65 11.65"/>
<path d="M401.42 230.73L399.842 233.197L397.326 231.618" stroke="#3A0054" stroke-miterlimit="10"/>
<path d="M393.132 228.905L380.699 220.913C378.035 219.236 374.532 219.976 372.806 222.64C371.128 225.304 371.868 228.806 374.532 230.533L398.46 245.924C401.124 247.601 404.627 246.861 406.354 244.198L435.511 198.863C437.188 196.199 436.448 192.696 433.784 190.97C431.12 189.292 427.617 190.032 425.891 192.696L402.802 228.658" stroke="#3A0054" stroke-miterlimit="10" stroke-dasharray="12.17 12.17"/>
<path d="M191.981 221.53L193.32 227.575C193.359 227.728 193.014 227.957 192.364 228.263C191.752 228.531 190.872 228.875 189.724 229.258C189.073 229.488 188.346 229.717 187.543 229.947C186.739 230.176 185.821 230.444 184.864 230.712C184.137 230.903 183.372 231.133 182.569 231.324C181.727 231.554 180.809 231.783 179.89 232.051C179.163 232.242 178.436 232.434 177.671 232.625C176.791 232.854 175.911 233.046 174.954 233.275C174.151 233.467 173.309 233.658 172.506 233.849C171.625 234.04 170.707 234.27 169.789 234.461C169.368 234.538 168.947 234.653 168.526 234.729C168.182 234.806 167.876 234.882 167.531 234.959C166.613 235.15 165.695 235.341 164.815 235.533C163.935 235.724 163.055 235.915 162.213 236.068C161.295 236.259 160.376 236.451 159.496 236.604C158.731 236.757 157.966 236.91 157.239 237.025C156.282 237.216 155.364 237.369 154.484 237.522C153.604 237.675 152.762 237.828 151.997 237.943C151.002 238.096 150.084 238.249 149.242 238.364C148.4 238.479 147.635 238.593 146.984 238.67C145.798 238.823 144.842 238.899 144.191 238.899C143.464 238.899 143.081 238.823 143.043 238.67L141.704 232.625L191.981 221.53Z" fill="url(#paint1_radial_39_5169)"/>
<g opacity="0.7">
<path opacity="0.7" d="M145.492 231.898L147.023 238.784C145.836 238.937 144.88 239.014 144.229 239.014L142.775 232.51L145.492 231.898Z" fill="url(#paint2_linear_39_5169)"/>
<path opacity="0.7" d="M150.428 230.826L152.035 238.057C151.04 238.21 150.122 238.364 149.28 238.478L147.711 231.4L150.428 230.826Z" fill="url(#paint3_linear_39_5169)"/>
<g opacity="0.7">
<path opacity="0.7" d="M155.632 229.64L157.315 237.101C156.359 237.292 155.44 237.445 154.56 237.598L152.915 230.253L155.632 229.64Z" fill="url(#paint4_linear_39_5169)"/>
<path opacity="0.7" d="M160.568 228.531L162.251 236.106C161.333 236.297 160.415 236.489 159.534 236.642L157.851 229.143L160.568 228.531Z" fill="url(#paint5_linear_39_5169)"/>
</g>
<g opacity="0.7">
<g opacity="0.7">
<path opacity="0.7" d="M165.848 227.345L167.532 234.958C166.613 235.15 165.695 235.341 164.815 235.532L163.131 227.957L165.848 227.345Z" fill="url(#paint6_linear_39_5169)"/>
<path opacity="0.7" d="M170.822 226.235L172.506 233.81C171.626 234.002 170.708 234.231 169.789 234.423L168.106 226.809L170.822 226.235Z" fill="url(#paint7_linear_39_5169)"/>
</g>
<g opacity="0.7">
<path opacity="0.7" d="M175.988 225.087L177.671 232.586C176.791 232.816 175.911 233.007 174.955 233.237L173.271 225.661L175.988 225.087Z" fill="url(#paint8_linear_39_5169)"/>
<path opacity="0.7" d="M180.962 223.978L182.607 231.324C181.765 231.553 180.847 231.783 179.929 232.051L178.245 224.59L180.962 223.978Z" fill="url(#paint9_linear_39_5169)"/>
</g>
</g>
<path opacity="0.7" d="M185.974 222.868L187.543 229.946C186.739 230.176 185.821 230.444 184.864 230.712L183.257 223.481L185.974 222.868Z" fill="url(#paint10_linear_39_5169)"/>
<path opacity="0.7" d="M190.91 221.759L192.364 228.263C191.752 228.531 190.872 228.875 189.724 229.258L188.193 222.371L190.91 221.759Z" fill="url(#paint11_linear_39_5169)"/>
</g>
<path d="M191.981 221.529C192.173 222.409 181.076 225.623 167.187 228.722C153.298 231.821 141.895 233.658 141.704 232.778C141.513 231.898 152.609 228.684 166.498 225.585C180.388 222.448 191.79 220.649 191.981 221.529Z" fill="url(#paint12_linear_39_5169)"/>
<path d="M191.102 177.31L186.512 181.047C186.403 181.134 186.053 180.959 185.507 180.522C185.004 180.129 184.348 179.495 183.539 178.686C183.08 178.227 182.556 177.681 182.009 177.113C181.441 176.523 180.851 175.867 180.195 175.146C179.714 174.621 179.212 174.053 178.687 173.441C178.119 172.807 177.529 172.13 176.917 171.431C176.458 170.884 175.977 170.338 175.474 169.77C174.906 169.114 174.338 168.436 173.748 167.737C173.245 167.125 172.72 166.513 172.196 165.879C171.627 165.202 171.081 164.524 170.491 163.825C170.229 163.519 169.966 163.191 169.704 162.885C169.507 162.645 169.289 162.383 169.092 162.142C168.524 161.443 167.977 160.743 167.431 160.066C166.884 159.388 166.36 158.733 165.857 158.077C165.289 157.356 164.742 156.657 164.218 155.979C163.759 155.389 163.322 154.799 162.885 154.231C162.316 153.488 161.792 152.788 161.267 152.111C160.764 151.433 160.284 150.778 159.825 150.166C159.256 149.401 158.754 148.658 158.273 148.002C157.814 147.346 157.399 146.734 157.027 146.188C156.393 145.248 155.934 144.462 155.628 143.893C155.3 143.281 155.191 142.91 155.322 142.801L159.912 139.063L191.102 177.31Z" fill="url(#paint13_radial_39_5169)"/>
<g opacity="0.7">
<path opacity="0.7" d="M162.273 141.925L157.049 146.187C156.415 145.247 155.956 144.461 155.65 143.892L160.59 139.871L162.273 141.925Z" fill="url(#paint14_linear_39_5169)"/>
<path opacity="0.7" d="M165.333 145.684L159.825 150.187C159.256 149.422 158.754 148.679 158.273 148.023L163.65 143.652L165.333 145.684Z" fill="url(#paint15_linear_39_5169)"/>
<g opacity="0.7">
<path opacity="0.7" d="M168.546 149.64L162.885 154.252C162.316 153.509 161.792 152.809 161.267 152.132L166.863 147.586L168.546 149.64Z" fill="url(#paint16_linear_39_5169)"/>
<path opacity="0.7" d="M171.628 153.399L165.879 158.076C165.311 157.355 164.764 156.656 164.24 155.978L169.945 151.323L171.628 153.399Z" fill="url(#paint17_linear_39_5169)"/>
</g>
<g opacity="0.7">
<g opacity="0.7">
<path opacity="0.7" d="M174.906 157.442L169.114 162.141C168.546 161.442 167.999 160.743 167.453 160.065L173.223 155.366L174.906 157.442Z" fill="url(#paint18_linear_39_5169)"/>
<path opacity="0.7" d="M177.966 161.201L172.196 165.9C171.627 165.223 171.081 164.545 170.491 163.846L176.283 159.125L177.966 161.201Z" fill="url(#paint19_linear_39_5169)"/>
</g>
<g opacity="0.7">
<path opacity="0.7" d="M181.179 165.135L175.474 169.79C174.906 169.135 174.338 168.457 173.748 167.758L179.496 163.081L181.179 165.135Z" fill="url(#paint20_linear_39_5169)"/>
<path opacity="0.7" d="M184.261 168.916L178.665 173.462C178.097 172.828 177.507 172.151 176.895 171.451L182.556 166.84L184.261 168.916Z" fill="url(#paint21_linear_39_5169)"/>
</g>
</g>
<path opacity="0.7" d="M187.364 172.741L181.988 177.112C181.419 176.522 180.829 175.866 180.173 175.145L185.681 170.665L187.364 172.741Z" fill="url(#paint22_linear_39_5169)"/>
<path opacity="0.7" d="M190.446 176.5L185.507 180.521C185.004 180.128 184.348 179.494 183.539 178.686L188.763 174.424L190.446 176.5Z" fill="url(#paint23_linear_39_5169)"/>
</g>
<path d="M191.102 177.309C190.446 177.855 182.927 169.725 174.316 159.169C165.704 148.613 159.278 139.609 159.934 139.084C160.59 138.538 168.108 146.668 176.72 157.224C185.31 167.78 191.758 176.762 191.102 177.309Z" fill="url(#paint24_linear_39_5169)"/>
<path d="M274.324 250.306L272.147 255.941C272.083 256.069 271.698 256.069 270.994 256.005C270.354 255.877 269.457 255.685 268.368 255.364C267.728 255.172 267.023 254.98 266.255 254.724C265.486 254.468 264.59 254.212 263.693 253.892C262.989 253.635 262.284 253.443 261.516 253.187C260.683 252.931 259.851 252.611 258.954 252.291C258.25 252.035 257.545 251.778 256.841 251.586C256.008 251.266 255.176 251.01 254.279 250.69C253.511 250.434 252.742 250.113 251.974 249.857C251.141 249.537 250.309 249.217 249.476 248.897C249.092 248.769 248.708 248.577 248.323 248.449C248.003 248.321 247.683 248.192 247.427 248.128C246.594 247.808 245.762 247.488 244.929 247.168C244.096 246.848 243.328 246.528 242.56 246.207C241.727 245.887 240.894 245.503 240.062 245.183C239.357 244.927 238.653 244.606 238.013 244.35C237.18 243.966 236.348 243.646 235.515 243.326C234.746 243.006 233.978 242.685 233.274 242.365C232.377 241.981 231.544 241.597 230.84 241.213C230.071 240.892 229.431 240.572 228.855 240.252C227.83 239.74 226.997 239.291 226.485 238.907C225.909 238.523 225.589 238.267 225.653 238.139L227.83 232.504L274.324 250.306Z" fill="url(#paint25_radial_39_5169)"/>
<g opacity="0.7">
<path opacity="0.7" d="M231.16 233.784L228.726 240.188C227.702 239.675 226.869 239.227 226.357 238.843L228.662 232.823L231.16 233.784Z" fill="url(#paint26_linear_39_5169)"/>
<path opacity="0.7" d="M235.707 235.577L233.145 242.3C232.249 241.916 231.416 241.532 230.712 241.148L233.209 234.616L235.707 235.577Z" fill="url(#paint27_linear_39_5169)"/>
<g opacity="0.7">
<path opacity="0.7" d="M240.51 237.37L237.884 244.286C237.052 243.902 236.219 243.582 235.387 243.261L238.013 236.41L240.51 237.37Z" fill="url(#paint28_linear_39_5169)"/>
<path opacity="0.7" d="M245.121 239.163L242.431 246.207C241.599 245.887 240.766 245.502 239.934 245.182L242.623 238.202L245.121 239.163Z" fill="url(#paint29_linear_39_5169)"/>
</g>
<g opacity="0.7">
<g opacity="0.7">
<path opacity="0.7" d="M250.052 241.02L247.363 248.064C246.53 247.744 245.698 247.423 244.865 247.103L247.555 240.059L250.052 241.02Z" fill="url(#paint30_linear_39_5169)"/>
<path opacity="0.7" d="M254.663 242.813L251.973 249.857C251.141 249.536 250.308 249.216 249.476 248.896L252.166 241.852L254.663 242.813Z" fill="url(#paint31_linear_39_5169)"/>
</g>
<g opacity="0.7">
<path opacity="0.7" d="M259.466 244.606L256.777 251.586C255.944 251.266 255.112 251.01 254.215 250.689L256.905 243.645L259.466 244.606Z" fill="url(#paint32_linear_39_5169)"/>
<path opacity="0.7" d="M264.077 246.399L261.452 253.187C260.619 252.931 259.787 252.611 258.89 252.29L261.516 245.375L264.077 246.399Z" fill="url(#paint33_linear_39_5169)"/>
</g>
</g>
<path opacity="0.7" d="M268.752 248.192L266.255 254.724C265.486 254.467 264.59 254.211 263.693 253.891L266.255 247.167L268.752 248.192Z" fill="url(#paint34_linear_39_5169)"/>
<path opacity="0.7" d="M273.299 249.921L270.994 255.94C270.353 255.812 269.457 255.62 268.368 255.3L270.802 248.896L273.299 249.921Z" fill="url(#paint35_linear_39_5169)"/>
</g>
<path d="M274.324 250.305C274.004 251.138 263.309 247.744 250.437 242.813C237.564 237.882 227.382 233.208 227.638 232.439C227.894 231.671 238.653 235.001 251.525 239.931C264.398 244.862 274.58 249.473 274.324 250.305Z" fill="url(#paint36_linear_39_5169)"/>
<path d="M441.71 436.156C502.934 447.171 545.778 453.382 540.206 427.32C534.635 401.257 542.576 398.119 586.38 405.291C630.184 412.463 612.445 389.667 592.976 372.313C573.508 354.959 645.875 388.258 652.535 362.451C659.195 336.645 616.287 333.635 653.624 330.69C690.96 327.744 700.63 319.227 690.832 303.411C680.969 287.594 673.476 292.781 716.064 277.22C758.652 261.659 733.355 234.124 709.02 244.306C684.684 254.551 642.352 308.021 644.21 283.239C646.067 258.458 622.692 236.237 604.376 288.17C586.06 340.103 584.843 247.187 565.438 267.102C546.034 287.017 558.65 349.58 539.374 336.453C520.097 323.39 548.339 284.328 523.235 274.274C498.131 264.221 483.337 362.772 459.13 383.711C434.986 404.587 424.035 432.955 441.71 436.156Z" fill="url(#paint37_linear_39_5169)"/>
<g opacity="0.51">
<path opacity="0.51" d="M649.141 301.617C675.142 284.2 692.753 272.097 692.753 272.097C681.482 280.422 666.368 290.539 649.141 301.617Z" fill="white"/>
<path opacity="0.51" d="M525.541 377.052C555.832 359.186 590.479 338.438 621.731 318.971C624.677 308.597 621.283 278.245 621.283 278.245C624.805 289.707 624.036 314.617 623.908 317.627C632.682 312.183 641.135 306.805 649.141 301.618C640.879 307.189 631.721 313.272 621.987 319.676L621.219 320.38C621.283 320.316 621.283 320.188 621.347 320.124C610.972 326.976 599.957 334.148 588.686 341.448C588.686 341.448 609.563 339.014 620.898 347.019C620.898 347.019 601.11 339.399 583.114 345.034L583.178 344.97C572.163 352.078 560.892 359.25 549.748 366.165C555.832 367.702 572.803 373.273 581.321 389.09C581.321 389.09 563.709 369.239 543.92 369.816C503.19 395.046 464.829 417.138 444.848 424.054C444.848 424.054 477.702 405.291 520.417 380.125C526.95 359.762 514.782 321.853 514.782 321.853C524.708 340.039 525.477 374.554 525.541 377.052Z" fill="white"/>
</g>
<path d="M346.032 460.554C346.032 460.554 332.776 396.327 391.95 374.234L419.616 373.914C419.616 373.914 364.604 409.902 372.481 422.453C380.359 435.004 421.537 377.756 446.001 372.313C470.465 366.806 489.421 368.855 489.421 368.855C489.421 368.855 404.246 421.557 422.178 426.679C440.109 431.802 477.702 380.51 518.56 375.259C559.419 370.072 568.705 372.057 568.705 372.057C568.705 372.057 486.86 418.931 500.628 427.448C514.397 435.965 552.95 381.534 589.902 385.953C626.854 390.371 667.841 434.3 667.841 434.3C667.841 434.3 587.213 418.867 580.937 439.359C574.66 459.914 667.393 430.265 689.615 455.495C711.837 480.726 718.306 503.778 718.306 503.778C718.306 503.778 468.864 445.698 346.032 460.554Z" fill="url(#paint38_linear_39_5169)"/>
<path d="M346.032 460.554C346.032 460.554 317.982 502.882 375.491 562.435L414.557 569.735C414.557 569.735 351.732 510.31 384.137 488.218C416.542 466.125 427.493 558.529 459.514 575.754C491.535 592.98 509.466 583.503 509.466 583.503C509.466 583.503 424.483 490.459 449.331 476.627C474.115 462.86 490.702 590.483 550.261 581.005C609.819 571.528 616.479 563.588 616.479 563.588C616.479 563.588 514.846 483.159 541.359 479.637C567.872 476.115 618.785 558.209 640.943 551.741C663.166 545.273 718.241 503.778 718.241 503.778C718.241 503.778 496.274 427.32 346.032 460.554Z" fill="url(#paint39_linear_39_5169)"/>
<path d="M452.533 424.694C452.533 424.694 339.5 432.955 343.919 503.971C343.919 503.971 433.833 511.079 450.484 597.975L441.134 603.546L300.243 523.822C300.243 523.822 279.621 467.726 319.135 412.72C358.648 357.713 452.533 424.694 452.533 424.694Z" fill="url(#paint40_radial_39_5169)"/>
<path d="M493.392 417.65C493.392 417.65 427.877 434.876 346.096 424.246C264.315 413.616 209.112 391.524 209.112 391.524C209.112 391.524 268.926 434.812 255.35 504.995C241.773 575.178 231.526 581.71 231.526 581.71L224.033 579.789C224.033 579.789 147.376 363.732 168.253 355.92C189.067 348.108 336.426 345.867 418.848 345.226C418.848 345.162 497.426 350.413 493.392 417.65Z" fill="url(#paint41_radial_39_5169)"/>
<path d="M308.056 284.52L290.893 280.102C288.843 279.59 287.626 277.476 288.139 275.491L297.425 239.055C297.937 237.006 300.051 235.789 302.036 236.302L319.199 240.72C321.248 241.232 322.465 243.345 321.953 245.331L312.667 281.767C312.154 283.816 310.041 285.033 308.056 284.52Z" fill="url(#paint42_linear_39_5169)"/>
<path d="M310.553 282.791L289.484 277.412L299.41 238.735L320.416 244.114L310.553 282.791Z" fill="url(#paint43_radial_39_5169)"/>
<path d="M311.962 240.592L308.568 239.76C308.504 239.76 308.44 239.632 308.44 239.567C308.44 239.503 308.568 239.439 308.632 239.439L312.026 240.272C312.09 240.272 312.154 240.4 312.154 240.464C312.09 240.528 312.026 240.592 311.962 240.592Z" fill="white"/>
<path d="M319.647 271.905L319.519 272.162C319.583 271.969 319.647 271.905 319.647 271.905Z" fill="url(#paint44_radial_39_5169)"/>
<path d="M490.83 274.915C490.83 274.915 463.933 320.572 405.014 327.68C401.492 328.128 398.034 328.321 394.704 328.385C341.998 329.409 310.617 288.939 310.617 288.939L319.519 272.161C318.943 273.634 318.879 281.382 368.895 296.239C424.803 312.824 484.042 229.321 484.042 229.321L490.318 271.265L490.83 274.915Z" fill="url(#paint45_radial_39_5169)"/>
<path opacity="0.2" d="M490.83 274.915C490.83 274.915 463.933 320.572 405.015 327.68C401.492 328.129 398.034 328.321 394.704 328.385C464.253 312.76 473.987 267.487 473.987 267.487L490.382 271.329L490.83 274.915Z" fill="black"/>
<path d="M488.397 180.783C488.397 180.783 509.146 219.78 513.693 235.533C513.693 235.533 501.013 252.823 485.899 245.843C485.899 245.843 482.441 212.416 479.943 203.195C477.51 194.038 488.397 180.783 488.397 180.783Z" fill="url(#paint46_linear_39_5169)"/>
<path d="M469.44 186.61L470.401 215.618C470.401 215.618 488.781 219.012 489.485 205.052C490.19 191.156 487.692 174.891 487.692 174.891C487.692 174.891 468.736 166.503 469.44 186.61Z" fill="url(#paint47_linear_39_5169)"/>
<path d="M559.995 312.44C559.739 313.464 559.546 314.489 559.29 315.513C554.231 337.734 547.251 355.344 539.758 369.175C518.688 408.109 493.392 417.586 493.392 417.586C493.392 417.586 453.878 354.383 418.847 345.098C418.847 345.098 423.202 339.335 445.489 342.472C449.779 343.049 453.686 342.921 457.208 342.152C457.849 342.024 458.489 341.832 459.065 341.64C472.706 337.542 479.623 322.941 476.229 302.642C471.81 276.388 472.77 248.596 484.042 229.257C484.042 229.257 494.801 240.015 507.289 219.076C507.289 219.204 578.887 225.095 559.995 312.44Z" fill="url(#paint48_radial_39_5169)"/>
<path d="M481.096 180.783C481.096 180.783 470.401 184.369 461.371 178.669C452.341 172.906 458.681 170.025 465.021 172.074C471.361 174.123 481.608 165.158 487.564 174.891C487.564 174.891 491.47 173.675 493.136 180.59C494.801 187.506 495.057 193.846 495.057 193.846C495.057 193.846 488.396 193.782 481.096 180.783Z" fill="url(#paint49_radial_39_5169)"/>
<path d="M489.421 193.654L488.717 185.137C488.717 185.137 491.15 183.792 491.983 186.802C492.879 189.748 489.421 193.654 489.421 193.654Z" fill="url(#paint50_linear_39_5169)"/>
<path d="M319.647 271.905C319.647 271.905 322.145 275.299 319.391 282.599C316.573 289.899 310.617 288.939 310.617 288.939C310.617 288.939 311.194 283.688 319.647 271.905Z" fill="url(#paint51_radial_39_5169)"/>
<path d="M317.918 269.472C317.918 269.472 321.184 263.645 321.12 257.049C321.056 250.453 316.189 249.685 318.815 257.497C318.815 257.497 304.982 270.625 308.696 277.925C312.411 285.225 315.805 286.505 315.805 286.505C315.805 286.505 318.43 285.609 319.519 279.269L314.204 275.363C314.076 275.363 316.317 273.122 317.918 269.472Z" fill="url(#paint52_linear_39_5169)"/>
<path d="M295.696 245.907C295.696 245.907 299.474 250.709 297.873 251.99C296.208 253.207 294.735 249.813 294.735 249.813C294.735 249.813 293.582 248.788 295.696 245.907Z" fill="url(#paint53_linear_39_5169)"/>
<path d="M294.735 249.877C294.735 249.877 298.513 254.68 296.912 255.96C295.247 257.177 293.774 253.783 293.774 253.783C293.774 253.783 292.558 252.759 294.735 249.877Z" fill="url(#paint54_linear_39_5169)"/>
<path d="M293.71 253.847C293.71 253.847 297.489 258.65 295.888 259.931C294.223 261.147 292.75 257.753 292.75 257.753C292.75 257.753 291.533 256.729 293.71 253.847Z" fill="url(#paint55_linear_39_5169)"/>
<path d="M292.75 257.625C292.75 257.625 296.528 262.428 294.927 263.709C293.262 264.925 291.789 261.532 291.789 261.532C291.789 261.532 290.572 260.507 292.75 257.625Z" fill="url(#paint56_linear_39_5169)"/>
<path opacity="0.2" d="M559.29 315.578C554.231 337.798 547.251 355.408 539.758 369.239C495.185 383.263 456.952 342.344 456.952 342.344L457.208 342.28L459.065 341.768L559.29 315.578Z" fill="black"/>
<path d="M524.132 232.715C524.132 232.715 553.078 307.509 512.988 321.341C472.899 335.172 387.595 252.567 387.595 252.567C387.595 252.567 380.102 264.797 370.112 264.925C370.112 264.925 441.326 349.901 496.017 358.033C550.709 366.166 557.946 324.479 562.236 304.243C566.591 284.072 562.493 230.218 524.132 232.715Z" fill="url(#paint57_radial_39_5169)"/>
<path d="M370.112 264.925C370.112 264.925 376.836 252.502 387.595 252.567C387.531 252.567 381.319 266.718 370.112 264.925Z" fill="url(#paint58_radial_39_5169)"/>
<path d="M383.176 253.975C383.176 253.975 378.245 238.03 368.575 233.42C358.905 228.809 345.008 226.696 342.958 228.553C340.909 230.41 357.496 232.267 357.496 232.267L360.057 235.853L354.037 233.932C354.037 233.932 341.229 234.637 340.717 236.878C340.269 239.119 353.013 237.326 353.013 237.326L358.969 241.552L350.451 239.247L341.677 244.69C341.677 244.69 343.214 247.892 349.683 244.37L351.476 243.089L359.033 247.828L373.698 257.241L375.812 262.876C375.812 262.812 382.728 261.147 383.176 253.975Z" fill="url(#paint59_linear_39_5169)"/>
<path d="M224.033 579.724C224.033 579.724 199.121 584.911 197.584 572.552C196.047 560.194 184.904 572.296 187.978 576.651C191.052 581.005 196.431 585.231 210.649 591.379C224.866 597.526 221.023 594.453 221.023 594.453L228.324 590.995V597.91L232.935 599.447L231.526 581.581L224.033 579.724Z" fill="url(#paint60_radial_39_5169)"/>
<path d="M441.134 603.482C441.134 603.482 449.779 615.649 442.735 625.702C435.69 635.692 431.464 632.234 433.385 640.686C435.306 649.139 455.287 632.618 460.346 620.323L456.888 610.334L464.189 615.713L466.815 611.102L450.484 597.975L441.134 603.482Z" fill="url(#paint61_radial_39_5169)"/>
<path d="M507.289 218.435C507.289 218.435 498.451 228.553 488.717 231.883L495.121 241.808C495.121 241.808 507.353 233.676 509.914 218.756L507.289 218.435Z" fill="url(#paint62_radial_39_5169)"/>
<path d="M488.717 231.883L484.042 228.553L482.313 231.883V241.809L488.717 231.883Z" fill="url(#paint63_radial_39_5169)"/>
<path d="M250.095 172.69C272.028 172.69 289.809 154.911 289.809 132.98C289.809 111.049 272.028 93.2708 250.095 93.2708C228.162 93.2708 210.382 111.049 210.382 132.98C210.382 154.911 228.162 172.69 250.095 172.69Z" fill="url(#paint64_radial_39_5169)"/>
<path d="M250.095 168.808C269.884 168.808 285.926 152.767 285.926 132.98C285.926 113.194 269.884 97.1532 250.095 97.1532C230.307 97.1532 214.265 113.194 214.265 132.98C214.265 152.767 230.307 168.808 250.095 168.808Z" fill="url(#paint65_radial_39_5169)"/>
<path d="M259.38 140.618C259.38 136.272 256.932 133.74 252.163 131.756V120.827C253.429 120.953 254.527 121.207 255.371 121.544C256.299 121.882 257.312 121.418 257.607 120.489C257.903 119.603 257.439 118.632 256.552 118.295C255.413 117.873 253.936 117.577 252.121 117.493V112.049C252.121 111.205 251.404 110.488 250.56 110.488C249.715 110.488 248.998 111.205 248.998 112.049V117.62C244.187 118.379 241.106 121.671 241.106 125.933C241.106 130.237 244.102 132.854 248.998 134.626V146.231C248.871 146.231 248.787 146.231 248.66 146.231C246.677 146.231 244.778 145.767 243.174 145.091C242.245 144.669 241.148 145.176 240.853 146.189V146.231C240.6 147.075 241.022 147.961 241.823 148.341C243.596 149.1 246.086 149.607 248.365 149.607C248.576 149.607 248.745 149.607 248.956 149.607V153.911C248.956 154.755 249.673 155.472 250.517 155.472C251.361 155.472 252.079 154.755 252.079 153.911V149.227C257.017 148.003 259.38 144.543 259.38 140.618ZM245.242 125.469C245.242 123.739 246.339 121.713 249.082 121.038V130.448C246.424 129.14 245.242 127.747 245.242 125.469ZM252.163 145.598V136.019C254.358 137.285 255.244 138.762 255.244 140.914C255.244 143.066 254.147 144.754 252.163 145.598Z" fill="white"/>
<path d="M442.092 73.3801C446.902 73.3801 450.802 69.481 450.802 64.6713C450.802 59.8615 446.902 55.9624 442.092 55.9624C437.282 55.9624 433.382 59.8615 433.382 64.6713C433.382 69.481 437.282 73.3801 442.092 73.3801Z" fill="url(#paint66_radial_39_5169)"/>
<path d="M123.776 356.797L65.5388 319.939C57.2494 314.684 54.7802 303.644 60.0008 295.356L76.4031 269.432C81.6589 261.143 92.6997 258.674 100.989 263.894L159.226 300.717C167.516 305.972 169.985 317.012 164.764 325.3L148.362 351.224C143.106 359.548 132.065 362.017 123.776 356.797Z" fill="url(#paint67_radial_39_5169)"/>
<path d="M159.191 334.33L70.83 278.461L78.7313 265.975L167.057 321.879L159.191 334.33Z" fill="url(#paint68_radial_39_5169)"/>
<path d="M89.8227 394.819L8.93962 357.749C1.28518 354.222 -2.13639 345.087 1.391 337.398L24.2485 287.525C27.7759 279.872 36.9118 276.45 44.6015 279.978L125.485 317.047C133.139 320.574 136.561 329.709 133.033 337.398L110.176 387.271C106.648 394.925 97.4771 398.346 89.8227 394.819Z" fill="url(#paint69_radial_39_5169)"/>
<path d="M93.7029 392.668L8.02251 353.411C4.14238 351.648 2.44923 347.027 4.21292 343.147L30.4567 285.903C32.2204 282.023 36.8413 280.33 40.7214 282.094L126.367 321.35C130.247 323.114 131.94 327.734 130.176 331.614L103.968 388.858C102.169 392.738 97.5477 394.466 93.7029 392.668Z" stroke="white" stroke-width="3" stroke-miterlimit="10" stroke-dasharray="5 5"/>
<path d="M105.661 345.052L127.001 354.857C129.118 355.845 130.07 358.349 129.083 360.465L124.779 369.882C123.792 371.999 121.287 372.951 119.171 371.963L97.8299 362.158C95.7135 361.17 94.7611 358.666 95.7488 356.55L100.052 347.133C101.005 345.017 103.544 344.099 105.661 345.052Z" fill="url(#paint70_radial_39_5169)"/>
<path d="M112.539 358.173C111.375 360.677 108.412 361.806 105.908 360.642C103.403 359.478 102.275 356.515 103.439 354.011C104.603 351.506 107.566 350.378 110.07 351.542C112.61 352.706 113.703 355.668 112.539 358.173Z" fill="white"/>
<path d="M78.9559 237.84C78.9559 237.84 69.6292 206.044 114.144 178.91C162.475 158.984 191.411 200.108 179.009 250.559C169.682 288.502 217.589 324.752 259.893 288.502" stroke="#C75EF7" stroke-miterlimit="10" stroke-dasharray="12 12"/>
<path d="M258.164 282.099L264.824 293.497L270.204 282.419L258.164 282.099Z" fill="#C75EF7"/>
<defs>
<linearGradient id="paint0_linear_39_5169" x1="274.974" y1="206.312" x2="518.178" y2="419.197" gradientUnits="userSpaceOnUse">
<stop stop-color="#5E4AED"/>
<stop offset="0.4704" stop-color="#3EA8FF"/>
<stop offset="1" stop-color="#40E9FF"/>
</linearGradient>
<radialGradient id="paint1_radial_39_5169" cx="0" cy="0" r="1" gradientUnits="userSpaceOnUse" gradientTransform="translate(134.673 225.112) rotate(-12.6079) scale(55.1038 55.0992)">
<stop stop-color="#FFEEA9"/>
<stop offset="1" stop-color="#FFB048"/>
</radialGradient>
<linearGradient id="paint2_linear_39_5169" x1="213.907" y1="239.385" x2="164.904" y2="236.603" gradientUnits="userSpaceOnUse">
<stop stop-color="#C45A12"/>
<stop offset="1" stop-color="#FFB048"/>
</linearGradient>
<linearGradient id="paint3_linear_39_5169" x1="213.969" y1="238.282" x2="164.967" y2="235.5" gradientUnits="userSpaceOnUse">
<stop stop-color="#C45A12"/>
<stop offset="1" stop-color="#FFB048"/>
</linearGradient>
<linearGradient id="paint4_linear_39_5169" x1="214.043" y1="236.973" x2="165.042" y2="234.191" gradientUnits="userSpaceOnUse">
<stop stop-color="#C45A12"/>
<stop offset="1" stop-color="#FFB048"/>
</linearGradient>
<linearGradient id="paint5_linear_39_5169" x1="214.118" y1="235.668" x2="165.116" y2="232.886" gradientUnits="userSpaceOnUse">
<stop stop-color="#C45A12"/>
<stop offset="1" stop-color="#FFB048"/>
</linearGradient>
<linearGradient id="paint6_linear_39_5169" x1="214.2" y1="234.231" x2="165.198" y2="231.449" gradientUnits="userSpaceOnUse">
<stop stop-color="#C45A12"/>
<stop offset="1" stop-color="#FFB048"/>
</linearGradient>
<linearGradient id="paint7_linear_39_5169" x1="214.278" y1="232.856" x2="165.276" y2="230.074" gradientUnits="userSpaceOnUse">
<stop stop-color="#C45A12"/>
<stop offset="1" stop-color="#FFB048"/>
</linearGradient>
<linearGradient id="paint8_linear_39_5169" x1="214.362" y1="231.381" x2="165.36" y2="228.599" gradientUnits="userSpaceOnUse">
<stop stop-color="#C45A12"/>
<stop offset="1" stop-color="#FFB048"/>
</linearGradient>
<linearGradient id="paint9_linear_39_5169" x1="214.444" y1="229.941" x2="165.442" y2="227.159" gradientUnits="userSpaceOnUse">
<stop stop-color="#C45A12"/>
<stop offset="1" stop-color="#FFB048"/>
</linearGradient>
<linearGradient id="paint10_linear_39_5169" x1="214.53" y1="228.432" x2="165.528" y2="225.65" gradientUnits="userSpaceOnUse">
<stop stop-color="#C45A12"/>
<stop offset="1" stop-color="#FFB048"/>
</linearGradient>
<linearGradient id="paint11_linear_39_5169" x1="214.619" y1="226.871" x2="165.616" y2="224.089" gradientUnits="userSpaceOnUse">
<stop stop-color="#C45A12"/>
<stop offset="1" stop-color="#FFB048"/>
</linearGradient>
<linearGradient id="paint12_linear_39_5169" x1="217.175" y1="224.733" x2="126.963" y2="229.046" gradientUnits="userSpaceOnUse">
<stop stop-color="#C45A12"/>
<stop offset="1" stop-color="#FFB048"/>
</linearGradient>
<radialGradient id="paint13_radial_39_5169" cx="0" cy="0" r="1" gradientUnits="userSpaceOnUse" gradientTransform="translate(163.469 129.753) rotate(50.8249) scale(52.7771 52.7781)">
<stop stop-color="#FFEEA9"/>
<stop offset="1" stop-color="#FFB048"/>
</radialGradient>
<linearGradient id="paint14_linear_39_5169" x1="185.179" y1="203.742" x2="166.575" y2="160.571" gradientUnits="userSpaceOnUse">
<stop stop-color="#C45A12"/>
<stop offset="1" stop-color="#FFB048"/>
</linearGradient>
<linearGradient id="paint15_linear_39_5169" x1="186.151" y1="203.323" x2="167.547" y2="160.152" gradientUnits="userSpaceOnUse">
<stop stop-color="#C45A12"/>
<stop offset="1" stop-color="#FFB048"/>
</linearGradient>
<linearGradient id="paint16_linear_39_5169" x1="187.304" y1="202.827" x2="168.701" y2="159.656" gradientUnits="userSpaceOnUse">
<stop stop-color="#C45A12"/>
<stop offset="1" stop-color="#FFB048"/>
</linearGradient>
<linearGradient id="paint17_linear_39_5169" x1="188.454" y1="202.331" x2="169.85" y2="159.16" gradientUnits="userSpaceOnUse">
<stop stop-color="#C45A12"/>
<stop offset="1" stop-color="#FFB048"/>
</linearGradient>
<linearGradient id="paint18_linear_39_5169" x1="189.72" y1="201.785" x2="171.117" y2="158.614" gradientUnits="userSpaceOnUse">
<stop stop-color="#C45A12"/>
<stop offset="1" stop-color="#FFB048"/>
</linearGradient>
<linearGradient id="paint19_linear_39_5169" x1="190.932" y1="201.263" x2="172.329" y2="158.092" gradientUnits="userSpaceOnUse">
<stop stop-color="#C45A12"/>
<stop offset="1" stop-color="#FFB048"/>
</linearGradient>
<linearGradient id="paint20_linear_39_5169" x1="192.232" y1="200.703" x2="173.629" y2="157.532" gradientUnits="userSpaceOnUse">
<stop stop-color="#C45A12"/>
<stop offset="1" stop-color="#FFB048"/>
</linearGradient>
<linearGradient id="paint21_linear_39_5169" x1="193.501" y1="200.156" x2="174.898" y2="156.985" gradientUnits="userSpaceOnUse">
<stop stop-color="#C45A12"/>
<stop offset="1" stop-color="#FFB048"/>
</linearGradient>
<linearGradient id="paint22_linear_39_5169" x1="194.831" y1="199.583" x2="176.227" y2="156.412" gradientUnits="userSpaceOnUse">
<stop stop-color="#C45A12"/>
<stop offset="1" stop-color="#FFB048"/>
</linearGradient>
<linearGradient id="paint23_linear_39_5169" x1="196.206" y1="198.991" x2="177.603" y2="155.82" gradientUnits="userSpaceOnUse">
<stop stop-color="#C45A12"/>
<stop offset="1" stop-color="#FFB048"/>
</linearGradient>
<linearGradient id="paint24_linear_39_5169" x1="199.133" y1="200.264" x2="156.803" y2="124.829" gradientUnits="userSpaceOnUse">
<stop stop-color="#C45A12"/>
<stop offset="1" stop-color="#FFB048"/>
</linearGradient>
<radialGradient id="paint25_radial_39_5169" cx="0" cy="0" r="1" gradientUnits="userSpaceOnUse" gradientTransform="translate(226.032 222.491) rotate(20.9325) scale(53.4618 53.4582)">
<stop stop-color="#FFEEA9"/>
<stop offset="1" stop-color="#FFB048"/>
</radialGradient>
<linearGradient id="paint26_linear_39_5169" x1="282.452" y1="276.507" x2="244.319" y2="247.985" gradientUnits="userSpaceOnUse">
<stop stop-color="#C45A12"/>
<stop offset="1" stop-color="#FFB048"/>
</linearGradient>
<linearGradient id="paint27_linear_39_5169" x1="283.093" y1="275.647" x2="244.962" y2="247.126" gradientUnits="userSpaceOnUse">
<stop stop-color="#C45A12"/>
<stop offset="1" stop-color="#FFB048"/>
</linearGradient>
<linearGradient id="paint28_linear_39_5169" x1="283.855" y1="274.63" x2="245.723" y2="246.109" gradientUnits="userSpaceOnUse">
<stop stop-color="#C45A12"/>
<stop offset="1" stop-color="#FFB048"/>
</linearGradient>
<linearGradient id="paint29_linear_39_5169" x1="284.615" y1="273.614" x2="246.483" y2="245.093" gradientUnits="userSpaceOnUse">
<stop stop-color="#C45A12"/>
<stop offset="1" stop-color="#FFB048"/>
</linearGradient>
<linearGradient id="paint30_linear_39_5169" x1="285.451" y1="272.496" x2="247.319" y2="243.975" gradientUnits="userSpaceOnUse">
<stop stop-color="#C45A12"/>
<stop offset="1" stop-color="#FFB048"/>
</linearGradient>
<linearGradient id="paint31_linear_39_5169" x1="286.252" y1="271.426" x2="248.12" y2="242.905" gradientUnits="userSpaceOnUse">
<stop stop-color="#C45A12"/>
<stop offset="1" stop-color="#FFB048"/>
</linearGradient>
<linearGradient id="paint32_linear_39_5169" x1="287.11" y1="270.278" x2="248.979" y2="241.757" gradientUnits="userSpaceOnUse">
<stop stop-color="#C45A12"/>
<stop offset="1" stop-color="#FFB048"/>
</linearGradient>
<linearGradient id="paint33_linear_39_5169" x1="287.949" y1="269.157" x2="249.818" y2="240.636" gradientUnits="userSpaceOnUse">
<stop stop-color="#C45A12"/>
<stop offset="1" stop-color="#FFB048"/>
</linearGradient>
<linearGradient id="paint34_linear_39_5169" x1="288.827" y1="267.983" x2="250.696" y2="239.462" gradientUnits="userSpaceOnUse">
<stop stop-color="#C45A12"/>
<stop offset="1" stop-color="#FFB048"/>
</linearGradient>
<linearGradient id="paint35_linear_39_5169" x1="289.737" y1="266.768" x2="251.605" y2="238.247" gradientUnits="userSpaceOnUse">
<stop stop-color="#C45A12"/>
<stop offset="1" stop-color="#FFB048"/>
</linearGradient>
<linearGradient id="paint36_linear_39_5169" x1="292.949" y1="266.409" x2="217.692" y2="221.532" gradientUnits="userSpaceOnUse">
<stop stop-color="#C45A12"/>
<stop offset="1" stop-color="#FFB048"/>
</linearGradient>
<linearGradient id="paint37_linear_39_5169" x1="646.127" y1="126.117" x2="584.699" y2="861.337" gradientUnits="userSpaceOnUse">
<stop stop-color="#51C8FF"/>
<stop offset="1" stop-color="#02174E"/>
</linearGradient>
<linearGradient id="paint38_linear_39_5169" x1="857.19" y1="607.577" x2="478.128" y2="426.121" gradientUnits="userSpaceOnUse">
<stop stop-color="#3EA8FF"/>
<stop offset="1" stop-color="#5E4AED"/>
</linearGradient>
<linearGradient id="paint39_linear_39_5169" x1="685.841" y1="578.836" x2="-98.7062" y2="320.704" gradientUnits="userSpaceOnUse">
<stop stop-color="#3EA8FF"/>
<stop offset="1" stop-color="#5E4AED"/>
</linearGradient>
<radialGradient id="paint40_radial_39_5169" cx="0" cy="0" r="1" gradientUnits="userSpaceOnUse" gradientTransform="translate(191.417 334.41) scale(158.469 158.454)">
<stop stop-color="#FFFFAB"/>
<stop offset="0.5498" stop-color="#CD00FF"/>
<stop offset="1" stop-color="#5739D8"/>
</radialGradient>
<radialGradient id="paint41_radial_39_5169" cx="0" cy="0" r="1" gradientUnits="userSpaceOnUse" gradientTransform="translate(156.016 290.933) scale(332.131 332.101)">
<stop stop-color="#FFFFAB"/>
<stop offset="0.5498" stop-color="#CD00FF"/>
<stop offset="1" stop-color="#5739D8"/>
</radialGradient>
<linearGradient id="paint42_linear_39_5169" x1="311.029" y1="233.099" x2="299.246" y2="287.044" gradientUnits="userSpaceOnUse">
<stop stop-color="#40E9FF"/>
<stop offset="0.4704" stop-color="#3EA8FF"/>
<stop offset="1" stop-color="#5E4AED"/>
</linearGradient>
<radialGradient id="paint43_radial_39_5169" cx="0" cy="0" r="1" gradientUnits="userSpaceOnUse" gradientTransform="translate(309.918 235.663) scale(121.311 121.3)">
<stop stop-color="#FFFFAB"/>
<stop offset="0.5498" stop-color="#CD00FF"/>
<stop offset="1" stop-color="#5739D8"/>
</radialGradient>
<radialGradient id="paint44_radial_39_5169" cx="0" cy="0" r="1" gradientUnits="userSpaceOnUse" gradientTransform="translate(319.47 271.834) scale(0.579429 0.579705)">
<stop offset="0.00263467" stop-color="#FFF6A6"/>
<stop offset="0.5071" stop-color="#219DDB"/>
<stop offset="1" stop-color="#10488C"/>
</radialGradient>
<radialGradient id="paint45_radial_39_5169" cx="0" cy="0" r="1" gradientUnits="userSpaceOnUse" gradientTransform="translate(252.023 201.67) scale(411.232 411.195)">
<stop offset="0.00263467" stop-color="#FFF6A6"/>
<stop offset="0.5071" stop-color="#219DDB"/>
<stop offset="1" stop-color="#10488C"/>
</radialGradient>
<linearGradient id="paint46_linear_39_5169" x1="432.198" y1="255.049" x2="514.731" y2="200.214" gradientUnits="userSpaceOnUse">
<stop stop-color="#FFFAC0"/>
<stop offset="0.5439" stop-color="#FFC880"/>
<stop offset="1" stop-color="#EF6262"/>
</linearGradient>
<linearGradient id="paint47_linear_39_5169" x1="413.916" y1="183.747" x2="534.546" y2="204.528" gradientUnits="userSpaceOnUse">
<stop stop-color="#FFFAC0"/>
<stop offset="0.5439" stop-color="#FFC880"/>
<stop offset="1" stop-color="#EF6262"/>
</linearGradient>
<radialGradient id="paint48_radial_39_5169" cx="0" cy="0" r="1" gradientUnits="userSpaceOnUse" gradientTransform="translate(277.99 204.558) scale(471.133 471.09)">
<stop offset="0.00263467" stop-color="#FFF6A6"/>
<stop offset="0.5071" stop-color="#219DDB"/>
<stop offset="1" stop-color="#10488C"/>
</radialGradient>
<radialGradient id="paint49_radial_39_5169" cx="0" cy="0" r="1" gradientUnits="userSpaceOnUse" gradientTransform="translate(443.78 169.897) scale(77.9143 77.907)">
<stop stop-color="#FFFFAB"/>
<stop offset="0.5498" stop-color="#CD00FF"/>
<stop offset="1" stop-color="#5739D8"/>
</radialGradient>
<linearGradient id="paint50_linear_39_5169" x1="497.539" y1="180.844" x2="475.582" y2="203.031" gradientUnits="userSpaceOnUse">
<stop stop-color="#FFE75C"/>
<stop offset="1" stop-color="#FF2A00"/>
</linearGradient>
<radialGradient id="paint51_radial_39_5169" cx="0" cy="0" r="1" gradientUnits="userSpaceOnUse" gradientTransform="translate(310.125 257.844) scale(44.8691 44.8651)">
<stop stop-color="#FFFFAB"/>
<stop offset="0.5498" stop-color="#CD00FF"/>
<stop offset="1" stop-color="#5739D8"/>
</radialGradient>
<linearGradient id="paint52_linear_39_5169" x1="266.651" y1="229.22" x2="337.64" y2="285.208" gradientUnits="userSpaceOnUse">
<stop stop-color="#FFFAC0"/>
<stop offset="0.5439" stop-color="#FFC880"/>
<stop offset="1" stop-color="#EF6262"/>
</linearGradient>
<linearGradient id="paint53_linear_39_5169" x1="297.307" y1="245.562" x2="295.787" y2="252.523" gradientUnits="userSpaceOnUse">
<stop stop-color="#FFFAC0"/>
<stop offset="0.5439" stop-color="#FFC880"/>
<stop offset="1" stop-color="#EF6262"/>
</linearGradient>
<linearGradient id="paint54_linear_39_5169" x1="296.295" y1="249.519" x2="294.774" y2="256.48" gradientUnits="userSpaceOnUse">
<stop stop-color="#FFFAC0"/>
<stop offset="0.5439" stop-color="#FFC880"/>
<stop offset="1" stop-color="#EF6262"/>
</linearGradient>
<linearGradient id="paint55_linear_39_5169" x1="295.277" y1="253.495" x2="293.757" y2="260.457" gradientUnits="userSpaceOnUse">
<stop stop-color="#FFFAC0"/>
<stop offset="0.5439" stop-color="#FFC880"/>
<stop offset="1" stop-color="#EF6262"/>
</linearGradient>
<linearGradient id="paint56_linear_39_5169" x1="294.303" y1="257.305" x2="292.782" y2="264.266" gradientUnits="userSpaceOnUse">
<stop stop-color="#FFFAC0"/>
<stop offset="0.5439" stop-color="#FFC880"/>
<stop offset="1" stop-color="#EF6262"/>
</linearGradient>
<radialGradient id="paint57_radial_39_5169" cx="0" cy="0" r="1" gradientUnits="userSpaceOnUse" gradientTransform="translate(340.331 240.338) scale(297.913 297.886)">
<stop offset="0.00263467" stop-color="#FFF6A6"/>
<stop offset="0.5071" stop-color="#219DDB"/>
<stop offset="1" stop-color="#10488C"/>
</radialGradient>
<radialGradient id="paint58_radial_39_5169" cx="0" cy="0" r="1" gradientUnits="userSpaceOnUse" gradientTransform="translate(337.83 245.147) scale(49.6084 49.6041)">
<stop stop-color="#FFFFAB"/>
<stop offset="0.5498" stop-color="#CD00FF"/>
<stop offset="1" stop-color="#5739D8"/>
</radialGradient>
<linearGradient id="paint59_linear_39_5169" x1="306.973" y1="208.745" x2="427.598" y2="284.936" gradientUnits="userSpaceOnUse">
<stop stop-color="#FFFAC0"/>
<stop offset="0.5439" stop-color="#FFC880"/>
<stop offset="1" stop-color="#EF6262"/>
</linearGradient>
<radialGradient id="paint60_radial_39_5169" cx="0" cy="0" r="1" gradientUnits="userSpaceOnUse" gradientTransform="translate(114.074 535.253) scale(206.159 206.14)">
<stop stop-color="#FFFFAB"/>
<stop offset="0.5498" stop-color="#CD00FF"/>
<stop offset="1" stop-color="#5739D8"/>
</radialGradient>
<radialGradient id="paint61_radial_39_5169" cx="0" cy="0" r="1" gradientUnits="userSpaceOnUse" gradientTransform="translate(274.916 599.892) scale(355.386 355.352)">
<stop stop-color="#FFFFAB"/>
<stop offset="0.5498" stop-color="#CD00FF"/>
<stop offset="1" stop-color="#5739D8"/>
</radialGradient>
<radialGradient id="paint62_radial_39_5169" cx="0" cy="0" r="1" gradientUnits="userSpaceOnUse" gradientTransform="translate(466.03 217.957) scale(120.453 120.442)">
<stop offset="0.00263467" stop-color="#FFF6A6"/>
<stop offset="0.5071" stop-color="#219DDB"/>
<stop offset="1" stop-color="#10488C"/>
</radialGradient>
<radialGradient id="paint63_radial_39_5169" cx="0" cy="0" r="1" gradientUnits="userSpaceOnUse" gradientTransform="translate(475.351 228.329) scale(45.821 45.8164)">
<stop offset="0.00263467" stop-color="#FFF6A6"/>
<stop offset="0.5071" stop-color="#219DDB"/>
<stop offset="1" stop-color="#10488C"/>
</radialGradient>
<radialGradient id="paint64_radial_39_5169" cx="0" cy="0" r="1" gradientUnits="userSpaceOnUse" gradientTransform="translate(209.437 76.4935) scale(155.639 155.624)">
<stop stop-color="#FFEEA9"/>
<stop offset="1" stop-color="#FFB048"/>
</radialGradient>
<radialGradient id="paint65_radial_39_5169" cx="0" cy="0" r="1" gradientUnits="userSpaceOnUse" gradientTransform="translate(208.745 67.3096) scale(88.11 88.102)">
<stop stop-color="#FFEEA9"/>
<stop offset="1" stop-color="#FFB048"/>
</radialGradient>
<radialGradient id="paint66_radial_39_5169" cx="0" cy="0" r="1" gradientUnits="userSpaceOnUse" gradientTransform="translate(364.155 15.2448) scale(145.18 145.165)">
<stop stop-color="#FFEEA9"/>
<stop offset="1" stop-color="#FFB048"/>
</radialGradient>
<radialGradient id="paint67_radial_39_5169" cx="0" cy="0" r="1" gradientUnits="userSpaceOnUse" gradientTransform="translate(154.752 278.985) rotate(24.6255) scale(133.323 133.315)">
<stop stop-color="#FFEEA9"/>
<stop offset="1" stop-color="#FFB048"/>
</radialGradient>
<radialGradient id="paint68_radial_39_5169" cx="0" cy="0" r="1" gradientUnits="userSpaceOnUse" gradientTransform="translate(272.06 375.655) rotate(24.6255) scale(259.378 259.363)">
<stop offset="0.00263467" stop-color="#FFF6A6"/>
<stop offset="0.5071" stop-color="#219DDB"/>
<stop offset="1" stop-color="#10488C"/>
</radialGradient>
<radialGradient id="paint69_radial_39_5169" cx="0" cy="0" r="1" gradientUnits="userSpaceOnUse" gradientTransform="translate(142.885 289.777) rotate(24.6255) scale(239.011 238.997)">
<stop offset="0.00263467" stop-color="#FFF6A6"/>
<stop offset="0.5071" stop-color="#219DDB"/>
<stop offset="1" stop-color="#10488C"/>
</radialGradient>
<radialGradient id="paint70_radial_39_5169" cx="0" cy="0" r="1" gradientUnits="userSpaceOnUse" gradientTransform="translate(151.035 355.102) rotate(24.6254) scale(93.719 93.7133)">
<stop offset="0.00263467" stop-color="#FFF6A6"/>
<stop offset="0.5071" stop-color="#219DDB"/>
<stop offset="1" stop-color="#10488C"/>
</radialGradient>
</defs>
</svg>
