<svg width="197" height="148" viewBox="0 0 197 148" fill="none" xmlns="http://www.w3.org/2000/svg">
<path opacity="0.45" d="M100.248 132.325C143.301 132.325 178.201 128.809 178.201 124.471C178.201 120.133 143.301 116.616 100.248 116.616C57.1962 116.616 22.2955 120.133 22.2955 124.471C22.2955 128.809 57.1962 132.325 100.248 132.325Z" fill="#E6E6E6"/>
<path d="M55.0713 50.6275C54.733 49.5259 54.7135 48.3514 55.0149 47.2392C55.3163 46.1269 55.9265 45.1221 56.7754 44.3401C57.6242 43.5581 58.6772 43.0307 59.8132 42.8186C60.9493 42.6065 62.1224 42.7183 63.1976 43.1411C66.9701 44.6138 71.1909 47.6231 74.6728 53.6221C77.3865 58.2956 79.3368 61.3933 80.7306 63.4404C81.0784 63.9536 81.5431 64.3775 82.0867 64.6775C82.6302 64.9775 83.2373 65.1451 83.8582 65.1666C84.4791 65.1882 85.0964 65.063 85.6595 64.8014C86.2227 64.5398 86.7158 64.1492 87.0986 63.6613L98.6576 48.9339L102.977 52.1052C102.977 52.1052 93.2253 76.2533 82.2573 75.2764C72.8013 74.4467 60.2032 67.1272 55.0713 50.6275Z" fill="#1D2C62"/>
<path opacity="0.64" d="M55.0713 50.6275C54.733 49.5259 54.7135 48.3514 55.0149 47.2392C55.3163 46.1269 55.9265 45.1221 56.7754 44.3401C57.6242 43.5581 58.6772 43.0307 59.8132 42.8186C60.9493 42.6065 62.1224 42.7183 63.1976 43.1411C66.9701 44.6138 71.1909 47.6231 74.6728 53.6221C77.3865 58.2956 79.3368 61.3933 80.7306 63.4404C81.0784 63.9536 81.5431 64.3775 82.0867 64.6775C82.6302 64.9775 83.2373 65.1451 83.8582 65.1666C84.4791 65.1882 85.0964 65.063 85.6595 64.8014C86.2227 64.5398 86.7158 64.1492 87.0986 63.6613L98.6576 48.9339L102.977 52.1052C102.977 52.1052 93.2253 76.2533 82.2573 75.2764C72.8013 74.4467 60.2032 67.1272 55.0713 50.6275Z" fill="white"/>
<path d="M62.0944 120.372C62.0944 120.372 62.7396 122.154 64.355 122.291C65.9704 122.429 66.3939 124 64.941 124.412C63.4882 124.824 59.7402 122.939 59.7402 122.939L59.8437 120.617L62.0944 120.372Z" fill="#1D2C62"/>
<path d="M41.7887 120.372C41.7887 120.372 41.1484 122.154 39.533 122.291C37.9176 122.429 37.4941 124 38.9469 124.412C40.3998 124.824 44.1477 122.939 44.1477 122.939L44.0394 120.637L41.7887 120.372Z" fill="#1D2C62"/>
<path d="M51.3481 34.1819C52.0237 35.4963 52.5206 36.8946 52.8256 38.3399C52.8752 38.6864 52.7864 39.0385 52.5783 39.3204C52.3701 39.6022 52.0592 39.7914 51.7125 39.847C51.155 39.9592 50.5769 39.9087 50.0475 39.7014C49.518 39.4942 49.0599 39.1391 48.728 38.6787L47.1027 36.8328C46.8165 36.4303 46.6627 35.9492 46.6627 35.4558C46.6627 34.9624 46.8165 34.4813 47.1027 34.0788C48.0582 32.5128 50.6734 32.7091 51.3481 34.1819Z" fill="#F4A28C"/>
<path d="M47.8956 36.1504L47.5115 44.8445L52.333 44.7119L50.6782 38.4381L47.8956 36.1504Z" fill="#F4A28C"/>
<path d="M52.0425 35.7086L53.1161 36.3763C53.1772 36.4142 53.2276 36.467 53.2625 36.5297C53.2974 36.5924 53.3158 36.6629 53.3158 36.7346C53.3158 36.8064 53.2974 36.8769 53.2625 36.9396C53.2276 37.0023 53.1772 37.0551 53.1161 37.093L52.2592 37.6723L52.0425 35.7086Z" fill="#F4A28C"/>
<path opacity="0.31" d="M51.0673 39.8765C50.456 39.7984 49.8809 39.5441 49.4125 39.145C49.4125 39.145 49.6636 40.716 51.5844 42.0905L51.0673 39.8765Z" fill="#CE8172"/>
<path d="M58.9768 42.3016C51.0564 42.4393 43.2376 44.1048 35.9525 47.2059C34.8347 47.6756 33.8255 48.369 32.9874 49.2432C32.1493 50.1173 31.5001 51.1537 31.08 52.288C30.6599 53.4223 30.4778 54.6305 30.545 55.8379C30.6122 57.0452 30.9273 58.2259 31.4707 59.3069L43.995 84.2012L67.2213 82.8365C67.2213 82.8365 71.4469 68.8454 70.5949 53.0183C70.4272 50.0802 69.1226 47.3215 66.9557 45.3227C64.7888 43.3239 61.9286 42.2409 58.9768 42.3016Z" fill="#1D2C62"/>
<path d="M47.7134 39.3267L49.3781 38.4332L49.5455 37.5545C49.7757 37.208 49.8985 36.8016 49.8985 36.3861C49.8985 35.9705 49.7757 35.5642 49.5455 35.2177C49.5455 35.2177 52.7369 33.6713 52.008 32.3409C51.2791 31.0106 48.9053 29.2384 46.5905 30.9222C44.2758 32.606 43.1529 35.6792 47.7134 39.3267Z" fill="#24285B"/>
<path d="M49.5947 37.363C49.5947 37.363 49.1859 36.4253 48.5062 36.7886C47.8266 37.1519 48.4078 38.5117 49.4272 38.2614L49.5947 37.363Z" fill="#F4A28C"/>
<path d="M46.0734 43.902C48.9121 43.0977 51.8368 42.633 54.7857 42.5176C54.7857 42.5176 58.8488 58.6834 55.6476 71.7074C55.6525 71.7074 51.0969 55.301 46.0734 43.902Z" fill="white"/>
<path opacity="0.09" d="M36.9917 51.4178C36.9917 51.4178 44.9899 52.0806 43.9704 57.5396C42.9509 62.9985 46.4329 78.0991 48.7821 79.3558L56.3814 83.455L44.0049 84.1815L39.9368 76.1011L32.2341 60.8729L36.9917 51.4178Z" fill="black"/>
<path d="M46.0733 43.902C46.0733 43.902 45.9157 41.9383 47.3144 41.8745C48.0801 41.8215 48.8495 41.8878 49.5947 42.0709C49.5947 42.0709 53.6874 38.875 54.7856 42.5176C54.7856 42.5176 48.9298 43.1656 46.0733 43.902Z" fill="#1D2C62"/>
<path opacity="0.77" d="M46.0733 43.902C46.0733 43.902 45.9157 41.9383 47.3144 41.8745C48.0801 41.8215 48.8495 41.8878 49.5947 42.0709C49.5947 42.0709 53.6874 38.875 54.7856 42.5176C54.7856 42.5176 48.9298 43.1656 46.0733 43.902Z" fill="white"/>
<path d="M48.9299 43.2934C48.9299 43.2934 48.4669 41.7569 49.4224 41.5654C50.3778 41.374 51.2742 40.7505 51.481 42.7191C51.6879 44.6876 49.7425 44.8938 48.9299 43.2934Z" fill="#24285B"/>
<path d="M49.5751 44.0541C49.5751 44.0541 52.6483 54.8935 52.6778 61.8645L55.6328 71.6828C56.485 68.1816 56.8969 64.5883 56.8592 60.9857C56.8592 60.9857 53.6875 46.7247 51.4416 43.3914L49.5751 44.0541Z" fill="#24285B"/>
<path d="M98.6577 48.9436L99.4556 47.5249L103.45 50.3624L102.475 51.7468L98.6577 48.9436Z" fill="white"/>
<path d="M100.032 48.0207C100.032 48.0207 101.386 42.8465 102.859 42.2918C104.331 41.737 103.095 44.9378 103.095 44.9378C103.095 44.9378 107.395 47.3187 103.095 50.1955L100.032 48.0207Z" fill="#F4A28C"/>
<path d="M40.4392 120.931L44.0049 84.2012L67.2214 82.8364L63.2814 120.936H58.8095C58.8095 120.936 59.9274 96.7735 56.3913 91.2409V91.2164C56.1983 90.9293 55.9343 90.6966 55.6249 90.5407C55.3155 90.3848 54.971 90.3109 54.6246 90.3262C54.2782 90.3415 53.9417 90.4454 53.6473 90.628C53.3529 90.8105 53.1106 91.0656 52.9438 91.3685C48.0877 100.392 45.1672 120.936 45.1672 120.936L40.4392 120.931Z" fill="#24285B"/>
<path d="M33.1058 49.1399C33.1058 49.1399 13.2137 67.1663 15.5137 72.4731C17.8137 77.7799 38.6612 86.9551 38.6612 86.9551L41.1237 83.8722C41.1237 83.8722 29.6879 73.072 29.614 71.7073C29.5401 70.3426 33.9332 68.5998 37.7452 63.7987C41.5571 58.9975 44.8667 47.6083 33.1058 49.1399Z" fill="#1D2C62"/>
<path opacity="0.64" d="M33.1058 49.1399C33.1058 49.1399 13.2137 67.1663 15.5137 72.4731C17.8137 77.7799 38.6612 86.9551 38.6612 86.9551L41.1237 83.8722C41.1237 83.8722 29.6879 73.072 29.614 71.7073C29.5401 70.3426 33.9332 68.5998 37.7452 63.7987C41.5571 58.9975 44.8667 47.6083 33.1058 49.1399Z" fill="white"/>
<path d="M41.1189 83.8723C41.1189 83.8723 43.7538 85.7182 43.9163 86.5478C44.0788 87.3774 43.6996 90.6371 42.9313 90.9071C42.163 91.1771 40.124 90.5291 40.5574 90.0971L41.2568 89.4C41.2568 89.4 38.8632 88.2169 38.6564 86.9454L41.1189 83.8723Z" fill="#F4A28C"/>
<path d="M118.638 43.6959C118.638 43.6959 113.625 43.4456 112.339 46.7691C111.054 50.0926 112.871 66.0522 111.093 67.088C109.315 68.1239 96.983 62.7925 96.983 62.7925C96.2112 62.1537 95.3685 61.6052 94.4713 61.1578C93.5848 60.8191 94.3629 61.8549 94.3974 62.174C94.3974 62.174 90.9499 60.4803 90.8563 62.3654C90.7627 64.2506 109.015 73.9707 114.304 72.5028C119.594 71.035 118.609 44.3243 118.609 44.3243" fill="#F4A28C"/>
<path d="M131.502 92.1541L135.546 121.737L133.517 121.648L123.957 91.835L131.502 92.1541Z" fill="#F4A28C"/>
<path d="M121.938 91.9087L116.954 120.941L114.915 120.853L115.018 91.4521L121.938 91.9087Z" fill="#F4A28C"/>
<path d="M135.546 121.737C135.546 121.737 136.615 123.209 138.058 123.209C139.501 123.209 139.629 125.242 137.314 124.932C136.595 124.84 135.885 124.687 135.191 124.476C134.546 124.302 133.866 124.302 133.221 124.476C133.096 124.5 132.967 124.485 132.85 124.433C132.734 124.382 132.637 124.295 132.571 124.186C131.946 123.386 133.64 121.678 133.64 121.678L135.546 121.737Z" fill="#1D2C62"/>
<path d="M115.063 120.858C115.063 120.858 113.871 122.237 112.433 122.105C110.995 121.972 110.694 124 113.024 123.887C113.749 123.856 114.471 123.764 115.181 123.612C115.84 123.487 116.52 123.539 117.151 123.764C117.274 123.798 117.405 123.794 117.525 123.752C117.646 123.71 117.751 123.632 117.826 123.528C118.52 122.787 116.979 120.941 116.979 120.941L115.063 120.858Z" fill="#1D2C62"/>
<path d="M129.523 68.5802L135.925 100.475L110.744 101.025L114.477 68.4231L129.523 68.5802Z" fill="#24285B"/>
<path d="M118.584 33.4063C118.584 33.4063 118.146 36.4205 118.54 38.4627C118.578 38.6607 118.655 38.8492 118.767 39.0173C118.879 39.1854 119.023 39.3298 119.191 39.4421C119.359 39.5544 119.548 39.6323 119.746 39.6715C119.945 39.7107 120.149 39.7103 120.347 39.6703C120.991 39.5812 121.595 39.3092 122.087 38.887C122.58 38.4648 122.94 37.9102 123.125 37.2894L124.194 34.6827C124.352 34.1391 124.338 33.5599 124.151 33.0252C123.965 32.4904 123.617 32.0266 123.155 31.6979C121.519 30.3626 118.761 31.5555 118.584 33.4063Z" fill="#F4A28C"/>
<path d="M123.957 33.9414L123.972 43.9217L120.254 43.6615L121.268 36.7691L123.957 33.9414Z" fill="#F4A28C"/>
<path d="M118.407 35.3159L117.486 36.4401C117.435 36.5041 117.401 36.5797 117.386 36.6602C117.372 36.7407 117.378 36.8234 117.404 36.9009C117.43 36.9785 117.475 37.0483 117.535 37.1041C117.595 37.16 117.668 37.2 117.747 37.2207L118.904 37.5103L118.407 35.3159Z" fill="#F4A28C"/>
<path d="M117.52 33.4602C119.85 34.1299 121.914 35.5018 123.43 37.3875L123.893 37.9668C123.893 37.9668 126.765 34.2358 125.863 31.899C124.962 29.5623 118.998 27.0733 117.52 33.4602Z" fill="#24285B"/>
<path d="M126.105 31.4426C127.182 31.4426 128.055 30.5722 128.055 29.4986C128.055 28.4249 127.182 27.5546 126.105 27.5546C125.027 27.5546 124.154 28.4249 124.154 29.4986C124.154 30.5722 125.027 31.4426 126.105 31.4426Z" fill="#24285B"/>
<path d="M121.677 36.1995C121.677 36.1995 121.766 35.0312 122.662 35.1735C123.558 35.3159 123.42 37.0046 122.214 37.093L121.677 36.1995Z" fill="#F4A28C"/>
<path d="M118.727 41.5455L125.656 41.8401L125.588 43.9903C125.588 43.9903 137.24 44.2701 136.097 51.7762C134.955 59.2823 129.528 68.5999 129.528 68.5999L116.018 68.5066C113.526 64.432 111.608 60.0346 110.32 55.4384C108.409 48.3005 118.663 43.6957 118.663 43.6957L118.727 41.5455Z" fill="#1D2C62"/>
<path opacity="0.09" d="M131.891 48.6785C131.891 48.6785 126.907 49.9647 127.858 56.7491C128.808 63.5336 127.725 65.8114 119.978 66.2532L121.185 68.7078L129.527 68.5998C129.527 68.5998 131.635 64.8639 132.162 63.4796C132.689 62.0952 131.891 48.6785 131.891 48.6785Z" fill="black"/>
<path d="M120.566 55.2256L107.968 55.8223L108.775 72.7594L121.374 72.1627L120.566 55.2256Z" fill="#FFD200"/>
<path d="M122.829 70.4408C122.829 70.4408 121.736 67.7899 119.205 68.055C116.673 68.3201 118.254 73.0378 121.608 73.298C124.962 73.5581 131.951 81.9921 136.427 77.996C140.904 74 141.2 52.1542 135.605 48.4184C130.01 44.6825 129.793 56.0963 131.951 62.812C134.108 69.5277 135.649 77.618 122.829 70.4408Z" fill="#F4A28C"/>
<path d="M140.855 71.9235C140.855 71.9235 140.83 72.1836 140.766 72.6402C140.402 75.3697 138.752 85.0014 133.571 86.0766C127.528 87.3284 121.042 84.5203 121.042 84.5203L119.771 87.4118C119.771 87.4118 129.705 97.4805 137.043 94.3485C144.381 91.2164 147.257 82.8365 147.257 82.8365L140.855 71.9235Z" fill="#1D2C62"/>
<path opacity="0.46" d="M140.855 71.9235C140.855 71.9235 140.83 72.1836 140.766 72.6402C140.402 75.3697 138.752 85.0014 133.571 86.0766C127.528 87.3284 121.042 84.5203 121.042 84.5203L119.771 87.4118C119.771 87.4118 129.705 97.4805 137.043 94.3485C144.381 91.2164 147.257 82.8365 147.257 82.8365L140.855 71.9235Z" fill="white"/>
<path d="M149.587 52.2671C148.965 53.4294 148.501 54.6693 148.208 55.9538C148.158 56.2643 148.234 56.5817 148.419 56.8366C148.603 57.0915 148.882 57.2631 149.193 57.3137C149.686 57.4222 150.2 57.3874 150.675 57.2134C151.149 57.0394 151.563 56.7334 151.867 56.3319L153.345 54.7069C153.605 54.3519 153.748 53.9249 153.755 53.4851C153.761 53.0453 153.63 52.6145 153.379 52.2523C152.542 50.8238 150.213 50.9612 149.587 52.2671Z" fill="#F4A28C"/>
<path d="M152.261 54.9917L154.128 62.5272L149.887 63.2538L150.222 57.623L152.261 54.9917Z" fill="#F4A28C"/>
<path d="M148.947 53.6222L147.962 54.1966C147.908 54.2313 147.864 54.2789 147.833 54.3351C147.802 54.3912 147.786 54.4542 147.786 54.5181C147.786 54.5821 147.802 54.645 147.833 54.7012C147.864 54.7573 147.908 54.8049 147.962 54.8397L148.73 55.3306L148.947 53.6222Z" fill="#F4A28C"/>
<path opacity="0.31" d="M150.212 57.309C150.212 57.309 151.769 56.9752 152.286 56.4843C152.286 56.4843 152.138 60.0139 150.06 60.4754L150.212 57.309Z" fill="#CE8172"/>
<path d="M151.419 54.8838C151.419 54.8838 151.793 54.0493 152.404 54.3929C153.015 54.7366 152.468 55.9295 151.562 55.6742L151.419 54.8838Z" fill="#F4A28C"/>
<path d="M154.409 54.7316C154.3 54.7316 154.177 54.7316 154.064 54.7316C153.621 54.7611 153.709 55.306 153.187 55.2864C153.099 55.2717 153.01 55.2619 152.921 55.2569C152.823 55.2681 152.728 55.3002 152.643 55.3511C152.558 55.4019 152.485 55.4702 152.429 55.5515C152.322 55.7121 152.189 55.8532 152.035 55.9687C151.957 56.0128 151.87 56.0399 151.781 56.0484C151.692 56.0568 151.602 56.0464 151.518 56.0178C151.459 56.0007 151.408 55.9665 151.37 55.9196C151.301 55.8116 151.37 55.6693 151.424 55.5515C151.518 55.3665 151.597 55.1745 151.66 54.9771C151.715 54.8053 151.759 54.6334 151.803 54.4862C151.848 54.3389 152.035 53.9069 151.951 53.7694C151.867 53.632 151.621 53.5976 151.508 53.5043C151.394 53.4111 151.296 53.2392 151.114 53.1411C150.705 52.9152 150.207 52.9005 149.789 52.6894C149.624 52.617 149.487 52.4929 149.4 52.336C149.359 52.2581 149.342 52.1697 149.352 52.0823C149.361 51.9948 149.397 51.9122 149.454 51.845C149.612 51.688 149.946 51.6192 149.892 51.4032C149.892 51.3149 149.794 51.2559 149.72 51.2019C149.523 51.0658 149.359 50.8868 149.241 50.6784C149.124 50.4701 149.055 50.2379 149.04 49.9992C149.031 49.7598 149.106 49.5248 149.252 49.3342C149.397 49.1435 149.604 49.009 149.838 48.9536C150.124 48.9045 150.498 48.9536 150.631 48.7032C150.676 48.5637 150.686 48.4155 150.661 48.2712C150.656 48.088 150.707 47.9078 150.806 47.7535C150.905 47.5991 151.048 47.4776 151.216 47.4045C151.385 47.3313 151.571 47.3097 151.752 47.3426C151.933 47.3754 152.1 47.4611 152.232 47.5888C152.355 47.7115 152.458 47.8735 152.626 47.903C152.793 47.9325 153.03 47.7165 153.222 47.5839C153.367 47.4909 153.535 47.4379 153.708 47.4301C153.881 47.4224 154.053 47.4602 154.207 47.5397C154.515 47.7075 154.748 47.9843 154.862 48.3154C154.894 48.4453 154.953 48.5672 155.034 48.6737C155.123 48.7536 155.232 48.8079 155.349 48.8308C155.842 48.9536 156.452 48.8308 156.827 49.1499C156.979 49.2852 157.076 49.4722 157.098 49.6746C157.119 49.8769 157.065 50.0801 156.945 50.2447C156.817 50.4018 156.625 50.5343 156.62 50.7356C156.625 50.8477 156.665 50.9556 156.733 51.0449C156.984 51.4474 157.275 51.9138 157.107 52.3556C156.94 52.7974 156.359 53.1803 156.029 53.4847C155.699 53.7891 155.044 53.6762 154.807 54.0787C154.704 54.2603 154.734 54.5156 154.581 54.658C154.53 54.6958 154.471 54.7211 154.409 54.7316Z" fill="#24285B"/>
<path d="M152.956 54.2799C152.956 54.2799 154.231 53.8724 154.433 54.8592C154.635 55.8459 153.237 56.2583 152.503 55.5268C152.8 55.1794 152.961 54.7364 152.956 54.2799Z" fill="#F4A28C"/>
<path d="M170.311 104.844H142.781V124.456H170.311V104.844Z" fill="#E6E6E6"/>
<path opacity="0.08" d="M150.05 124.456L148.725 107.186L143.204 108.025L141.559 114.648L142.781 124.456H150.05Z" fill="black"/>
<path d="M149.355 122.188C149.355 122.188 148.769 123.823 147.287 123.946C145.805 124.068 145.415 125.517 146.75 125.909C148.085 126.302 151.518 124.579 151.518 124.579L151.419 122.448L149.355 122.188Z" fill="#1D2C62"/>
<path d="M149.528 63.1655L153.763 62.439C153.763 62.439 167.864 62.439 170.331 67.2745C172.799 72.11 172.301 90.0039 164.126 104.707L147.43 105.198C147.43 105.198 148.356 94.3975 145.243 88.5066C142.131 82.6156 132.482 70.1267 149.528 63.1655Z" fill="#1D2C62"/>
<path d="M164.126 104.707L155.96 103.479C154.78 103.302 153.576 103.395 152.438 103.753C151.3 104.111 150.26 104.724 149.397 105.545C148.533 106.366 147.87 107.372 147.457 108.488C147.045 109.604 146.894 110.799 147.016 111.982L148.085 122.326H152.089L151.744 112.645C151.723 112.103 151.824 111.564 152.037 111.066C152.251 110.567 152.573 110.122 152.98 109.763C153.387 109.404 153.869 109.139 154.391 108.988C154.913 108.837 155.463 108.803 155.999 108.889C159.476 109.444 163.786 109.204 164.126 104.707Z" fill="#24285B"/>
<path d="M141.042 122.188C141.042 122.188 140.451 123.823 138.974 123.946C137.496 124.068 137.102 125.517 138.432 125.909C139.762 126.302 143.204 124.579 143.204 124.579L143.106 122.448L141.042 122.188Z" fill="#1D2C62"/>
<path opacity="0.08" d="M162.697 68.9976C162.697 68.9976 158.068 73.0427 158.994 77.51C159.146 78.2317 159.304 79.1055 159.457 80.0628C160.059 83.7662 159.834 87.5564 158.797 91.163C157.76 94.7695 155.937 98.1034 153.458 100.927L150.538 104.255L164.126 104.707L165.288 102.439L171.631 91.9331L162.697 68.9976Z" fill="black"/>
<path d="M155.812 104.707L147.647 103.479C146.467 103.302 145.262 103.395 144.124 103.753C142.987 104.111 141.946 104.724 141.083 105.545C140.22 106.366 139.556 107.372 139.144 108.488C138.731 109.604 138.58 110.799 138.703 111.982L139.767 122.326H143.776L143.431 112.645C143.41 112.103 143.51 111.564 143.724 111.066C143.937 110.567 144.259 110.122 144.667 109.763C145.074 109.404 145.556 109.139 146.078 108.988C146.6 108.837 147.149 108.803 147.686 108.889C151.163 109.444 155.472 109.204 155.812 104.707Z" fill="#24285B"/>
<path d="M170.568 67.7163C173.66 72.056 176.413 81.6386 174.015 95.1437C173.657 97.1396 172.637 98.958 171.119 100.307C169.601 101.657 167.673 102.459 165.643 102.586L152.882 103.391V99.2429L162.579 97.8438C163.11 97.7679 163.618 97.5785 164.068 97.2885C164.518 96.9985 164.9 96.6148 165.187 96.1638C165.474 95.7128 165.66 95.2051 165.732 94.6756C165.804 94.1462 165.76 93.6075 165.603 93.0966C163.899 87.4903 161.249 77.3333 161.934 70.0972C162.353 65.6986 168.002 64.1179 170.568 67.7163Z" fill="#1D2C62"/>
<path opacity="0.46" d="M170.568 67.7163C173.66 72.056 176.413 81.6386 174.015 95.1437C173.657 97.1396 172.637 98.958 171.119 100.307C169.601 101.657 167.673 102.459 165.643 102.586L152.882 103.391V99.2429L162.579 97.8438C163.11 97.7679 163.618 97.5785 164.068 97.2885C164.518 96.9985 164.9 96.6148 165.187 96.1638C165.474 95.7128 165.66 95.2051 165.732 94.6756C165.804 94.1462 165.76 93.6075 165.603 93.0966C163.899 87.4903 161.249 77.3333 161.934 70.0972C162.353 65.6986 168.002 64.1179 170.568 67.7163Z" fill="white"/>
<path d="M152.882 100.249C152.882 100.249 147.706 100.117 148.449 102.807C149.193 105.497 152.882 103.391 152.882 103.391V100.249Z" fill="#F4A28C"/>
<path d="M135.654 104.358L133.566 92.5811H148.39L149.676 102.62L156.472 102.718V104.358H135.654Z" fill="#FFD200"/>
<path d="M141.559 99.7043C142.378 99.7043 143.042 99.0428 143.042 98.2267C143.042 97.4106 142.378 96.749 141.559 96.749C140.741 96.749 140.077 97.4106 140.077 98.2267C140.077 99.0428 140.741 99.7043 141.559 99.7043Z" fill="white"/>
<path d="M121.037 84.5203C121.037 84.5203 120.155 82.3456 119.766 82.6598C119.657 82.7528 119.581 82.8792 119.551 83.0193C119.52 83.1595 119.537 83.3058 119.599 83.4354C119.599 83.4354 118.688 81.9627 118.249 81.9087C117.811 81.8547 116.988 83.0967 117.052 84.0687C117.117 85.0407 119.766 87.4118 119.766 87.4118L121.037 84.5203Z" fill="#F4A28C"/>
<path opacity="0.58" d="M78.7508 118.938C78.7508 118.938 74.6877 117.829 73.8258 114.064C73.8258 114.064 80.115 112.797 80.2972 119.267L78.7508 118.938Z" fill="#1D2C62"/>
<path opacity="0.73" d="M79.2482 118.536C79.2482 118.536 76.4114 114.064 78.9084 109.886C78.9084 109.886 83.6906 112.915 81.563 118.546L79.2482 118.536Z" fill="#1D2C62"/>
<path d="M79.9771 118.536C79.9771 118.536 81.4546 113.818 86.0053 112.925C86.0053 112.925 86.8573 115.988 83.0749 118.55L79.9771 118.536Z" fill="#1D2C62"/>
<path d="M77.032 118.433L77.8545 124.044L83.0405 124.068L83.8039 118.457L77.032 118.433Z" fill="#24285B"/>
<path d="M149.415 25.1686H146.174C144.974 25.1686 143.785 25.4043 142.677 25.8622C141.568 26.3202 140.561 26.9914 139.712 27.8375C138.864 28.6837 138.191 29.6881 137.732 30.7936C137.273 31.899 137.037 33.0837 137.038 34.28C137.039 36.088 137.579 37.8549 138.59 39.356C139.602 40.857 141.038 42.0241 142.717 42.709L144.539 47.6819L145.248 43.3373C145.556 43.371 145.865 43.3873 146.174 43.3864H149.415C151.837 43.3851 154.16 42.4253 155.873 40.7178C157.586 39.0103 158.549 36.6947 158.55 34.28C158.55 31.8643 157.588 29.5476 155.875 27.839C154.162 26.1304 151.838 25.1699 149.415 25.1686Z" fill="#F2F2F2"/>
<path d="M114.462 30.4164C114.458 28.6938 113.769 27.0431 112.545 25.8265C111.322 24.6098 109.664 23.9265 107.936 23.9265H99.485C98.6276 23.9265 97.7786 24.0949 96.9866 24.4221C96.1945 24.7493 95.4749 25.2289 94.8689 25.8334C94.2629 26.4379 93.7823 27.1556 93.4547 27.9453C93.127 28.7351 92.9587 29.5814 92.9594 30.436C92.9646 32.1578 93.6544 33.8072 94.8776 35.0228C96.1008 36.2384 97.7577 36.921 99.485 36.921H107.946C108.623 36.92 109.296 36.814 109.941 36.6068L114.472 38.6147L112.531 35.0408C113.145 34.4363 113.632 33.716 113.963 32.9221C114.294 32.1281 114.464 31.2764 114.462 30.4164Z" fill="#F2F2F2"/>
<path d="M78.012 19.9109H67.5808C65.4452 19.9109 63.397 20.7565 61.8869 22.2618C60.3768 23.767 59.5284 25.8086 59.5284 27.9374C59.529 29.1831 59.8209 30.4117 60.3808 31.5254C60.9408 32.6392 61.7534 33.6075 62.7543 34.3536L60.4593 38.8897L65.5813 35.7085C66.2343 35.878 66.906 35.9654 67.5808 35.9687H78.012C80.1467 35.9674 82.1936 35.1212 83.7027 33.6161C85.2117 32.111 86.0594 30.0702 86.0594 27.9423C86.0601 26.8882 85.8524 25.8444 85.4483 24.8703C85.0443 23.8962 84.4517 23.011 83.7044 22.2653C82.9571 21.5195 82.0698 20.9277 81.0931 20.5237C80.1164 20.1198 79.0694 19.9115 78.012 19.9109Z" fill="#F2F2F2"/>
</svg>
