<svg width="685" height="496" viewBox="0 0 685 496" fill="none" xmlns="http://www.w3.org/2000/svg">
<path d="M340.32 495.999C480.47 495.999 594.084 389.148 594.084 257.34C594.084 125.532 480.47 18.6799 340.32 18.6799C200.17 18.6799 86.5557 125.532 86.5557 257.34C86.5557 389.148 200.17 495.999 340.32 495.999Z" fill="#000572"/>
<path d="M461.381 291.258C459.655 297.698 454.853 303.169 447.283 307.483C439.703 311.803 429.482 314.877 417.262 316.528C392.832 319.829 360.817 317.39 327.05 308.342C293.283 299.295 264.338 285.399 244.832 270.325C235.076 262.785 227.761 255.013 223.356 247.483C218.956 239.961 217.534 232.821 219.259 226.381C220.985 219.943 225.787 214.471 233.357 210.156C240.938 205.838 251.159 202.763 263.378 201.112C287.807 197.81 319.822 200.25 353.589 209.298C387.356 218.345 416.302 232.24 435.808 247.314C445.565 254.854 452.88 262.627 457.284 270.158C461.684 277.68 463.106 284.819 461.381 291.258V291.258Z" stroke="white" stroke-width="4"/>
<path d="M529.82 308.116C522.125 336.834 494.329 357.668 454.79 367.777C415.32 377.869 364.591 377.124 312 363.032C259.411 348.941 215.105 324.222 185.969 295.747C156.783 267.223 143.127 235.281 150.821 206.564C158.516 177.846 186.313 157.012 225.852 146.902C265.322 136.81 316.051 137.556 368.641 151.647C421.231 165.738 465.537 190.458 494.672 218.933C523.859 247.457 537.515 279.398 529.82 308.116V308.116Z" stroke="white" stroke-width="4"/>
<path d="M588.39 316.122C576.906 358.982 539.224 390.762 487.041 407.272C434.883 423.776 368.509 424.908 300.319 406.637C232.129 388.366 175.213 354.197 138.294 313.827C101.358 273.436 84.6149 227.073 96.0988 184.214C107.583 141.354 145.264 109.574 197.447 93.0642C249.606 76.561 315.98 75.4285 384.17 93.6995C452.36 111.971 509.275 146.14 546.194 186.511C583.131 226.901 599.874 273.264 588.39 316.122Z" stroke="white" stroke-width="4"/>
<path d="M393.384 179.625C436.407 209.002 447.518 267.61 418.214 310.528C388.909 353.445 330.278 364.433 287.254 335.056C244.231 305.679 233.12 247.07 262.424 204.153C291.729 161.235 350.361 150.248 393.384 179.625V179.625Z" stroke="white" stroke-width="4"/>
<path d="M630.521 486.998C630.521 486.998 588.115 453.411 560.17 449.561C532.522 445.752 459.638 450.217 405.556 427.292C405.049 427.081 404.631 426.7 404.375 426.214C404.119 425.728 404.04 425.168 404.153 424.631C405.012 420.715 409.07 412.38 428.568 413.188C453.948 414.284 473.399 414.62 473.399 414.62C473.399 414.62 395.434 337.555 375.86 315.102C371.994 310.671 369.381 306.674 367.676 303.04C362.367 291.708 376.931 281.528 385.954 290.206L438.767 340.968C438.767 340.968 436.269 333.011 441.848 328.075C447.136 323.418 460.529 325.985 468.349 334.417C468.349 334.417 466.298 325.249 475.114 321.185C483.929 317.123 495.512 324.143 500.427 328.697C500.427 328.697 496.573 320.376 502.078 315.621C507.583 310.865 522.179 315.499 526.095 318.297C530.01 321.095 566.564 338.593 606.169 387.629L683.766 411.664C683.766 411.664 694.627 440.38 630.521 486.998ZM53.9413 20.8828C53.9413 20.8828 96.3481 54.4693 124.292 58.3206C151.94 62.1285 224.824 57.6636 278.906 80.5889C279.414 80.7996 279.832 81.1808 280.088 81.6668C280.344 82.1527 280.422 82.7129 280.309 83.2505C279.451 87.166 275.392 95.5019 255.894 94.692C230.515 93.596 211.063 93.2606 211.063 93.2606C211.063 93.2606 289.028 170.326 308.602 192.779C312.468 197.21 315.082 201.208 316.786 204.841C322.096 216.174 307.532 226.353 298.508 217.675L245.696 166.914C245.696 166.914 248.193 174.87 242.615 179.807C237.327 184.463 223.934 181.896 216.113 173.463C216.113 173.463 218.164 182.633 209.349 186.695C200.533 190.759 188.95 183.739 184.036 179.183C184.036 179.183 187.89 187.505 182.385 192.26C176.88 197.015 162.284 192.381 158.368 189.584C154.452 186.786 117.899 169.287 78.2941 120.251L0.695732 96.2161C0.695732 96.2161 -10.1657 67.5 53.9413 20.8838V20.8828Z" fill="#FFA996"/>
<path d="M340.334 219.989H340.764C343.311 253.821 370.149 254.342 370.149 254.342C370.149 254.342 340.554 254.883 340.554 293.977C340.554 254.883 310.958 254.342 310.958 254.342C310.958 254.342 337.786 253.821 340.334 219.989Z" fill="white"/>
<path d="M611.651 324.773C621.946 331.863 637.673 326.906 637.673 326.906C637.673 326.906 636.699 310.454 626.398 303.371C616.103 296.28 600.383 301.23 600.383 301.23C600.383 301.23 601.356 317.682 611.651 324.773Z" fill="url(#paint0_linear_39_4104)"/>
<path d="M42.8447 266.384C53.5088 277.238 73.45 274.949 73.45 274.949C73.45 274.949 76.0889 255.063 65.4149 244.217C54.7508 233.363 34.8195 235.645 34.8195 235.645C34.8195 235.645 32.1806 255.531 42.8447 266.384Z" fill="url(#paint1_linear_39_4104)"/>
<path d="M372.26 461.682C362.922 461.682 355.352 468.923 355.352 477.855C355.352 486.787 362.922 494.028 372.26 494.028C381.598 494.028 389.167 486.787 389.167 477.855C389.167 468.923 381.598 461.682 372.26 461.682Z" fill="#000572"/>
<path d="M64.3322 329.787C58.8839 329.787 54.4672 334.204 54.4672 339.652C54.4672 345.1 58.8839 349.517 64.3322 349.517C69.7805 349.517 74.1973 345.1 74.1973 339.652C74.1973 334.204 69.7805 329.787 64.3322 329.787Z" fill="#000572"/>
<path d="M237.466 18.7436C232.29 18.7436 228.094 14.5477 228.094 9.37178C228.094 4.19589 232.29 0 237.466 0C242.642 0 246.837 4.19589 246.837 9.37178C246.837 14.5477 242.642 18.7436 237.466 18.7436Z" fill="#000572"/>
<path d="M550.334 173.915C541.808 173.915 534.897 167.004 534.897 158.478C534.897 149.953 541.808 143.042 550.334 143.042C558.859 143.042 565.771 149.953 565.771 158.478C565.771 167.004 558.859 173.915 550.334 173.915Z" fill="#000572"/>
<path d="M503.131 493.847C497.791 493.847 493.461 489.518 493.461 484.178C493.461 478.837 497.791 474.508 503.131 474.508C508.472 474.508 512.801 478.837 512.801 484.178C512.801 489.518 508.472 493.847 503.131 493.847Z" fill="#E1E4E5"/>
<path d="M203.43 468.59C193.623 468.59 185.673 460.64 185.673 450.833C185.673 441.026 193.623 433.076 203.43 433.076C213.237 433.076 221.188 441.026 221.188 450.833C221.188 460.64 213.237 468.59 203.43 468.59Z" fill="white"/>
<path d="M364.229 452.806C360.96 452.806 358.31 450.156 358.31 446.887C358.31 443.618 360.96 440.968 364.229 440.968C367.498 440.968 370.148 443.618 370.148 446.887C370.148 450.156 367.498 452.806 364.229 452.806Z" fill="white"/>
<path d="M592.402 214.652C588.428 214.652 585.206 211.43 585.206 207.456C585.206 203.482 588.428 200.261 592.402 200.261C596.376 200.261 599.597 203.482 599.597 207.456C599.597 211.43 596.376 214.652 592.402 214.652Z" fill="#E1E4E5"/>
<path d="M524.174 105.817C518.108 105.817 513.191 100.9 513.191 94.8345C513.191 88.7689 518.108 83.8518 524.174 83.8518C530.239 83.8518 535.156 88.7689 535.156 94.8345C535.156 100.9 530.239 105.817 524.174 105.817Z" fill="white"/>
<path d="M137.592 252.182C137.592 255.25 135.105 257.737 132.037 257.737C128.969 257.737 126.482 255.25 126.482 252.182C126.482 249.114 128.969 246.627 132.037 246.627C135.105 246.627 137.592 249.114 137.592 252.182Z" fill="#E1E4E5"/>
<path d="M57.3496 142.89C53.5783 142.89 50.5211 139.833 50.5211 136.061C50.5211 132.29 53.5783 129.233 57.3496 129.233C61.121 129.233 64.1782 132.29 64.1782 136.061C64.1782 139.833 61.121 142.89 57.3496 142.89Z" fill="#E1E4E5"/>
<path d="M626.1 374.794C622.04 374.794 618.749 372.161 618.749 368.914C618.749 365.666 622.04 363.033 626.1 363.033C630.16 363.033 633.452 365.666 633.452 368.914C633.452 372.161 630.16 374.794 626.1 374.794Z" fill="#E1E4E5"/>
<path d="M381.987 70.5358C381.987 76.2565 377.35 80.8941 371.629 80.8941C365.908 80.8941 361.271 76.2565 361.271 70.5358C361.271 64.8151 365.908 60.1775 371.629 60.1775C377.35 60.1775 381.987 64.8151 381.987 70.5358Z" fill="white"/>
<path d="M598.338 134.164H598.531C599.669 150.299 611.669 150.547 611.669 150.547C611.669 150.547 598.437 150.805 598.437 169.449C598.437 150.805 585.205 150.547 585.205 150.547C585.205 150.547 597.199 150.299 598.338 134.164ZM174.25 18.7429H174.4C175.291 31.824 184.685 32.0262 184.685 32.0262C184.685 32.0262 174.327 32.2353 174.327 47.3515C174.327 32.2353 163.968 32.0262 163.968 32.0262C163.968 32.0262 173.358 31.8249 174.25 18.7429Z" fill="#E1E4E5"/>
<path d="M161.833 370.183C166.671 369.037 171.788 373.141 171.788 373.141C171.788 373.141 169.058 379.099 164.218 380.243C159.379 381.389 154.264 377.289 154.264 377.289C154.264 377.289 156.995 371.33 161.833 370.183Z" fill="url(#paint2_linear_39_4104)"/>
<path d="M184.487 263.592C180.199 260.638 173.647 262.703 173.647 262.703C173.647 262.703 174.053 269.556 178.344 272.507C182.633 275.46 189.181 273.398 189.181 273.398C189.181 273.398 188.775 266.545 184.487 263.592Z" fill="url(#paint3_linear_39_4104)"/>
<path d="M493.289 248.177C486.811 241.585 474.7 242.975 474.7 242.975C474.7 242.975 473.097 255.053 479.58 261.641C486.057 268.234 498.163 266.848 498.163 266.848C498.163 266.848 499.766 254.77 493.289 248.177Z" fill="url(#paint4_linear_39_4104)"/>
<path d="M197.193 237.148C204.104 237.148 209.706 231.8 209.706 225.202C209.706 218.605 204.104 213.257 197.193 213.257C190.281 213.257 184.679 218.605 184.679 225.202C184.679 231.8 190.281 237.148 197.193 237.148Z" fill="#000572"/>
<path d="M591.803 101.975C598.714 101.975 604.317 96.3722 604.317 89.4611C604.317 82.5499 598.714 76.9473 591.803 76.9473C584.892 76.9473 579.289 82.5499 579.289 89.4611C579.289 96.3722 584.892 101.975 591.803 101.975Z" fill="#000572"/>
<path d="M126.02 420.251C132.303 420.251 137.397 425.6 137.397 432.197C137.397 438.794 132.303 444.143 126.02 444.143C119.737 444.143 114.644 438.794 114.644 432.197C114.644 425.6 119.737 420.251 126.02 420.251Z" fill="#000572"/>
<path d="M623.484 242.681C628.824 242.681 633.153 247.01 633.153 252.35C633.153 257.691 628.824 262.02 623.484 262.02C618.143 262.02 613.814 257.691 613.814 252.35C613.814 247.01 618.143 242.681 623.484 242.681Z" fill="#000572"/>
<path d="M278.06 117.694C281.254 117.694 283.843 120.283 283.843 123.477C283.843 126.671 281.254 129.26 278.06 129.26C274.866 129.26 272.277 126.671 272.277 123.477C272.277 120.283 274.866 117.694 278.06 117.694Z" fill="white"/>
<path d="M470.624 77.8764C473.983 77.8764 476.707 80.5998 476.707 83.9592C476.707 87.3186 473.983 90.042 470.624 90.042C467.264 90.042 464.541 87.3186 464.541 83.9592C464.541 80.5998 467.264 77.8764 470.624 77.8764Z" fill="white"/>
<path d="M220.027 297.543C221.682 297.543 223.024 298.885 223.024 300.54C223.024 302.195 221.682 303.537 220.027 303.537C218.372 303.537 217.03 302.195 217.03 300.54C217.03 298.885 218.372 297.543 220.027 297.543Z" fill="#E1E4E5"/>
<path d="M283.964 461.684C286.49 461.684 288.538 463.732 288.538 466.258C288.538 468.784 286.49 470.833 283.964 470.833C281.437 470.833 279.389 468.784 279.389 466.258C279.389 463.732 281.437 461.684 283.964 461.684Z" fill="white"/>
<path d="M450.056 215.187C450.056 211.846 452.765 209.138 456.106 209.138C459.446 209.138 462.155 211.846 462.155 215.187C462.155 218.528 459.446 221.237 456.106 221.237C452.765 221.237 450.056 218.528 450.056 215.187Z" fill="#E1E4E5"/>
<path d="M551.016 254.519C554.472 254.519 557.274 257.32 557.274 260.776C557.274 264.232 554.472 267.033 551.016 267.033C547.56 267.033 544.759 264.232 544.759 260.776C544.759 257.32 547.56 254.519 551.016 254.519Z" fill="#E1E4E5"/>
<path d="M79.4444 182.542C85.4135 182.542 90.2525 186.362 90.2525 191.074C90.2525 195.787 85.4135 199.607 79.4444 199.607C73.4752 199.607 68.6362 195.787 68.6362 191.074C68.6362 186.362 73.4752 182.542 79.4444 182.542Z" fill="#E1E4E5"/>
<path d="M245.487 417.652C244.597 414.33 246.569 410.915 249.891 410.025C253.213 409.134 256.628 411.106 257.518 414.428C258.409 417.751 256.437 421.166 253.115 422.056C249.792 422.946 246.378 420.974 245.487 417.652Z" fill="white"/>
<path d="M207.293 339.446H207.213C206.739 332.725 201.741 332.621 201.741 332.621C201.741 332.621 207.253 332.514 207.253 324.748C207.253 332.514 212.764 332.621 212.764 332.621C212.764 332.621 207.768 332.725 207.293 339.446ZM387.659 374.606H387.564C387.007 366.565 381.145 366.441 381.145 366.441C381.145 366.441 387.61 366.312 387.61 357.021C387.61 366.312 394.075 366.441 394.075 366.441C394.075 366.441 388.215 366.565 387.659 374.606Z" fill="#E1E4E5"/>
<defs>
<linearGradient id="paint0_linear_39_4104" x1="651.753" y1="348.038" x2="570.717" y2="262.587" gradientUnits="userSpaceOnUse">
<stop stop-color="white"/>
<stop offset="1" stop-color="#EEEEEE"/>
</linearGradient>
<linearGradient id="paint1_linear_39_4104" x1="85.3916" y1="303.457" x2="8.29841" y2="182.608" gradientUnits="userSpaceOnUse">
<stop stop-color="white"/>
<stop offset="1" stop-color="#EEEEEE"/>
</linearGradient>
<linearGradient id="paint2_linear_39_4104" x1="180.052" y1="367.333" x2="137.699" y2="387.343" gradientUnits="userSpaceOnUse">
<stop stop-color="white"/>
<stop offset="1" stop-color="#EEEEEE"/>
</linearGradient>
<linearGradient id="paint3_linear_39_4104" x1="167.783" y1="253.9" x2="201.539" y2="289.495" gradientUnits="userSpaceOnUse">
<stop stop-color="white"/>
<stop offset="1" stop-color="#EEEEEE"/>
</linearGradient>
<linearGradient id="paint4_linear_39_4104" x1="467.446" y1="225.66" x2="514.271" y2="299.062" gradientUnits="userSpaceOnUse">
<stop stop-color="white"/>
<stop offset="1" stop-color="#EEEEEE"/>
</linearGradient>
</defs>
</svg>
