<svg width="1024" height="836" viewBox="0 0 1024 836" fill="none" xmlns="http://www.w3.org/2000/svg">
<g opacity="0.1">
<path d="M565.781 732.519C565.781 732.519 571.97 733.923 574.738 738.977L570.651 742.4L567.191 741.078L567.355 745.102L551.278 758.464C551.278 758.464 543.61 764.491 543.61 757.831C543.657 755.438 546.309 758.894 553.981 749.183L561.445 736L565.781 732.519Z" fill="url(#paint0_radial_39_5871)"/>
<path d="M605.465 372.608C605.465 372.608 515.842 489.4 528.609 614.844C541.318 740.408 543.092 731.736 543.092 731.736L522.068 744.75C522.068 744.75 429.637 579.659 499.855 429.479C569.889 279.235 605.465 372.608 605.465 372.608Z" fill="url(#paint1_radial_39_5871)"/>
<path d="M580.321 545.135C580.321 545.135 586.612 540.994 592.242 541.15L590.793 545.998L586.946 548.102L589.553 549.959L583.576 569.29C583.576 569.29 580.447 578.359 576.413 575.051C574.966 573.867 579.381 573.468 580.321 562.549L578.816 550.102L580.321 545.135Z" fill="url(#paint2_radial_39_5871)"/>
<path d="M502.914 333.118C502.914 333.118 391.257 387.488 352.509 464.698C313.821 541.784 552.503 554.799 552.503 554.799L554.197 536.538C554.197 536.538 422.81 472.303 412.31 478.286C412.31 478.286 611.719 406.026 598.41 326.42C584.905 246.747 502.914 333.118 502.914 333.118Z" fill="url(#paint3_radial_39_5871)"/>
<path d="M297.599 296.279C297.599 296.279 329.173 304.503 368.348 301.197C405.043 298.193 448.379 285.17 478.664 245.879C479.519 244.764 480.373 243.65 481.227 242.535L488.009 203.736L495.489 161.416C494.207 163.088 399.225 282.348 302.994 283.115L297.599 296.279Z" fill="url(#paint4_linear_39_5871)"/>
<path opacity="0.06" d="M379.789 306.191C415.195 301.105 456.452 285.859 483.509 245.765C484.272 244.628 485.034 243.491 485.797 242.354L490.091 204.121L486.606 196.639C486.506 197.303 456.761 288.62 379.789 306.191Z" fill="black"/>
<path d="M479.407 280.974C479.582 317.014 481.25 346.737 481.25 346.737C481.25 346.737 502.135 369.363 503.457 369.387C504.78 369.412 516.151 349.54 516.151 349.54L530.842 365.644L574.853 340.125C574.853 340.125 572.598 327.978 569.773 307.104C563.695 260.944 608.267 146.019 608.267 146.019C590.992 139.416 555.948 138.982 555.948 138.982L526.639 148.326L491.374 160.332C487.551 167.561 484.876 180.017 483.071 195.045C481.23 209.918 480.26 227.365 479.864 245.006C479.378 257.072 479.37 269.299 479.407 280.974Z" fill="url(#paint5_radial_39_5871)"/>
<path d="M536.405 97.6458L542.429 146.358L513.354 158.771L507.109 152.921C507.109 152.921 512.851 119.956 509.757 100.868C506.663 81.7789 533.879 69.7342 536.405 97.6458Z" fill="url(#paint6_linear_39_5871)"/>
<path d="M526.145 85.1721L514.105 117.123L493.449 116.18L509.221 61.2727C509.186 61.1211 538.185 53.2215 526.145 85.1721Z" fill="url(#paint7_linear_39_5871)"/>
<path d="M521.956 92.6769C521.956 92.6769 521.496 82.1919 526.763 67.0256C526.763 67.0256 499.911 68.1723 499.399 60.1776C498.727 52.2756 505.873 40.8503 511.843 44.9571C517.752 49.1904 511.417 56.3195 523.462 56.4543C535.606 56.623 531.683 64.7244 531.683 64.7244C531.683 64.7244 538.03 67.3372 535.385 76.6129C532.64 85.8548 529.536 104.416 529.536 104.416L521.956 92.6769Z" fill="url(#paint8_radial_39_5871)"/>
<path d="M524.601 96.8167L529.227 83.6661C529.227 83.6661 532.042 82.5892 531.632 87.9093C531.277 93.1119 526.614 98.3305 524.601 96.8167Z" fill="url(#paint9_linear_39_5871)"/>
<path d="M281.669 271.684L261.446 264.509C261.446 264.509 254.862 267.474 260.538 270.932C266.215 274.391 276.56 277.14 276.56 277.14L258.229 275.197C258.229 275.197 256.648 281.086 265.873 280.853L274.832 284.05L256.947 282.87C256.947 282.87 258.274 288.064 264.119 286.377L273.169 289.146L258.692 290.807C258.692 290.807 260.794 294.887 265.901 292.797L282.939 293.076L281.669 271.684Z" fill="url(#paint10_linear_39_5871)"/>
<path d="M295.744 283.58C295.744 283.58 295.269 271.006 282.485 267.737C269.701 264.469 272.976 265.123 272.976 265.123C272.976 265.123 273.534 275.152 281.94 273.608C281.94 273.608 276.36 290.036 279.272 294.05C282.184 298.063 290.617 297.891 290.617 297.891L295.744 283.58Z" fill="url(#paint11_linear_39_5871)"/>
<path d="M493.266 159.587C493.266 159.587 443.86 221.332 429.612 224.171C429.612 224.171 450.708 263.48 466.195 264.429L481.962 243.186L493.266 159.587Z" fill="url(#paint12_radial_39_5871)"/>
<path d="M758.256 277.024L670.695 470.982C667.654 477.657 661.069 481.933 655.901 480.497L418.642 416.083C413.474 414.646 411.701 408.163 414.742 401.487L502.302 207.529C505.343 200.854 511.928 196.578 517.096 198.014L754.356 262.428C759.488 263.702 761.297 270.349 758.256 277.024Z" fill="url(#paint13_linear_39_5871)"/>
<path d="M685.952 454.937L423.416 379.194L448.626 320.196L711.161 395.939L685.952 454.937Z" fill="url(#paint14_linear_39_5871)"/>
<path d="M488.164 318.989L472.106 314.645C467.002 313.231 465.247 306.846 468.246 300.271L473.18 289.292C476.179 282.717 482.68 278.505 487.784 279.919L503.842 284.263C508.946 285.677 510.701 292.062 507.702 298.637L502.768 309.616C499.929 316.096 493.268 320.403 488.164 318.989Z" fill="white"/>
<path d="M681.674 357.34L539.939 313.524L543.433 304.963L685.06 348.738L681.674 357.34Z" fill="url(#paint15_linear_39_5871)"/>
<path d="M678.061 366.99L536.412 323.185L539.907 314.619L681.484 358.587L678.061 366.99Z" fill="url(#paint16_linear_39_5871)"/>
<path d="M606.828 354.948L532.374 332.333L535.758 324.19L610.282 346.647L606.828 354.948Z" fill="url(#paint17_linear_39_5871)"/>
<path d="M699.213 303.772L745.897 316.705L733.732 343.968L686.983 331.17L699.213 303.772Z" fill="url(#paint18_linear_39_5871)"/>
<path opacity="0.06" d="M606.296 239.681L668.322 257.949C668.322 257.949 599.694 400.722 587.964 411.076C576.324 421.461 573.257 403.198 575.884 401.194C578.601 399.222 582.994 396.577 582.994 396.577C582.994 396.577 573.239 396.027 577.874 392.224C582.508 388.421 616.461 360.384 616.541 312.599C616.565 264.932 606.296 239.681 606.296 239.681Z" fill="black"/>
<path d="M610.789 154.074C610.789 154.074 675.251 169.351 658.604 264.385C650.852 308.832 594.117 390.168 594.117 390.168L586.017 383.401C586.017 383.401 654.186 243.313 587.187 224.261L610.789 154.074Z" fill="url(#paint19_linear_39_5871)"/>
<path d="M584.672 385.168C584.672 385.168 577.389 383.888 571.395 389.919C571.395 389.919 572.946 393.222 576.793 391.59L568.576 400.093C568.576 400.093 573.488 414.332 581.867 407.348C587.222 402.857 593.275 392.308 593.275 392.308L584.672 385.168Z" fill="url(#paint20_linear_39_5871)"/>
<path d="M652.495 185.603C652.495 185.603 622.406 227.161 604.846 236.615C604.846 236.615 597.796 224.482 583.977 218.972C583.977 218.972 593.75 170.006 608.686 146.607C608.686 146.607 637.058 149.977 652.495 185.603Z" fill="url(#paint21_radial_39_5871)"/>
<path opacity="0.45" d="M537.441 761.38C452.925 764.032 384.41 766.741 384.408 767.43C384.407 768.119 452.92 766.528 537.436 763.876C621.952 761.223 690.467 758.515 690.468 757.825C690.47 757.136 621.957 758.728 537.441 761.38Z" fill="url(#paint22_linear_39_5871)"/>
</g>
<defs>
<radialGradient id="paint0_radial_39_5871" cx="0" cy="0" r="1" gradientUnits="userSpaceOnUse" gradientTransform="translate(458.815 801.9) rotate(140.326) scale(134.827 105.061)">
<stop stop-color="#FFFFAB"/>
<stop offset="0.5498" stop-color="#CD00FF"/>
<stop offset="1" stop-color="#5739D8"/>
</radialGradient>
<radialGradient id="paint1_radial_39_5871" cx="0" cy="0" r="1" gradientUnits="userSpaceOnUse" gradientTransform="translate(666.979 846.95) rotate(40.0973) scale(34.9176 47.8889)">
<stop stop-color="#FFFFAB"/>
<stop offset="0.5498" stop-color="#CD00FF"/>
<stop offset="1" stop-color="#5739D8"/>
</radialGradient>
<radialGradient id="paint2_radial_39_5871" cx="0" cy="0" r="1" gradientUnits="userSpaceOnUse" gradientTransform="translate(528.498 664.163) rotate(107.266) scale(130.632 100.223)">
<stop stop-color="#FFFFAB"/>
<stop offset="0.5498" stop-color="#CD00FF"/>
<stop offset="1" stop-color="#5739D8"/>
</radialGradient>
<radialGradient id="paint3_radial_39_5871" cx="0" cy="0" r="1" gradientUnits="userSpaceOnUse" gradientTransform="translate(144.49 742.089) rotate(39.9094) scale(438.695 601.048)">
<stop stop-color="#FFFFAB"/>
<stop offset="0.5498" stop-color="#CD00FF"/>
<stop offset="1" stop-color="#5739D8"/>
</radialGradient>
<linearGradient id="paint4_linear_39_5871" x1="306.811" y1="144.34" x2="477.839" y2="290.218" gradientUnits="userSpaceOnUse">
<stop stop-color="#FFFAC0"/>
<stop offset="0.5439" stop-color="#FFC880"/>
<stop offset="1" stop-color="#EF6262"/>
</linearGradient>
<radialGradient id="paint5_radial_39_5871" cx="0" cy="0" r="1" gradientUnits="userSpaceOnUse" gradientTransform="translate(434.586 105.775) rotate(161.725) scale(310.178 301.635)">
<stop offset="0.00263467" stop-color="#FFF6A6"/>
<stop offset="0.5071" stop-color="#219DDB"/>
<stop offset="1" stop-color="#10488C"/>
</radialGradient>
<linearGradient id="paint6_linear_39_5871" x1="448.94" y1="232.501" x2="544.258" y2="94.151" gradientUnits="userSpaceOnUse">
<stop stop-color="#FFFAC0"/>
<stop offset="0.5439" stop-color="#FFC880"/>
<stop offset="1" stop-color="#EF6262"/>
</linearGradient>
<linearGradient id="paint7_linear_39_5871" x1="491.564" y1="79.2749" x2="526.766" y2="100.706" gradientUnits="userSpaceOnUse">
<stop stop-color="#FFFAC0"/>
<stop offset="0.5439" stop-color="#FFC880"/>
<stop offset="1" stop-color="#EF6262"/>
</linearGradient>
<radialGradient id="paint8_radial_39_5871" cx="0" cy="0" r="1" gradientUnits="userSpaceOnUse" gradientTransform="translate(464.24 -7.59966) rotate(39.9753) scale(143.092 196.182)">
<stop stop-color="#FFFFAB"/>
<stop offset="0.5498" stop-color="#CD00FF"/>
<stop offset="1" stop-color="#5739D8"/>
</radialGradient>
<linearGradient id="paint9_linear_39_5871" x1="567.839" y1="55.0458" x2="505.889" y2="88.4326" gradientUnits="userSpaceOnUse">
<stop stop-color="#FFFAC0"/>
<stop offset="0.5439" stop-color="#FFC880"/>
<stop offset="1" stop-color="#EF6262"/>
</linearGradient>
<linearGradient id="paint10_linear_39_5871" x1="230.386" y1="270.94" x2="275.718" y2="290.664" gradientUnits="userSpaceOnUse">
<stop stop-color="#FFFAC0"/>
<stop offset="0.5439" stop-color="#FFC880"/>
<stop offset="1" stop-color="#EF6262"/>
</linearGradient>
<linearGradient id="paint11_linear_39_5871" x1="349.927" y1="308.019" x2="251.305" y2="257.166" gradientUnits="userSpaceOnUse">
<stop stop-color="#FFFAC0"/>
<stop offset="0.5439" stop-color="#FFC880"/>
<stop offset="1" stop-color="#EF6262"/>
</linearGradient>
<radialGradient id="paint12_radial_39_5871" cx="0" cy="0" r="1" gradientUnits="userSpaceOnUse" gradientTransform="translate(437.502 107.529) rotate(39.99) scale(218.382 299.291)">
<stop offset="0.00263467" stop-color="#FFF6A6"/>
<stop offset="0.5071" stop-color="#219DDB"/>
<stop offset="1" stop-color="#10488C"/>
</radialGradient>
<linearGradient id="paint13_linear_39_5871" x1="1032.2" y1="330.891" x2="-209.512" y2="4.1185" gradientUnits="userSpaceOnUse">
<stop stop-color="#FFE75C"/>
<stop offset="1" stop-color="#FF2A00"/>
</linearGradient>
<linearGradient id="paint14_linear_39_5871" x1="778.686" y1="373.922" x2="384.908" y2="278.281" gradientUnits="userSpaceOnUse">
<stop stop-color="#FFE75C"/>
<stop offset="1" stop-color="#FF2A00"/>
</linearGradient>
<linearGradient id="paint15_linear_39_5871" x1="712.943" y1="320.192" x2="-134.308" y2="158.238" gradientUnits="userSpaceOnUse">
<stop stop-color="#FFE75C"/>
<stop offset="1" stop-color="#FF2A00"/>
</linearGradient>
<linearGradient id="paint16_linear_39_5871" x1="712.5" y1="329.523" x2="-134.912" y2="167.597" gradientUnits="userSpaceOnUse">
<stop stop-color="#FFE75C"/>
<stop offset="1" stop-color="#FF2A00"/>
</linearGradient>
<linearGradient id="paint17_linear_39_5871" x1="713.204" y1="324.406" x2="-126.499" y2="161.411" gradientUnits="userSpaceOnUse">
<stop stop-color="#FFE75C"/>
<stop offset="1" stop-color="#FF2A00"/>
</linearGradient>
<linearGradient id="paint18_linear_39_5871" x1="770.782" y1="303.184" x2="424.361" y2="308.27" gradientUnits="userSpaceOnUse">
<stop stop-color="#FFE75C"/>
<stop offset="1" stop-color="#FF2A00"/>
</linearGradient>
<linearGradient id="paint19_linear_39_5871" x1="676.166" y1="487.343" x2="504.652" y2="224.268" gradientUnits="userSpaceOnUse">
<stop stop-color="#FFFAC0"/>
<stop offset="0.5439" stop-color="#FFC880"/>
<stop offset="1" stop-color="#EF6262"/>
</linearGradient>
<linearGradient id="paint20_linear_39_5871" x1="579.919" y1="427.46" x2="559.747" y2="362.529" gradientUnits="userSpaceOnUse">
<stop stop-color="#FFFAC0"/>
<stop offset="0.5439" stop-color="#FFC880"/>
<stop offset="1" stop-color="#EF6262"/>
</linearGradient>
<radialGradient id="paint21_radial_39_5871" cx="0" cy="0" r="1" gradientUnits="userSpaceOnUse" gradientTransform="translate(709.639 138.679) rotate(40.0505) scale(143.206 199.757)">
<stop offset="0.00263467" stop-color="#FFF6A6"/>
<stop offset="0.5071" stop-color="#219DDB"/>
<stop offset="1" stop-color="#10488C"/>
</radialGradient>
<linearGradient id="paint22_linear_39_5871" x1="690.468" y1="757.821" x2="384.468" y2="757.238" gradientUnits="userSpaceOnUse">
<stop stop-color="#6E7E8B"/>
<stop offset="1" stop-color="#5E4AED"/>
</linearGradient>
</defs>
</svg>
