<svg width="280" height="203" viewBox="0 0 280 203" fill="none" xmlns="http://www.w3.org/2000/svg">
<g opacity="0.03">
<path d="M139.218 202.904C196.551 202.904 243.028 159.194 243.028 105.273C243.028 51.3533 196.551 7.64233 139.218 7.64233C81.8855 7.64233 35.4082 51.3533 35.4082 105.273C35.4082 159.194 81.8855 202.904 139.218 202.904Z" fill="#000572"/>
<path d="M188.742 119.148C188.036 121.782 186.071 124.02 182.975 125.785C179.874 127.552 175.693 128.81 170.694 129.485C160.7 130.836 147.603 129.838 133.79 126.137C119.977 122.436 108.136 116.751 100.156 110.585C96.1649 107.5 93.1726 104.321 91.3707 101.24C89.5708 98.1631 88.9889 95.2425 89.6947 92.6081C90.4005 89.9741 92.365 87.7359 95.4619 85.9708C98.5629 84.204 102.744 82.9461 107.743 82.2709C117.736 80.9202 130.833 81.9182 144.647 85.6197C158.46 89.3207 170.301 95.0049 178.281 101.171C182.272 104.256 185.264 107.435 187.066 110.516C188.866 113.593 189.448 116.514 188.742 119.148V119.148Z" stroke="white" stroke-width="4"/>
<path d="M216.739 126.045C213.591 137.792 202.22 146.315 186.046 150.451C169.899 154.579 149.147 154.274 127.633 148.509C106.12 142.745 87.9952 132.633 76.0765 120.984C64.1368 109.316 58.5503 96.2489 61.6981 84.5013C64.8458 72.7533 76.2169 64.2306 92.3916 60.0949C108.538 55.9665 129.29 56.2716 150.804 62.036C172.317 67.8004 190.442 77.9128 202.361 89.5612C214.3 101.23 219.887 114.297 216.739 126.045V126.045Z" stroke="white" stroke-width="4"/>
<path d="M240.699 129.32C236.001 146.853 220.586 159.853 199.239 166.607C177.902 173.358 150.75 173.822 122.854 166.347C94.9592 158.873 71.6762 144.895 56.5734 128.381C41.4634 111.858 34.6142 92.8911 39.312 75.3585C44.0098 57.8255 59.4246 44.8248 80.7717 38.0708C102.109 31.3197 129.261 30.8564 157.156 38.3307C185.051 45.8055 208.334 59.7831 223.437 76.298C238.547 92.8209 245.397 111.787 240.699 129.32Z" stroke="white" stroke-width="4"/>
<path d="M160.926 73.4813C178.526 85.4988 183.071 109.474 171.083 127.031C159.095 144.588 135.111 149.082 117.51 137.065C99.9101 125.047 95.3648 101.072 107.353 83.515C119.341 65.9581 143.326 61.4637 160.926 73.4813V73.4813Z" stroke="white" stroke-width="4"/>
<path d="M257.934 199.222C257.934 199.222 240.586 185.482 229.155 183.907C217.844 182.349 188.029 184.175 165.905 174.797C165.697 174.711 165.527 174.555 165.422 174.356C165.317 174.158 165.285 173.929 165.331 173.709C165.683 172.107 167.342 168.697 175.319 169.028C185.701 169.476 193.658 169.613 193.658 169.613C193.658 169.613 161.764 138.088 153.757 128.902C152.175 127.09 151.106 125.455 150.409 123.968C148.237 119.332 154.195 115.168 157.886 118.718L179.491 139.484C179.491 139.484 178.469 136.229 180.751 134.21C182.915 132.304 188.393 133.354 191.592 136.804C191.592 136.804 190.753 133.053 194.36 131.391C197.966 129.729 202.704 132.601 204.715 134.464C204.715 134.464 203.138 131.06 205.39 129.115C207.642 127.169 213.613 129.065 215.215 130.209C216.817 131.354 231.77 138.512 247.972 158.572L279.715 168.404C279.715 168.404 284.158 180.152 257.934 199.222ZM22.0663 8.54321C22.0663 8.54321 39.4141 22.2828 50.8453 23.8583C62.1559 25.416 91.9712 23.5895 114.095 32.9678C114.303 33.054 114.474 33.2099 114.578 33.4087C114.683 33.6075 114.715 33.8367 114.669 34.0566C114.318 35.6584 112.658 39.0684 104.681 38.7371C94.2994 38.2888 86.3416 38.1515 86.3416 38.1515C86.3416 38.1515 118.236 69.6776 126.243 78.8626C127.825 80.6754 128.894 82.3106 129.591 83.7969C131.763 88.433 125.805 92.5969 122.114 89.0472L100.509 68.2817C100.509 68.2817 101.531 71.5364 99.249 73.5558C97.0859 75.4606 91.6072 74.4105 88.4078 70.9609C88.4078 70.9609 89.2468 74.712 85.6406 76.3738C82.034 78.0361 77.2958 75.1644 75.2857 73.3007C75.2857 73.3007 76.862 76.7052 74.6101 78.6503C72.3583 80.5955 66.3872 78.7 64.7851 77.5555C63.1833 76.411 48.2303 69.2526 32.0286 49.1929L0.284611 39.3606C0.284611 39.3606 -4.15858 27.6134 22.0663 8.54362V8.54321Z" fill="#FFA996"/>
<path d="M139.224 89.9927H139.4C140.442 103.833 151.421 104.046 151.421 104.046C151.421 104.046 139.314 104.267 139.314 120.26C139.314 104.267 127.207 104.046 127.207 104.046C127.207 104.046 138.182 103.833 139.224 89.9927Z" fill="white"/>
<path d="M250.214 132.859C254.426 135.759 260.859 133.731 260.859 133.731C260.859 133.731 260.461 127.001 256.247 124.104C252.035 121.203 245.605 123.228 245.605 123.228C245.605 123.228 246.003 129.958 250.214 132.859Z" fill="url(#paint0_linear_39_405)"/>
<path d="M17.527 108.973C21.8895 113.413 30.047 112.477 30.047 112.477C30.047 112.477 31.1265 104.342 26.76 99.9045C22.3976 95.4645 14.2441 96.398 14.2441 96.398C14.2441 96.398 13.1645 104.533 17.527 108.973Z" fill="url(#paint1_linear_39_405)"/>
<path d="M152.284 188.865C148.464 188.865 145.367 191.827 145.367 195.481C145.367 199.135 148.464 202.097 152.284 202.097C156.104 202.097 159.201 199.135 159.201 195.481C159.201 191.827 156.104 188.865 152.284 188.865Z" fill="#000572"/>
<path d="M26.3169 134.91C24.0882 134.91 22.2814 136.717 22.2814 138.945C22.2814 141.174 24.0882 142.981 26.3169 142.981C28.5457 142.981 30.3525 141.174 30.3525 138.945C30.3525 136.717 28.5457 134.91 26.3169 134.91Z" fill="#000572"/>
<path d="M97.1425 7.66762C95.0252 7.66762 93.3087 5.95117 93.3087 3.83381C93.3087 1.71646 95.0252 0 97.1425 0C99.2599 0 100.976 1.71646 100.976 3.83381C100.976 5.95117 99.2599 7.66762 97.1425 7.66762Z" fill="#000572"/>
<path d="M225.131 71.1454C221.643 71.1454 218.816 68.3181 218.816 64.8305C218.816 61.3429 221.643 58.5156 225.131 58.5156C228.618 58.5156 231.446 61.3429 231.446 64.8305C231.446 68.3181 228.618 71.1454 225.131 71.1454Z" fill="#000572"/>
<path d="M205.821 202.023C203.637 202.023 201.865 200.252 201.865 198.067C201.865 195.883 203.637 194.112 205.821 194.112C208.006 194.112 209.777 195.883 209.777 198.067C209.777 200.252 208.006 202.023 205.821 202.023Z" fill="#E1E4E5"/>
<path d="M83.2193 191.691C79.2075 191.691 75.9553 188.438 75.9553 184.427C75.9553 180.415 79.2075 177.163 83.2193 177.163C87.2312 177.163 90.4834 180.415 90.4834 184.427C90.4834 188.438 87.2312 191.691 83.2193 191.691Z" fill="white"/>
<path d="M148.999 185.234C147.662 185.234 146.578 184.15 146.578 182.813C146.578 181.475 147.662 180.391 148.999 180.391C150.336 180.391 151.42 181.475 151.42 182.813C151.42 184.15 150.336 185.234 148.999 185.234Z" fill="white"/>
<path d="M242.34 87.81C240.714 87.81 239.397 86.4921 239.397 84.8664C239.397 83.2407 240.714 81.9229 242.34 81.9229C243.966 81.9229 245.284 83.2407 245.284 84.8664C245.284 86.4921 243.966 87.81 242.34 87.81Z" fill="#E1E4E5"/>
<path d="M214.429 43.2881C211.948 43.2881 209.936 41.2766 209.936 38.7953C209.936 36.314 211.948 34.3025 214.429 34.3025C216.91 34.3025 218.922 36.314 218.922 38.7953C218.922 41.2766 216.91 43.2881 214.429 43.2881Z" fill="white"/>
<path d="M56.2863 103.163C56.2863 104.418 55.2689 105.435 54.0139 105.435C52.7589 105.435 51.7415 104.418 51.7415 103.163C51.7415 101.908 52.7589 100.89 54.0139 100.89C55.2689 100.89 56.2863 101.908 56.2863 103.163Z" fill="#E1E4E5"/>
<path d="M23.4607 58.4528C21.9179 58.4528 20.6673 57.2022 20.6673 55.6594C20.6673 54.1166 21.9179 52.866 23.4607 52.866C25.0035 52.866 26.2542 54.1166 26.2542 55.6594C26.2542 57.2022 25.0035 58.4528 23.4607 58.4528Z" fill="#E1E4E5"/>
<path d="M256.125 153.321C254.465 153.321 253.118 152.244 253.118 150.915C253.118 149.587 254.465 148.51 256.125 148.51C257.786 148.51 259.133 149.587 259.133 150.915C259.133 152.244 257.786 153.321 256.125 153.321Z" fill="#E1E4E5"/>
<path d="M156.264 28.855C156.264 31.1953 154.366 33.0924 152.026 33.0924C149.686 33.0924 147.789 31.1953 147.789 28.855C147.789 26.5148 149.686 24.6177 152.026 24.6177C154.366 24.6177 156.264 26.5148 156.264 28.855Z" fill="white"/>
<path d="M244.768 54.8834H244.847C245.313 61.484 250.222 61.5853 250.222 61.5853C250.222 61.5853 244.809 61.6911 244.809 69.3179C244.809 61.6911 239.396 61.5853 239.396 61.5853C239.396 61.5853 244.302 61.484 244.768 54.8834ZM71.2821 7.66699H71.3434C71.7082 13.0182 75.5509 13.1009 75.5509 13.1009C75.5509 13.1009 71.3135 13.1865 71.3135 19.3702C71.3135 13.1865 67.0762 13.1009 67.0762 13.1009C67.0762 13.1009 70.9172 13.0186 71.2821 7.66699Z" fill="#E1E4E5"/>
<path d="M66.2026 151.435C68.182 150.966 70.2753 152.645 70.2753 152.645C70.2753 152.645 69.1582 155.082 67.1784 155.55C65.1989 156.019 63.1064 154.342 63.1064 154.342C63.1064 154.342 64.2235 151.904 66.2026 151.435Z" fill="url(#paint2_linear_39_405)"/>
<path d="M75.4702 107.83C73.7159 106.622 71.0359 107.467 71.0359 107.467C71.0359 107.467 71.2018 110.27 72.9572 111.477C74.7115 112.685 77.3903 111.842 77.3903 111.842C77.3903 111.842 77.2245 109.038 75.4702 107.83Z" fill="url(#paint3_linear_39_405)"/>
<path d="M201.795 101.525C199.145 98.8281 194.19 99.3967 194.19 99.3967C194.19 99.3967 193.535 104.337 196.187 107.032C198.836 109.729 203.789 109.162 203.789 109.162C203.789 109.162 204.444 104.222 201.795 101.525Z" fill="url(#paint4_linear_39_405)"/>
<path d="M80.6677 97.0131C83.495 97.0131 85.7869 94.8253 85.7869 92.1264C85.7869 89.4276 83.495 87.2397 80.6677 87.2397C77.8405 87.2397 75.5486 89.4276 75.5486 92.1264C75.5486 94.8253 77.8405 97.0131 80.6677 97.0131Z" fill="#000572"/>
<path d="M242.095 41.7158C244.922 41.7158 247.214 39.4239 247.214 36.5967C247.214 33.7695 244.922 31.4775 242.095 31.4775C239.268 31.4775 236.976 33.7695 236.976 36.5967C236.976 39.4239 239.268 41.7158 242.095 41.7158Z" fill="#000572"/>
<path d="M51.5525 171.917C54.1228 171.917 56.2064 174.105 56.2064 176.803C56.2064 179.502 54.1228 181.69 51.5525 181.69C48.9823 181.69 46.8987 179.502 46.8987 176.803C46.8987 174.105 48.9823 171.917 51.5525 171.917Z" fill="#000572"/>
<path d="M255.055 99.2759C257.24 99.2759 259.011 101.047 259.011 103.232C259.011 105.416 257.24 107.187 255.055 107.187C252.87 107.187 251.099 105.416 251.099 103.232C251.099 101.047 252.87 99.2759 255.055 99.2759Z" fill="#000572"/>
<path d="M113.749 48.1464C115.055 48.1464 116.114 49.2055 116.114 50.512C116.114 51.8185 115.055 52.8777 113.749 52.8777C112.442 52.8777 111.383 51.8185 111.383 50.512C111.383 49.2055 112.442 48.1464 113.749 48.1464Z" fill="white"/>
<path d="M192.523 31.8578C193.897 31.8578 195.011 32.9719 195.011 34.3461C195.011 35.7204 193.897 36.8345 192.523 36.8345C191.149 36.8345 190.035 35.7204 190.035 34.3461C190.035 32.9719 191.149 31.8578 192.523 31.8578Z" fill="white"/>
<path d="M90.009 121.719C90.6861 121.719 91.235 122.268 91.235 122.945C91.235 123.622 90.6861 124.171 90.009 124.171C89.3319 124.171 88.783 123.622 88.783 122.945C88.783 122.268 89.3319 121.719 90.009 121.719Z" fill="#E1E4E5"/>
<path d="M116.164 188.866C117.197 188.866 118.035 189.704 118.035 190.737C118.035 191.771 117.197 192.609 116.164 192.609C115.13 192.609 114.292 191.771 114.292 190.737C114.292 189.704 115.13 188.866 116.164 188.866Z" fill="white"/>
<path d="M184.109 88.029C184.109 86.6623 185.217 85.5544 186.584 85.5544C187.95 85.5544 189.058 86.6623 189.058 88.029C189.058 89.3957 187.95 90.5037 186.584 90.5037C185.217 90.5037 184.109 89.3957 184.109 88.029Z" fill="#E1E4E5"/>
<path d="M225.41 104.118C226.824 104.118 227.97 105.265 227.97 106.678C227.97 108.092 226.824 109.238 225.41 109.238C223.996 109.238 222.85 108.092 222.85 106.678C222.85 105.265 223.996 104.118 225.41 104.118Z" fill="#E1E4E5"/>
<path d="M32.4993 74.6743C34.9411 74.6743 36.9207 76.237 36.9207 78.1646C36.9207 80.0923 34.9411 81.655 32.4993 81.655C30.0574 81.655 28.0779 80.0923 28.0779 78.1646C28.0779 76.237 30.0574 74.6743 32.4993 74.6743Z" fill="#E1E4E5"/>
<path d="M100.424 170.853C100.06 169.494 100.866 168.097 102.225 167.733C103.585 167.369 104.982 168.175 105.346 169.535C105.71 170.894 104.903 172.291 103.544 172.655C102.185 173.019 100.788 172.212 100.424 170.853Z" fill="white"/>
<path d="M84.7995 138.861H84.7669C84.5727 136.112 82.5283 136.069 82.5283 136.069C82.5283 136.069 84.783 136.025 84.783 132.848C84.783 136.025 87.0377 136.069 87.0377 136.069C87.0377 136.069 84.9937 136.112 84.7995 138.861ZM158.583 153.244H158.545C158.317 149.955 155.919 149.904 155.919 149.904C155.919 149.904 158.564 149.852 158.564 146.05C158.564 149.852 161.208 149.904 161.208 149.904C161.208 149.904 158.811 149.955 158.583 153.244Z" fill="#E1E4E5"/>
</g>
<defs>
<linearGradient id="paint0_linear_39_405" x1="266.619" y1="142.376" x2="233.469" y2="107.42" gradientUnits="userSpaceOnUse">
<stop stop-color="white"/>
<stop offset="1" stop-color="#EEEEEE"/>
</linearGradient>
<linearGradient id="paint1_linear_39_405" x1="34.9321" y1="124.139" x2="3.39478" y2="74.7014" gradientUnits="userSpaceOnUse">
<stop stop-color="white"/>
<stop offset="1" stop-color="#EEEEEE"/>
</linearGradient>
<linearGradient id="paint2_linear_39_405" x1="73.6559" y1="150.269" x2="56.3299" y2="158.454" gradientUnits="userSpaceOnUse">
<stop stop-color="white"/>
<stop offset="1" stop-color="#EEEEEE"/>
</linearGradient>
<linearGradient id="paint3_linear_39_405" x1="68.6367" y1="103.866" x2="82.4457" y2="118.427" gradientUnits="userSpaceOnUse">
<stop stop-color="white"/>
<stop offset="1" stop-color="#EEEEEE"/>
</linearGradient>
<linearGradient id="paint4_linear_39_405" x1="191.223" y1="92.3134" x2="210.378" y2="122.341" gradientUnits="userSpaceOnUse">
<stop stop-color="white"/>
<stop offset="1" stop-color="#EEEEEE"/>
</linearGradient>
</defs>
</svg>
