<svg width="826" height="880" viewBox="0 0 826 880" fill="none" xmlns="http://www.w3.org/2000/svg">
<path d="M683.146 839.532C683.146 839.532 690.456 841.253 693.683 847.286L688.815 851.321L684.734 849.719L684.889 854.505L665.74 870.253C665.74 870.253 656.61 877.354 656.673 869.436C656.751 866.591 659.857 870.722 669.027 859.242L677.983 843.633L683.146 839.532Z" fill="url(#paint0_radial_39_5111)"/>
<path d="M731.444 411.756C731.444 411.756 624.424 549.926 638.128 699.346C651.763 848.906 653.95 838.601 653.95 838.601L629.001 853.895C629.001 853.895 521.724 656.549 606.209 478.461C690.477 300.296 731.444 411.756 731.444 411.756Z" fill="url(#paint1_radial_39_5111)"/>
<path d="M700.506 616.459C700.506 616.459 707.964 611.589 714.595 611.83L712.832 617.589L708.275 620.056L711.325 622.293L704.059 645.255C704.059 645.255 700.267 656.024 695.555 652.045C693.864 650.621 699.069 650.188 700.304 637.195L698.675 622.359L700.506 616.459Z" fill="url(#paint2_radial_39_5111)"/>
<path d="M608.913 364.409C608.913 364.409 476.107 428.087 429.517 519.482C383 610.73 665.78 628.114 665.78 628.114L667.945 606.438C667.945 606.438 512.774 529.081 500.279 536.103C500.279 536.103 737.244 451.884 722.154 357.223C706.834 262.481 608.913 364.409 608.913 364.409Z" fill="url(#paint3_radial_39_5111)"/>
<path d="M366.499 326.912C366.499 326.912 404.193 335.408 450.431 329.902C493.746 324.857 544.528 307.644 578.834 259.758C579.801 258.4 580.768 257.041 581.736 255.683L588.242 209.328L595.435 158.763C593.984 160.8 486.238 306.272 372.368 311.059L366.499 326.912Z" fill="url(#paint4_linear_39_5111)"/>
<path opacity="0.06" d="M459.555 333.159C501.538 328.208 550.76 311.354 584.014 264.51C584.952 263.181 585.89 261.852 586.828 260.524L593.138 215.188L589.265 206.181C589.124 206.968 551.034 314.647 459.555 333.159Z" fill="black"/>
<path d="M580.317 301.66C580.187 344.503 581.883 379.85 581.883 379.85C581.883 379.85 606.391 406.922 607.956 406.963C609.521 407.003 623.165 383.477 623.165 383.477L640.402 402.745L692.731 372.782C692.731 372.782 690.175 358.324 687.027 333.487C680.264 278.564 734.092 142.328 734.092 142.328C713.708 134.332 672.236 133.519 672.236 133.519L637.459 144.378L595.608 158.351C591.016 166.912 587.733 181.696 585.457 199.545C583.139 217.21 581.828 237.941 581.193 258.908C580.506 273.246 580.382 287.782 580.317 301.66Z" fill="url(#paint5_radial_39_5111)"/>
<path d="M655.176 85.3275L661.868 143.267L627.325 157.777L619.983 150.772C619.983 150.772 627.081 111.645 623.59 88.9346C620.1 66.2241 652.439 52.1367 655.176 85.3275Z" fill="url(#paint6_linear_39_5111)"/>
<path d="M642.728 70.4877L628.175 108.395L603.793 107.085L622.994 41.8968C622.953 41.7162 657.281 32.5802 642.728 70.4877Z" fill="url(#paint7_linear_39_5111)"/>
<path d="M637.657 79.2589C637.657 79.2589 637.196 66.8106 643.567 48.8507C643.567 48.8507 611.701 50.0027 611.158 40.5097C610.425 31.1256 618.995 17.6205 626.045 22.5413C633.02 27.6119 625.447 36.0241 639.736 36.2779C654.142 36.5726 649.423 46.1576 649.423 46.1576C649.423 46.1576 656.932 49.3083 653.718 60.297C650.388 71.2449 646.555 93.2513 646.555 93.2513L637.657 79.2589Z" fill="url(#paint8_radial_39_5111)"/>
<path d="M640.953 84.1777L646.555 68.5605C646.555 68.5605 649.881 67.3057 649.334 73.6382C648.855 79.8314 643.304 86.0007 640.953 84.1777Z" fill="url(#paint9_linear_39_5111)"/>
<path d="M351.693 294.936L327.733 286.269C327.733 286.269 319.892 289.731 326.606 293.876C333.321 298.021 345.584 301.363 345.584 301.363L323.831 298.913C323.831 298.913 321.907 305.881 332.865 305.68L343.479 309.54L322.249 307.999C322.249 307.999 323.785 314.167 330.739 312.214L341.465 315.568L324.26 317.422C324.26 317.422 326.725 322.275 332.806 319.838L353.036 320.306L351.693 294.936Z" fill="url(#paint10_linear_39_5111)"/>
<path d="M368.337 309.062C368.337 309.062 367.873 294.146 352.724 290.166C337.574 286.186 341.457 286.989 341.457 286.989C341.457 286.989 342.039 298.887 352.03 297.124C352.03 297.124 345.276 316.562 348.701 321.345C352.127 326.128 362.138 325.992 362.138 325.992L368.337 309.062Z" fill="url(#paint11_linear_39_5111)"/>
<path d="M596.428 158.306C596.428 158.306 537.415 231.313 520.548 234.563C520.548 234.563 545.083 281.508 563.377 282.774L582.225 257.647L596.428 158.306Z" fill="url(#paint12_radial_39_5111)"/>
<path d="M912.036 299.12L806.52 528.45C802.856 536.343 795.006 541.36 788.885 539.613L507.862 461.233C501.741 459.486 499.691 451.781 503.355 443.888L608.871 214.557C612.535 206.664 620.385 201.647 626.505 203.394L907.529 281.774C913.609 283.328 915.7 291.227 912.036 299.12Z" fill="url(#paint13_linear_39_5111)"/>
<path d="M825.624 509.381L513.636 418.012L544.051 348.6L856.039 439.969L825.624 509.381Z" fill="url(#paint14_linear_39_5111)"/>
<path d="M590.513 347.33L571.508 342.038C565.467 340.316 563.442 332.723 567.056 324.945L573.002 311.956C576.616 304.178 584.362 299.235 590.403 300.957L609.408 306.249C615.449 307.971 617.474 315.564 613.86 323.342L607.914 336.331C604.491 343.998 596.554 349.052 590.513 347.33Z" fill="white"/>
<path d="M820.883 393.183L652.293 340.577L656.515 330.538L824.977 383.095L820.883 393.183Z" fill="url(#paint15_linear_39_5111)"/>
<path d="M816.585 404.668L648.096 352.077L652.319 342.032L820.722 394.813L816.585 404.668Z" fill="url(#paint16_linear_39_5111)"/>
<path d="M731.825 390.251L643.291 363.06L647.377 353.5L735.997 380.506L731.825 390.251Z" fill="url(#paint17_linear_39_5111)"/>
<path opacity="0.06" d="M724.991 248.597L797.782 271C797.782 271 715.206 440.3 701.268 452.507C687.435 464.752 684.053 442.971 687.17 440.613C690.393 438.292 695.598 435.19 695.598 435.19C695.598 435.19 684.121 434.431 689.625 429.951C695.128 425.471 735.449 392.44 736.14 335.537C736.763 278.774 724.991 248.597 724.991 248.597Z" fill="black"/>
<path d="M733.818 143.741C733.818 143.741 809.548 162.546 788.707 275.503C778.999 328.333 711.118 424.599 711.118 424.599L701.665 416.467C701.665 416.467 783.777 250.379 705.107 227.057L733.818 143.741Z" fill="url(#paint18_linear_39_5111)"/>
<path d="M700.27 419.492C700.27 419.492 691.656 417.912 684.495 425.026C684.495 425.026 686.298 428.961 690.872 427.054L681.052 437.086C681.052 437.086 686.725 454.037 696.722 445.809C703.111 440.52 710.388 428.041 710.388 428.041L700.27 419.492Z" fill="url(#paint19_linear_39_5111)"/>
<path d="M785.584 189.099C785.584 189.099 749.54 238.235 728.667 249.321C728.667 249.321 720.461 234.84 704.176 228.174C704.176 228.174 716.273 170.061 734.195 142.377C734.195 142.377 767.716 146.625 785.584 189.099Z" fill="url(#paint20_radial_39_5111)"/>
<defs>
<radialGradient id="paint0_radial_39_5111" cx="0" cy="0" r="1" gradientUnits="userSpaceOnUse" gradientTransform="translate(555.926 921.105) rotate(140.622) scale(159.906 124.619)">
<stop stop-color="#FFFFAB"/>
<stop offset="0.5498" stop-color="#CD00FF"/>
<stop offset="1" stop-color="#5739D8"/>
</radialGradient>
<radialGradient id="paint1_radial_39_5111" cx="0" cy="0" r="1" gradientUnits="userSpaceOnUse" gradientTransform="translate(798.886 976.876) rotate(40.8213) scale(41.3263 56.8288)">
<stop stop-color="#FFFFAB"/>
<stop offset="0.5498" stop-color="#CD00FF"/>
<stop offset="1" stop-color="#5739D8"/>
</radialGradient>
<radialGradient id="paint2_radial_39_5111" cx="0" cy="0" r="1" gradientUnits="userSpaceOnUse" gradientTransform="translate(638.076 757.692) rotate(107.642) scale(155.481 118.124)">
<stop stop-color="#FFFFAB"/>
<stop offset="0.5498" stop-color="#CD00FF"/>
<stop offset="1" stop-color="#5739D8"/>
</radialGradient>
<radialGradient id="paint3_radial_39_5111" cx="0" cy="0" r="1" gradientUnits="userSpaceOnUse" gradientTransform="translate(180.583 847.281) rotate(40.3703) scale(520.313 713.446)">
<stop stop-color="#FFFFAB"/>
<stop offset="0.5498" stop-color="#CD00FF"/>
<stop offset="1" stop-color="#5739D8"/>
</radialGradient>
<linearGradient id="paint4_linear_39_5111" x1="371.445" y1="146.081" x2="580.129" y2="311.781" gradientUnits="userSpaceOnUse">
<stop stop-color="#FFFAC0"/>
<stop offset="0.5439" stop-color="#FFC880"/>
<stop offset="1" stop-color="#EF6262"/>
</linearGradient>
<radialGradient id="paint5_radial_39_5111" cx="0" cy="0" r="1" gradientUnits="userSpaceOnUse" gradientTransform="translate(528.906 93.0175) rotate(162.064) scale(367.361 358.342)">
<stop offset="0.00263467" stop-color="#FFF6A6"/>
<stop offset="0.5071" stop-color="#219DDB"/>
<stop offset="1" stop-color="#10488C"/>
</radialGradient>
<linearGradient id="paint6_linear_39_5111" x1="550.378" y1="244.86" x2="665.013" y2="81.5945" gradientUnits="userSpaceOnUse">
<stop stop-color="#FFFAC0"/>
<stop offset="0.5439" stop-color="#FFC880"/>
<stop offset="1" stop-color="#EF6262"/>
</linearGradient>
<linearGradient id="paint7_linear_39_5111" x1="601.953" y1="63.1565" x2="643.458" y2="88.7178" gradientUnits="userSpaceOnUse">
<stop stop-color="#FFFAC0"/>
<stop offset="0.5439" stop-color="#FFC880"/>
<stop offset="1" stop-color="#EF6262"/>
</linearGradient>
<radialGradient id="paint8_radial_39_5111" cx="0" cy="0" r="1" gradientUnits="userSpaceOnUse" gradientTransform="translate(569.993 -40.209) rotate(40.3694) scale(169.776 232.84)">
<stop stop-color="#FFFFAB"/>
<stop offset="0.5498" stop-color="#CD00FF"/>
<stop offset="1" stop-color="#5739D8"/>
</radialGradient>
<linearGradient id="paint9_linear_39_5111" x1="692.345" y1="34.8553" x2="618.613" y2="73.2073" gradientUnits="userSpaceOnUse">
<stop stop-color="#FFFAC0"/>
<stop offset="0.5439" stop-color="#FFC880"/>
<stop offset="1" stop-color="#EF6262"/>
</linearGradient>
<linearGradient id="paint10_linear_39_5111" x1="290.8" y1="293.645" x2="344.453" y2="317.449" gradientUnits="userSpaceOnUse">
<stop stop-color="#FFFAC0"/>
<stop offset="0.5439" stop-color="#FFC880"/>
<stop offset="1" stop-color="#EF6262"/>
</linearGradient>
<linearGradient id="paint11_linear_39_5111" x1="432.464" y1="338.483" x2="315.837" y2="277.294" gradientUnits="userSpaceOnUse">
<stop stop-color="#FFFAC0"/>
<stop offset="0.5439" stop-color="#FFC880"/>
<stop offset="1" stop-color="#EF6262"/>
</linearGradient>
<radialGradient id="paint12_radial_39_5111" cx="0" cy="0" r="1" gradientUnits="userSpaceOnUse" gradientTransform="translate(531.05 95.8871) rotate(40.6264) scale(258.666 355.235)">
<stop offset="0.00263467" stop-color="#FFF6A6"/>
<stop offset="0.5071" stop-color="#219DDB"/>
<stop offset="1" stop-color="#10488C"/>
</radialGradient>
<linearGradient id="paint13_linear_39_5111" x1="1236.68" y1="365.295" x2="-234.075" y2="-32.9507" gradientUnits="userSpaceOnUse">
<stop stop-color="#FFE75C"/>
<stop offset="1" stop-color="#FF2A00"/>
</linearGradient>
<linearGradient id="paint14_linear_39_5111" x1="936.568" y1="414.509" x2="468.911" y2="296.994" gradientUnits="userSpaceOnUse">
<stop stop-color="#FFE75C"/>
<stop offset="1" stop-color="#FF2A00"/>
</linearGradient>
<linearGradient id="paint15_linear_39_5111" x1="858.397" y1="349.745" x2="-149.194" y2="148.422" gradientUnits="userSpaceOnUse">
<stop stop-color="#FFE75C"/>
<stop offset="1" stop-color="#FF2A00"/>
</linearGradient>
<linearGradient id="paint16_linear_39_5111" x1="857.88" y1="360.881" x2="-149.909" y2="159.58" gradientUnits="userSpaceOnUse">
<stop stop-color="#FFE75C"/>
<stop offset="1" stop-color="#FF2A00"/>
</linearGradient>
<linearGradient id="paint17_linear_39_5111" x1="858.748" y1="355.112" x2="-139.601" y2="152.949" gradientUnits="userSpaceOnUse">
<stop stop-color="#FFE75C"/>
<stop offset="1" stop-color="#FF2A00"/>
</linearGradient>
<linearGradient id="paint18_linear_39_5111" x1="806.502" y1="541.054" x2="604.543" y2="228.433" gradientUnits="userSpaceOnUse">
<stop stop-color="#FFFAC0"/>
<stop offset="0.5439" stop-color="#FFC880"/>
<stop offset="1" stop-color="#EF6262"/>
</linearGradient>
<linearGradient id="paint19_linear_39_5111" x1="694.209" y1="469.68" x2="670.753" y2="392.471" gradientUnits="userSpaceOnUse">
<stop stop-color="#FFFAC0"/>
<stop offset="0.5439" stop-color="#FFC880"/>
<stop offset="1" stop-color="#EF6262"/>
</linearGradient>
<radialGradient id="paint20_radial_39_5111" cx="0" cy="0" r="1" gradientUnits="userSpaceOnUse" gradientTransform="translate(853.687 133.815) rotate(40.6482) scale(169.559 237.182)">
<stop offset="0.00263467" stop-color="#FFF6A6"/>
<stop offset="0.5071" stop-color="#219DDB"/>
<stop offset="1" stop-color="#10488C"/>
</radialGradient>
</defs>
</svg>
