<svg width="40" height="40" viewBox="0 0 40 40" fill="none" xmlns="http://www.w3.org/2000/svg">
<circle opacity="0.3" cx="20" cy="20" r="20" fill="white"/>
<circle cx="20" cy="20" r="18" fill="white"/>
<path fill-rule="evenodd" clip-rule="evenodd" d="M25.4542 25.2734H23.0816V21.286C23.0816 20.3355 23.0656 19.1129 21.8478 19.1129C20.6139 19.1129 20.4255 20.1494 20.4255 21.2183V25.2734H18.0547V17.0754H20.3286V18.1958H20.3615C20.6788 17.5516 21.4522 16.8721 22.6069 16.8721C25.0106 16.8721 25.4542 18.5689 25.4542 20.7774V25.2734Z" fill="#003366"/>
<path fill-rule="evenodd" clip-rule="evenodd" d="M15.3779 15.9557C14.6151 15.9557 14 15.2934 14 14.4774C14 13.6623 14.6151 13 15.3779 13C16.1361 13 16.753 13.6623 16.753 14.4774C16.753 15.2934 16.1361 15.9557 15.3779 15.9557Z" fill="#003366"/>
<path fill-rule="evenodd" clip-rule="evenodd" d="M14.1914 25.2733H16.5675V17.0752H14.1914V25.2733Z" fill="#003366"/>
</svg>
