<svg width="311" height="235" viewBox="0 0 311 235" fill="none" xmlns="http://www.w3.org/2000/svg">
<path d="M142.438 228.593L13.552 152.203C9.44677 149.865 5.93247 146.1 9.92882 143.629L139.281 68.8986C141.225 67.6904 144.172 66.9031 146.139 68.049L281.424 146.778C285.529 149.163 286.26 155.843 282.155 158.229L159.426 228.469C156.851 229.971 153.929 230.773 150.949 230.795C147.969 230.817 145.035 230.058 142.438 228.593Z" fill="#A3DCFF"/>
<path style="mix-blend-mode:multiply" opacity="0.46" d="M21.397 155.134L47.4743 138.679L107.412 159.07L73.6683 184.014C73.6683 184.014 28.0368 158.93 21.397 155.134Z" fill="url(#paint0_linear_25_28893)"/>
<path style="mix-blend-mode:multiply" opacity="0.46" d="M103.19 205.723L129.267 189.268L159.24 205.107L129.617 222.178C129.617 222.178 109.83 209.527 103.19 205.723Z" fill="url(#paint1_linear_25_28893)"/>
<path style="mix-blend-mode:multiply" opacity="0.46" d="M120.241 147.752L173.624 113.377L214.831 153.84L174.3 177.225C174.3 177.225 133.132 155.126 120.241 147.752Z" fill="url(#paint2_linear_25_28893)"/>
<path d="M37.7324 86.3203L101.075 94.5128C102.745 94.7298 104.284 95.5306 105.422 96.7741C106.56 98.0176 107.223 99.624 107.295 101.31L109.628 154.206C109.665 155.052 109.52 155.896 109.205 156.681C108.889 157.467 108.41 158.175 107.799 158.759C107.187 159.343 106.458 159.79 105.661 160.068C104.863 160.346 104.015 160.45 103.175 160.372L73.0853 157.776L37.7324 86.3203Z" fill="#1D5872"/>
<path d="M107.785 111.942L43.2446 103.999V125.412L108.726 133.908L107.785 111.942Z" fill="#6794A7"/>
<path d="M62.1458 113.79C58.0095 113.415 54.7984 112.792 50.6621 112.449L73.0852 157.776L103.174 160.372C104.013 160.445 104.857 160.338 105.651 160.057C106.445 159.777 107.17 159.33 107.778 158.747C108.385 158.163 108.862 157.456 109.176 156.673C109.489 155.89 109.633 155.049 109.597 154.206L108.073 118.958C92.6005 117.445 77.6491 115.162 62.1458 113.79Z" fill="#0F3342"/>
<path d="M41.604 88.2379L97.1875 106.252L97.9183 162.711L55.7156 145.079" fill="#85B23B"/>
<path d="M44.2555 92.0106C45.6706 91.6911 93.4168 108.855 93.4168 108.855L94.0466 156.864L85.2842 153.107L90.0425 159.421L97.9186 162.711L97.1877 106.252L40.0337 87.7156" fill="#B8E06C"/>
<path d="M37.4835 147.246L85.1676 176.087C85.6551 176.383 86.2123 176.544 86.7822 176.552C87.352 176.561 87.9139 176.418 88.4102 176.137C88.9065 175.856 89.3192 175.448 89.6061 174.954C89.893 174.46 90.0436 173.899 90.0425 173.327V121.132C90.0431 119.976 89.7448 118.838 89.1766 117.832C88.6084 116.825 87.7897 115.983 86.8004 115.388L39.1396 86.749C38.6518 86.4546 38.0946 86.2955 37.5253 86.2881C36.9559 86.2807 36.3948 86.4252 35.8995 86.7068C35.4042 86.9884 34.9925 87.397 34.7066 87.8907C34.4207 88.3843 34.2709 88.9454 34.2725 89.5162V141.532C34.2717 142.681 34.5669 143.81 35.1295 144.811C35.6921 145.812 36.5029 146.651 37.4835 147.246Z" fill="#6794A7"/>
<path d="M32.1108 89.485L35.5241 86.9595L36.1927 89.5162L32.1108 89.485Z" fill="#6794A7"/>
<path d="M85.2764 178.449L88.6352 175.962L86.3571 174.824L85.2764 178.449Z" fill="#F99A10"/>
<path d="M34.1014 149.748L81.7854 178.589C82.2729 178.885 82.8301 179.046 83.4 179.054C83.9698 179.063 84.5317 178.92 85.028 178.639C85.5243 178.358 85.937 177.95 86.2239 177.456C86.5108 176.962 86.6614 176.401 86.6604 175.83V123.635C86.661 122.478 86.3626 121.341 85.7944 120.334C85.2262 119.327 84.4076 118.485 83.4182 117.89L35.7652 89.2512C35.2774 88.9568 34.7202 88.7977 34.1509 88.7903C33.5815 88.7829 33.0204 88.9274 32.5251 89.209C32.0298 89.4906 31.6181 89.8992 31.3322 90.3929C31.0463 90.8865 30.8965 91.4476 30.8981 92.0184V144.003C30.8912 145.156 31.1826 146.292 31.7441 147.299C32.3055 148.306 33.1177 149.149 34.1014 149.748Z" fill="#1D5872"/>
<path d="M35.9284 147.433L78.6909 173.351C79.1287 173.616 79.6291 173.76 80.1407 173.768C80.6523 173.775 81.1568 173.646 81.6023 173.394C82.0478 173.142 82.4184 172.775 82.676 172.332C82.9336 171.889 83.0689 171.385 83.0682 170.872V123.946C83.0686 122.906 82.8003 121.883 82.2894 120.977C81.7784 120.072 81.0423 119.314 80.1526 118.778L37.3901 93.0551C36.9518 92.7912 36.4516 92.6489 35.9404 92.6426C35.4293 92.6363 34.9257 92.7663 34.4811 93.0193C34.0366 93.2723 33.6671 93.6392 33.4104 94.0824C33.1538 94.5256 33.0192 95.0292 33.0205 95.5417V142.311C33.025 143.344 33.295 144.357 33.8044 145.254C34.3138 146.151 35.0453 146.902 35.9284 147.433V147.433Z" stroke="#F2F2F2" stroke-width="1.015" stroke-miterlimit="10" stroke-linecap="round" stroke-dasharray="3.02 3.02"/>
<path d="M144.529 209.153C155.694 209.153 164.744 203.838 164.744 197.281C164.744 190.725 155.694 185.409 144.529 185.409C133.365 185.409 124.314 190.725 124.314 197.281C124.314 203.838 133.365 209.153 144.529 209.153Z" fill="#FF912E"/>
<path d="M124.314 197.281V193.851L126.515 196.587L124.314 197.281Z" fill="#E0944F"/>
<path d="M164.737 193.851V197.281H162.179L164.052 194.53L164.737 193.851Z" fill="#E0944F"/>
<path d="M144.529 205.723C155.694 205.723 164.744 200.408 164.744 193.851C164.744 187.295 155.694 181.98 144.529 181.98C133.365 181.98 124.314 187.295 124.314 193.851C124.314 200.408 133.365 205.723 144.529 205.723Z" fill="#FFB92C"/>
<path d="M154.777 192.261C154.919 192.537 154.976 192.849 154.94 193.158L154.863 193.469H151.177C151.21 193.368 151.234 193.264 151.247 193.158C151.234 192.919 151.159 192.688 151.03 192.487C150.822 192.129 150.51 191.844 150.135 191.669C149.599 191.39 149.006 191.235 148.402 191.217C147.84 191.177 147.276 191.265 146.753 191.474C146.235 191.697 146.035 191.988 146.155 192.347C146.325 192.787 146.591 193.183 146.932 193.508C147.331 193.914 147.705 194.344 148.052 194.795C148.217 194.989 148.323 195.226 148.359 195.478C148.395 195.731 148.358 195.988 148.254 196.221C147.849 196.895 147.209 197.395 146.458 197.624C145.222 198.126 143.904 198.391 142.57 198.404C141.121 198.451 139.674 198.245 138.294 197.796L136.172 198.708L133.684 197.492L135.744 196.603C135.374 196.355 135.042 196.056 134.757 195.714C134.544 195.471 134.378 195.191 134.267 194.888C134.197 194.671 134.155 194.446 134.142 194.218C134.117 194.063 134.117 193.905 134.142 193.75L134.212 193.571H137.905C137.869 193.694 137.84 193.819 137.82 193.945C137.834 194.248 137.937 194.541 138.115 194.787C138.41 195.248 138.835 195.612 139.336 195.831C140.003 196.17 140.735 196.361 141.482 196.393C142.156 196.437 142.831 196.328 143.457 196.073C143.975 195.855 144.167 195.566 144.032 195.208C143.862 194.768 143.596 194.371 143.255 194.046C142.848 193.645 142.472 193.216 142.127 192.76C141.966 192.562 141.865 192.321 141.838 192.066C141.81 191.812 141.857 191.554 141.972 191.326C142.423 190.681 143.082 190.21 143.838 189.993C145.031 189.51 146.306 189.258 147.593 189.252C148.955 189.206 150.313 189.417 151.597 189.876L153.712 188.964L156.044 190.227L153.922 191.139C154.291 191.44 154.584 191.825 154.777 192.261Z" fill="#EA8B24"/>
<path d="M144.561 203.954C153.93 203.954 161.526 199.494 161.526 193.992C161.526 188.49 153.93 184.03 144.561 184.03C135.191 184.03 127.596 188.49 127.596 193.992C127.596 199.494 135.191 203.954 144.561 203.954Z" stroke="#F7931E" stroke-width="6.09" stroke-miterlimit="10"/>
<path d="M144.529 200.594C155.694 200.594 164.744 195.279 164.744 188.722C164.744 182.166 155.694 176.851 144.529 176.851C133.365 176.851 124.314 182.166 124.314 188.722C124.314 195.279 133.365 200.594 144.529 200.594Z" fill="#FF912E"/>
<path d="M124.314 188.722V185.293L126.515 188.036L124.314 188.722Z" fill="#E0944F"/>
<path d="M164.737 185.293V188.722H162.179L164.052 185.971L164.737 185.293Z" fill="#E0944F"/>
<path d="M144.529 197.164C155.694 197.164 164.744 191.849 164.744 185.293C164.744 178.736 155.694 173.421 144.529 173.421C133.365 173.421 124.314 178.736 124.314 185.293C124.314 191.849 133.365 197.164 144.529 197.164Z" fill="#FFB92C"/>
<path d="M154.777 183.702C154.919 183.978 154.976 184.29 154.94 184.599L154.863 184.911H151.177C151.21 184.809 151.234 184.705 151.247 184.599C151.234 184.36 151.159 184.129 151.03 183.928C150.822 183.57 150.51 183.285 150.135 183.11C149.599 182.831 149.006 182.676 148.402 182.658C147.84 182.618 147.276 182.706 146.753 182.915C146.235 183.139 146.035 183.43 146.155 183.788C146.325 184.228 146.591 184.625 146.932 184.95C147.331 185.355 147.705 185.785 148.052 186.236C148.217 186.43 148.323 186.667 148.359 186.92C148.395 187.172 148.358 187.43 148.254 187.662C147.849 188.336 147.209 188.836 146.458 189.065C145.222 189.568 143.904 189.832 142.57 189.845C141.121 189.892 139.674 189.687 138.294 189.237L136.172 190.149L133.684 188.933L135.744 188.044C135.374 187.797 135.042 187.497 134.757 187.156C134.544 186.913 134.378 186.633 134.267 186.329C134.197 186.112 134.155 185.887 134.142 185.659C134.117 185.504 134.117 185.346 134.142 185.191L134.212 185.012H137.905C137.869 185.135 137.84 185.26 137.82 185.386C137.834 185.69 137.937 185.982 138.115 186.228C138.41 186.689 138.835 187.053 139.336 187.273C140.003 187.611 140.735 187.802 141.482 187.834C142.156 187.878 142.831 187.769 143.457 187.514C143.975 187.296 144.167 187.007 144.032 186.649C143.862 186.209 143.596 185.812 143.255 185.487C142.848 185.087 142.472 184.657 142.127 184.201C141.966 184.003 141.865 183.762 141.838 183.507C141.81 183.253 141.857 182.996 141.972 182.767C142.421 182.116 143.08 181.64 143.838 181.419C145.031 180.935 146.306 180.684 147.593 180.678C148.955 180.631 150.313 180.843 151.597 181.302L153.712 180.39L156.044 181.652L153.922 182.564C154.293 182.87 154.586 183.26 154.777 183.702Z" fill="#EA8B24"/>
<path d="M144.561 195.395C153.93 195.395 161.526 190.935 161.526 185.433C161.526 179.931 153.93 175.471 144.561 175.471C135.191 175.471 127.596 179.931 127.596 185.433C127.596 190.935 135.191 195.395 144.561 195.395Z" stroke="#F7931E" stroke-width="2.03" stroke-miterlimit="10"/>
<path d="M144.491 195.566C155.655 195.566 164.706 190.251 164.706 183.695C164.706 177.138 155.655 171.823 144.491 171.823C133.326 171.823 124.276 177.138 124.276 183.695C124.276 190.251 133.326 195.566 144.491 195.566Z" fill="#FF912E"/>
<path d="M124.276 183.695V180.265L126.476 183.001L124.276 183.695Z" fill="#E0944F"/>
<path d="M164.706 180.265V183.695H162.14L164.022 180.943L164.706 180.265Z" fill="#E0944F"/>
<path d="M144.491 192.136C155.655 192.136 164.706 186.821 164.706 180.265C164.706 173.708 155.655 168.393 144.491 168.393C133.326 168.393 124.276 173.708 124.276 180.265C124.276 186.821 133.326 192.136 144.491 192.136Z" fill="#FFB92C"/>
<path d="M154.722 178.675C154.865 178.951 154.922 179.263 154.886 179.571L154.808 179.883H151.123C151.156 179.781 151.179 179.677 151.193 179.571C151.179 179.333 151.104 179.102 150.975 178.901C150.767 178.543 150.455 178.257 150.081 178.082C149.544 177.803 148.951 177.649 148.347 177.63C147.785 177.59 147.222 177.678 146.699 177.887C146.18 178.111 145.981 178.402 146.1 178.76C146.271 179.2 146.536 179.597 146.878 179.922C147.276 180.328 147.65 180.757 147.997 181.208C148.162 181.402 148.268 181.639 148.304 181.892C148.34 182.144 148.304 182.402 148.199 182.635C147.794 183.308 147.154 183.808 146.403 184.038C145.168 184.54 143.849 184.804 142.516 184.817C141.066 184.865 139.619 184.659 138.239 184.209L136.117 185.121L133.629 183.905L135.689 183.016C135.32 182.769 134.987 182.47 134.702 182.128C134.489 181.885 134.323 181.605 134.212 181.302C134.143 181.084 134.101 180.859 134.088 180.631C134.062 180.476 134.062 180.318 134.088 180.164L134.158 179.984H137.851C137.814 180.107 137.786 180.232 137.765 180.358C137.78 180.662 137.882 180.954 138.061 181.2C138.356 181.662 138.78 182.025 139.281 182.245C139.949 182.583 140.68 182.775 141.427 182.806C142.101 182.851 142.776 182.741 143.402 182.486C143.92 182.268 144.112 181.98 143.977 181.621C143.807 181.181 143.541 180.785 143.2 180.46C142.794 180.059 142.417 179.629 142.073 179.174C141.911 178.975 141.811 178.734 141.783 178.479C141.755 178.225 141.802 177.968 141.917 177.739C142.357 177.056 143.023 176.551 143.799 176.313C144.992 175.83 146.267 175.578 147.554 175.572C148.916 175.526 150.274 175.737 151.558 176.196L153.673 175.284L156.005 176.547L153.867 177.521C154.24 177.831 154.534 178.227 154.722 178.675Z" fill="#EA8B24"/>
<path d="M144.53 190.367C153.899 190.367 161.495 185.907 161.495 180.405C161.495 174.903 153.899 170.443 144.53 170.443C135.16 170.443 127.564 174.903 127.564 180.405C127.564 185.907 135.16 190.367 144.53 190.367Z" stroke="#F7931E" stroke-width="6.09" stroke-miterlimit="10"/>
<path d="M144.491 186.236C155.655 186.236 164.706 180.921 164.706 174.364C164.706 167.807 155.655 162.492 144.491 162.492C133.326 162.492 124.276 167.807 124.276 174.364C124.276 180.921 133.326 186.236 144.491 186.236Z" fill="#FF912E"/>
<path d="M124.276 174.372V170.942L126.476 173.678L124.276 174.372Z" fill="#E0944F"/>
<path d="M164.706 170.942V174.372H162.14L164.022 171.612L164.706 170.942Z" fill="#E0944F"/>
<path d="M144.491 182.814C155.655 182.814 164.706 177.499 164.706 170.942C164.706 164.386 155.655 159.07 144.491 159.07C133.326 159.07 124.276 164.386 124.276 170.942C124.276 177.499 133.326 182.814 144.491 182.814Z" fill="#FFB92C"/>
<path d="M154.722 169.352C154.865 169.628 154.922 169.94 154.886 170.248L154.808 170.56H151.123C151.156 170.459 151.179 170.354 151.193 170.248C151.179 170.01 151.104 169.779 150.975 169.578C150.767 169.22 150.455 168.934 150.081 168.759C149.544 168.48 148.951 168.326 148.347 168.307C147.785 168.268 147.222 168.356 146.699 168.565C146.18 168.788 145.981 169.079 146.1 169.438C146.271 169.877 146.536 170.274 146.878 170.599C147.276 171.005 147.65 171.434 147.997 171.885C148.162 172.08 148.268 172.317 148.304 172.569C148.34 172.822 148.304 173.079 148.199 173.312C147.794 173.986 147.154 174.485 146.403 174.715C145.168 175.217 143.849 175.482 142.516 175.494C141.066 175.542 139.619 175.336 138.239 174.886L136.117 175.798L133.629 174.582L135.689 173.694C135.32 173.446 134.987 173.147 134.702 172.805C134.489 172.562 134.323 172.282 134.212 171.979C134.143 171.761 134.101 171.536 134.088 171.308C134.062 171.154 134.062 170.996 134.088 170.841L134.158 170.661H137.851C137.814 170.784 137.786 170.909 137.765 171.036C137.78 171.339 137.882 171.632 138.061 171.877C138.356 172.339 138.78 172.702 139.281 172.922C139.949 173.26 140.68 173.452 141.427 173.483C142.101 173.528 142.776 173.419 143.402 173.164C143.92 172.945 144.112 172.657 143.977 172.298C143.807 171.858 143.541 171.462 143.2 171.137C142.794 170.736 142.417 170.306 142.073 169.851C141.911 169.652 141.811 169.411 141.783 169.157C141.755 168.902 141.802 168.645 141.917 168.417C142.357 167.733 143.023 167.228 143.799 166.99C144.992 166.507 146.267 166.255 147.554 166.25C148.916 166.203 150.274 166.415 151.558 166.873L153.673 165.961L156.005 167.224L153.867 168.167C154.244 168.486 154.538 168.893 154.722 169.352Z" fill="#EA8B24"/>
<path d="M144.53 181.044C153.899 181.044 161.495 176.584 161.495 171.082C161.495 165.581 153.899 161.12 144.53 161.12C135.16 161.12 127.564 165.581 127.564 171.082C127.564 176.584 135.16 181.044 144.53 181.044Z" stroke="#F7931E" stroke-width="2.03" stroke-miterlimit="10"/>
<path d="M136.591 176.079C147.756 176.079 156.806 170.764 156.806 164.207C156.806 157.651 147.756 152.336 136.591 152.336C125.427 152.336 116.376 157.651 116.376 164.207C116.376 170.764 125.427 176.079 136.591 176.079Z" fill="#FF912E"/>
<path d="M116.376 164.207V160.785L118.577 163.521L116.376 164.207Z" fill="#E0944F"/>
<path d="M156.806 160.785V164.207H154.241L156.114 161.456L156.806 160.785Z" fill="#E0944F"/>
<path d="M136.591 172.649C147.756 172.649 156.806 167.334 156.806 160.778C156.806 154.221 147.756 148.906 136.591 148.906C125.427 148.906 116.376 154.221 116.376 160.778C116.376 167.334 125.427 172.649 136.591 172.649Z" fill="#FFB92C"/>
<path d="M146.839 159.195C146.981 159.471 147.038 159.783 147.002 160.092L146.924 160.403H143.239C143.272 160.302 143.295 160.197 143.309 160.092C143.295 159.853 143.22 159.622 143.091 159.421C142.884 159.063 142.571 158.778 142.197 158.603C141.66 158.324 141.068 158.169 140.463 158.151C139.901 158.111 139.338 158.199 138.815 158.408C138.297 158.631 138.097 158.922 138.216 159.281C138.387 159.721 138.652 160.117 138.994 160.442C139.393 160.848 139.766 161.277 140.113 161.728C140.278 161.923 140.385 162.16 140.42 162.412C140.456 162.665 140.42 162.922 140.315 163.155C139.91 163.829 139.27 164.329 138.519 164.558C137.284 165.06 135.965 165.325 134.632 165.338C133.182 165.385 131.735 165.179 130.356 164.73L128.233 165.642L125.745 164.426L127.806 163.537C127.436 163.289 127.103 162.99 126.818 162.648C126.606 162.405 126.44 162.125 126.328 161.822C126.259 161.605 126.217 161.379 126.204 161.152C126.179 160.997 126.179 160.839 126.204 160.684L126.274 160.505H129.967C129.93 160.627 129.902 160.752 129.881 160.879C129.896 161.182 129.999 161.475 130.177 161.721C130.472 162.182 130.897 162.546 131.398 162.765C132.065 163.104 132.796 163.295 133.543 163.326C134.217 163.371 134.893 163.262 135.518 163.007C136.037 162.789 136.228 162.5 136.094 162.142C135.923 161.702 135.658 161.305 135.316 160.98C134.91 160.579 134.533 160.149 134.189 159.694C134.027 159.496 133.927 159.254 133.899 159C133.872 158.745 133.918 158.488 134.033 158.26C134.473 157.577 135.139 157.071 135.915 156.833C137.108 156.35 138.383 156.099 139.67 156.093C141.032 156.046 142.391 156.258 143.674 156.716L145.789 155.804L148.122 157.067L145.96 158.034C146.343 158.343 146.644 158.742 146.839 159.195Z" fill="#EA8B24"/>
<path d="M136.622 170.888C145.992 170.888 153.587 166.427 153.587 160.926C153.587 155.424 145.992 150.964 136.622 150.964C127.253 150.964 119.657 155.424 119.657 160.926C119.657 166.427 127.253 170.888 136.622 170.888Z" stroke="#F7931E" stroke-width="2.03" stroke-miterlimit="10"/>
<path d="M165.102 4.47345C175.917 11.2628 203.122 27.0788 212.398 32.7457C214.497 34.0396 214.816 35.965 214.855 38.436V153.856C214.283 154.523 213.492 154.963 212.625 155.096C211.758 155.229 210.872 155.046 210.127 154.581L164.48 128.717C162.21 127.376 160.422 125.996 160.422 123.354L160.818 6.56249C160.803 4.01354 162.964 3.10933 165.102 4.47345Z" fill="#F1CA50"/>
<path d="M160.888 5.72067L175.731 14.2951V17.5066C175.734 17.7773 175.807 18.0426 175.943 18.2764C176.079 18.5101 176.274 18.7042 176.508 18.8395L187.984 25.5198C188.139 25.619 188.317 25.6741 188.501 25.6791C188.684 25.6841 188.866 25.639 189.026 25.5484C189.186 25.4578 189.318 25.3253 189.408 25.1651C189.499 25.0049 189.544 24.823 189.539 24.639V22.3005L211.099 34.9751C211.305 35.0962 211.476 35.2693 211.595 35.4771C211.713 35.685 211.776 35.9204 211.775 36.1599V151.564C211.77 151.725 211.723 151.883 211.639 152.021C211.555 152.159 211.437 152.273 211.296 152.351C211.155 152.43 210.996 152.47 210.835 152.469C210.674 152.468 210.516 152.424 210.376 152.343L160.406 123.346C160.322 124.242 160.482 125.144 160.87 125.955C161.258 126.766 161.858 127.457 162.606 127.953C165.195 129.606 210.687 155.415 210.687 155.415C210.687 155.415 214.287 157.044 215.352 152.741V36.5964C215.354 35.8456 215.178 35.105 214.838 34.4356C214.499 33.7663 214.006 33.1871 213.4 32.7457C211.317 31.2257 164.915 4.18507 164.915 4.18507C164.915 4.18507 161.634 2.68844 160.888 5.72067Z" fill="#124577"/>
<path d="M168.896 85.112V84.925C168.896 84.4687 169.015 84.0204 169.243 83.6253C169.47 83.2303 169.798 82.9026 170.193 82.6755C170.587 82.4484 171.035 82.3299 171.49 82.3321C171.945 82.3342 172.391 82.457 172.784 82.6878L196.98 96.8434C197.37 97.0712 197.694 97.3977 197.919 97.7902C198.144 98.1828 198.263 98.6277 198.263 99.0806C198.265 99.5375 198.147 99.9868 197.919 100.383C197.692 100.779 197.365 101.108 196.97 101.336C196.575 101.564 196.127 101.683 195.671 101.681C195.215 101.679 194.768 101.557 194.375 101.326L170.179 87.3492C169.789 87.1214 169.465 86.7949 169.24 86.4024C169.015 86.0098 168.896 85.5649 168.896 85.112Z" fill="#124577"/>
<path d="M182.791 84.2858C180.92 84.338 179.076 84.7343 177.348 85.4551C174.611 86.6321 182.682 89.0173 182.682 89.0173" fill="#F2AE16"/>
<path d="M183.49 94.996C185.823 96.3134 188.07 97.8568 190.387 99.2287C191.205 98.0144 191.732 96.6272 191.928 95.1751C192.123 93.723 191.982 92.2452 191.514 90.8569C189.959 85.9929 185.076 83.2179 180.629 84.621C179.338 85.061 178.176 85.8166 177.249 86.8196C176.322 87.8226 175.658 89.0414 175.319 90.3658C178.087 91.9092 180.785 93.4682 183.49 94.996Z" fill="#EA8B24"/>
<path d="M183.49 94.996C185.263 95.9938 186.974 97.1163 188.707 98.1997C189.629 96.0287 189.728 93.5952 188.987 91.3558C187.432 86.4918 182.55 83.7168 178.102 85.1199C177.074 85.4618 176.126 86.009 175.315 86.7284C174.504 87.4478 173.847 88.3246 173.383 89.3058C176.812 91.1765 180.147 93.1097 183.49 94.996Z" fill="#FFD008"/>
<path d="M183.77 94.7155C185.224 95.495 186.631 96.4382 188.054 97.3346C188.836 95.4478 188.913 93.3419 188.272 91.4026C186.896 87.1388 182.635 84.7068 178.755 85.9462C177.864 86.2421 177.041 86.7148 176.336 87.3362C175.63 87.9576 175.057 88.7149 174.65 89.563C177.705 91.2623 180.73 93.0084 183.77 94.7155Z" stroke="#F7931E" stroke-width="1.015" stroke-miterlimit="10"/>
<path d="M183.49 94.9961L183.949 95.2611C183.959 94.8031 183.82 94.3543 183.552 93.9828C183.284 93.6339 182.927 93.3645 182.518 93.2033C182.109 93.037 181.702 92.8915 181.297 92.7667C180.938 92.6605 180.593 92.5086 180.271 92.3146C180.146 92.2477 180.041 92.1477 179.969 92.0254C179.896 91.9031 179.858 91.7632 179.859 91.6209C179.858 91.4959 179.888 91.3726 179.945 91.2614C180.001 91.1501 180.084 91.0542 180.186 90.9817C180.426 90.7999 180.725 90.7113 181.025 90.7323C181.316 90.7394 181.601 90.8141 181.857 90.9505C182.047 91.0389 182.225 91.1516 182.386 91.2857L182.58 91.4962L183.684 90.3659L183.49 90.1554C183.294 89.9639 183.071 89.8011 182.829 89.6722C182.499 89.4835 182.143 89.3468 181.772 89.2668V88.0898H180.217V89.2512C179.588 89.3307 179.006 89.6253 178.568 90.0853C178.163 90.5032 177.935 91.0617 177.931 91.6443C177.926 91.7404 177.926 91.8366 177.931 91.9327L183.49 94.9961Z" fill="#EA8B24"/>
<path d="M195.712 53.6595C196.793 62.3508 192.82 69.9509 186.771 70.5745C180.722 71.1981 174.984 64.7049 173.896 56.0135C172.807 47.3222 176.811 39.7455 182.837 39.0907C188.863 38.436 194.624 44.9603 195.712 53.6595Z" fill="#124577"/>
<path d="M177.239 55.8031L179.012 53.0047L182.184 57.8609L189.236 46.9402L192.027 49.232L182.456 63.7851L177.239 55.8031Z" fill="white"/>
<path d="M65.6055 102.69C65.6445 102.166 65.7173 101.645 65.8232 101.131" stroke="#42210B" stroke-width="2.03" stroke-miterlimit="10" stroke-linecap="round"/>
<path d="M67.6973 94.5518C71.5848 84.013 82.4698 65.9132 111.471 56.7385C156.107 42.6687 176.687 73.3885 182.829 85.3849" stroke="#42210B" stroke-width="2.03" stroke-miterlimit="10" stroke-linecap="round" stroke-dasharray="3.96 8.9"/>
<path d="M184.268 88.4717C184.672 89.3915 184.858 89.9137 184.858 89.9137" stroke="#42210B" stroke-width="2.03" stroke-miterlimit="10" stroke-linecap="round"/>
<path d="M117.706 39.5507C114.486 39.7197 111.324 40.4778 108.376 41.7878C103.711 43.9314 117.706 47.7353 117.706 47.7353" fill="#F2AE16"/>
<path d="M124.566 70.4823C132.164 67.8251 135.97 58.9061 133.066 50.561C130.163 42.2159 121.65 37.6049 114.052 40.2621C106.454 42.9193 102.648 51.8383 105.552 60.1834C108.455 68.5285 116.968 73.1394 124.566 70.4823Z" fill="#EA8B24"/>
<path d="M120.213 71.4451C127.811 68.7879 131.617 59.8688 128.713 51.5238C125.81 43.1787 117.297 38.5677 109.699 41.2249C102.101 43.882 98.2952 52.8011 101.199 61.1462C104.102 69.4912 112.615 74.1022 120.213 71.4451Z" fill="#FFD008"/>
<path d="M119.563 69.5757C126.224 67.246 129.562 59.4295 127.018 52.1168C124.473 44.8042 117.011 40.7647 110.349 43.0943C103.688 45.424 100.35 53.2405 102.894 60.5532C105.439 67.8658 112.901 71.9053 119.563 69.5757Z" stroke="#F7931E" stroke-width="1.015" stroke-miterlimit="10"/>
<path d="M118.009 48.8032C118.432 49.0071 118.825 49.2695 119.175 49.5827L119.51 49.9413L117.636 51.9368C117.553 51.8433 117.439 51.7264 117.294 51.586C117.01 51.3624 116.699 51.1764 116.368 51.0326C115.919 50.8076 115.424 50.6902 114.922 50.6896C114.402 50.6675 113.892 50.8335 113.484 51.1573C113.314 51.2892 113.177 51.4582 113.083 51.6514C112.989 51.8446 112.94 52.0569 112.94 52.272C112.946 52.5215 113.023 52.7641 113.16 52.9722C113.298 53.1803 113.491 53.3455 113.717 53.449C114.28 53.7853 114.883 54.0473 115.513 54.2285C116.218 54.4312 116.926 54.6676 117.636 54.9379C118.35 55.2111 118.976 55.6746 119.447 56.2786C119.973 56.9569 120.248 57.7972 120.225 58.6561C120.25 59.7129 119.881 60.7413 119.191 61.5402C118.423 62.3761 117.395 62.9258 116.275 63.0992V65.1336H113.515V63.2005C112.984 63.1215 112.462 62.9856 111.96 62.7952C111.527 62.6396 111.11 62.4411 110.716 62.2027C110.414 62.0144 110.123 61.8088 109.845 61.5869C109.652 61.4371 109.47 61.273 109.301 61.0959L109.13 60.8854L110.98 59.038C111.074 59.1471 111.208 59.2874 111.385 59.4589C111.737 59.7425 112.127 59.9759 112.543 60.1527C113.128 60.442 113.772 60.5914 114.425 60.5892C115.058 60.6241 115.683 60.4336 116.19 60.0513C116.391 59.89 116.552 59.6845 116.661 59.4507C116.77 59.2168 116.825 58.961 116.819 58.7028C116.812 58.4524 116.736 58.2089 116.599 57.9997C116.461 57.7904 116.268 57.6236 116.042 57.518C115.497 57.1687 114.909 56.8935 114.292 56.6995C113.582 56.502 112.875 56.2682 112.17 55.998C111.459 55.7232 110.835 55.2598 110.366 54.6572C109.84 53.9789 109.565 53.1386 109.589 52.2798C109.58 51.2865 109.95 50.3274 110.623 49.5983C111.367 48.7971 112.363 48.2769 113.445 48.1251V46.1062H116.166V48.1251C116.812 48.2547 117.433 48.4834 118.009 48.8032Z" fill="#EA8B24"/>
<path style="mix-blend-mode:multiply" opacity="0.46" d="M223.562 150.582L197.298 164.207L230.14 184.794L254.81 173.008" fill="url(#paint3_linear_25_28893)"/>
<path d="M232.271 151.798C232.022 151.494 224.814 149.841 223.563 150.558C222.311 151.275 224.021 153.248 227.271 155.165C230.521 157.083 233.305 158.759 234.619 158.338C235.933 157.917 237.348 157.168 237.348 156.42V148.82" fill="#1D3F75"/>
<path d="M248.287 165.603C248.287 166.039 249.158 167.793 248.287 168.222C247.416 168.65 241.554 170.03 240.357 171.683C239.159 173.335 239.579 174.606 240.357 175.042C241.134 175.479 254.803 173.008 254.803 173.008L253.17 163.654" fill="#1D3F75"/>
<path d="M244.384 91.161C244.384 91.161 243.606 87.9027 238.941 86.4373C234.276 84.9718 234.89 95.3781 234.89 95.3781" fill="#1D3F75"/>
<path d="M235.466 107.265C234.976 107.476 223.158 116.253 224.169 129.699C224.783 137.814 230.677 151.455 230.677 151.455C230.677 151.455 240.193 157.527 246.351 155.984" fill="#F7931E"/>
<path d="M232.923 111.147C232.923 111.147 229.759 124.913 230.933 133.472C232.107 142.031 244.384 166.608 244.384 166.608C248.671 167.037 252.999 166.621 257.127 165.384C257.127 165.384 249.694 136.325 249.026 133.106C248.357 129.886 249.026 112.488 249.026 112.488" fill="#F7931E"/>
<path d="M237.402 87.3804C237.402 87.3804 219.659 79.6479 214.854 76.8417C214.854 76.8417 215.088 82.571 215.337 83.2959C215.585 84.0208 229.332 97.5918 235.769 98.6909" fill="#1D3F75"/>
<path d="M248.411 111.802C246.665 106.319 245.11 100.785 243.746 95.1987C243.599 94.6062 242.689 94.8557 242.829 95.4481C244.192 101.034 245.747 106.569 247.494 112.051C247.681 112.636 248.598 112.387 248.411 111.802Z" fill="#606060"/>
<path d="M219.333 93.094C217.509 92.1863 215.829 91.012 214.349 89.6097C214.442 87.9883 214.543 84.3091 212.685 84.6755C211.791 84.8548 211.908 85.8837 211.908 86.5931C211.908 87.2206 211.941 87.8477 212.009 88.4716C209.917 89.3135 206.566 88.1365 205.447 90.2489C205.391 90.346 205.361 90.4563 205.361 90.5685C205.361 90.6807 205.391 90.7909 205.447 90.8881C205.506 90.9724 205.577 91.0485 205.656 91.1141C205.326 91.272 205.036 91.504 204.809 91.7923C204.742 91.8617 204.692 91.9453 204.662 92.0367C204.632 92.1282 204.622 92.2253 204.634 92.3209C204.646 92.4165 204.679 92.5083 204.731 92.5894C204.783 92.6706 204.852 92.7391 204.933 92.79C205.055 92.8828 205.188 92.9588 205.33 93.0161C205.322 93.0756 205.322 93.1358 205.33 93.1954C205.33 93.9125 205.89 94.2321 206.761 94.3178C206.907 94.6892 207.181 94.9957 207.533 95.1816C207.886 95.3675 208.293 95.4206 208.681 95.3312C209.885 95.2154 211.077 94.9937 212.242 94.6686C213.504 95.1912 214.735 95.7872 215.927 96.4536C216.054 96.5161 216.198 96.5351 216.337 96.5075C216.476 96.48 216.602 96.4075 216.695 96.3012C216.789 96.1949 216.845 96.0607 216.855 95.9192C216.865 95.7778 216.829 95.6369 216.751 95.5182C216.891 95.4353 216.993 95.3007 217.035 95.1434C217.077 94.9861 217.056 94.8184 216.977 94.6764C217.072 94.5617 217.128 94.4189 217.135 94.2698C217.142 94.1207 217.1 93.9733 217.016 93.8501C217.121 93.8442 217.223 93.8119 217.313 93.756C217.403 93.7002 217.477 93.6227 217.529 93.5305C217.925 93.7644 218.306 93.9826 218.742 94.1931C219.418 94.5517 220.032 93.4604 219.333 93.094Z" fill="#FBB5AD"/>
<path d="M210.64 90.3503C208.987 90.7345 207.291 90.9073 205.594 90.8647C205.552 90.8647 205.512 90.8816 205.482 90.9115C205.452 90.9415 205.435 90.9822 205.435 91.0245C205.435 91.0669 205.452 91.1076 205.482 91.1375C205.512 91.1675 205.552 91.1843 205.594 91.1843C207.32 91.2254 209.045 91.0473 210.726 90.6543C210.928 90.6075 210.843 90.3035 210.64 90.3503Z" fill="#56403D"/>
<path d="M209.925 92.5562C208.453 92.9165 206.936 93.0531 205.424 92.9616C205.221 92.9616 205.221 93.2656 205.424 93.2812C206.962 93.3731 208.506 93.2339 210.003 92.868C210.174 92.7823 210.089 92.4783 209.925 92.5562Z" fill="#56403D"/>
<path d="M209.598 93.7956C208.684 94.0626 207.737 94.2042 206.784 94.2166C206.742 94.2166 206.701 94.2334 206.671 94.2634C206.641 94.2933 206.625 94.334 206.625 94.3764C206.625 94.4187 206.641 94.4594 206.671 94.4893C206.701 94.5193 206.742 94.5361 206.784 94.5361C207.765 94.525 208.741 94.3808 209.684 94.1074C209.725 94.0961 209.76 94.0687 209.781 94.0315C209.803 93.9942 209.808 93.95 209.797 93.9087C209.785 93.8673 209.758 93.8322 209.721 93.811C209.684 93.7898 209.64 93.7843 209.598 93.7956Z" fill="#56403D"/>
<path d="M231.695 103.329C231.54 104.787 232.138 108.154 232.908 111.124C235.521 112.683 238.771 113.26 241.764 113.345C244.209 113.445 246.655 113.155 249.01 112.488C248.637 105.278 245.9 88.9004 242.425 89.2356C238.055 89.6643 233.756 94.8402 233.756 94.8402C225.654 96.0328 215.096 88.2145 215.096 88.2145L212.864 95.0662C217.89 100.084 224.609 103.031 231.695 103.329Z" fill="#1D3F75"/>
<path d="M238.693 153.575C234.819 142.375 232.991 130.566 233.297 118.716C233.297 118.664 233.277 118.615 233.24 118.578C233.204 118.542 233.154 118.521 233.103 118.521C233.051 118.521 233.002 118.542 232.965 118.578C232.929 118.615 232.908 118.664 232.908 118.716C232.612 130.603 234.456 142.446 238.351 153.676C238.405 153.918 238.786 153.817 238.693 153.575Z" fill="white"/>
<path d="M235.233 94.6453C232.257 94.9842 229.243 94.6703 226.4 93.7255C226.159 93.6475 226.058 94.0217 226.299 94.1074C229.177 95.0653 232.228 95.3845 235.24 95.0428C235.481 95.0116 235.481 94.6219 235.233 94.6453Z" fill="#204472"/>
<path d="M231.695 103.329H233.919L232.908 111.124C232.908 111.124 231.827 105.433 231.695 103.329Z" fill="#204472"/>
<path d="M239.322 85.837C237.923 86.5775 236.212 85.3771 235.038 84.6288C233.639 83.7246 232.224 82.15 233.025 80.3727C233.141 80.1077 232.721 79.9518 232.597 80.2168C231.765 82.0642 233.071 83.8415 234.556 84.8938C235.878 85.7902 237.884 87.1543 239.509 86.2891C239.773 86.1098 239.587 85.6967 239.322 85.837Z" fill="#009245"/>
<path d="M232.612 78.9151C232.612 78.9151 229.215 88.2144 232.402 90.0696C235.901 92.1041 239.555 88.6198 239.555 88.6198C239.555 88.6198 243.031 80.5832 239.555 78.4864C236.08 76.3895 233.157 77.7459 232.612 78.9151Z" fill="#FBB5AD"/>
<path d="M233.196 86.2189C233.107 86.1916 233.025 86.1465 232.955 86.0864C233.344 85.2469 233.774 84.4274 234.245 83.631C234.279 83.5711 234.288 83.5 234.27 83.4335C234.252 83.367 234.208 83.3105 234.148 83.2763C234.088 83.2422 234.017 83.2333 233.951 83.2516C233.885 83.2699 233.828 83.3138 233.794 83.3738C233.289 84.2267 232.83 85.1062 232.418 86.0085C232.392 86.0581 232.381 86.1147 232.388 86.1705C232.395 86.2264 232.419 86.2787 232.457 86.3203C232.614 86.5098 232.822 86.6504 233.056 86.7256C233.374 86.8347 233.507 86.3203 233.196 86.2189Z" fill="#56403D"/>
<path d="M244.205 83.6311C244.609 81.6745 243.715 80.326 242.456 78.7904C242.352 78.6657 242.246 78.5462 242.137 78.4318C242.539 78.2868 242.903 78.0522 243.202 77.7459C243.236 77.7159 243.261 77.6777 243.276 77.635C243.291 77.5923 243.295 77.5465 243.287 77.502C243.279 77.4575 243.26 77.4157 243.232 77.3806C243.203 77.3455 243.166 77.3183 243.124 77.3016C242.912 77.2331 242.687 77.2096 242.465 77.2324C242.243 77.2552 242.028 77.3239 241.834 77.4341C241.787 76.9814 241.661 76.5407 241.46 76.1323C241.44 76.093 241.41 76.0595 241.373 76.0349C241.336 76.0103 241.294 75.9954 241.249 75.9915C241.205 75.9876 241.161 75.9949 241.12 76.0127C241.08 76.0305 241.044 76.0582 241.017 76.0934C240.881 76.2464 240.779 76.4276 240.72 76.6243C240.661 76.8209 240.646 77.0282 240.675 77.2314C239.132 76.2662 237.292 75.895 235.497 76.1869C234.839 76.3022 234.216 76.569 233.678 76.9664C233.241 76.7517 232.754 76.6652 232.27 76.717C231.755 76.7554 231.266 76.9647 230.882 77.3118C230.498 77.6589 230.24 78.1242 230.148 78.6345C229.985 79.8349 231.026 80.6456 232.099 80.8327C232.65 80.9243 233.215 80.8733 233.74 80.6846C233.25 81.0821 232.861 81.6745 233.74 82.2436C235.295 83.2569 236.477 82.5398 236.275 83.4284C236.111 84.1533 236.928 84.8938 237.612 85.1589C237.612 85.2836 237.612 85.611 237.658 86.0553C238.044 86.0662 238.419 86.1792 238.747 86.3827C238.786 86.3625 238.828 86.3515 238.872 86.3508C238.915 86.3501 238.959 86.3596 238.998 86.3785C239.037 86.3974 239.071 86.4253 239.098 86.4598C239.125 86.4944 239.143 86.5347 239.151 86.5775C239.369 87.8091 238.832 88.8615 238.172 89.9528C239.378 89.4976 240.484 88.8119 241.429 87.9339C242.755 86.803 243.72 85.3069 244.205 83.6311ZM241.196 76.8806C241.196 76.9274 241.196 76.9664 241.196 77.0132C241.191 77.0416 241.191 77.0705 241.196 77.0989C241.196 77.1847 241.196 77.2782 241.196 77.3639C241.155 77.2055 241.155 77.0391 241.196 76.8806Z" fill="#1C7377"/>
<path d="M234.689 86.9985C234.431 87.2681 234.079 87.4275 233.707 87.4435C233.334 87.4595 232.97 87.3308 232.69 87.0842C232.519 86.9439 232.317 87.2245 232.488 87.3649C232.83 87.6566 233.269 87.8082 233.717 87.7894C234.165 87.7706 234.59 87.5828 234.906 87.2635C235.062 87.0998 234.844 86.8426 234.689 86.9985Z" fill="#56403D"/>
<path d="M234.743 85.5408C234.679 85.517 234.608 85.5197 234.546 85.5482C234.484 85.5767 234.436 85.6287 234.413 85.6928C234.389 85.7569 234.391 85.8278 234.42 85.8899C234.448 85.9521 234.5 86.0003 234.564 86.0241C234.628 86.0479 234.699 86.0452 234.761 86.0167C234.823 85.9882 234.871 85.9362 234.895 85.8721C234.918 85.808 234.916 85.7371 234.887 85.675C234.859 85.6128 234.807 85.5646 234.743 85.5408Z" fill="#56403D"/>
<path d="M231.983 83.7792C231.919 83.7554 231.848 83.758 231.786 83.7865C231.724 83.8151 231.676 83.8671 231.652 83.9312C231.629 83.9952 231.631 84.0662 231.66 84.1283C231.688 84.1904 231.74 84.2387 231.804 84.2624C231.868 84.2862 231.939 84.2836 232 84.2551C232.062 84.2265 232.111 84.1745 232.134 84.1104C232.158 84.0464 232.155 83.9754 232.127 83.9133C232.099 83.8512 232.047 83.8029 231.983 83.7792Z" fill="#56403D"/>
<path d="M237.254 86.7257C237.254 86.7257 239.455 83.4908 240.022 85.0264C240.59 86.562 237.044 88.1444 237.044 88.1444" fill="#FBB5AD"/>
<defs>
<linearGradient id="paint0_linear_25_28893" x1="68.8478" y1="150.784" x2="53.5176" y2="172.456" gradientUnits="userSpaceOnUse">
<stop/>
<stop offset="1" stop-color="white"/>
</linearGradient>
<linearGradient id="paint1_linear_25_28893" x1="10390" y1="8301.31" x2="9817.07" y2="9378.06" gradientUnits="userSpaceOnUse">
<stop stop-color="#B6D4E5"/>
<stop offset="1" stop-color="white"/>
</linearGradient>
<linearGradient id="paint2_linear_25_28893" x1="22841.9" y1="10676.4" x2="20922.6" y2="13813.5" gradientUnits="userSpaceOnUse">
<stop offset="0.00590093" stop-color="#757575"/>
<stop offset="1" stop-color="white"/>
</linearGradient>
<linearGradient id="paint3_linear_25_28893" x1="18541.2" y1="6579.01" x2="17649.9" y2="8048.29" gradientUnits="userSpaceOnUse">
<stop/>
<stop offset="1" stop-color="white"/>
</linearGradient>
</defs>
</svg>
