<svg width="177" height="166" viewBox="0 0 177 166" fill="none" xmlns="http://www.w3.org/2000/svg">
<g clip-path="url(#clip0_39_4171)">
<path opacity="0.15" d="M84.7018 165.129C123.922 165.129 155.716 163.622 155.716 161.763C155.716 159.904 123.922 158.397 84.7018 158.397C45.4817 158.397 13.6875 159.904 13.6875 161.763C13.6875 163.622 45.4817 165.129 84.7018 165.129Z" fill="black"/>
<path d="M130.108 156.363L53.7122 137.537C52.7695 137.302 52.2196 136.363 52.4553 135.463L81.2852 19.2193C81.5209 18.28 82.4636 17.732 83.367 17.9668L159.762 36.7928C160.705 37.0276 161.255 37.9669 161.019 38.8671L132.189 155.11C131.954 156.05 131.011 156.598 130.108 156.363Z" fill="white"/>
<path d="M130.58 156.99C130.423 156.99 130.226 156.951 130.069 156.912L53.4773 138.047C52.9274 137.89 52.4168 137.538 52.1419 137.069C51.8276 136.56 51.7491 135.973 51.9062 135.425L80.7361 18.9857C81.0111 17.8116 82.2287 17.1071 83.407 17.381L159.999 36.2461C160.549 36.4027 161.059 36.7549 161.334 37.2246C161.648 37.7334 161.727 38.3205 161.57 38.8684L132.701 155.307C132.465 156.325 131.562 156.99 130.58 156.99ZM130.344 155.855C130.933 156.012 131.522 155.66 131.64 155.073L160.509 38.6336C160.588 38.3596 160.549 38.0856 160.392 37.8117C160.234 37.5768 159.999 37.3811 159.724 37.342L83.1321 18.4769C82.5429 18.3204 81.9537 18.6726 81.8359 19.2597L52.9667 135.699C52.8881 135.973 52.9274 136.247 53.0845 136.521C53.2416 136.755 53.4773 136.951 53.7523 136.99L130.344 155.855Z" fill="#003366"/>
<path d="M128.536 157.77L55.5182 135.853C54.6148 135.579 54.1042 134.6 54.3791 133.7L87.9617 22.5447C88.2366 21.6445 89.2186 21.1356 90.122 21.4096L163.139 43.3275C164.043 43.6015 164.553 44.58 164.279 45.4802L130.696 156.635C130.421 157.536 129.478 158.044 128.536 157.77Z" fill="#19CDFA"/>
<path d="M129.124 158.438C128.928 158.438 128.692 158.399 128.496 158.36L55.2816 136.403C54.7317 136.246 54.2604 135.855 53.9854 135.346C53.7105 134.837 53.6319 134.25 53.8283 133.702L87.4894 22.3513C87.8429 21.2162 89.0606 20.5509 90.2389 20.9031L163.453 42.8602C164.592 43.2124 165.26 44.4257 164.906 45.5999L131.245 156.951C131.088 157.499 130.695 157.968 130.184 158.242C129.831 158.36 129.477 158.438 129.124 158.438ZM89.5319 21.8816C89.0606 21.8816 88.6285 22.1947 88.5107 22.6644L54.8496 134.015C54.771 134.289 54.8103 134.563 54.9281 134.837C55.0459 135.072 55.2816 135.268 55.5566 135.346L128.77 157.303C129.32 157.46 129.949 157.146 130.106 156.599L163.767 45.2477C163.924 44.6997 163.61 44.0735 163.06 43.9169L89.8461 21.9207C89.7676 21.8816 89.6497 21.8816 89.5319 21.8816Z" fill="#003366"/>
<path d="M134.507 155.969L59.879 140.274C58.9363 140.079 58.3472 139.179 58.5436 138.239L82.5816 24.6183C82.778 23.679 83.6814 23.0919 84.6241 23.2876L159.252 38.9824C160.195 39.1781 160.784 40.0783 160.587 41.0176L136.549 154.639C136.353 155.578 135.41 156.165 134.507 155.969Z" fill="white"/>
<path d="M134.938 156.597C134.78 156.597 134.623 156.597 134.466 156.558L59.642 140.824C59.0528 140.707 58.5815 140.354 58.2672 139.885C57.953 139.415 57.8352 138.828 57.953 138.241L82.0303 24.4633C82.266 23.2891 83.4443 22.5455 84.6227 22.7803L159.447 38.5143C160.036 38.6317 160.507 38.9839 160.822 39.4536C161.136 39.9233 161.254 40.5104 161.136 41.0975L137.059 154.875C136.941 155.462 136.587 155.932 136.116 156.245C135.762 156.48 135.33 156.597 134.938 156.597ZM84.1906 23.8371C83.9942 23.8371 83.7978 23.9154 83.6015 23.9936C83.3658 24.1502 83.2087 24.385 83.1301 24.659L59.0528 138.437C58.9742 138.71 59.0528 138.984 59.2099 139.258C59.367 139.493 59.6027 139.65 59.8776 139.728L134.702 155.462C134.977 155.54 135.252 155.462 135.527 155.305C135.762 155.149 135.92 154.914 135.998 154.64L160.075 40.8626C160.193 40.2755 159.84 39.7276 159.251 39.6102L84.387 23.8371C84.3477 23.8371 84.2692 23.8371 84.1906 23.8371Z" fill="#003366"/>
<path d="M152.339 45.5809L88.2319 32.1128L87.7701 34.2958L151.877 47.7639L152.339 45.5809Z" fill="#003366"/>
<path d="M151.2 51.0667L87.0933 37.5986L86.6314 39.7816L150.738 53.2497L151.2 51.0667Z" fill="#003366"/>
<path d="M150.023 56.5399L85.916 43.0718L85.4541 45.2547L149.561 58.7228L150.023 56.5399Z" fill="#003366"/>
<path d="M148.886 62.0257L84.7793 48.5576L84.3174 50.7406L148.424 64.2087L148.886 62.0257Z" fill="#003366"/>
<path d="M147.705 67.4967L83.5981 54.0286L83.1363 56.2115L147.243 69.6796L147.705 67.4967Z" fill="#003366"/>
<path d="M144.913 80.7308L80.8066 67.2627L80.3448 69.4457L144.452 82.9138L144.913 80.7308Z" fill="#003366"/>
<path d="M143.775 86.2083L79.668 72.7402L79.2061 74.9232L143.313 88.3913L143.775 86.2083Z" fill="#003366"/>
<path d="M142.598 91.6898L78.4907 78.2217L78.0288 80.4047L142.136 93.8728L142.598 91.6898Z" fill="#003366"/>
<path d="M141.42 97.1671L77.3135 83.699L76.8516 85.8819L140.958 99.3501L141.42 97.1671Z" fill="#003366"/>
<path d="M140.278 102.649L76.1709 89.1807L75.709 91.3636L139.816 104.832L140.278 102.649Z" fill="#003366"/>
<path d="M112.917 102.6L75.0215 94.6387L74.5596 96.8216L112.455 104.783L112.917 102.6Z" fill="#003366"/>
<path d="M136.429 120.934L72.3223 107.466L71.8604 109.649L135.967 123.117L136.429 120.934Z" fill="#003366"/>
<path d="M135.252 126.405L71.145 112.937L70.6831 115.12L134.79 128.588L135.252 126.405Z" fill="#003366"/>
<path d="M134.113 131.891L70.0063 118.423L69.5445 120.606L133.651 134.074L134.113 131.891Z" fill="#003366"/>
<path d="M132.936 137.364L68.8291 123.896L68.3672 126.079L132.474 139.547L132.936 137.364Z" fill="#003366"/>
<path d="M131.759 142.844L67.6519 129.376L67.19 131.559L131.297 145.027L131.759 142.844Z" fill="#003366"/>
<path opacity="0.8" d="M48.7219 108.775L11.9971 149.127C11.4865 149.675 13.0183 151.867 15.4143 154.02C17.8102 156.172 20.1276 157.464 20.6382 156.916L57.363 116.524L48.7219 108.775Z" fill="#1D2C62"/>
<path d="M20.2838 157.847C19.6554 157.847 18.9091 157.495 18.3592 157.182C17.338 156.595 16.0811 155.695 14.9028 154.599C13.7637 153.581 10.1109 150.059 11.4463 148.611L48.1711 108.219C48.446 107.906 48.9566 107.867 49.2316 108.18L57.8727 115.969C58.0298 116.086 58.1084 116.282 58.1084 116.477C58.1084 116.673 58.0298 116.869 57.912 117.025L21.1872 157.456C20.9515 157.73 20.6373 157.847 20.2838 157.847ZM12.6639 149.511C12.7818 150.02 13.803 151.585 15.8847 153.464C18.0057 155.382 19.6554 156.204 20.166 156.282L56.2623 116.595L48.7603 109.824L12.6639 149.511Z" fill="#ADA296"/>
<path d="M57.5533 116.352C58.1653 115.68 56.7334 113.392 54.3551 111.243C51.9767 109.095 49.5526 107.898 48.9406 108.57C48.3286 109.243 49.7605 111.53 52.1389 113.679C54.5172 115.828 56.9413 117.025 57.5533 116.352Z" fill="#BDB6AE"/>
<path d="M57.0466 117.306C55.0827 117.306 52.0191 114.605 51.6263 114.253C50.4087 113.157 49.3875 111.983 48.759 110.965C47.9342 109.634 47.8164 108.656 48.3662 108.03C49.9374 106.307 54.3757 110.221 54.8864 110.652C55.397 111.122 59.7175 115.114 58.1464 116.836C57.8715 117.149 57.4787 117.306 57.0466 117.306ZM49.5446 109.125C49.6624 109.752 50.6444 111.317 52.6475 113.118C54.6114 114.918 56.3396 115.74 56.9288 115.779C56.811 115.153 55.829 113.587 53.8259 111.787C51.862 109.987 50.173 109.165 49.5446 109.125Z" fill="#1D2C62"/>
<path d="M64.2352 96.7112L52.2161 109.94C51.9019 110.292 52.4518 111.31 53.473 112.21C54.4943 113.11 55.5548 113.58 55.869 113.228L67.888 99.9989L64.2352 96.7112Z" fill="#C6C6C6"/>
<path d="M55.555 113.933C55.3193 113.933 55.0444 113.893 54.6909 113.737C54.1803 113.502 53.5911 113.15 53.0805 112.641C52.5306 112.171 52.0985 111.623 51.8236 111.154C51.3522 110.293 51.5486 109.784 51.7843 109.549L64.2354 95.8894L68.7916 99.999L56.3405 113.659C56.1441 113.776 55.9085 113.933 55.555 113.933ZM52.7663 110.253C52.8055 110.449 53.1198 111.036 53.9053 111.741C54.6909 112.445 55.28 112.68 55.5157 112.719L67.0634 100.038L64.3139 97.5724L52.7663 110.253Z" fill="#1D2C62"/>
<path opacity="0.36" d="M51.195 112.799L14.4702 153.19L17.8874 156.361L54.6514 115.969L51.195 112.799Z" fill="white"/>
<path d="M11.7729 148.96L11.7751 148.957L48.3428 108.761L48.3429 108.762L48.3487 108.755C48.3986 108.698 48.4596 108.673 48.514 108.67C48.565 108.667 48.6238 108.684 48.6805 108.74L48.6923 108.752L48.7049 108.763C48.7549 108.806 48.7861 108.873 48.7894 108.939C48.7926 109.003 48.771 109.042 48.7441 109.066L48.7221 109.085L48.7025 109.107L12.3312 149.185L12.1553 149.379L12.2144 149.634C12.2614 149.837 12.379 150.083 12.5311 150.342C12.6897 150.612 12.9075 150.932 13.1852 151.29C13.7408 152.007 14.5474 152.889 15.628 153.847C16.7073 154.822 17.6636 155.526 18.4285 155.998C18.811 156.235 19.1493 156.416 19.4344 156.544C19.7109 156.669 19.9652 156.758 20.1723 156.787L20.4345 156.825L20.6127 156.629L57.0625 116.55L57.0626 116.55L57.0684 116.544C57.1121 116.494 57.1794 116.462 57.2478 116.459C57.313 116.455 57.3539 116.478 57.3774 116.504L57.3994 116.53L57.4246 116.551C57.4746 116.595 57.5057 116.661 57.5091 116.728C57.5123 116.791 57.4907 116.831 57.4638 116.854L57.442 116.873L57.4226 116.895L20.8549 157.091L20.8548 157.091L20.8457 157.101C20.7257 157.241 20.5643 157.319 20.2821 157.319C19.9643 157.319 19.5523 157.205 19.0687 156.984C18.5927 156.766 18.0855 156.462 17.588 156.123C16.5946 155.448 15.6817 154.663 15.1933 154.235C14.6313 153.733 13.464 152.625 12.6061 151.477C12.1739 150.899 11.8462 150.345 11.6989 149.875C11.5516 149.405 11.6132 149.133 11.7729 148.96Z" fill="#1D2C62" stroke="#1D2C62"/>
<path d="M49.0262 110.858L49.0258 110.857C48.6321 110.222 48.4356 109.714 48.3847 109.324C48.336 108.951 48.4201 108.702 48.5837 108.515C48.6275 108.465 48.6948 108.434 48.7632 108.43C48.8284 108.427 48.8693 108.449 48.8928 108.476L48.9038 108.489L48.9156 108.5C49.0219 108.606 49.0376 108.779 48.9628 108.898L48.8864 109.02V109.164C48.8864 109.405 48.9957 109.691 49.1233 109.953C49.2628 110.24 49.4665 110.582 49.7329 110.962C50.2666 111.724 51.0677 112.662 52.154 113.644C53.2393 114.626 54.2513 115.333 55.0628 115.789C55.4677 116.016 55.8301 116.185 56.1323 116.293C56.2832 116.346 56.4266 116.388 56.5578 116.413C56.6817 116.436 56.8278 116.452 56.9704 116.428L57.1075 116.405L57.2132 116.315C57.3215 116.222 57.4745 116.219 57.5811 116.312C57.6382 116.362 57.6629 116.422 57.6656 116.474C57.6682 116.523 57.6527 116.581 57.596 116.637L57.5708 116.662L57.5495 116.691C57.4319 116.847 57.2074 116.961 56.8884 116.961C56.5009 116.961 56.0172 116.825 55.475 116.579C54.9402 116.336 54.3865 116.003 53.8697 115.653C52.8373 114.953 51.993 114.207 51.8023 114.037C50.6087 112.962 49.6227 111.824 49.0262 110.858Z" fill="#969391" stroke="#1D2C62"/>
<path d="M59.6004 99.4183L58.0293 98.3616C58.5399 98.753 59.0505 99.1052 59.6004 99.4183Z" fill="#C6C6C6"/>
<path d="M59.2088 100.087C58.6196 99.7352 58.0697 99.3829 57.5591 98.9524L58.4625 97.7L60.0336 98.7567L59.2088 100.087Z" fill="#706F6F"/>
<path d="M58.0327 98.3598L59.6824 99.4556C59.6431 99.4556 59.6431 99.4165 59.6038 99.4165L69.3055 105.953C79.7141 113.859 97.2713 108.34 108.544 93.5848C119.817 78.8685 120.484 60.5122 110.076 52.6061L98.6853 44.9348" fill="#C6C6C6"/>
<path d="M80.6145 110.335C76.1761 110.335 72.1697 109.083 68.8704 106.578L59.1688 100.042L57.5977 98.9851L58.4618 97.7326L60.1114 98.8285L69.7738 105.326C74.605 109.005 81.2036 109.787 88.3915 107.517C95.6579 105.247 102.61 100.12 107.952 93.1142C113.294 86.1083 116.397 78.0848 116.711 70.4918C116.986 63.0162 114.511 56.8714 109.68 53.1923L98.2895 45.521L99.1536 44.2686L110.583 51.979C115.807 55.9712 118.557 62.5465 118.243 70.5309C117.928 78.437 114.708 86.7737 109.169 94.0144C103.631 101.255 96.4042 106.578 88.8628 108.926C85.9955 109.905 83.2461 110.335 80.6145 110.335Z" fill="#706F6F"/>
<path d="M95.6223 84.6861C106.918 69.9189 108.789 52.4134 99.8004 45.5864C90.8121 38.7594 74.3685 45.1963 63.0726 59.9635C51.7767 74.7307 49.9061 92.2363 58.8944 99.0632C67.8828 105.89 84.3264 99.4534 95.6223 84.6861Z" fill="#B2B2B2"/>
<path d="M67.6158 102.584C64.1201 102.584 60.9778 101.606 58.4641 99.6877C53.9078 96.2044 51.8261 90.0986 52.6509 82.4274C53.4365 74.9127 56.9322 66.7717 62.5097 59.531C68.0478 52.2902 75 46.7716 82.07 43.9927C89.2579 41.1747 95.7387 41.527 100.334 45.0103C104.89 48.4937 106.972 54.5994 106.147 62.2707C105.362 69.7854 101.866 77.9264 96.2886 85.1671C90.7504 92.4079 83.7983 97.9265 76.7282 100.705C73.4682 101.958 70.4045 102.584 67.6158 102.584ZM91.0647 43.6405C82.5021 43.6405 71.74 49.9027 63.688 60.4312C58.3069 67.4762 54.929 75.3432 54.1435 82.5839C53.3972 89.7072 55.2433 95.3433 59.3674 98.4744C63.4916 101.606 69.4618 101.919 76.1391 99.2963C82.9341 96.6349 89.6507 91.312 95.0317 84.2669C106.069 69.8637 107.993 52.799 99.3523 46.2237C97.0349 44.4624 94.2069 43.6405 91.0647 43.6405Z" fill="#706F6F"/>
<path d="M95.5459 84.5113C105.816 71.085 108.575 55.9731 101.709 50.7579C94.8428 45.5426 80.9509 52.199 70.6808 65.6253C60.4106 79.0516 57.6512 94.1636 64.5176 99.3788C71.3839 104.594 85.2758 97.9376 95.5459 84.5113Z" fill="#19CDFA"/>
<path d="M70.2854 101.917C67.8895 101.917 65.7685 101.291 64.0795 99.9602C60.5053 97.2596 59.2091 92.0932 60.4267 85.4396C61.605 78.9425 65.0222 71.7408 70.089 65.1655C75.1166 58.5901 81.2047 53.3846 87.1356 50.5274C93.263 47.592 98.6048 47.4746 102.179 50.1752C105.753 52.8758 107.049 58.0422 105.832 64.6958C104.654 71.1929 101.236 78.3945 96.1695 84.9699C91.142 91.5453 85.0539 96.7508 79.123 99.6079C75.9022 101.173 72.9171 101.917 70.2854 101.917ZM95.8946 49.7447C88.8246 49.7447 79.0444 55.9678 71.3067 66.1048C66.3969 72.4845 63.0976 79.4904 61.9585 85.7135C60.8588 91.7801 61.9193 96.4376 65.0222 98.786C71.5423 103.757 84.9753 97.1422 94.9912 84.0697L95.5804 84.5393L94.9912 84.0697C104.968 70.9972 107.796 56.3592 101.276 51.3885C99.7831 50.2535 97.937 49.7447 95.8946 49.7447Z" fill="#878787"/>
<path d="M104.457 67.2754L116.633 76.5905L115.651 80.2696L110.859 90.2892L101.668 100.857L89.7666 91.0329L97.3472 82.2657L102.296 73.3028L104.457 67.2754Z" fill="#ADAAAA"/>
<path d="M105.28 56.0426L117.299 65.9839L114.706 57.8821L109.522 52.2069L102.177 47.2754L105.28 56.0426Z" fill="#ADAAAA"/>
<path d="M104.81 65.4757L117.025 75.0648L117.693 69.6636L105.674 60.6616L104.81 65.4757Z" fill="#C6C6C6"/>
<path d="M83.404 96.3552L94.9517 105.709L86.2713 108.567L79.4369 108.723L68.6748 101.13L74.3701 100.778L80.4974 98.3122L83.404 96.3552Z" fill="#ADAAAA"/>
<path opacity="0.46" d="M70.5994 65.5925C60.3479 79.0173 57.5592 94.125 64.4328 99.3305C65.8861 100.426 67.6143 100.974 69.5782 101.092C69.4997 101.287 69.4211 101.483 69.3033 101.679C65.2969 102.031 61.6834 101.209 58.8161 99.0174C49.8214 92.168 51.7068 74.6728 62.9795 59.9174L64.4721 58.2344L71.4243 64.6923L70.5994 65.5925Z" fill="#B2B2B2"/>
<path opacity="0.43" d="M90.4741 49.8969L83.7969 44.3L94.7554 42.9302L99.9793 45.7482L101.825 47.5095L104.811 53.2238L101.393 50.5623L96.6015 48.9967L90.4741 49.8969Z" fill="#B2B2B2"/>
<path d="M59.2102 100.082C58.621 99.7301 58.0712 99.3778 57.5605 98.9473L58.4639 97.6948L60.035 98.7516L59.2102 100.082Z" fill="#706F6F"/>
<path d="M80.6106 110.334C76.1722 110.334 72.1658 109.082 68.8665 106.577L59.1649 100.041L57.5938 98.9839L58.4579 97.7314L60.1075 98.8273L69.7699 105.324C74.6011 109.003 81.1997 109.786 88.3876 107.516C95.654 105.246 102.606 100.119 107.948 93.113C113.29 86.1071 116.393 78.0836 116.707 70.4906C116.982 63.015 114.507 56.8701 109.676 53.1911L98.2856 45.5198L99.1497 44.2673L110.58 51.9777C115.804 55.9699 118.553 62.5453 118.239 70.5297C117.925 78.4358 114.704 86.7725 109.166 94.0132C103.627 101.254 96.4003 106.577 88.8589 108.925C85.9916 109.904 83.2422 110.334 80.6106 110.334Z" fill="#1D2C62"/>
<path d="M53.1481 82.4808L53.1482 82.4794C53.9224 75.0739 57.3733 67.0184 62.9058 59.8361L62.9068 59.8347C68.4005 52.6521 75.2829 47.1978 82.2525 44.4582C89.3406 41.6793 95.6212 42.0657 100.032 45.4083C104.403 48.7514 106.463 54.6555 105.65 62.2173L105.65 62.2187C104.876 69.6242 101.425 77.6797 95.8925 84.862L95.8915 84.8633C90.3981 92.0455 83.5164 97.4996 76.5472 100.239C73.332 101.474 70.3302 102.084 67.6158 102.084C64.2148 102.084 61.1828 101.133 58.7673 99.2902C54.3951 95.9472 52.335 90.043 53.1481 82.4808ZM63.2908 60.1274L63.2907 60.1277C57.8658 67.2301 54.4437 75.1813 53.6464 82.53L53.6462 82.5318C52.8896 89.7541 54.7507 95.5971 59.0651 98.8727C63.3774 102.147 69.5495 102.421 76.3219 99.7617C83.2177 97.0607 90.0039 91.6732 95.4291 84.5704C100.993 77.3092 104.276 69.3588 105.068 62.3661C105.859 55.3853 104.171 49.2623 99.6551 45.8258L99.6548 45.8256C97.2356 43.9869 94.2959 43.1405 91.0647 43.1405C82.2888 43.1405 71.3959 49.5296 63.2908 60.1274Z" fill="#706F6F" stroke="#1D2C62"/>
<path d="M64.3904 99.5647L64.3905 99.5647L64.3824 99.5585C61.0289 97.0248 59.717 92.1005 60.92 85.5269L60.9201 85.5261C62.0812 79.1244 65.4569 71.9951 70.4866 65.468L70.4877 65.4665C75.4787 58.939 81.5086 53.7913 87.3538 50.9754C93.4074 48.0754 98.5229 48.0356 101.879 50.5714C105.233 53.1052 106.544 58.0294 105.342 64.6031L105.341 64.6039C104.18 71.0056 100.805 78.1348 95.7749 84.662L95.7738 84.6635C90.7828 91.1911 84.7527 96.3389 78.9074 99.1548L78.9058 99.1555C75.7359 100.696 72.8257 101.414 70.2869 101.414C67.9789 101.414 65.9739 100.812 64.3904 99.5647ZM95.6856 83.98C100.542 77.5102 103.678 70.67 104.812 64.7828C105.962 58.8105 105.073 53.6511 101.58 50.9882L101.58 50.9878C99.9813 49.7723 98.0215 49.242 95.8961 49.242C92.2263 49.242 87.9176 50.8512 83.5779 53.7028C79.2298 56.5599 74.8103 60.6902 70.9113 65.7979C65.9645 72.226 62.6244 79.3036 61.4682 85.6208L61.468 85.6217C60.3569 91.7506 61.3899 96.6598 64.7213 99.1815C68.2145 101.844 73.4416 101.331 78.9178 98.6401C84.3127 95.9886 90.1021 91.1586 95.0779 84.7744L95.2702 84.9276L95.5818 84.5367L95.8935 84.1457L95.6856 83.98Z" fill="#1D2C62" stroke="#1D2C62"/>
<path opacity="0.33" d="M91.9782 73.9951C99.4086 66.3308 102.473 57.2687 98.8221 53.7543C95.1714 50.2399 86.1883 53.6041 78.7578 61.2684C71.3273 68.9326 68.2632 77.9947 71.9139 81.5091C75.5646 85.0235 84.5477 81.6594 91.9782 73.9951Z" fill="white"/>
<path d="M97.6242 62.1567C96.0531 64.3093 92.9895 64.7398 90.8685 63.1743C88.7082 61.6087 88.2761 58.5559 89.8472 56.4423C91.4183 54.2897 94.482 53.8592 96.603 55.4247C98.7633 57.0294 99.1954 60.0431 97.6242 62.1567Z" fill="white"/>
<path d="M86.1934 63.839C85.5257 64.7392 84.2296 64.9349 83.3262 64.2695C82.4228 63.6041 82.2264 62.3126 82.8941 61.4124C83.5618 60.5122 84.858 60.3165 85.7614 60.9818C86.7041 61.6472 86.9004 62.9388 86.1934 63.839Z" fill="white"/>
</g>
<defs>
<clipPath id="clip0_39_4171">
<rect width="177" height="166" fill="white"/>
</clipPath>
</defs>
</svg>
