<svg width="177" height="166" viewBox="0 0 177 166" fill="none" xmlns="http://www.w3.org/2000/svg">
<g clip-path="url(#clip0_39_4630)">
<path opacity="0.1" d="M89.5001 171.481C130.184 171.481 163.165 162.991 163.165 152.517C163.165 142.043 130.184 133.552 89.5001 133.552C48.816 133.552 15.835 142.043 15.835 152.517C15.835 162.991 48.816 171.481 89.5001 171.481Z" fill="#BCDAF3"/>
<path fill-rule="evenodd" clip-rule="evenodd" d="M111.828 119.903L112.246 136.079H107.812L103.186 117.048L111.828 119.903ZM69.8073 119.903L69.3896 136.079H73.8231L78.4492 117.048L69.8073 119.903Z" fill="#323033"/>
<path fill-rule="evenodd" clip-rule="evenodd" d="M120.084 128.168L120.694 147.69H114.494L108.069 124.723L120.084 128.168ZM61.5181 128.168L60.9077 147.69H67.1081L73.5333 124.723L61.5181 128.168Z" fill="#323033"/>
<path fill-rule="evenodd" clip-rule="evenodd" d="M58.403 86.7234L57.7926 72.9427C57.3107 62.0494 54.323 51.4186 49.0543 41.7721C47.0946 38.1957 47.191 33.9302 49.3113 30.4522C51.3995 26.9742 55.2225 24.7431 59.431 24.579C69.5828 24.1853 79.7668 24.1197 89.9187 24.415C100.071 24.1197 110.254 24.1853 120.406 24.579C124.615 24.7431 128.438 26.9742 130.526 30.4522C132.614 33.9302 132.711 38.1957 130.783 41.7721C125.514 51.4186 122.527 62.0822 122.045 72.9427L121.434 86.7234L117.419 117.992H62.4187L58.403 86.7234Z" fill="#19CDFA"/>
<path fill-rule="evenodd" clip-rule="evenodd" d="M67.237 110.844L66.0483 108.974L62.643 88.3356C61.7434 82.7905 58.2738 77.9673 53.1979 75.1784C48.122 72.3894 42.018 71.9301 36.5566 73.9315C33.4403 75.0799 31.3843 77.9345 31.3843 81.15C31.3843 84.3327 33.4403 87.2201 36.5566 88.3684C47.7043 92.4698 54.3544 103.494 52.4911 114.781L67.237 110.844ZM114.398 110.844L115.587 108.974L118.992 88.3356C119.892 82.7905 123.361 77.9673 128.437 75.1784C133.513 72.3894 139.617 71.9301 145.079 73.9315C148.195 75.0799 150.251 77.9345 150.251 81.15C150.251 84.3327 148.195 87.2201 145.079 88.3684C133.931 92.4698 127.281 103.494 129.144 114.781L114.398 110.844Z" fill="#009CC4"/>
<path fill-rule="evenodd" clip-rule="evenodd" d="M56.9243 107.859H124.678C130.525 107.859 135.312 112.42 135.312 118.03C135.312 123.608 130.525 128.202 124.678 128.202H56.9243C51.0773 128.202 46.2905 123.641 46.2905 118.03C46.2905 112.42 51.0773 107.859 56.9243 107.859Z" fill="#009CC4"/>
<path fill-rule="evenodd" clip-rule="evenodd" d="M126.991 76.1962L119.634 55.722L119.73 54.9346C120.212 51.4894 119.506 48.3723 117.61 45.3865L117.032 44.4678C116.068 42.9585 114.655 42.007 112.855 41.7117L90.9455 37.8071L67.0437 41.9741C65.2446 42.3023 63.8311 43.221 62.8673 44.6975L61.8714 46.2396C60.1687 48.8973 59.5583 51.7191 60.0402 54.8361L60.1366 55.3611L51.8159 72.0948L67.1401 66.9434L66.8509 88.3035L110.896 95.7516L108.84 74.9822L126.991 76.1962Z" fill="white"/>
<path fill-rule="evenodd" clip-rule="evenodd" d="M51.5916 78.5569L51.3667 75.7023C51.174 73.1431 52.0414 70.6166 53.8083 68.7136C55.5753 66.7777 58.0811 65.6293 60.7476 65.4653C67.8474 65.0715 74.7224 62.8404 80.6336 59.0015L83.011 62.381L79.1879 67.6308C74.2405 74.4227 66.8515 79.4428 58.3381 80.9849C54.8364 81.6084 51.8165 81.2146 51.5916 78.5569Z" fill="#FF967A"/>
<path fill-rule="evenodd" clip-rule="evenodd" d="M76.0068 47.4854H103.218L98.8485 70.4532H80.376L76.0068 47.4854Z" fill="#1D2C62"/>
<path fill-rule="evenodd" clip-rule="evenodd" d="M76.0068 72.9468L82.5927 74.5217C93.1943 77.081 102.832 82.3964 110.446 89.9102C115.779 95.1599 115.779 103.527 110.446 108.777C106.623 112.55 97.8526 110.417 93.4834 108.219C86.6406 104.741 81.5325 97.7192 78.7697 90.7961L76.0068 72.9468Z" fill="#003366"/>
<path fill-rule="evenodd" clip-rule="evenodd" d="M65.952 79.1488C68.1044 74.1943 72.2487 72.4553 76.8106 73.0131C83.0431 73.7678 85.7417 84.8579 83.5571 91.8467C78.192 109.204 72.8591 120.819 64.0887 135.157C61.5507 139.324 48.5396 134.567 49.3749 130.826C53.3907 112.386 58.82 95.5544 65.952 79.1488Z" fill="#003366"/>
<path fill-rule="evenodd" clip-rule="evenodd" d="M98.2706 94.7625C98.0136 89.48 94.6725 87.0191 90.1427 86.7238C83.9424 86.3301 77.3887 96.6656 76.9389 103.95C75.8145 121.996 76.714 134.333 79.8624 150.049C80.794 154.577 94.8653 152.346 95.4114 148.54C98.2706 129.706 99.1702 112.185 98.2706 94.7625Z" fill="#0859A9"/>
<path fill-rule="evenodd" clip-rule="evenodd" d="M93.3237 150.185L92.6812 161.045H79.124L79.9593 159.339C81.1801 156.812 81.9511 154.188 82.2403 151.563C82.3045 147.33 93.645 146.149 93.3237 150.185Z" fill="white"/>
<path fill-rule="evenodd" clip-rule="evenodd" d="M85.7723 155.04C90.8804 155.04 94.35 159.469 93.9645 161.897C93.5789 164.325 89.4989 163.833 84.3909 163.833C79.2828 163.833 75.0422 164.325 75.4277 161.897C75.7811 159.469 80.6321 155.04 85.7723 155.04Z" fill="black"/>
<path fill-rule="evenodd" clip-rule="evenodd" d="M61.0688 136.173L56.4747 146.147L44.6523 139.782L46.0016 138.535C47.9935 136.698 49.664 134.565 50.8848 132.235C52.5554 128.298 62.8357 132.498 61.0688 136.173Z" fill="white"/>
<path fill-rule="evenodd" clip-rule="evenodd" d="M57.9847 147.462L52.4911 146.314C47.0297 145.166 41.9538 142.803 37.681 139.391C36.653 138.57 36.1389 137.389 36.2675 136.11C36.396 134.83 37.1349 133.78 38.3235 133.157C48.379 127.972 57.1494 141.261 56.9567 145.362C58.1775 145.691 59.4304 146.019 60.6512 146.314C61.0045 146.412 61.2616 146.708 61.2616 147.069C61.2616 147.43 61.0045 147.725 60.6512 147.823L57.9847 147.462Z" fill="black"/>
<path fill-rule="evenodd" clip-rule="evenodd" d="M127.185 86.3012L127.988 83.545C128.694 81.0842 128.341 78.4265 127.024 76.2281C125.675 73.997 123.458 72.3892 120.888 71.7658C113.981 70.0596 107.716 66.5816 102.704 61.7256L99.6846 64.613L102.383 70.4862C105.853 78.0655 112.085 84.3653 120.117 87.4495C123.362 88.6964 126.413 88.8604 127.185 86.3012Z" fill="#FF967A"/>
<path fill-rule="evenodd" clip-rule="evenodd" d="M104.504 63.3656L104.343 58.9688V59.1001L101.484 56.6064L101.066 58.7392L95.6692 58.9688L92.0711 57.7876L90.0792 58.1158V59.297L89.3403 59.986L90.0792 61.2984V62.0203L91.4928 62.8406L92.0389 63.5624L94.8018 64.5467L99.6528 64.5796L104.504 63.3656Z" fill="#FF967A"/>
<path fill-rule="evenodd" clip-rule="evenodd" d="M81.2759 40.4313L83.5247 36.7236H97.7887L100.327 40.9563L81.2759 40.4313Z" fill="white"/>
<path fill-rule="evenodd" clip-rule="evenodd" d="M84.7139 28.2271H96.9218V38.7594L90.8178 40.6953L84.7139 38.7594V28.2271Z" fill="#FF967A"/>
<path fill-rule="evenodd" clip-rule="evenodd" d="M84.7139 28.2271H96.0544V30.6551C96.0544 35.1502 92.1993 38.8251 87.5088 38.8251C86.5451 38.8251 85.5813 38.661 84.7139 38.3657V28.2271Z" fill="#F25D36"/>
<path fill-rule="evenodd" clip-rule="evenodd" d="M98.2712 24.0254C99.0101 24.0254 99.4599 25.141 99.2671 26.5518C99.0744 27.9627 98.3033 29.0783 97.5644 29.0783C96.8255 29.0783 96.3758 27.9627 96.5685 26.5518C96.7613 25.1738 97.5323 24.0254 98.2712 24.0254ZM81.4693 24.0254C80.7304 24.0254 80.2806 25.141 80.4734 26.5518C80.6661 27.9627 81.4371 29.0783 82.176 29.0783C82.9149 29.0783 83.3647 27.9627 83.1719 26.5518C82.9792 25.1738 82.2082 24.0254 81.4693 24.0254Z" fill="#FF967A"/>
<path fill-rule="evenodd" clip-rule="evenodd" d="M81.0518 16.7095H98.1428V28.5543C98.1428 33.0494 94.2877 36.7243 89.5973 36.7243C84.9069 36.7243 81.0518 33.0494 81.0518 28.5215V16.7095Z" fill="#FF967A"/>
<path fill-rule="evenodd" clip-rule="evenodd" d="M92.6481 31.2441C92.3268 32.5566 91.0739 33.5409 89.6282 33.5409C88.1504 33.5409 86.9297 32.5566 86.6084 31.2441H92.6481Z" fill="white"/>
<path fill-rule="evenodd" clip-rule="evenodd" d="M98.1743 26.9787L99.9091 16.2494C100.102 15.0682 99.3951 13.887 98.2385 13.4605L96.9535 12.5418C91.8454 8.86693 84.8419 8.86693 79.7339 12.5418L81.0832 25.9944L82.0148 20.6133H83.1071C87.2193 20.6133 91.2672 19.5634 94.8332 17.5947L96.9213 18.94L98.1743 26.9787Z" fill="black"/>
<path opacity="0.15" d="M87.0153 166.732C126.235 166.732 158.03 165.225 158.03 163.366C158.03 161.507 126.235 160 87.0153 160C47.7952 160 16.001 161.507 16.001 163.366C16.001 165.225 47.7952 166.732 87.0153 166.732Z" fill="black"/>
</g>
<defs>
<clipPath id="clip0_39_4630">
<rect width="159" height="164" fill="white" transform="translate(10 1)"/>
</clipPath>
</defs>
</svg>
