<svg width="177" height="166" viewBox="0 0 177 166" fill="none" xmlns="http://www.w3.org/2000/svg">
<g clip-path="url(#clip0_39_4252)">
<g clip-path="url(#clip1_39_4252)">
<path d="M15.8478 54.8995C6.99943 83.9993 40.4991 92.9993 54.9998 105.499C69.5005 117.999 68.9804 130.047 80.001 140.499C94.9961 154.706 119.501 154.693 138.549 144.252C237.614 89.9496 60.0008 -23.5002 15.8478 54.8995Z" fill="#19CDFA"/>
<path fill-rule="evenodd" clip-rule="evenodd" d="M47.6387 62.2389L45.8035 61.3378C45.0412 60.9717 44.1377 60.9717 43.3472 61.3378C41.9919 61.9855 40.4108 61.9855 39.0556 61.3378C38.8015 61.197 38.4627 61.2815 38.2932 61.5068C38.0956 61.732 38.0956 62.07 38.2932 62.2952C38.4909 62.5205 38.8015 62.605 39.0556 62.4642L41.879 63.1964C43.0083 63.478 44.1942 63.478 45.2953 63.1964L49.5587 65.6463L47.6387 62.2389ZM128.191 62.2389L130.026 61.3378C130.788 60.9717 131.692 60.9717 132.482 61.3378C133.837 61.9855 135.419 61.9855 136.774 61.3378C137.028 61.197 137.367 61.2815 137.536 61.5068C137.734 61.732 137.734 62.07 137.536 62.2952C137.338 62.5205 137.028 62.605 136.774 62.4642L133.95 63.1964C132.821 63.478 131.635 63.478 130.534 63.1964L126.271 65.6463L128.191 62.2389Z" fill="#FF967A"/>
<path opacity="0.15" d="M86.0148 166.732C125.235 166.732 157.029 165.225 157.029 163.366C157.029 161.507 125.235 160 86.0148 160C46.7947 160 15.0005 161.507 15.0005 163.366C15.0005 165.225 46.7947 166.732 86.0148 166.732Z" fill="black"/>
<path fill-rule="evenodd" clip-rule="evenodd" d="M76.1287 82.4252L74.717 94.4215L76.7781 125.257L74.9711 156.684L67.8561 159.725L65.6256 159.471L65.3433 161.274L71.3007 162.935H80.505L80.7308 158.824L82.5661 155.304L81.0132 154.177L84.7966 130.889L83.3001 123.37L87.9023 104.08L92.5327 123.37L91.0363 130.889L94.8197 154.177L93.2668 155.304L95.0738 158.824L95.3279 162.935H104.532L110.49 161.274L110.207 159.471L107.977 159.725L100.862 156.684L99.0548 125.257L101.116 94.4215L99.7042 82.4252L81.1261 69.6687L82.5378 76.8214L76.1287 82.4252Z" fill="#003366"/>
<path d="M92.053 29.4548H83.8086V42.2395H92.053V29.4548Z" fill="#FF967A"/>
<path fill-rule="evenodd" clip-rule="evenodd" d="M83.8086 29.4548H92.053V35.1432C91.3753 35.3685 90.6413 35.4811 89.9072 35.4811C87.5637 35.4811 85.4462 34.2702 83.8086 32.2708V29.4548Z" fill="#FF967A"/>
<path fill-rule="evenodd" clip-rule="evenodd" d="M78.8102 19.46C79.9113 19.46 81.0971 20.8398 81.4642 22.5294C81.8312 24.219 81.2383 25.5989 80.1372 25.5989C79.036 25.5989 77.8502 24.219 77.4832 22.5294C77.1161 20.8398 77.709 19.46 78.8102 19.46ZM97.0211 19.46C95.92 19.46 94.7342 20.8398 94.3671 22.5294C94.0001 24.219 94.593 25.5989 95.6941 25.5989C96.7953 25.5989 97.9811 24.219 98.3481 22.5294C98.7152 20.8398 98.1223 19.46 97.0211 19.46Z" fill="#FF967A"/>
<path fill-rule="evenodd" clip-rule="evenodd" d="M96.7397 16.333C97.0221 17.6002 97.1915 18.9237 97.1915 20.3317C97.1915 27.5126 93.0411 33.3136 87.9307 33.3136C82.8203 33.3136 78.6699 27.5126 78.6699 20.3317C78.6699 18.9237 78.8393 17.6002 79.1217 16.333H96.7397Z" fill="#FF967A"/>
<path fill-rule="evenodd" clip-rule="evenodd" d="M89.4547 9.12431C95.2427 8.47663 99.9578 10.5886 99.9578 13.8552C99.9578 17.1218 95.2427 20.3039 89.4547 20.9516C83.6668 21.5993 78.9517 19.4872 78.9517 16.2207C78.9517 12.9541 83.6385 9.77199 89.4547 9.12431Z" fill="black"/>
<path fill-rule="evenodd" clip-rule="evenodd" d="M83.3004 35.3418L80.5899 39.8474L68.7316 45.1134L62.3224 63.5019L47.3584 61.7278L47.189 65.3323L64.6659 70.5701L74.0678 59.6722L76.6936 77.6102L76.4113 81.44L87.3943 82.8198L87.9026 80.567L88.439 82.8198L99.4221 81.44L99.1397 77.6102L101.766 59.6722L111.167 70.5701L128.644 65.3323L128.475 61.7278L113.511 63.5019L107.102 45.1134L95.2434 39.8474L92.5047 35.3418L87.9026 39.2561L83.3004 35.3418Z" fill="white"/>
<path fill-rule="evenodd" clip-rule="evenodd" d="M86.9995 46.0097L86.1243 42.1517L84.769 43.4189L86.3501 39.8989L87.7901 40.5466L89.2582 39.8989L90.8393 43.4189L89.4559 42.1517L88.6089 46.0097L91.9687 69.4671L87.7901 76.5353L83.6396 69.4671L86.9995 46.0097Z" fill="#FF0000"/>
<path fill-rule="evenodd" clip-rule="evenodd" d="M95.4981 17.2381V25.5735H80.3364V17.0691C81.3246 18.1673 84.3739 18.984 87.9879 18.984C91.4324 18.984 94.3688 18.2518 95.4981 17.2381Z" fill="#FF967A"/>
<path fill-rule="evenodd" clip-rule="evenodd" d="M90.3593 10.0801C93.098 9.77036 95.3285 10.7841 95.3285 12.3329C95.3285 13.8817 93.098 15.3742 90.3593 15.684C87.6206 15.9938 85.3901 14.98 85.3901 13.4312C85.3901 11.8824 87.6206 10.3617 90.3593 10.0801Z" fill="#666966"/>
<path fill-rule="evenodd" clip-rule="evenodd" d="M39.3738 55.6502C49.4989 55.6502 57.7472 47.4235 57.7472 37.325C57.7472 27.2264 49.4989 18.9998 39.3738 18.9998C29.2487 18.9998 21.0005 27.2757 21.0005 37.325C21.0005 47.4235 29.2487 55.6502 39.3738 55.6502Z" fill="#003366"/>
<path fill-rule="evenodd" clip-rule="evenodd" d="M39.371 51.0734C46.9278 51.0734 53.1017 44.9157 53.1017 37.3787C53.1017 29.8417 46.9278 23.6841 39.371 23.6841C31.8143 23.6841 25.6404 29.8417 25.6404 37.3787C25.591 44.9157 31.7649 51.0734 39.371 51.0734Z" fill="#FFC910"/>
<path fill-rule="evenodd" clip-rule="evenodd" d="M37.8428 26.6856C37.8428 25.8482 38.5343 25.2078 39.3246 25.2078C40.1642 25.2078 40.8063 25.8974 40.8063 26.6856V35.3063L45.4984 33.8285C46.2887 33.5822 47.1283 34.0255 47.3753 34.8137C47.6222 35.6019 47.1777 36.4394 46.3874 36.6857L39.8679 38.7546C39.6703 38.8532 39.4727 38.8532 39.2752 38.8532C38.4355 38.8532 37.7935 38.1635 37.7935 37.3753V26.6856H37.8428Z" fill="#003366"/>
<path fill-rule="evenodd" clip-rule="evenodd" d="M38.4963 37.1565C37.8368 37.3854 31.1562 46.2286 31.1562 46.2286C31.1562 46.2286 39.0512 38.3388 39.2756 37.9197C39.4999 37.5006 39.1558 36.9277 38.4963 37.1565Z" fill="#FF0000"/>
<path fill-rule="evenodd" clip-rule="evenodd" d="M136 55.5324C145.92 55.5324 154 47.4729 154 37.5796C154 27.6862 145.92 19.6267 136 19.6267C126.081 19.6267 118 27.6862 118 37.5796C118 47.4729 126.081 55.5324 136 55.5324Z" fill="#FFC90F"/>
<path fill-rule="evenodd" clip-rule="evenodd" d="M152.065 29.5681C152.549 30.5333 152.936 31.4985 153.226 32.512H118.726C119.017 31.4985 119.404 30.4851 119.888 29.5681H152.065ZM153.904 36.1798C153.952 36.6141 153.952 37.0967 153.952 37.5793C153.952 38.6893 153.855 39.7993 153.662 40.861H118.291C118.097 39.7993 118 38.6893 118 37.5793C118 37.0967 118 36.6624 118.049 36.1798H153.904ZM153.081 43.2258C152.791 44.0462 152.452 44.8667 152.065 45.6871H119.936C119.549 44.9149 119.21 44.0945 118.92 43.2258H153.081Z" fill="#003366" fill-opacity="0.2"/>
<path fill-rule="evenodd" clip-rule="evenodd" d="M135.998 51.0476C143.402 51.0476 149.45 45.0151 149.45 37.6312C149.45 30.2474 143.402 24.2148 135.998 24.2148C128.595 24.2148 122.547 30.2474 122.547 37.6312C122.498 45.0151 128.547 51.0476 135.998 51.0476Z" fill="#003366"/>
<path fill-rule="evenodd" clip-rule="evenodd" d="M147.421 30.491C148.002 31.4079 148.486 32.4214 148.825 33.4348H123.179C123.518 32.3731 124.002 31.4079 124.583 30.491H147.421ZM149.454 37.1026C149.454 37.2474 149.454 37.4405 149.454 37.5852C149.454 39.0331 149.212 40.4809 148.776 41.7839H123.179C122.744 40.4809 122.502 39.0331 122.502 37.5852C122.502 37.4405 122.502 37.2474 122.502 37.1026H149.454ZM147.76 44.1004C147.276 44.9691 146.696 45.7895 146.018 46.5617H125.937C125.26 45.8378 124.679 45.0173 124.196 44.1004H147.76Z" fill="#FFB521"/>
<path d="M138.904 28.2627H133.097V46.8912H138.904V28.2627Z" fill="#FFC910"/>
</g>
</g>
<defs>
<clipPath id="clip0_39_4252">
<rect width="177" height="166" fill="white"/>
</clipPath>
<clipPath id="clip1_39_4252">
<rect width="181" height="170" fill="white" transform="translate(-2 -5)"/>
</clipPath>
</defs>
</svg>
