<svg width="289" height="218" viewBox="0 0 289 218" fill="none" xmlns="http://www.w3.org/2000/svg">
<path d="M141.046 209.389L11.1986 132.581C7.06593 130.26 3.51846 126.442 7.55001 123.947L137.867 48.744C139.825 47.5291 142.795 46.7337 144.782 47.8907L281.052 127.078C285.185 129.479 285.929 136.189 281.775 138.597L158.162 209.266C155.566 210.773 152.622 211.578 149.621 211.599C146.619 211.621 143.664 210.859 141.046 209.389Z" fill="#A3DCFF"/>
<g style="mix-blend-mode:multiply" opacity="0.63">
<path d="M177.59 148.59L141.465 167.282L172.677 186.141C172.937 186.141 173.667 193.567 171.702 186.676C183.768 180.016 198.825 174.383 207.393 169.097C194.461 160.189 186.983 154.404 177.59 148.59Z" fill="url(#paint0_linear_25_28754)"/>
</g>
<g style="mix-blend-mode:multiply" opacity="0.63">
<path d="M74.7354 115.023L31.79 138.843L62.9948 157.694C63.2549 157.694 63.9846 165.12 62.0194 158.229C74.0852 151.569 97.841 139.334 106.41 134.034C93.5277 125.125 84.1279 120.83 74.7354 115.023Z" fill="url(#paint1_linear_25_28754)"/>
</g>
<path d="M81.8013 35.8002V65.8308C81.8016 66.1336 81.8815 66.4311 82.0328 66.6933C82.1842 66.9555 82.4017 67.1734 82.6637 67.325C82.9256 67.4765 83.2228 67.5566 83.5254 67.557C83.828 67.5575 84.1254 67.4784 84.3878 67.3276L124.711 46.1985V12.5524L81.8013 35.8002Z" fill="#F1CA50"/>
<path d="M81.8013 35.8002C81.8013 35.8002 105.268 39.6616 107.862 38.859C110.456 38.0563 124.711 12.538 124.711 12.538L81.8013 35.8002Z" fill="#F1CA50"/>
<path opacity="0.82" d="M81.8013 35.8002C81.8013 35.8002 105.268 39.6616 107.862 38.859C110.456 38.0563 124.711 12.538 124.711 12.538L81.8013 35.8002Z" fill="#124577"/>
<path d="M241.51 48.9824V79.0129C241.51 79.3158 241.43 79.6132 241.278 79.8755C241.127 80.1377 240.909 80.3555 240.647 80.5071C240.385 80.6587 240.088 80.7388 239.786 80.7392C239.483 80.7397 239.186 80.6606 238.923 80.5098L198.601 59.4096V25.7708L241.51 48.9824Z" fill="#F1CA50"/>
<path d="M241.51 48.9826C241.51 48.9826 218.05 52.8439 215.449 52.0557C212.848 51.2676 198.601 25.7347 198.601 25.7347L241.51 48.9826Z" fill="#F1CA50"/>
<path opacity="0.82" d="M241.51 48.9826C241.51 48.9826 218.05 52.8439 215.449 52.0557C212.848 51.2676 198.601 25.7347 198.601 25.7347L241.51 48.9826Z" fill="#124577"/>
<path d="M29.3262 58.3177C61.7375 70.5309 51.0012 126.29 51.0012 126.29C51.0012 126.29 54.0862 69.3812 86.895 49.6838C119.704 29.9865 185.213 23.3845 211.505 57.3777C213.939 60.5232 216.389 63.1986 217.798 67.0528C218.883 70.0692 219.126 73.3247 218.501 76.4691C217.876 79.6136 216.406 82.528 214.25 84.899C207.343 92.1301 193.803 90.4958 186.123 85.3618C179.209 80.7412 174.96 73.2209 169.238 67.3637C163.827 61.8247 157.252 58.8673 149.528 61.1884C146.296 62.1615 143.391 63.9992 141.126 66.5032C132.962 75.5565 132.759 89.0496 137.658 99.7154" stroke="#2E3192" stroke-width="2.03" stroke-miterlimit="10" stroke-linecap="round" stroke-dasharray="5.07 5.07"/>
<path d="M142.296 158.352L143.236 157.629L142.405 146.652L137.528 146.826C137.528 146.826 137.774 151.519 136.733 152.668C135.693 153.818 132.759 153.261 132.492 153.391C132.225 153.522 130.267 153.095 129.472 154.028C128.677 154.961 132.637 157.224 134.681 157.542C136.074 157.718 137.487 157.669 138.865 157.397C138.865 157.397 139.096 154.556 139.811 154.787C140.526 155.018 140.801 157.983 140.801 157.983L142.296 158.352Z" fill="#9C4100"/>
<path d="M144.305 123.802C144.709 135.285 145.136 150.239 145.136 150.239C145.136 150.239 142.491 153.803 135.303 152.285C134.529 152.119 132.817 133.824 131.979 124.308C135.998 123.219 140.21 123.046 144.305 123.802Z" fill="#653200"/>
<path d="M129.587 167.774L130.527 167.051L129.696 156.074L124.819 156.248C124.819 156.248 125.065 160.941 124.024 162.09C122.984 163.24 120.05 162.683 119.783 162.813C119.516 162.944 117.558 162.517 116.763 163.45C115.968 164.383 119.928 166.646 121.972 166.964C123.366 167.14 124.778 167.091 126.156 166.819C126.156 166.819 126.387 163.978 127.102 164.209C127.817 164.44 128.092 167.405 128.092 167.405L129.587 167.774Z" fill="#9C4100"/>
<path d="M127.492 125.884C130.698 124.446 134.137 123.596 137.643 123.375C137.044 127.671 136.495 130.65 136.401 130.874C136.162 131.416 131.704 158.692 131.704 158.692C126.43 160.796 120.209 159.039 120.209 159.039C120.209 159.039 122.377 137.758 122.536 134.207C122.536 133.827 122.558 133.443 122.601 133.058C122.682 131.529 123.181 130.051 124.044 128.786C124.906 127.521 126.099 126.518 127.492 125.884Z" fill="#653200"/>
<path d="M159.882 132.226C159.882 132.226 150.959 124.221 144.305 123.795C137.651 123.368 128.186 130.201 128.93 134.171C129.674 138.141 142.405 146.674 142.405 146.674" fill="#653200"/>
<path d="M141.61 117.938L148.719 112.956C149.005 112.757 149.212 112.464 149.304 112.129C149.396 111.793 149.368 111.436 149.225 111.119L144.168 100.027C144.078 99.8323 143.948 99.6593 143.787 99.5188C143.625 99.3783 143.436 99.2736 143.231 99.2114C143.027 99.1493 142.811 99.1312 142.599 99.1583C142.387 99.1853 142.183 99.257 142 99.3685L134.053 104.271C133.731 104.468 133.496 104.78 133.396 105.144C133.295 105.508 133.336 105.896 133.511 106.231L139.443 117.41C139.544 117.593 139.683 117.754 139.849 117.881C140.016 118.008 140.207 118.1 140.411 118.149C140.614 118.199 140.826 118.206 141.032 118.169C141.239 118.133 141.436 118.054 141.61 117.938Z" fill="#1784AA"/>
<path d="M142.26 117.554L149.37 112.572C149.655 112.373 149.862 112.081 149.954 111.745C150.047 111.41 150.019 111.053 149.876 110.736L144.818 99.6431C144.728 99.4489 144.598 99.2759 144.437 99.1354C144.276 98.9949 144.086 98.8902 143.882 98.828C143.677 98.7659 143.461 98.7478 143.249 98.7748C143.037 98.8019 142.833 98.8736 142.651 98.9851L134.703 103.888C134.381 104.085 134.147 104.397 134.046 104.761C133.946 105.124 133.987 105.513 134.161 105.847L140.035 117.019C140.135 117.212 140.276 117.381 140.447 117.514C140.618 117.648 140.815 117.743 141.026 117.794C141.237 117.845 141.456 117.849 141.669 117.808C141.882 117.767 142.084 117.68 142.26 117.554Z" fill="#29ABE2"/>
<path d="M141.075 116.875L149.081 111.271L143.828 99.7155L134.934 105.204L141.075 116.875Z" fill="#E4F5FD"/>
<path d="M144.781 104.618C147.426 106.064 151.573 107.691 154.355 109.593C154.802 109.897 155.467 110.945 155.026 110.793C155.214 111.003 153.394 111.719 153.581 111.95C153.639 112.03 152.404 111.357 152.339 111.386C151.29 111.937 150.076 112.081 148.929 111.791L148.466 111.459L148.351 111.394C148.33 111.362 148.303 111.335 148.271 111.314L148.199 111.263C148.187 111.197 148.151 111.138 148.098 111.097C147.484 110.62 146.14 110.374 145.995 109.564C146.02 109.351 146.086 109.144 146.19 108.957C146.223 108.908 146.235 108.849 146.226 108.791C146.217 108.734 146.186 108.682 146.14 108.646C146.089 108.405 146.087 108.157 146.134 107.916C146.182 107.675 146.277 107.446 146.414 107.243L146.45 107.2L146.291 107.019C145.568 106.518 144.882 105.965 144.24 105.363C144.169 105.299 144.123 105.212 144.109 105.117C144.102 105.076 144.102 105.035 144.109 104.994C144.123 104.922 144.152 104.853 144.194 104.793C144.237 104.733 144.293 104.683 144.357 104.647C144.421 104.611 144.492 104.59 144.566 104.585C144.639 104.58 144.713 104.591 144.781 104.618Z" fill="#E85454"/>
<path d="M146.053 108.002C145.992 108.065 145.945 108.139 145.913 108.221C145.882 108.302 145.868 108.389 145.871 108.476C145.874 108.564 145.896 108.649 145.933 108.728C145.971 108.807 146.024 108.877 146.089 108.935C146.087 108.949 146.087 108.964 146.089 108.978C145.994 109.137 145.944 109.318 145.944 109.503C145.944 109.687 145.994 109.869 146.089 110.027C146.432 110.394 146.858 110.671 147.332 110.837C147.481 110.915 147.642 110.966 147.809 110.989C148.531 112.138 150.699 112.363 151.761 111.582C151.898 111.48 151.718 111.292 151.58 111.394C150.699 112.052 148.734 111.849 148.062 110.887L148.112 110.83C148.17 110.68 148.189 110.518 148.169 110.359C148.149 110.2 148.09 110.049 147.997 109.918C148.111 109.832 148.213 109.729 148.3 109.615C148.308 109.589 148.308 109.561 148.3 109.535L149.333 110.063C149.485 110.143 149.622 109.918 149.471 109.839L147.838 109C147.419 108.776 145.959 108.226 146.393 107.554C146.826 106.881 149.08 108.472 149.601 108.819C149.738 108.913 149.875 108.689 149.738 108.595C148.905 108.018 148.02 107.522 147.094 107.113C146.638 106.918 146.371 106.939 146.147 107.445C146.062 107.618 146.029 107.811 146.053 108.002ZM146.284 109.123L146.494 109.282L147.137 109.68C147.293 109.809 147.468 109.912 147.657 109.984C147.78 110.179 147.982 110.62 147.657 110.707C147.484 110.75 147.072 110.461 146.935 110.36C146.664 110.242 146.43 110.055 146.255 109.817C146.208 109.707 146.185 109.587 146.19 109.467C146.195 109.347 146.227 109.229 146.284 109.123ZM146.169 108.277C146.269 108.415 146.397 108.531 146.544 108.617C147.029 108.913 147.542 109.181 148.055 109.434C147.708 109.832 147.411 109.55 147.05 109.325C146.689 109.101 145.909 108.733 146.176 108.277H146.169Z" fill="#653200"/>
<path d="M152.693 107.619C152.693 107.619 150.908 108.017 150.771 111.733L152.108 115.031L159.383 111.292C159.383 111.292 157.649 109.116 152.693 107.619Z" fill="#F1CA50"/>
<path d="M135.454 109.354C135.996 110.54 136.531 111.611 136.993 112.825C137.325 112.023 137.636 111.379 138.034 110.591C138.051 110.565 138.07 110.541 138.091 110.519C138.167 110.401 138.279 110.312 138.411 110.266C138.542 110.219 138.685 110.218 138.818 110.261C138.95 110.305 139.064 110.392 139.142 110.508C139.22 110.624 139.257 110.763 139.247 110.902C139.121 111.636 138.832 112.333 138.402 112.941C138.464 112.973 138.52 113.014 138.568 113.064C139.616 114.221 139.363 115.956 139.24 117.403C139.234 117.496 139.205 117.587 139.154 117.665C139.104 117.744 139.034 117.809 138.951 117.853C138.869 117.897 138.776 117.92 138.683 117.918C138.589 117.916 138.497 117.891 138.416 117.844C138.318 117.845 138.221 117.82 138.135 117.771C137.195 117.131 136.522 116.169 136.242 115.067C135.606 113.259 134.84 111.263 135.454 109.354Z" fill="#E85454"/>
<path d="M162.606 109.26L159.976 108.487C159.326 108.581 153.632 110.88 151.27 114.893C150.984 116.116 150.79 117.358 150.692 118.61C150.475 120.281 150.302 121.958 150.215 123.672C150.105 125.501 150.134 127.336 150.302 129.16C150.381 129.941 150.432 130.332 150.569 131.105C150.876 131.368 151.225 131.576 151.602 131.72C159.492 134.432 165.279 130.035 165.518 129.406C165.756 128.777 166.132 119.767 166.32 114.409C166.362 113.259 166.02 112.129 165.347 111.196C164.674 110.263 163.71 109.582 162.606 109.26Z" fill="#F1CA50"/>
<path d="M155.648 99.983C155.648 99.983 153.892 108.805 157.158 109.723C160.424 110.642 164.304 106.997 164.585 105.182C164.867 103.367 160.25 97.0399 155.648 99.983Z" fill="#E85454"/>
<path d="M156.919 103.512C156.818 103.367 154.933 102.875 154.535 101.299C154.138 99.7226 155.576 97.6835 158.87 97.3653C162.165 97.0472 167.663 98.8115 166.818 107.402C165.972 115.992 157.266 112.283 156.703 109.571C156.394 107.556 156.467 105.5 156.919 103.512Z" fill="#653200"/>
<path d="M156.92 103.512C156.92 103.512 156.371 106.404 155.171 107.691C153.972 108.978 153.004 111.242 154.449 112.984C155.894 114.727 154.449 115.674 152.375 117.323C150.302 118.972 151.58 125.783 159.066 124.12C166.551 122.457 170.084 117.981 170.084 117.981C170.084 117.981 168.183 104.661 166.175 101.545" fill="#653200"/>
<path d="M151.255 115.023C151.255 115.023 149.557 120.649 147.867 120.808C146.176 120.967 143.604 118.494 141.798 115.262C141.798 115.262 137.094 114.821 136.596 119.774C136.596 119.774 142.564 131.749 151.255 128.828" fill="#F1CA50"/>
<path d="M182.496 157.904C187.842 151.302 190.299 142.856 190.191 134.403C190.128 127.541 187.42 120.969 182.633 116.057C178.219 111.581 171.572 109.369 165.662 112.442C160.763 114.958 158.386 119.796 156.681 124.735C154.615 130.643 153.943 138.242 146.667 140.093C143.835 140.817 140.887 140.318 137.947 140.093C132.889 139.754 127.507 141.388 125.924 146.746C123.092 156.349 136.133 164.549 143.467 167.644C156.226 173.038 171.644 169.625 181.037 159.596C181.533 159.056 182.019 158.492 182.496 157.904Z" fill="#8CA2EF"/>
<path d="M126.148 146.884C131.336 156.168 148.22 160.362 157.432 159.9C165.792 159.473 171.073 154.426 170.502 146.045C170.192 141.446 168.711 136.854 169.13 132.226C169.852 124.337 177.402 117.858 185.126 119.399C188.423 123.91 190.23 129.341 190.292 134.931C190.4 143.384 187.951 151.83 182.597 158.432C182.115 159.02 181.617 159.593 181.101 160.153C171.709 170.182 156.313 173.595 143.531 168.201C136.198 165.099 123.157 156.906 125.989 147.303C126.047 147.151 126.105 147.021 126.148 146.884Z" fill="#5166AF"/>
<path d="M31.79 107.735V137.765C31.7904 138.068 31.8702 138.365 32.0216 138.628C32.1729 138.89 32.3905 139.108 32.6525 139.259C32.9144 139.411 33.2116 139.491 33.5142 139.491C33.8168 139.492 34.1142 139.413 34.3766 139.262L74.6993 116.846V84.4868L31.79 107.735Z" fill="#F1CA50"/>
<path d="M31.79 107.735C31.79 107.735 55.2496 111.596 57.8506 110.808C60.4516 110.02 74.6993 84.4868 74.6993 84.4868L31.79 107.735Z" fill="#F1CA50"/>
<path opacity="0.82" d="M31.79 107.735C31.79 107.735 55.2496 111.596 57.8506 110.808C60.4516 110.02 74.6993 84.4868 74.6993 84.4868L31.79 107.735Z" fill="#124577"/>
<path d="M195.769 81.8402L198.875 97.6762L209.193 88.4349L195.769 81.8402Z" fill="#033E93"/>
<path d="M179.122 36.7475L185.408 43.4145L187.568 35.8436L179.122 36.7475Z" fill="#033E93"/>
<path d="M98.7149 48.8667L94.1125 40.9415L90.2905 47.8182L98.7149 48.8667Z" fill="#033E93"/>
<path d="M25.1069 56.8643L31.3855 63.5313L33.553 55.9677L25.1069 56.8643Z" fill="#033E93"/>
<g style="mix-blend-mode:multiply" opacity="0.63">
<path d="M260.945 149.819C267.448 145.972 274.579 143.022 280.734 138.618C274.08 134.28 267.411 130.028 260.504 126.253L242.897 139.674L260.237 150.123L260.945 149.819Z" fill="url(#paint2_linear_25_28754)"/>
</g>
<path d="M251.04 142.154C258.701 142.154 264.912 136.375 264.912 129.247C264.912 122.118 258.701 116.339 251.04 116.339C243.379 116.339 237.168 122.118 237.168 129.247C237.168 136.375 243.379 142.154 251.04 142.154Z" fill="#F1CA50"/>
<path d="M251.033 127.251C256.771 127.251 261.422 124.733 261.422 121.626C261.422 118.519 256.771 116 251.033 116C245.295 116 240.643 118.519 240.643 121.626C240.643 124.733 245.295 127.251 251.033 127.251Z" fill="#1D3F75"/>
<path d="M250.498 76.3013V120.411C250.498 120.647 250.591 120.873 250.758 121.04C250.925 121.206 251.151 121.3 251.386 121.3C251.622 121.3 251.848 121.206 252.015 121.04C252.181 120.873 252.275 120.647 252.275 120.411V76.3013C252.275 76.0654 252.181 75.8392 252.015 75.6724C251.848 75.5056 251.622 75.4119 251.386 75.4119C251.151 75.4119 250.925 75.5056 250.758 75.6724C250.591 75.8392 250.498 76.0654 250.498 76.3013Z" fill="#1C7377"/>
<path d="M254.667 74.6599C254.938 74.1461 255.102 73.5822 255.148 73.0027C255.194 72.4233 255.121 71.8405 254.934 71.2903C254.53 70.0754 253.937 68.904 253.489 67.7181C253.041 66.5322 252.586 65.4837 252.044 64.3918C251.524 64.6522 247.803 70.2562 247.651 72.6135C247.5 74.9709 250.592 76.9522 250.592 76.9522L251.524 77.5451C251.69 77.6536 253.309 76.3158 253.489 76.1568C253.974 75.7378 254.374 75.2297 254.667 74.6599Z" fill="#1C7377"/>
<path d="M251.899 87.5023C255.83 87.1191 258.539 83.8072 260.389 80.3725C256.22 80.5894 252.391 83.2215 251.899 87.5023Z" fill="#1C7377"/>
<path d="M251.589 87.3577C250.397 83.5903 246.597 81.6234 242.854 80.5316C243.938 84.5592 247.305 87.7626 251.589 87.3577Z" fill="#1C7377"/>
<path d="M251.372 98.3342C256.372 97.8497 259.825 93.634 262.21 89.2665C256.878 89.534 252.001 92.8748 251.372 98.3342Z" fill="#1C7377"/>
<path d="M250.989 98.1536C249.472 93.3595 244.638 90.8575 239.877 89.4764C241.242 94.5887 245.527 98.667 250.989 98.1536Z" fill="#1C7377"/>
<path d="M251.755 111.032C257.448 110.475 261.386 105.674 264.037 100.699C258.033 101.01 252.47 104.821 251.755 111.032Z" fill="#1C7377"/>
<path d="M251.314 110.822C249.588 105.363 244.089 102.507 238.649 100.916C240.21 106.766 245.094 111.415 251.314 110.822Z" fill="#1C7377"/>
<defs>
<linearGradient id="paint0_linear_25_28754" x1="161.741" y1="150.543" x2="184.786" y2="180.526" gradientUnits="userSpaceOnUse">
<stop stop-color="#B9D8EA"/>
<stop offset="1" stop-color="#B9D8EA" stop-opacity="0"/>
</linearGradient>
<linearGradient id="paint1_linear_25_28754" x1="48.4398" y1="118.872" x2="67.3749" y2="147.218" gradientUnits="userSpaceOnUse">
<stop stop-color="#B5D3E5"/>
<stop offset="1" stop-color="#B5D3E5" stop-opacity="0"/>
</linearGradient>
<linearGradient id="paint2_linear_25_28754" x1="244.664" y1="127.509" x2="265.225" y2="145.567" gradientUnits="userSpaceOnUse">
<stop stop-color="#B5D3E5"/>
<stop offset="1" stop-color="#B5D3E5" stop-opacity="0"/>
</linearGradient>
</defs>
</svg>
