<svg width="40" height="40" viewBox="0 0 40 40" fill="none" xmlns="http://www.w3.org/2000/svg">
<circle opacity="0.3" cx="20" cy="20" r="20" fill="white"/>
<circle cx="20" cy="20" r="18" fill="white"/>
<path fill-rule="evenodd" clip-rule="evenodd" d="M17.026 27.1159C23.0636 27.1159 26.3673 21.7403 26.3673 17.0864C26.3673 16.9352 26.3673 16.7839 26.3609 16.6327C27.0012 16.1378 27.5582 15.5122 28 14.8042C27.411 15.086 26.7771 15.2716 26.1112 15.361C26.7899 14.9279 27.3085 14.2336 27.5582 13.4087C26.9244 13.8143 26.2201 14.103 25.471 14.2611C24.8691 13.5737 24.0176 13.1475 23.0764 13.1475C21.2645 13.1475 19.7919 14.7285 19.7919 16.6739C19.7919 16.9489 19.8239 17.217 19.8752 17.4782C17.1477 17.3339 14.7275 15.9247 13.1076 13.7936C12.8259 14.3161 12.6659 14.921 12.6659 15.5672C12.6659 16.7908 13.2485 17.8701 14.1257 18.5025C13.5878 18.4819 13.082 18.3238 12.6403 18.0625C12.6403 18.0763 12.6403 18.09 12.6403 18.1107C12.6403 19.8155 13.7735 21.2453 15.2717 21.5684C14.9964 21.6509 14.7083 21.6921 14.4074 21.6921C14.1961 21.6921 13.9912 21.6715 13.7927 21.6303C14.2089 23.0326 15.4254 24.05 16.8595 24.0775C15.7327 25.0261 14.3177 25.5898 12.7811 25.5898C12.5186 25.5898 12.2561 25.5761 12 25.5417C13.447 26.5316 15.1757 27.1159 17.026 27.1159Z" fill="#0074D9"/>
</svg>
