<svg width="40" height="40" viewBox="0 0 40 40" fill="none" xmlns="http://www.w3.org/2000/svg">
<circle opacity="0.3" cx="20" cy="20" r="20" fill="white"/>
<circle cx="20" cy="20" r="18" fill="white"/>
<path fill-rule="evenodd" clip-rule="evenodd" d="M17.026 27.1158C23.0636 27.1158 26.3673 21.7401 26.3673 17.0863C26.3673 16.935 26.3673 16.7838 26.3609 16.6326C27.0012 16.1376 27.5582 15.5121 28 14.804C27.411 15.0859 26.7771 15.2715 26.1112 15.3608C26.7899 14.9278 27.3085 14.2335 27.5582 13.4086C26.9244 13.8141 26.2201 14.1029 25.471 14.261C24.8691 13.5735 24.0176 13.1473 23.0764 13.1473C21.2645 13.1473 19.7919 14.7284 19.7919 16.6738C19.7919 16.9488 19.8239 17.2169 19.8752 17.4781C17.1477 17.3337 14.7275 15.9245 13.1076 13.7935C12.8259 14.316 12.6659 14.9209 12.6659 15.5671C12.6659 16.7907 13.2485 17.8699 14.1257 18.5024C13.5878 18.4817 13.082 18.3236 12.6403 18.0624C12.6403 18.0762 12.6403 18.0899 12.6403 18.1105C12.6403 19.8153 13.7735 21.2452 15.2717 21.5683C14.9964 21.6508 14.7083 21.692 14.4074 21.692C14.1961 21.692 13.9912 21.6714 13.7927 21.6301C14.2089 23.0325 15.4254 24.0499 16.8595 24.0774C15.7327 25.026 14.3177 25.5897 12.7811 25.5897C12.5186 25.5897 12.2561 25.576 12 25.5416C13.447 26.5315 15.1757 27.1158 17.026 27.1158Z" fill="#003366"/>
</svg>
