<svg xmlns="http://www.w3.org/2000/svg" viewBox="0 0 404.29 404.29"><defs><style>.cls-1{fill:#fff;}.cls-2{fill:#429fd9;}.cls-3{fill:#343434;}</style></defs><g id="Layer_2" data-name="Layer 2"><g id="Layer_1-2" data-name="Layer 1"><circle class="cls-1" cx="202.14" cy="202.14" r="202.14"/><path class="cls-2" d="M228.16,151A17,17,0,1,1,211.23,134,17.27,17.27,0,0,1,228.16,151Z"/><path class="cls-2" d="M262.29,202a17,17,0,1,1-17-16.85A17.19,17.19,0,0,1,262.29,202Z"/><path class="cls-2" d="M176.88,116.86a17,17,0,1,1,17.18-16.67A17.17,17.17,0,0,1,176.88,116.86Z"/><path class="cls-3" d="M287.57,151.06A17,17,0,0,1,270.78,168a17,17,0,1,1,.07-34A16.93,16.93,0,0,1,287.57,151.06Z"/><path class="cls-3" d="M321.68,202.06A16.82,16.82,0,0,1,305,219.18a17,17,0,1,1-.17-34.07A16.84,16.84,0,0,1,321.68,202.06Z"/><path class="cls-2" d="M168.82,201.94a16.84,16.84,0,0,1,16.93-16.81,17,17,0,1,1-.41,34A16.79,16.79,0,0,1,168.82,201.94Z"/><path class="cls-3" d="M236.93,287.44a17,17,0,1,1-.49,34,17,17,0,0,1,.49-34Z"/><path class="cls-2" d="M194.15,304.15a16.92,16.92,0,0,1-16.48,17.27,17,17,0,1,1-.53-34A16.89,16.89,0,0,1,194.15,304.15Z"/><path class="cls-2" d="M100.61,99.63a16.74,16.74,0,0,1,16.94-16.76,17,17,0,1,1-.49,34A16.7,16.7,0,0,1,100.61,99.63Z"/><path class="cls-2" d="M228.19,253a17,17,0,0,1-16.54,17.24,17,17,0,1,1-.47-34A17,17,0,0,1,228.19,253Z"/><path class="cls-2" d="M134.7,150.65A16.71,16.71,0,0,1,151.75,134a17,17,0,1,1-.7,34C141.68,167.77,134.6,160.24,134.7,150.65Z"/><path class="cls-3" d="M253.47,99.9a16.86,16.86,0,0,1-16.78,17,17,17,0,1,1,.06-34A16.86,16.86,0,0,1,253.47,99.9Z"/><path class="cls-2" d="M100.75,304.16a16.86,16.86,0,0,1,17-16.72,17,17,0,1,1-.51,34A16.93,16.93,0,0,1,100.75,304.16Z"/><path class="cls-2" d="M134.74,253.37a17,17,0,0,1,16.68-17.1,17,17,0,1,1-16.68,17.1Z"/><path class="cls-3" d="M253.93,253.19a16.9,16.9,0,1,1,16.69,17.1A16.94,16.94,0,0,1,253.93,253.19Z"/></g></g></svg>