<svg xmlns="http://www.w3.org/2000/svg" viewBox="0 0 887.71 190.66"><defs><style>.cls-1{fill:#43abe1;}.cls-2{fill:#fff;}.cls-3{fill:#429fd9;}</style></defs><g id="Layer_2" data-name="Layer 2"><g id="Layer_1-2" data-name="Layer 1"><path class="cls-1" d="M273.26,66.56c0-20.67-30.08-14.12-30.08-25.88,0-4.79,3.44-7.06,8.06-6.9,5.05.09,8.15,3.11,8.41,7h12.94c-.76-10.59-9-16.72-21-16.72s-20.67,6.38-20.67,17c-.09,21.26,30.17,13.62,30.17,26.3,0,4.21-3.28,7.15-8.83,7.15s-8.57-3.11-8.91-7.82h-12.6c.17,11.1,9.58,17.48,21.76,17.48C265.87,84.12,273.26,75.8,273.26,66.56Zm10.2,17h11.77V45.38L311,83.53h8.91l15.72-38.15V83.53h11.76V24.88H334.13L315.48,68.49,296.82,24.88H283.46Zm115.42,0h12.43L390.22,24.79h-13.7L355.43,83.53h12.35l3.87-11.17H395ZM391.82,63h-17l8.49-24.54Zm58.47-19.84c0,5.3-2.94,8.74-9.49,8.74H431V34.62h9.84C447.35,34.62,450.29,37.9,450.29,43.11ZM419.2,24.88V83.53H431V60.68h5.55l12.94,22.85h13.62L449,59.75c9.41-2.52,13.36-9.75,13.36-16.89,0-9.83-7.06-18-21.17-18Zm50.72,9.49h15.64V83.53h11.76V34.37H513V24.88h-43Z"/><path class="cls-2" d="M521.54,83.53H533.3V58.74H552V49.42H533.3V34.37h24.45V24.88H521.54ZM565.93,61.1c0,15.46,10.59,23,23.44,23s24-7.56,24-23V24.88H601.48v36.3c0,8.07-4.37,12.27-11.93,12.27s-11.85-4.2-11.85-12.27V24.88H565.93ZM663.1,24.79V65.13L636.46,24.79H624.69V83.53h11.77V43.28L663.1,83.53h11.76V24.79Zm43.9.09H686.49V83.53H707c18.73,0,30.92-11.51,30.92-29.24S725.73,24.88,707,24.88Zm-8.75,48.65V34.79h8.33c12.35,0,19.32,7.31,19.32,19.5s-7,19.24-19.32,19.24Zm48.48,10h11.76V24.88H746.73Zm61.79-58.74V65.13L781.88,24.79H770.11V83.53h11.77V43.28l26.64,40.25h11.76V24.79ZM859,24.12c-17,0-29.91,12.44-29.91,30S842,84,859.06,84a28.66,28.66,0,0,0,28.65-22.86V50.93H855.94v9h20.17c-1.76,8.32-7.56,13.53-16.63,13.53-10.93,0-18.32-7.4-18.32-19.33C841.16,42.44,848.47,35,859,35c6.22,0,11.09,2.61,13.79,7.56h13.52C882.5,30.76,872.08,24.12,859,24.12Z"/><path class="cls-2" d="M249.44,124.9a31.69,31.69,0,0,1,14.77,3.27,22.56,22.56,0,0,1,9.82,9.29,27.42,27.42,0,0,1,3.5,14.08,27,27,0,0,1-3.5,14,22.79,22.79,0,0,1-9.82,9.13,32.82,32.82,0,0,1-14.77,3.13H232.16V124.9Zm0,45.83q9.29,0,14.24-5t4.95-14.16q0-9.21-4.95-14.39T249.44,132h-8.6v38.75Zm41.11-40.43a5.56,5.56,0,1,1,0-11.11,5.26,5.26,0,0,1,3.88,1.6,5.69,5.69,0,0,1,0,7.91A5.26,5.26,0,0,1,290.55,130.3Zm4.26,5.56v41.95h-8.68V135.86ZM314.89,142a13.39,13.39,0,0,1,5-4.95,14.91,14.91,0,0,1,7.54-1.83v9h-2.21q-5.1,0-7.77,2.59c-1.72,1.72-2.58,4.72-2.58,9v22.08h-8.68V135.86h8.68Zm59,13.86a26.28,26.28,0,0,1-.31,4.26H341.51a11.68,11.68,0,0,0,3.73,8.07,11.8,11.8,0,0,0,8.23,3q7,0,9.89-5.86h9.37a19,19,0,0,1-6.93,9.52,20.23,20.23,0,0,1-12.33,3.65,21.92,21.92,0,0,1-10.81-2.66,19.86,19.86,0,0,1-7.46-7.62,25.94,25.94,0,0,1-.08-22.76,18.79,18.79,0,0,1,7.38-7.61,22.17,22.17,0,0,1,11-2.67,21.45,21.45,0,0,1,10.58,2.59,18.3,18.3,0,0,1,7.23,7.31A21.77,21.77,0,0,1,373.87,155.81Zm-9.06-2.75a9.83,9.83,0,0,0-3.43-7.68,12.24,12.24,0,0,0-8.3-2.9,11,11,0,0,0-7.68,2.9,11.74,11.74,0,0,0-3.81,7.68Zm14.7,3.73a23.9,23.9,0,0,1,2.59-11.34,19,19,0,0,1,7.31-7.61,21,21,0,0,1,10.66-2.67q7.6,0,12.56,3.66a17.56,17.56,0,0,1,6.78,10.28H410a10,10,0,0,0-3.65-4.88,10.86,10.86,0,0,0-6.32-1.75,10.58,10.58,0,0,0-8.53,3.81q-3.12,3.74-3.12,10.5t3.12,10.59a10.6,10.6,0,0,0,8.53,3.8q7.53,0,10-6.62h9.37a19,19,0,0,1-6.86,10.2,20.34,20.34,0,0,1-12.48,3.73,21.11,21.11,0,0,1-10.66-2.66,19.63,19.63,0,0,1-7.31-7.62A24.34,24.34,0,0,1,379.51,156.79Zm58.67-13.85v23.22a4.69,4.69,0,0,0,1.07,3.42,5.75,5.75,0,0,0,3.8,1h5.33v7.24h-6.85c-3.91,0-6.9-.92-9-2.75s-3.12-4.79-3.12-8.9V142.94h-4.94v-7.08h4.94V125.43h8.76v10.43h10.2v7.08Z"/><path class="cls-3" d="M102,54.41A13.59,13.59,0,1,1,88.42,40.88,13.8,13.8,0,0,1,102,54.41Z"/><path class="cls-3" d="M129.23,95.21a13.59,13.59,0,1,1-13.6-13.47A13.74,13.74,0,0,1,129.23,95.21Z"/><path class="cls-3" d="M61,27.17A13.73,13.73,0,0,1,47.54,13.53a13.58,13.58,0,1,1,27.15.32A13.75,13.75,0,0,1,61,27.17Z"/><path class="cls-2" d="M149.43,54.5A13.57,13.57,0,0,1,136,68.05a13.6,13.6,0,1,1,.05-27.19A13.55,13.55,0,0,1,149.43,54.5Z"/><path class="cls-2" d="M176.69,95.26a13.44,13.44,0,0,1-13.3,13.68,13.61,13.61,0,1,1-.14-27.22A13.46,13.46,0,0,1,176.69,95.26Z"/><path class="cls-3" d="M54.52,95.17A13.46,13.46,0,0,1,68.05,81.73a13.59,13.59,0,1,1-.33,27.18A13.41,13.41,0,0,1,54.52,95.17Z"/><path class="cls-2" d="M109,163.5a13.57,13.57,0,1,1-.4,27.14,13.57,13.57,0,0,1,.4-27.14Z"/><path class="cls-3" d="M74.77,176.85a13.54,13.54,0,0,1-13.18,13.81,13.58,13.58,0,1,1-.42-27.16A13.5,13.5,0,0,1,74.77,176.85Z"/><path class="cls-3" d="M0,13.4A13.39,13.39,0,0,1,13.54,0,13.77,13.77,0,0,1,27.06,13.59,13.75,13.75,0,0,1,13.15,27.16,13.35,13.35,0,0,1,0,13.4Z"/><path class="cls-3" d="M102,136a13.6,13.6,0,0,1-13.22,13.78,13.59,13.59,0,1,1-.38-27.17A13.56,13.56,0,0,1,102,136Z"/><path class="cls-3" d="M27.25,54.18A13.37,13.37,0,0,1,40.88,40.86,13.59,13.59,0,1,1,40.32,68,13.35,13.35,0,0,1,27.25,54.18Z"/><path class="cls-2" d="M122.17,13.62a13.45,13.45,0,0,1-13.4,13.55A13.73,13.73,0,0,1,95.1,13.37,13.68,13.68,0,0,1,108.81,0,13.47,13.47,0,0,1,122.17,13.62Z"/><path class="cls-3" d="M.12,176.87A13.47,13.47,0,0,1,13.7,163.5a13.58,13.58,0,1,1-.41,27.16A13.53,13.53,0,0,1,.12,176.87Z"/><path class="cls-3" d="M27.28,136.27a13.56,13.56,0,0,1,13.33-13.66,13.59,13.59,0,1,1-13.33,13.66Z"/><path class="cls-2" d="M122.54,136.12a13.51,13.51,0,1,1,13.34,13.67A13.54,13.54,0,0,1,122.54,136.12Z"/></g></g></svg>