<svg xmlns="http://www.w3.org/2000/svg" viewBox="0 0 909.35 153.85"><defs><style>.cls-1{fill:#3dc0f0;}.cls-2{fill:#fff;}.cls-3{fill:#43abe1;}.cls-4{fill:none;}</style></defs><g id="Layer_2" data-name="Layer 2"><g id="Layer_1-2" data-name="Layer 1"><circle class="cls-1" cx="34.18" cy="29.83" r="6.48"/><circle class="cls-1" cx="24.95" cy="45.53" r="6.48"/><circle class="cls-1" cx="15.71" cy="61.23" r="6.48"/><circle class="cls-1" cx="6.48" cy="76.92" r="6.48"/><circle class="cls-1" cx="15.71" cy="92.62" r="6.48"/><circle class="cls-1" cx="24.95" cy="108.32" r="6.48"/><circle class="cls-1" cx="34.18" cy="124.02" r="6.48"/><circle class="cls-1" cx="54.19" cy="29.83" r="6.48"/><circle class="cls-1" cx="44.95" cy="45.53" r="6.48"/><circle class="cls-1" cx="35.72" cy="61.23" r="6.48"/><circle class="cls-1" cx="26.48" cy="76.92" r="6.48"/><circle class="cls-1" cx="35.72" cy="92.62" r="6.48"/><circle class="cls-1" cx="44.95" cy="108.32" r="6.48"/><circle class="cls-1" cx="54.19" cy="124.02" r="6.48"/><circle class="cls-2" cx="93.44" cy="11.67" r="6.73"/><circle class="cls-2" cx="103.03" cy="27.98" r="6.73"/><circle class="cls-2" cx="112.63" cy="44.3" r="6.73"/><circle class="cls-2" cx="122.22" cy="60.61" r="6.73"/><circle class="cls-2" cx="131.82" cy="76.92" r="6.73"/><circle class="cls-2" cx="122.22" cy="93.24" r="6.73"/><circle class="cls-2" cx="112.63" cy="109.55" r="6.73"/><circle class="cls-2" cx="103.03" cy="125.86" r="6.73"/><circle class="cls-2" cx="93.44" cy="142.18" r="6.73"/><circle class="cls-2" cx="72.64" cy="11.67" r="6.73"/><circle class="cls-2" cx="82.24" cy="27.98" r="6.73"/><circle class="cls-2" cx="91.84" cy="44.3" r="6.73"/><circle class="cls-2" cx="101.43" cy="60.61" r="6.73"/><circle class="cls-2" cx="111.03" cy="76.92" r="6.73"/><circle class="cls-2" cx="101.43" cy="93.24" r="6.73"/><circle class="cls-2" cx="91.84" cy="109.55" r="6.73"/><circle class="cls-2" cx="82.24" cy="125.86" r="6.73"/><circle class="cls-2" cx="72.64" cy="142.18" r="6.73"/><path class="cls-3" d="M193.64,68.52a5.94,5.94,0,0,0-2.55-4.44,10,10,0,0,0-5.84-1.58,11,11,0,0,0-4.33.76,6.34,6.34,0,0,0-2.77,2.06,5.06,5.06,0,0,0-1,3,4.44,4.44,0,0,0,.64,2.42,5.56,5.56,0,0,0,1.75,1.73A12.17,12.17,0,0,0,182,73.63a26.46,26.46,0,0,0,2.72.81l4.17,1a28.78,28.78,0,0,1,4.86,1.59,17.61,17.61,0,0,1,4.2,2.52,11.35,11.35,0,0,1,3,3.68,11.11,11.11,0,0,1,1.09,5,12,12,0,0,1-2,6.89,13.07,13.07,0,0,1-5.77,4.63,22.54,22.54,0,0,1-9.12,1.67,23.15,23.15,0,0,1-9-1.61,13.39,13.39,0,0,1-6-4.7,13.9,13.9,0,0,1-2.32-7.53h7.94a6.79,6.79,0,0,0,1.44,3.87,7.63,7.63,0,0,0,3.29,2.31,12.91,12.91,0,0,0,4.56.76,12.39,12.39,0,0,0,4.62-.79,7.32,7.32,0,0,0,3.12-2.22A5.31,5.31,0,0,0,194,88.25a4.31,4.31,0,0,0-1-2.88,7.65,7.65,0,0,0-2.79-1.92,29.41,29.41,0,0,0-4.19-1.38l-5.07-1.3a20.37,20.37,0,0,1-8.69-4.3A9.85,9.85,0,0,1,169,68.8a11.42,11.42,0,0,1,2.14-6.89,14,14,0,0,1,5.84-4.6,20.36,20.36,0,0,1,8.37-1.64,19.64,19.64,0,0,1,8.32,1.64,13.71,13.71,0,0,1,5.63,4.54,11.74,11.74,0,0,1,2.11,6.67Z"/><path class="cls-3" d="M209.19,56.27h9.88l13.22,32.28h.53L246,56.27h9.88v44.55h-7.75V70.22h-.41l-12.31,30.47h-5.79L217.35,70.15h-.41v30.67h-7.75Z"/><path class="cls-3" d="M270.42,100.82h-8.61l15.68-44.55h10l15.71,44.55h-8.61l-11.9-35.41h-.35Zm.29-17.46H294.2v6.48H270.71Z"/><path class="cls-3" d="M309,100.82V56.27h16.71a18.8,18.8,0,0,1,8.62,1.79,12.29,12.29,0,0,1,5.29,5,15.12,15.12,0,0,1,1.79,7.47A14.61,14.61,0,0,1,339.63,78a12.09,12.09,0,0,1-5.35,4.85,19.67,19.67,0,0,1-8.65,1.71h-11.9v-6.7h10.81a12.36,12.36,0,0,0,4.92-.84,5.83,5.83,0,0,0,2.83-2.46,7.9,7.9,0,0,0,.93-4,8.14,8.14,0,0,0-.94-4,6,6,0,0,0-2.85-2.57A11.79,11.79,0,0,0,324.5,63h-7.4v37.8Zm23-20.18,11,20.18h-9L323.24,80.64Z"/><path class="cls-3" d="M346.92,63V56.27h35.54V63H368.7v37.78h-8V63Z"/><path class="cls-2" d="M389.29,100.82V56.27h28.54V63H397.36V75.13h18.51V81.9H397.36v18.92Z"/><path class="cls-2" d="M453.24,56.27h8.07V85.38a15.68,15.68,0,0,1-2.25,8.42,15.25,15.25,0,0,1-6.32,5.66,23.21,23.21,0,0,1-19,0,15.16,15.16,0,0,1-6.31-5.66,15.77,15.77,0,0,1-2.24-8.42V56.27h8.07V84.7a9.89,9.89,0,0,0,1.23,5,8.69,8.69,0,0,0,3.47,3.41,12.08,12.08,0,0,0,10.62,0A8.63,8.63,0,0,0,452,89.66a9.89,9.89,0,0,0,1.22-5Z"/><path class="cls-2" d="M506.71,56.27v44.55h-7.18l-21-30.34h-.37v30.34H470.1V56.27h7.22l21,30.37h.39V56.27Z"/><path class="cls-2" d="M530.57,100.82h-15.1V56.27h15.4a23,23,0,0,1,11.41,2.67,18,18,0,0,1,7.34,7.64,25.79,25.79,0,0,1,2.57,11.92,25.82,25.82,0,0,1-2.58,12,18,18,0,0,1-7.42,7.68A23.7,23.7,0,0,1,530.57,100.82Zm-7-7h6.63a16,16,0,0,0,7.77-1.71A10.84,10.84,0,0,0,542.62,87a20.46,20.46,0,0,0,1.56-8.52A20.31,20.31,0,0,0,542.62,70,10.85,10.85,0,0,0,538,64.94a15.54,15.54,0,0,0-7.58-1.68h-6.87Z"/><path class="cls-2" d="M567.91,56.27v44.55h-8.07V56.27Z"/><path class="cls-2" d="M613.29,56.27v44.55h-7.18l-21-30.34h-.37v30.34h-8.07V56.27h7.22l21,30.37h.39V56.27Z"/><path class="cls-2" d="M651.89,70.5a11.5,11.5,0,0,0-1.49-3.16,10,10,0,0,0-2.26-2.41,9.26,9.26,0,0,0-3-1.51,12.78,12.78,0,0,0-3.7-.51,11.57,11.57,0,0,0-6.39,1.8,12.14,12.14,0,0,0-4.41,5.3A20.42,20.42,0,0,0,629,78.5a20.59,20.59,0,0,0,1.59,8.55,11.48,11.48,0,0,0,11,7.14,12.5,12.5,0,0,0,5.88-1.31,9.16,9.16,0,0,0,3.84-3.71,11.32,11.32,0,0,0,1.35-5.64l1.82.28H642.41V77.5h18.08v5.35a19.33,19.33,0,0,1-2.44,9.9,16.52,16.52,0,0,1-6.7,6.43,22.43,22.43,0,0,1-20.59-.52,18.93,18.93,0,0,1-7.24-7.9,26.61,26.61,0,0,1-2.6-12.17A28.24,28.24,0,0,1,622.45,69a20.87,20.87,0,0,1,4.3-7.21,18.54,18.54,0,0,1,6.48-4.53,20.72,20.72,0,0,1,8.09-1.55,21.41,21.41,0,0,1,6.9,1.07,18.66,18.66,0,0,1,5.69,3.06,17.08,17.08,0,0,1,4.1,4.7,16.7,16.7,0,0,1,2.11,6Z"/><path class="cls-3" d="M698.59,100.82H683.5V56.27h15.4a23.05,23.05,0,0,1,11.41,2.67,18,18,0,0,1,7.34,7.64,25.79,25.79,0,0,1,2.56,11.92,26,26,0,0,1-2.57,12,18,18,0,0,1-7.42,7.68A23.74,23.74,0,0,1,698.59,100.82Zm-7-7h6.63A16,16,0,0,0,706,92.13,10.77,10.77,0,0,0,710.64,87a20.29,20.29,0,0,0,1.57-8.52A20.15,20.15,0,0,0,710.64,70,10.78,10.78,0,0,0,706,64.94a15.56,15.56,0,0,0-7.58-1.68h-6.87Z"/><path class="cls-3" d="M735.94,56.27v44.55h-8.07V56.27Z"/><path class="cls-3" d="M744.71,100.82V56.27h16.7A18.84,18.84,0,0,1,770,58.06a12.32,12.32,0,0,1,5.28,5,15,15,0,0,1,1.8,7.47A14.61,14.61,0,0,1,775.3,78,12,12,0,0,1,770,82.8a19.75,19.75,0,0,1-8.66,1.71H749.4v-6.7h10.81a12.32,12.32,0,0,0,4.92-.84A5.85,5.85,0,0,0,768,74.51a7.9,7.9,0,0,0,.92-4,8.25,8.25,0,0,0-.93-4,6.07,6.07,0,0,0-2.85-2.57,11.84,11.84,0,0,0-4.94-.88h-7.39v37.8Zm23-20.18,11,20.18h-9L758.91,80.64Z"/><path class="cls-3" d="M784.55,100.82V56.27h29V63H792.62V75.13H812V81.9H792.62V94.06H813.7v6.76Z"/><path class="cls-3" d="M859.9,71.3h-8.14a10.28,10.28,0,0,0-1.28-3.55,9.39,9.39,0,0,0-2.33-2.64A9.72,9.72,0,0,0,845,63.46a12.74,12.74,0,0,0-3.82-.55,11.52,11.52,0,0,0-6.44,1.82,12,12,0,0,0-4.39,5.3,20.5,20.5,0,0,0-1.59,8.52,20.54,20.54,0,0,0,1.6,8.6,11.88,11.88,0,0,0,4.39,5.26,11.66,11.66,0,0,0,6.41,1.78,12.69,12.69,0,0,0,3.75-.54,10.28,10.28,0,0,0,3.16-1.57,9.56,9.56,0,0,0,3.7-6l8.14,0A17.65,17.65,0,0,1,854,96.94a17.84,17.84,0,0,1-5.7,3.3,21.06,21.06,0,0,1-7.24,1.19,20.26,20.26,0,0,1-10.48-2.72,19,19,0,0,1-7.27-7.85,26.5,26.5,0,0,1-2.65-12.31,26.34,26.34,0,0,1,2.67-12.32,19.25,19.25,0,0,1,7.29-7.85A20.16,20.16,0,0,1,841,55.67a22.06,22.06,0,0,1,6.92,1,17.8,17.8,0,0,1,5.7,3.06,16.78,16.78,0,0,1,4.12,4.91A18.54,18.54,0,0,1,859.9,71.3Z"/><path class="cls-3" d="M865.36,63V56.27H900.9V63H887.13v37.78h-8V63Z"/><rect class="cls-4" x="4.09" width="905.26" height="152.39"/><path class="cls-2" d="M240.63,129.87a6.17,6.17,0,0,1-1.91,4.62c-1.25,1.21-3.18,1.81-5.77,1.81h-4.26v9.27h-2.9v-22.2H233a8,8,0,0,1,5.7,1.82A6.06,6.06,0,0,1,240.63,129.87Zm-7.68,4a5.14,5.14,0,0,0,3.57-1.06,3.82,3.82,0,0,0,1.15-3q0-4.11-4.72-4.11h-4.26v8.16Zm10.2,2.86a9.74,9.74,0,0,1,1.08-4.68,7.83,7.83,0,0,1,3-3.15,8.2,8.2,0,0,1,4.24-1.12,7.76,7.76,0,0,1,4,1,6.64,6.64,0,0,1,2.51,2.48v-3.18h2.93v17.45h-2.93v-3.25a6.87,6.87,0,0,1-2.58,2.55,7.65,7.65,0,0,1-4,1,7.89,7.89,0,0,1-7.16-4.37A10,10,0,0,1,243.15,136.78Zm14.77,0a7.13,7.13,0,0,0-.79-3.44,5.55,5.55,0,0,0-2.17-2.23,5.68,5.68,0,0,0-3-.79,5.85,5.85,0,0,0-3,.76,5.61,5.61,0,0,0-2.14,2.23,7.1,7.1,0,0,0-.79,3.44,7.32,7.32,0,0,0,.79,3.5,5.76,5.76,0,0,0,2.14,2.26,6.07,6.07,0,0,0,5.92,0,5.69,5.69,0,0,0,2.17-2.26A7.25,7.25,0,0,0,257.92,136.81ZM268.65,131a5.63,5.63,0,0,1,2.16-2.32,6.88,6.88,0,0,1,3.47-.83v3h-.76c-3.25,0-4.87,1.77-4.87,5.29v9.49h-2.9V128.12h2.9Zm12.51-.44v10.28a2.52,2.52,0,0,0,.54,1.82,2.73,2.73,0,0,0,1.88.51h2.14v2.45h-2.61a5.19,5.19,0,0,1-3.63-1.11,4.8,4.8,0,0,1-1.21-3.67V130.51H276v-2.39h2.27v-4.39h2.89v4.39h4.56v2.39Zm24.17,15.35a9.06,9.06,0,0,1-4.46-1.12,8,8,0,0,1-3.12-3.15,10,10,0,0,1-1.12-4.78,9.5,9.5,0,0,1,1.15-4.71A8,8,0,0,1,301,129a9.56,9.56,0,0,1,9,0,7.88,7.88,0,0,1,3.15,3.12,10.08,10.08,0,0,1,0,9.52,8.19,8.19,0,0,1-3.22,3.15A9.32,9.32,0,0,1,305.33,145.86Zm0-2.55a6.24,6.24,0,0,0,2.93-.73,5.46,5.46,0,0,0,2.19-2.2,6.89,6.89,0,0,0,.86-3.57,7.13,7.13,0,0,0-.82-3.56,5.39,5.39,0,0,0-2.17-2.17,5.92,5.92,0,0,0-2.9-.73,6,6,0,0,0-2.93.73,5.18,5.18,0,0,0-2.1,2.17,7.35,7.35,0,0,0-.79,3.56,7.7,7.7,0,0,0,.76,3.6,5.38,5.38,0,0,0,2.1,2.2A6,6,0,0,0,305.33,143.31Zm19.86-12.8h-3.67v15.06h-2.89V130.51h-2.26v-2.39h2.26v-1.24a5.48,5.48,0,0,1,1.49-4.27q1.53-1.36,4.88-1.37v2.42a3.85,3.85,0,0,0-2.71.77,3.27,3.27,0,0,0-.77,2.45v1.24h3.67Zm25,10.12h-9.68l-1.78,4.94h-3.06l8-22.07H347l8,22.07H352Zm-.82-2.35-4-11.21-4,11.21Zm16.2,7.51a9.77,9.77,0,0,1-3.95-.76,6.69,6.69,0,0,1-2.71-2.17,5.65,5.65,0,0,1-1-3.21H361a4.14,4.14,0,0,0,1.28,2.64,4.71,4.71,0,0,0,3.31,1.05,4.81,4.81,0,0,0,3.25-1,3.4,3.4,0,0,0,1.21-2.67,3,3,0,0,0-.7-2.07,4.41,4.41,0,0,0-1.76-1.21,24.44,24.44,0,0,0-2.83-.89,27.2,27.2,0,0,1-3.53-1.15,5.88,5.88,0,0,1-2.27-1.78,5.49,5.49,0,0,1-.92-3.32,5.72,5.72,0,0,1,.92-3.21,6.05,6.05,0,0,1,2.58-2.17,9.27,9.27,0,0,1,3.86-.76,8,8,0,0,1,5.09,1.56,5.74,5.74,0,0,1,2.26,4.14h-3.18a3.39,3.39,0,0,0-1.34-2.23,4.69,4.69,0,0,0-3.12-1,4.45,4.45,0,0,0-3,1,3.16,3.16,0,0,0-1.15,2.61,2.9,2.9,0,0,0,.67,2,4.69,4.69,0,0,0,1.69,1.18c.68.26,1.62.55,2.83.89a25.9,25.9,0,0,1,3.54,1.21,5.71,5.71,0,0,1,2.29,1.82,5.18,5.18,0,0,1,1,3.31,5.9,5.9,0,0,1-.86,3.06,6.4,6.4,0,0,1-2.55,2.32A8.35,8.35,0,0,1,365.55,145.79Zm14.55-20.06v7.42h8.09v2.39H380.1v7.64h9v2.39H377.2V123.34h11.94v2.39Zm26.55,14.9H397l-1.79,4.94h-3.05l8-22.07h3.34l8,22.07h-3.06Zm-.83-2.35-4-11.21-4,11.21Zm26.61,7.29h-2.89L417.88,127.9v17.67H415V123.34h2.9L429.54,141V123.34h2.89Zm26-22.2v2.36h-9.65v7.48h7.83v2.36h-7.83v10h-2.9v-22.2Zm5,1.92a1.94,1.94,0,0,1-1.41-.58,2,2,0,0,1,0-2.8,1.93,1.93,0,0,1,1.41-.57,1.75,1.75,0,0,1,1.33.57,2,2,0,0,1,0,2.8A1.76,1.76,0,0,1,463.41,125.29Zm1.4,2.83v17.45h-2.9V128.12Zm13.44-.32a7.07,7.07,0,0,1,5.16,1.94,7.39,7.39,0,0,1,2,5.54v10.29h-2.87V135.7a5.55,5.55,0,0,0-1.3-4,4.62,4.62,0,0,0-3.57-1.4,4.8,4.8,0,0,0-3.66,1.43,5.92,5.92,0,0,0-1.34,4.17v9.65h-2.9V128.12h2.9v2.48a5.84,5.84,0,0,1,2.33-2.07A7.48,7.48,0,0,1,478.25,127.8Zm15.4,2.71v10.28a2.52,2.52,0,0,0,.54,1.82,2.73,2.73,0,0,0,1.88.51h2.13v2.45h-2.61a5.22,5.22,0,0,1-3.63-1.11,4.8,4.8,0,0,1-1.21-3.67V130.51h-2.26v-2.39h2.26v-4.39h2.9v4.39h4.55v2.39Zm24,5.67c0,.55,0,1.13-.09,1.75H503.59a5.43,5.43,0,0,0,5.67,5.47,5.31,5.31,0,0,0,3.12-.86,4.67,4.67,0,0,0,1.78-2.35h3.12a7.57,7.57,0,0,1-2.8,4.11,8.51,8.51,0,0,1-5.22,1.56,9,9,0,0,1-4.46-1.12,8,8,0,0,1-3.06-3.15,10.89,10.89,0,0,1,0-9.52,7.48,7.48,0,0,1,3-3.12,9,9,0,0,1,4.52-1.12,8.64,8.64,0,0,1,4.39,1.09,7.33,7.33,0,0,1,2.93,3A8.58,8.58,0,0,1,517.63,136.18Zm-3-.61a5.23,5.23,0,0,0-.73-2.83,4.66,4.66,0,0,0-2-1.82,6,6,0,0,0-2.77-.64,5.42,5.42,0,0,0-3.76,1.41,5.78,5.78,0,0,0-1.75,3.88Zm5.74,1.24a9.81,9.81,0,0,1,1.08-4.71,7.77,7.77,0,0,1,3-3.15,8.68,8.68,0,0,1,4.43-1.12,8.56,8.56,0,0,1,5.29,1.56,7.38,7.38,0,0,1,2.77,4.33h-3.12a4.46,4.46,0,0,0-1.76-2.51,5.25,5.25,0,0,0-3.18-.93,5.12,5.12,0,0,0-4,1.72,6.93,6.93,0,0,0-1.53,4.81,7.07,7.07,0,0,0,1.53,4.87,5.09,5.09,0,0,0,4,1.72,5.37,5.37,0,0,0,3.18-.89,4.52,4.52,0,0,0,1.76-2.54h3.12a7.71,7.71,0,0,1-2.81,4.29,8.39,8.39,0,0,1-5.25,1.6,8.78,8.78,0,0,1-4.43-1.12,7.77,7.77,0,0,1-3-3.15A10.06,10.06,0,0,1,520.38,136.81Zm29.08-9a7.42,7.42,0,0,1,3.57.86,5.75,5.75,0,0,1,2.48,2.52,8.37,8.37,0,0,1,.93,4.1v10.29h-2.87V135.7a5.55,5.55,0,0,0-1.3-4,4.62,4.62,0,0,0-3.57-1.4,4.8,4.8,0,0,0-3.66,1.43,5.92,5.92,0,0,0-1.34,4.17v9.65h-2.9V122h2.9v8.59a5.73,5.73,0,0,1,2.36-2.07A7.88,7.88,0,0,1,549.46,127.8Zm37,2a6.73,6.73,0,0,0-2.67-3,7.63,7.63,0,0,0-4.08-1.08,8.26,8.26,0,0,0-4.2,1.08,7.53,7.53,0,0,0-2.93,3.06,10.54,10.54,0,0,0,0,9.17,7.78,7.78,0,0,0,2.93,3.06,8.45,8.45,0,0,0,4.2,1.05,7.58,7.58,0,0,0,5.35-1.94,8,8,0,0,0,2.45-5.26h-8.85V133.6h11.94v2.23a11.11,11.11,0,0,1-1.72,5,10.61,10.61,0,0,1-9.17,4.9,11.33,11.33,0,0,1-5.63-1.43,10.93,10.93,0,0,1-4.05-4.05,12.35,12.35,0,0,1,0-11.65,10.64,10.64,0,0,1,4.05-4,11.8,11.8,0,0,1,11.87.29,9.92,9.92,0,0,1,4,4.94ZM597.34,131a5.59,5.59,0,0,1,2.17-2.32,6.83,6.83,0,0,1,3.47-.83v3h-.76c-3.25,0-4.88,1.77-4.88,5.29v9.49h-2.89V128.12h2.89Zm16.59,14.91a9,9,0,0,1-4.45-1.12,8.1,8.1,0,0,1-3.13-3.15,10,10,0,0,1-1.11-4.78,9.39,9.39,0,0,1,1.15-4.71,7.9,7.9,0,0,1,3.18-3.15,9.56,9.56,0,0,1,9,0,7.76,7.76,0,0,1,3.15,3.12,10.08,10.08,0,0,1,0,9.52,8.1,8.1,0,0,1-3.21,3.15A9.33,9.33,0,0,1,613.93,145.86Zm0-2.55a6.18,6.18,0,0,0,2.93-.73,5.42,5.42,0,0,0,2.2-2.2,7.94,7.94,0,0,0,0-7.13,5.31,5.31,0,0,0-2.16-2.17,6.18,6.18,0,0,0-5.83,0,5.18,5.18,0,0,0-2.1,2.17,7.35,7.35,0,0,0-.8,3.56,7.7,7.7,0,0,0,.77,3.6,5.38,5.38,0,0,0,2.1,2.2A5.91,5.91,0,0,0,613.93,143.31Zm28.24-15.19v17.45h-2.9V143a5.76,5.76,0,0,1-2.32,2.1,7.15,7.15,0,0,1-3.25.73A8,8,0,0,1,630,145a6.33,6.33,0,0,1-2.58-2.55,8.43,8.43,0,0,1-.93-4.11V128.12h2.87V138a5.61,5.61,0,0,0,1.3,4,4.71,4.71,0,0,0,3.57,1.37,4.77,4.77,0,0,0,3.66-1.43,5.93,5.93,0,0,0,1.34-4.18v-9.58Zm7.79,3.22a6.78,6.78,0,0,1,2.55-2.49,7.63,7.63,0,0,1,4-1,8,8,0,0,1,4.2,1.12,7.77,7.77,0,0,1,3,3.15,9.63,9.63,0,0,1,1.08,4.68,9.91,9.91,0,0,1-1.08,4.71,8,8,0,0,1-7.19,4.37,7.75,7.75,0,0,1-4-1,7.26,7.26,0,0,1-2.58-2.52v11.5h-2.9V128.12H650Zm11.84,5.44a7.1,7.1,0,0,0-.79-3.44,5.49,5.49,0,0,0-2.17-2.23,5.85,5.85,0,0,0-3-.76,5.74,5.74,0,0,0-5.13,3.06,7,7,0,0,0-.79,3.4,7.25,7.25,0,0,0,.79,3.47,6.05,6.05,0,0,0,2.17,2.26,6,6,0,0,0,3,.77,5.86,5.86,0,0,0,3-.77,5.63,5.63,0,0,0,2.17-2.26A7.32,7.32,0,0,0,661.8,136.78Zm22.88,9.08a9.09,9.09,0,0,1-4.46-1.12,8.14,8.14,0,0,1-3.12-3.15,10,10,0,0,1-1.11-4.78,9.49,9.49,0,0,1,1.14-4.71,8,8,0,0,1,3.19-3.15,9.56,9.56,0,0,1,9,0,7.76,7.76,0,0,1,3.15,3.12,10.08,10.08,0,0,1,0,9.52,8.19,8.19,0,0,1-3.22,3.15A9.29,9.29,0,0,1,684.68,145.86Zm0-2.55a6.21,6.21,0,0,0,2.93-.73,5.54,5.54,0,0,0,2.2-2.2,7,7,0,0,0,.86-3.57,7.13,7.13,0,0,0-.83-3.56,5.27,5.27,0,0,0-2.17-2.17,5.88,5.88,0,0,0-2.89-.73,6,6,0,0,0-2.93.73,5.2,5.2,0,0,0-2.11,2.17,7.35,7.35,0,0,0-.79,3.56,7.7,7.7,0,0,0,.76,3.6,5.38,5.38,0,0,0,2.1,2.2A6,6,0,0,0,684.68,143.31Zm19.86-12.8h-3.66v15.06H698V130.51h-2.26v-2.39H698v-1.24a5.44,5.44,0,0,1,1.5-4.27q1.53-1.36,4.87-1.37v2.42a3.85,3.85,0,0,0-2.71.77,3.27,3.27,0,0,0-.76,2.45v1.24h3.66Zm10.79,4a11.55,11.55,0,0,1,1.46-5.83,10.69,10.69,0,0,1,4-4.08,11.18,11.18,0,0,1,5.64-1.46,11.35,11.35,0,0,1,6.33,1.75,10,10,0,0,1,4,5h-3.47a7,7,0,0,0-2.67-3.09,7.64,7.64,0,0,0-4.14-1.08,8.1,8.1,0,0,0-4.17,1.08,7.47,7.47,0,0,0-2.9,3.09,9.73,9.73,0,0,0-1.05,4.65,9.9,9.9,0,0,0,1.05,4.65,7.55,7.55,0,0,0,2.9,3,8.11,8.11,0,0,0,4.17,1.09,7.82,7.82,0,0,0,4.14-1.06,7,7,0,0,0,2.67-3.08h3.47a10,10,0,0,1-4,4.93,11.5,11.5,0,0,1-6.33,1.72,11.37,11.37,0,0,1-5.64-1.43,10.75,10.75,0,0,1-4-4.05A11.54,11.54,0,0,1,715.33,134.46Zm33.29,11.4a9,9,0,0,1-4.46-1.12,8,8,0,0,1-3.12-3.15,10,10,0,0,1-1.12-4.78,9.39,9.39,0,0,1,1.15-4.71,8,8,0,0,1,3.18-3.15,9.56,9.56,0,0,1,9,0,7.84,7.84,0,0,1,3.16,3.12,9.36,9.36,0,0,1,1.17,4.74,9.26,9.26,0,0,1-1.21,4.78,8.1,8.1,0,0,1-3.21,3.15A9.32,9.32,0,0,1,748.62,145.86Zm0-2.55a6.17,6.17,0,0,0,2.92-.73,5.42,5.42,0,0,0,2.2-2.2,6.89,6.89,0,0,0,.86-3.57,7,7,0,0,0-.83-3.56,5.31,5.31,0,0,0-2.16-2.17,6.18,6.18,0,0,0-5.83,0,5.18,5.18,0,0,0-2.1,2.17,7.35,7.35,0,0,0-.8,3.56,7.7,7.7,0,0,0,.77,3.6,5.38,5.38,0,0,0,2.1,2.2A6,6,0,0,0,748.62,143.31Zm33.74-15.51a7.55,7.55,0,0,1,3.63.86,5.93,5.93,0,0,1,2.51,2.52,8.37,8.37,0,0,1,.93,4.1v10.29h-2.87V135.7a5.55,5.55,0,0,0-1.3-4,4.45,4.45,0,0,0-3.48-1.4,4.64,4.64,0,0,0-3.59,1.46,5.87,5.87,0,0,0-1.34,4.17v9.62H774V135.7a5.55,5.55,0,0,0-1.3-4,4.44,4.44,0,0,0-3.47-1.4,4.65,4.65,0,0,0-3.6,1.46,5.92,5.92,0,0,0-1.34,4.17v9.62h-2.9V128.12h2.9v2.52a5.74,5.74,0,0,1,2.29-2.11,7.22,7.22,0,0,1,3.22-.73,7.52,7.52,0,0,1,3.88,1,6,6,0,0,1,2.52,2.9,5.73,5.73,0,0,1,2.42-2.87A7.14,7.14,0,0,1,782.36,127.8Zm14.72,3.54a6.78,6.78,0,0,1,2.55-2.49,7.63,7.63,0,0,1,4-1,8,8,0,0,1,4.2,1.12,7.77,7.77,0,0,1,3,3.15,9.74,9.74,0,0,1,1.09,4.68,10,10,0,0,1-1.09,4.71,8,8,0,0,1-7.19,4.37,7.75,7.75,0,0,1-4-1,7.26,7.26,0,0,1-2.58-2.52v11.5h-2.9V128.12h2.9Zm11.84,5.44a7.1,7.1,0,0,0-.79-3.44,5.49,5.49,0,0,0-2.17-2.23,5.85,5.85,0,0,0-3-.76,5.74,5.74,0,0,0-5.13,3.06,7,7,0,0,0-.79,3.4,7.25,7.25,0,0,0,.79,3.47,6.05,6.05,0,0,0,2.17,2.26,6,6,0,0,0,3,.77,5.86,5.86,0,0,0,3-.77,5.63,5.63,0,0,0,2.17-2.26A7.32,7.32,0,0,0,808.92,136.78Zm5.7,0a9.74,9.74,0,0,1,1.08-4.68,7.83,7.83,0,0,1,3-3.15,8.22,8.22,0,0,1,4.24-1.12,7.73,7.73,0,0,1,4,1,6.64,6.64,0,0,1,2.51,2.48v-3.18h2.93v17.45h-2.93v-3.25a6.87,6.87,0,0,1-2.58,2.55,7.65,7.65,0,0,1-3.95,1,7.89,7.89,0,0,1-7.16-4.37A10,10,0,0,1,814.62,136.78Zm14.77,0a7.13,7.13,0,0,0-.79-3.44,5.55,5.55,0,0,0-2.17-2.23,5.68,5.68,0,0,0-3-.79,5.85,5.85,0,0,0-3,.76,5.59,5.59,0,0,0-2.13,2.23,7.11,7.11,0,0,0-.8,3.44,7.32,7.32,0,0,0,.8,3.5,5.74,5.74,0,0,0,2.13,2.26,6.07,6.07,0,0,0,5.92,0,5.69,5.69,0,0,0,2.17-2.26A7.25,7.25,0,0,0,829.39,136.81Zm16.33-9a7.07,7.07,0,0,1,5.16,1.94,7.35,7.35,0,0,1,2,5.54v10.29H850V135.7a5.55,5.55,0,0,0-1.31-4,4.61,4.61,0,0,0-3.56-1.4,4.84,4.84,0,0,0-3.67,1.43,5.92,5.92,0,0,0-1.33,4.17v9.65h-2.9V128.12h2.9v2.48a5.81,5.81,0,0,1,2.32-2.07A7.48,7.48,0,0,1,845.72,127.8Zm13.36-2.51a1.93,1.93,0,0,1-1.4-.58,2,2,0,0,1,1.4-3.37,1.78,1.78,0,0,1,1.34.57,2,2,0,0,1,0,2.8A1.79,1.79,0,0,1,859.08,125.29Zm1.41,2.83v17.45h-2.9V128.12Zm20.86,8.06c0,.55,0,1.13-.1,1.75h-14A5.43,5.43,0,0,0,873,143.4a5.31,5.31,0,0,0,3.12-.86,4.62,4.62,0,0,0,1.78-2.35H881a7.64,7.64,0,0,1-2.81,4.11,8.51,8.51,0,0,1-5.22,1.56,9,9,0,0,1-4.46-1.12,7.91,7.91,0,0,1-3-3.15,9.84,9.84,0,0,1-1.12-4.78,10,10,0,0,1,1.08-4.74,7.54,7.54,0,0,1,3-3.12,9,9,0,0,1,4.52-1.12,8.64,8.64,0,0,1,4.39,1.09,7.27,7.27,0,0,1,2.93,3A8.48,8.48,0,0,1,881.35,136.18Zm-3-.61a5.23,5.23,0,0,0-.73-2.83,4.66,4.66,0,0,0-2-1.82,6,6,0,0,0-2.77-.64,5.4,5.4,0,0,0-3.75,1.41,5.74,5.74,0,0,0-1.76,3.88Zm13,10.29a9.31,9.31,0,0,1-3.6-.67,6.39,6.39,0,0,1-2.52-1.91,5.2,5.2,0,0,1-1-2.84h3a3,3,0,0,0,1.21,2.14,4.75,4.75,0,0,0,2.9.82,4.19,4.19,0,0,0,2.61-.73,2.24,2.24,0,0,0,1-1.84,1.78,1.78,0,0,0-1-1.69,13.68,13.68,0,0,0-3.15-1.12,26.23,26.23,0,0,1-3.18-1,6,6,0,0,1-2.1-1.56,4.49,4.49,0,0,1-.07-5.19,5.38,5.38,0,0,1,2.26-1.75,8.08,8.08,0,0,1,3.35-.67,7.13,7.13,0,0,1,4.68,1.47,5.27,5.27,0,0,1,1.91,4h-2.9a3,3,0,0,0-1.11-2.2,4.05,4.05,0,0,0-2.68-.83,4.17,4.17,0,0,0-2.48.67,2.07,2.07,0,0,0-.93,1.76,2,2,0,0,0,.55,1.43,4.48,4.48,0,0,0,1.4.89c.57.21,1.35.46,2.35.73a23.11,23.11,0,0,1,3.06,1,5.19,5.19,0,0,1,2,1.47,3.89,3.89,0,0,1,.89,2.58,4.4,4.4,0,0,1-.8,2.57,5.37,5.37,0,0,1-2.26,1.82A8.14,8.14,0,0,1,891.35,145.86Z"/></g></g></svg>